%TF.GenerationSoftware,KiCad,Pcbnew,5.1.5+dfsg1-2build2*%
%TF.CreationDate,2020-06-30T13:18:29+03:00*%
%TF.ProjectId,Lime2-SHIELD_RevB,4c696d65-322d-4534-9849-454c445f5265,D*%
%TF.SameCoordinates,Original*%
%TF.FileFunction,Legend,Bot*%
%TF.FilePolarity,Positive*%
%FSLAX46Y46*%
G04 Gerber Fmt 4.6, Leading zero omitted, Abs format (unit mm)*
G04 Created by KiCad (PCBNEW 5.1.5+dfsg1-2build2) date 2020-06-30 13:18:29*
%MOMM*%
%LPD*%
G04 APERTURE LIST*
%ADD10C,0.150000*%
%ADD11C,0.254000*%
%ADD12C,0.127000*%
%ADD13C,0.200000*%
%ADD14C,1.000000*%
%ADD15C,0.370000*%
%ADD16C,0.380000*%
%ADD17C,0.400000*%
%ADD18C,0.420000*%
%ADD19C,0.100000*%
%ADD20C,0.700000*%
%ADD21C,0.500000*%
%ADD22C,0.180000*%
G04 APERTURE END LIST*
D10*
X163271057Y-74696580D02*
X163604390Y-74220390D01*
X163842485Y-74696580D02*
X163842485Y-73696580D01*
X163461533Y-73696580D01*
X163366295Y-73744200D01*
X163318676Y-73791819D01*
X163271057Y-73887057D01*
X163271057Y-74029914D01*
X163318676Y-74125152D01*
X163366295Y-74172771D01*
X163461533Y-74220390D01*
X163842485Y-74220390D01*
X162699628Y-74696580D02*
X162794866Y-74648961D01*
X162842485Y-74601342D01*
X162890104Y-74506104D01*
X162890104Y-74220390D01*
X162842485Y-74125152D01*
X162794866Y-74077533D01*
X162699628Y-74029914D01*
X162556771Y-74029914D01*
X162461533Y-74077533D01*
X162413914Y-74125152D01*
X162366295Y-74220390D01*
X162366295Y-74506104D01*
X162413914Y-74601342D01*
X162461533Y-74648961D01*
X162556771Y-74696580D01*
X162699628Y-74696580D01*
X161937723Y-74696580D02*
X161937723Y-73696580D01*
X161937723Y-74172771D02*
X161366295Y-74172771D01*
X161366295Y-74696580D02*
X161366295Y-73696580D01*
X160937723Y-74648961D02*
X160794866Y-74696580D01*
X160556771Y-74696580D01*
X160461533Y-74648961D01*
X160413914Y-74601342D01*
X160366295Y-74506104D01*
X160366295Y-74410866D01*
X160413914Y-74315628D01*
X160461533Y-74268009D01*
X160556771Y-74220390D01*
X160747247Y-74172771D01*
X160842485Y-74125152D01*
X160890104Y-74077533D01*
X160937723Y-73982295D01*
X160937723Y-73887057D01*
X160890104Y-73791819D01*
X160842485Y-73744200D01*
X160747247Y-73696580D01*
X160509152Y-73696580D01*
X160366295Y-73744200D01*
X146341790Y-60624933D02*
X146389409Y-60577314D01*
X146484647Y-60434457D01*
X146532266Y-60339219D01*
X146579885Y-60196361D01*
X146627504Y-59958266D01*
X146627504Y-59767790D01*
X146579885Y-59529695D01*
X146532266Y-59386838D01*
X146484647Y-59291600D01*
X146389409Y-59148742D01*
X146341790Y-59101123D01*
X145532266Y-60196361D02*
X145627504Y-60243980D01*
X145817980Y-60243980D01*
X145913219Y-60196361D01*
X145960838Y-60148742D01*
X146008457Y-60053504D01*
X146008457Y-59767790D01*
X145960838Y-59672552D01*
X145913219Y-59624933D01*
X145817980Y-59577314D01*
X145627504Y-59577314D01*
X145532266Y-59624933D01*
X145198933Y-60624933D02*
X145151314Y-60577314D01*
X145056076Y-60434457D01*
X145008457Y-60339219D01*
X144960838Y-60196361D01*
X144913219Y-59958266D01*
X144913219Y-59767790D01*
X144960838Y-59529695D01*
X145008457Y-59386838D01*
X145056076Y-59291600D01*
X145151314Y-59148742D01*
X145198933Y-59101123D01*
X144484647Y-59339219D02*
X144437028Y-59291600D01*
X144341790Y-59243980D01*
X144103695Y-59243980D01*
X144008457Y-59291600D01*
X143960838Y-59339219D01*
X143913219Y-59434457D01*
X143913219Y-59529695D01*
X143960838Y-59672552D01*
X144532266Y-60243980D01*
X143913219Y-60243980D01*
X143294171Y-59243980D02*
X143198933Y-59243980D01*
X143103695Y-59291600D01*
X143056076Y-59339219D01*
X143008457Y-59434457D01*
X142960838Y-59624933D01*
X142960838Y-59863028D01*
X143008457Y-60053504D01*
X143056076Y-60148742D01*
X143103695Y-60196361D01*
X143198933Y-60243980D01*
X143294171Y-60243980D01*
X143389409Y-60196361D01*
X143437028Y-60148742D01*
X143484647Y-60053504D01*
X143532266Y-59863028D01*
X143532266Y-59624933D01*
X143484647Y-59434457D01*
X143437028Y-59339219D01*
X143389409Y-59291600D01*
X143294171Y-59243980D01*
X142579885Y-59339219D02*
X142532266Y-59291600D01*
X142437028Y-59243980D01*
X142198933Y-59243980D01*
X142103695Y-59291600D01*
X142056076Y-59339219D01*
X142008457Y-59434457D01*
X142008457Y-59529695D01*
X142056076Y-59672552D01*
X142627504Y-60243980D01*
X142008457Y-60243980D01*
X141389409Y-59243980D02*
X141294171Y-59243980D01*
X141198933Y-59291600D01*
X141151314Y-59339219D01*
X141103695Y-59434457D01*
X141056076Y-59624933D01*
X141056076Y-59863028D01*
X141103695Y-60053504D01*
X141151314Y-60148742D01*
X141198933Y-60196361D01*
X141294171Y-60243980D01*
X141389409Y-60243980D01*
X141484647Y-60196361D01*
X141532266Y-60148742D01*
X141579885Y-60053504D01*
X141627504Y-59863028D01*
X141627504Y-59624933D01*
X141579885Y-59434457D01*
X141532266Y-59339219D01*
X141484647Y-59291600D01*
X141389409Y-59243980D01*
X158897057Y-65692780D02*
X159373247Y-65692780D01*
X159373247Y-64692780D01*
X158563723Y-65692780D02*
X158563723Y-64692780D01*
X158087533Y-65692780D02*
X158087533Y-64692780D01*
X157754200Y-65407066D01*
X157420866Y-64692780D01*
X157420866Y-65692780D01*
X156944676Y-65168971D02*
X156611342Y-65168971D01*
X156468485Y-65692780D02*
X156944676Y-65692780D01*
X156944676Y-64692780D01*
X156468485Y-64692780D01*
X156087533Y-64788019D02*
X156039914Y-64740400D01*
X155944676Y-64692780D01*
X155706580Y-64692780D01*
X155611342Y-64740400D01*
X155563723Y-64788019D01*
X155516104Y-64883257D01*
X155516104Y-64978495D01*
X155563723Y-65121352D01*
X156135152Y-65692780D01*
X155516104Y-65692780D01*
X155087533Y-65311828D02*
X154325628Y-65311828D01*
X153897057Y-65645161D02*
X153754200Y-65692780D01*
X153516104Y-65692780D01*
X153420866Y-65645161D01*
X153373247Y-65597542D01*
X153325628Y-65502304D01*
X153325628Y-65407066D01*
X153373247Y-65311828D01*
X153420866Y-65264209D01*
X153516104Y-65216590D01*
X153706580Y-65168971D01*
X153801819Y-65121352D01*
X153849438Y-65073733D01*
X153897057Y-64978495D01*
X153897057Y-64883257D01*
X153849438Y-64788019D01*
X153801819Y-64740400D01*
X153706580Y-64692780D01*
X153468485Y-64692780D01*
X153325628Y-64740400D01*
X152897057Y-65692780D02*
X152897057Y-64692780D01*
X152897057Y-65168971D02*
X152325628Y-65168971D01*
X152325628Y-65692780D02*
X152325628Y-64692780D01*
X151849438Y-65692780D02*
X151849438Y-64692780D01*
X151373247Y-65168971D02*
X151039914Y-65168971D01*
X150897057Y-65692780D02*
X151373247Y-65692780D01*
X151373247Y-64692780D01*
X150897057Y-64692780D01*
X149992295Y-65692780D02*
X150468485Y-65692780D01*
X150468485Y-64692780D01*
X149658961Y-65692780D02*
X149658961Y-64692780D01*
X149420866Y-64692780D01*
X149278009Y-64740400D01*
X149182771Y-64835638D01*
X149135152Y-64930876D01*
X149087533Y-65121352D01*
X149087533Y-65264209D01*
X149135152Y-65454685D01*
X149182771Y-65549923D01*
X149278009Y-65645161D01*
X149420866Y-65692780D01*
X149658961Y-65692780D01*
X155492295Y-67342780D02*
X155825628Y-66866590D01*
X156063723Y-67342780D02*
X156063723Y-66342780D01*
X155682771Y-66342780D01*
X155587533Y-66390400D01*
X155539914Y-66438019D01*
X155492295Y-66533257D01*
X155492295Y-66676114D01*
X155539914Y-66771352D01*
X155587533Y-66818971D01*
X155682771Y-66866590D01*
X156063723Y-66866590D01*
X154682771Y-67295161D02*
X154778009Y-67342780D01*
X154968485Y-67342780D01*
X155063723Y-67295161D01*
X155111342Y-67199923D01*
X155111342Y-66818971D01*
X155063723Y-66723733D01*
X154968485Y-66676114D01*
X154778009Y-66676114D01*
X154682771Y-66723733D01*
X154635152Y-66818971D01*
X154635152Y-66914209D01*
X155111342Y-67009447D01*
X154301819Y-66676114D02*
X154063723Y-67342780D01*
X153825628Y-66676114D01*
X153444676Y-67247542D02*
X153397057Y-67295161D01*
X153444676Y-67342780D01*
X153492295Y-67295161D01*
X153444676Y-67247542D01*
X153444676Y-67342780D01*
X152397057Y-67247542D02*
X152444676Y-67295161D01*
X152587533Y-67342780D01*
X152682771Y-67342780D01*
X152825628Y-67295161D01*
X152920866Y-67199923D01*
X152968485Y-67104685D01*
X153016104Y-66914209D01*
X153016104Y-66771352D01*
X152968485Y-66580876D01*
X152920866Y-66485638D01*
X152825628Y-66390400D01*
X152682771Y-66342780D01*
X152587533Y-66342780D01*
X152444676Y-66390400D01*
X152397057Y-66438019D01*
D11*
%TO.C,GPIO4*%
X117984000Y-54743000D02*
X117984000Y-54870000D01*
X117984000Y-54870000D02*
X116460000Y-54870000D01*
X116460000Y-54870000D02*
X114936000Y-54870000D01*
X114936000Y-54870000D02*
X114936000Y-54743000D01*
X117984000Y-42297000D02*
X117984000Y-42170000D01*
X117984000Y-42170000D02*
X116460000Y-42170000D01*
X116460000Y-42170000D02*
X114936000Y-42170000D01*
X114936000Y-42170000D02*
X114936000Y-42297000D01*
X116460000Y-54870000D02*
X116460000Y-54235000D01*
X116460000Y-52965000D02*
X116460000Y-52330000D01*
X116460000Y-52330000D02*
X116460000Y-51060000D01*
X116460000Y-51060000D02*
X116460000Y-49790000D01*
X116460000Y-49790000D02*
X116460000Y-48520000D01*
X116460000Y-48520000D02*
X116460000Y-47250000D01*
X116460000Y-47250000D02*
X116460000Y-45980000D01*
X116460000Y-45980000D02*
X116460000Y-44710000D01*
X116460000Y-44710000D02*
X116460000Y-44075000D01*
X116460000Y-42805000D02*
X116460000Y-42170000D01*
X114936000Y-53727000D02*
X114936000Y-53600000D01*
X114936000Y-53600000D02*
X114936000Y-53473000D01*
X114936000Y-52457000D02*
X114936000Y-52330000D01*
X114936000Y-52330000D02*
X114936000Y-52203000D01*
X114936000Y-51187000D02*
X114936000Y-51060000D01*
X114936000Y-51060000D02*
X114936000Y-50933000D01*
X114936000Y-49917000D02*
X114936000Y-49790000D01*
X114936000Y-49790000D02*
X114936000Y-49663000D01*
X114936000Y-48647000D02*
X114936000Y-48520000D01*
X114936000Y-48520000D02*
X114936000Y-48393000D01*
X114936000Y-47377000D02*
X114936000Y-47250000D01*
X114936000Y-47250000D02*
X114936000Y-47123000D01*
X114936000Y-46107000D02*
X114936000Y-45980000D01*
X114936000Y-45980000D02*
X114936000Y-45853000D01*
X114936000Y-44837000D02*
X114936000Y-44710000D01*
X114936000Y-44710000D02*
X114936000Y-44583000D01*
X114936000Y-43567000D02*
X114936000Y-43440000D01*
X114936000Y-43440000D02*
X114936000Y-43313000D01*
X117984000Y-43567000D02*
X117984000Y-43313000D01*
X117984000Y-44837000D02*
X117984000Y-44710000D01*
X117984000Y-44710000D02*
X117984000Y-44583000D01*
X117984000Y-46107000D02*
X117984000Y-45980000D01*
X117984000Y-45980000D02*
X117984000Y-45853000D01*
X117984000Y-47377000D02*
X117984000Y-47250000D01*
X117984000Y-47250000D02*
X117984000Y-47123000D01*
X117984000Y-48647000D02*
X117984000Y-48520000D01*
X117984000Y-48520000D02*
X117984000Y-48393000D01*
X117984000Y-49917000D02*
X117984000Y-49790000D01*
X117984000Y-49790000D02*
X117984000Y-49663000D01*
X117984000Y-51187000D02*
X117984000Y-51060000D01*
X117984000Y-51060000D02*
X117984000Y-50933000D01*
X117984000Y-52457000D02*
X117984000Y-52330000D01*
X117984000Y-52330000D02*
X117984000Y-52203000D01*
X117984000Y-53727000D02*
X117984000Y-53600000D01*
X117984000Y-53600000D02*
X117984000Y-53473000D01*
X114936000Y-53600000D02*
X115825000Y-53600000D01*
X114936000Y-52330000D02*
X116460000Y-52330000D01*
X114936000Y-51060000D02*
X116460000Y-51060000D01*
X114936000Y-49790000D02*
X116460000Y-49790000D01*
X114936000Y-48520000D02*
X116460000Y-48520000D01*
X114936000Y-47250000D02*
X116460000Y-47250000D01*
X114936000Y-45980000D02*
X116460000Y-45980000D01*
X114936000Y-44710000D02*
X116460000Y-44710000D01*
X117095000Y-53600000D02*
X117984000Y-53600000D01*
X116460000Y-52330000D02*
X117984000Y-52330000D01*
X116460000Y-51060000D02*
X117984000Y-51060000D01*
X116460000Y-49790000D02*
X117984000Y-49790000D01*
X116460000Y-48520000D02*
X117984000Y-48520000D01*
X116460000Y-47250000D02*
X117984000Y-47250000D01*
X116460000Y-45980000D02*
X117984000Y-45980000D01*
X116460000Y-44710000D02*
X117984000Y-44710000D01*
X114936000Y-43440000D02*
X115825000Y-43440000D01*
X117095000Y-43440000D02*
X117984000Y-43440000D01*
D12*
%TO.C,*%
X113614200Y-93853000D02*
G75*
G03X113614200Y-93853000I-127000J0D01*
G01*
D11*
X113360200Y-90551000D02*
G75*
G02X115646200Y-90551000I1143000J-1143000D01*
G01*
X114630200Y-89789000D02*
X114630200Y-89916000D01*
X114630200Y-89916000D02*
X114249200Y-89916000D01*
X114249200Y-89916000D02*
X114249200Y-89789000D01*
X114249200Y-89789000D02*
X114630200Y-89789000D01*
X114503200Y-91313000D02*
X113868200Y-91313000D01*
X114630200Y-91186000D02*
X113741200Y-91186000D01*
X113741200Y-91186000D02*
X113741200Y-91567000D01*
X113741200Y-91567000D02*
X114630200Y-91567000D01*
X114630200Y-91567000D02*
X114630200Y-91186000D01*
X113233200Y-91186000D02*
X113233200Y-90805000D01*
X113233200Y-90805000D02*
X113106200Y-90805000D01*
X113106200Y-90805000D02*
X113106200Y-91186000D01*
X113233200Y-90805000D02*
X113233200Y-90932000D01*
X113233200Y-90678000D02*
X113106200Y-91059000D01*
X113233200Y-90805000D02*
X113233200Y-90932000D01*
X113360200Y-90678000D02*
X113360200Y-91186000D01*
X113360200Y-91186000D02*
X112979200Y-91186000D01*
X112979200Y-91186000D02*
X112979200Y-90678000D01*
X115392200Y-90551000D02*
X115392200Y-90043000D01*
X115392200Y-90043000D02*
X115265200Y-90043000D01*
X115265200Y-90043000D02*
X115265200Y-90551000D01*
X113888809Y-93853000D02*
G75*
G03X113888809Y-93853000I-401609J0D01*
G01*
X113487200Y-93345000D02*
X113360200Y-91313000D01*
X115392200Y-93853000D02*
X115392200Y-94234000D01*
X115392200Y-94234000D02*
X114884200Y-94234000D01*
X114884200Y-94234000D02*
X114884200Y-93980000D01*
X115900200Y-90678000D02*
X112979200Y-90678000D01*
X115392200Y-93853000D02*
X115646200Y-90805000D01*
X115392200Y-93853000D02*
X113995200Y-93853000D01*
X116408200Y-94234000D02*
X112344200Y-90297000D01*
X116535200Y-90170000D02*
X112344200Y-94361000D01*
D10*
X116690400Y-95606400D02*
X112270800Y-95606400D01*
X112270800Y-95504800D02*
X116639600Y-95504800D01*
X116690400Y-95301600D02*
X112220000Y-95301600D01*
X116690400Y-95149200D02*
X112270800Y-95149200D01*
X112220000Y-95403200D02*
X116639600Y-95403200D01*
X112220000Y-95250800D02*
X116639600Y-95250800D01*
X116690400Y-95098400D02*
X112220000Y-95098400D01*
X112220000Y-94996800D02*
X116639600Y-94996800D01*
X112169200Y-95708000D02*
X116741200Y-95708000D01*
X116741200Y-95708000D02*
X116741200Y-94946000D01*
X116741200Y-94946000D02*
X112169200Y-94946000D01*
X112169200Y-94946000D02*
X112169200Y-95708000D01*
D13*
X160840420Y-72547480D02*
X163273740Y-70126860D01*
D11*
X163803437Y-71384160D02*
G75*
G03X163803437Y-71384160I-1802237J0D01*
G01*
D14*
X137393680Y-77597000D02*
X137060940Y-78328520D01*
X137393680Y-77688440D02*
X136212580Y-78701900D01*
X137279380Y-77551280D02*
X136662160Y-77878940D01*
X136959340Y-77132180D02*
X136349740Y-77238860D01*
X136123680Y-75973940D02*
X136845040Y-76121260D01*
X136364980Y-75280520D02*
X137020300Y-75646280D01*
X137233660Y-74411840D02*
X137652760Y-74998580D01*
X137820400Y-74160380D02*
X138041380Y-74846180D01*
X139085320Y-74145140D02*
X138917680Y-74754740D01*
X139519660Y-74404220D02*
X139344400Y-74762360D01*
X140517880Y-75181460D02*
X140060680Y-75471020D01*
X140693140Y-75661520D02*
X140251180Y-75821540D01*
X141018260Y-76906120D02*
X140312140Y-76779120D01*
X140769340Y-77551280D02*
X140205460Y-77071220D01*
X140103860Y-78450440D02*
X139738100Y-77688440D01*
X135313420Y-76398120D02*
X136781540Y-76484480D01*
X136304020Y-74213720D02*
X137416540Y-75280520D01*
X138569700Y-73157080D02*
X138564620Y-74670920D01*
X140830300Y-74132440D02*
X139768580Y-75239880D01*
X141815820Y-76418440D02*
X140398500Y-76357480D01*
X140779500Y-78623160D02*
X139926060Y-77602080D01*
D10*
X139763500Y-77193140D02*
X139456160Y-77459840D01*
X140093700Y-74279760D02*
X139110720Y-73787000D01*
X137914380Y-77784960D02*
X138036300Y-77500480D01*
X137777220Y-77330300D02*
X138031220Y-77495400D01*
X139278360Y-77327760D02*
X139052300Y-77503020D01*
X139646660Y-77213460D02*
X139387580Y-77551280D01*
X139870180Y-76992480D02*
X139776200Y-77162660D01*
X139870180Y-76992480D02*
X139776200Y-77162660D01*
X140007340Y-76139040D02*
X139875260Y-76962000D01*
X139583160Y-75402440D02*
X140002260Y-76133960D01*
X138711940Y-74973180D02*
X139583160Y-75402440D01*
X137896600Y-75140820D02*
X138711940Y-74980800D01*
X137386060Y-75570080D02*
X137896600Y-75140820D01*
X137152380Y-76243180D02*
X137386060Y-75570080D01*
X137157460Y-76748640D02*
X137157460Y-76230480D01*
X137533380Y-77459840D02*
X137157460Y-76748640D01*
X137711180Y-77581760D02*
X137533380Y-77459840D01*
X140982700Y-73560940D02*
X140098780Y-74282300D01*
X140738860Y-74914760D02*
X141340840Y-74005440D01*
X140743940Y-74909680D02*
X141130020Y-75907900D01*
X142273020Y-76177140D02*
X141157960Y-75930760D01*
X142130780Y-76121260D02*
X142130780Y-76771500D01*
X137754360Y-77523340D02*
X137226040Y-78905100D01*
X137363200Y-79202280D02*
X137749280Y-78221840D01*
X136834880Y-78874620D02*
X137363200Y-79202280D01*
X136151620Y-79207360D02*
X136972040Y-78679040D01*
X137015220Y-78902560D02*
X136138920Y-79522320D01*
X136128760Y-79517240D02*
X135445500Y-78826360D01*
X135732520Y-78742540D02*
X136217660Y-79273400D01*
X135699500Y-77106780D02*
X136080500Y-78087220D01*
X135803640Y-77139800D02*
X134680960Y-76928980D01*
X134665720Y-75951080D02*
X134668260Y-76908660D01*
X134749540Y-76692760D02*
X135856980Y-76916280D01*
X136052560Y-74922380D02*
X135686800Y-75791060D01*
X135437880Y-74041000D02*
X136141460Y-75031600D01*
X136136380Y-73342500D02*
X135442960Y-74033380D01*
X137152380Y-74018140D02*
X136141460Y-73345040D01*
X137838180Y-73632060D02*
X137033000Y-73969880D01*
X138054080Y-72542400D02*
X137828020Y-73713340D01*
X139019280Y-72542400D02*
X138054080Y-72542400D01*
X139029440Y-72550020D02*
X139230100Y-73576180D01*
X140017500Y-73944480D02*
X139113260Y-73566020D01*
X140952220Y-73296780D02*
X139981940Y-74013060D01*
X141638020Y-74013060D02*
X140964920Y-73299320D01*
X141617700Y-74048620D02*
X141023340Y-74902060D01*
X141356080Y-75732640D02*
X141020800Y-74899520D01*
X142425420Y-75930760D02*
X141254480Y-75727560D01*
X142422880Y-75933300D02*
X142422880Y-76918820D01*
X142422880Y-76926440D02*
X141351000Y-77122020D01*
X141660880Y-78833980D02*
X141063980Y-77970380D01*
X140931900Y-79529940D02*
X141653260Y-78836520D01*
X140098780Y-78958440D02*
X140924280Y-79522320D01*
X140086080Y-78968600D02*
X139740640Y-79189580D01*
X139702540Y-79171800D02*
X139052300Y-77503020D01*
D15*
X136136380Y-79362300D02*
X135582660Y-78816200D01*
X136202420Y-77922120D02*
X135582660Y-78808580D01*
X139458700Y-75524360D02*
G75*
G02X139382500Y-77378560I-965200J-889000D01*
G01*
X137507980Y-75697080D02*
G75*
G02X139433300Y-75498960I1061720J-863600D01*
G01*
X137888980Y-77546200D02*
G75*
G02X137518140Y-75681840I746760J1117600D01*
G01*
X137325100Y-78988920D02*
X137899140Y-77548740D01*
X136987280Y-78803500D02*
X137325100Y-78988920D01*
X136151620Y-79369920D02*
X136987280Y-78803500D01*
X135796020Y-77010260D02*
X136202420Y-77922120D01*
X134782560Y-76840080D02*
X135796020Y-77010260D01*
X134782560Y-76004420D02*
X134782560Y-76840080D01*
X135864600Y-75775820D02*
X134782560Y-76004420D01*
X136204960Y-74838560D02*
X135864600Y-75775820D01*
X135587740Y-74048620D02*
X136204960Y-74838560D01*
X136141460Y-73499980D02*
X135587740Y-74046080D01*
X137045700Y-74132440D02*
X136141460Y-73498000D01*
X137960100Y-73687940D02*
X137058400Y-74137520D01*
X138173460Y-72669400D02*
X137960100Y-73687940D01*
X138940540Y-72649080D02*
X138155680Y-72649080D01*
X138932920Y-72661780D02*
X139138660Y-73675240D01*
X140037820Y-74101960D02*
X139192000Y-73695560D01*
X140926820Y-73459340D02*
X140098780Y-74112120D01*
D16*
X141475460Y-74018140D02*
X140975080Y-73484740D01*
D15*
X141465300Y-74041000D02*
X140909040Y-74891900D01*
X141236700Y-75808840D02*
X140888720Y-74942700D01*
X142285720Y-76024740D02*
X141267180Y-75844400D01*
D16*
X142273020Y-76037440D02*
X142278100Y-76824840D01*
D15*
X142283180Y-76814680D02*
X141333220Y-77033120D01*
X141305280Y-77055980D02*
X140947140Y-77939900D01*
X141480540Y-78816200D02*
X140947140Y-77983080D01*
D16*
X141495780Y-78816200D02*
X140931900Y-79354680D01*
D17*
X140919200Y-79354680D02*
X140139420Y-78823820D01*
D15*
X140129260Y-78806040D02*
X139811760Y-79011780D01*
D18*
X139783820Y-78991460D02*
X139232640Y-77569060D01*
D19*
X151015700Y-57962800D02*
X149644100Y-57962800D01*
X149644100Y-57962800D02*
X149593300Y-57962800D01*
X149593300Y-57962800D02*
X148336000Y-59207400D01*
X152539700Y-58077100D02*
X152438100Y-58077100D01*
X152387300Y-58013600D02*
X152387300Y-58000900D01*
X152387300Y-58000900D02*
X153682700Y-58000900D01*
X153682700Y-58000900D02*
X153708100Y-58000900D01*
X153708100Y-58000900D02*
X154330400Y-58496200D01*
X152387300Y-61023500D02*
X152387300Y-58013600D01*
X156044900Y-58064400D02*
X156121100Y-58064400D01*
X156197300Y-58000900D02*
X154952700Y-58000900D01*
X154952700Y-58000900D02*
X154368500Y-58483500D01*
X156197300Y-60998100D02*
X156197300Y-58013600D01*
X156933900Y-60591700D02*
X156845000Y-60591700D01*
X157276800Y-60591700D02*
X157340300Y-60591700D01*
X157416500Y-60655200D02*
X156806900Y-60655200D01*
X156806900Y-60655200D02*
X156781500Y-60655200D01*
X156781500Y-60655200D02*
X156781500Y-58635900D01*
X157416500Y-58635900D02*
X157416500Y-60655200D01*
X158915100Y-58026300D02*
X158800800Y-58026300D01*
X159042100Y-57950100D02*
X158737300Y-57950100D01*
X158737300Y-57950100D02*
X158737300Y-60985400D01*
X159219900Y-58039000D02*
X159283400Y-58026300D01*
X159334200Y-57950100D02*
X159346900Y-57950100D01*
X159346900Y-57950100D02*
X159359600Y-57950100D01*
X159359600Y-57950100D02*
X159359600Y-61099700D01*
X159054800Y-57950100D02*
X159334200Y-57950100D01*
D20*
X159054800Y-61023500D02*
X159054800Y-58293000D01*
X152717500Y-58305700D02*
X152717500Y-60909200D01*
X160832800Y-58293000D02*
X161836100Y-58293000D01*
X160210500Y-58902600D02*
X160210500Y-60833000D01*
X162433000Y-58940700D02*
X162433000Y-59182000D01*
X162433000Y-60909200D02*
X161848800Y-61480700D01*
X162420300Y-60921900D02*
X162420300Y-60159900D01*
X161861500Y-61480700D02*
X160820100Y-61480700D01*
D17*
X150092659Y-59867800D02*
G75*
G03X150092659Y-59867800I-359659J0D01*
G01*
D20*
X150241000Y-59867800D02*
X151460200Y-59867800D01*
D17*
X147158735Y-58127900D02*
G75*
G03X147158735Y-58127900I-359435J0D01*
G01*
D20*
X147167600Y-58483500D02*
X148031200Y-59377200D01*
D21*
X148590000Y-59474100D02*
X148031200Y-59474100D01*
D20*
X149707600Y-58293000D02*
X148615400Y-59359800D01*
X150929500Y-58293000D02*
X149707600Y-58293000D01*
X151460200Y-58775600D02*
X150977600Y-58267600D01*
X151460200Y-58801000D02*
X151460200Y-61036200D01*
X151460200Y-61036200D02*
X151028400Y-61468000D01*
X151028400Y-61468000D02*
X149707600Y-61468000D01*
X149707600Y-61468000D02*
X148564600Y-60350400D01*
D21*
X148564600Y-60248800D02*
X148031200Y-60248800D01*
D20*
X147218400Y-61163200D02*
X148056600Y-60350400D01*
D17*
X147217666Y-61518800D02*
G75*
G03X147217666Y-61518800I-329466J0D01*
G01*
X153080729Y-61429900D02*
G75*
G03X153080729Y-61429900I-363229J0D01*
G01*
D20*
X153619200Y-58318400D02*
X152730200Y-58318400D01*
D17*
X154701318Y-60147200D02*
G75*
G03X154701318Y-60147200I-370918J0D01*
G01*
D20*
X154254200Y-58826400D02*
X153619200Y-58318400D01*
X154330400Y-59613800D02*
X154330400Y-58902600D01*
X155041600Y-58318400D02*
X154432000Y-58826400D01*
X155879800Y-58318400D02*
X155041600Y-58318400D01*
X155879800Y-60909200D02*
X155879800Y-58318400D01*
D17*
X156226759Y-61417200D02*
G75*
G03X156226759Y-61417200I-359659J0D01*
G01*
X157459818Y-58216800D02*
G75*
G03X157459818Y-58216800I-373518J0D01*
G01*
D20*
X157099000Y-58750200D02*
X157099000Y-60350400D01*
D17*
X157465324Y-61442600D02*
G75*
G03X157465324Y-61442600I-366324J0D01*
G01*
D20*
X157611800Y-61468000D02*
X158597600Y-61468000D01*
X158597600Y-61468000D02*
X159054800Y-61010800D01*
X160223200Y-60871100D02*
X160782000Y-61455300D01*
X160832800Y-58305700D02*
X160197800Y-58915300D01*
X162433000Y-58889900D02*
X161925000Y-58381900D01*
D17*
X162757747Y-59664600D02*
G75*
G03X162757747Y-59664600I-337447J0D01*
G01*
D11*
%TO.C,GPIO1*%
X154686000Y-49911000D02*
X152400000Y-49911000D01*
X152400000Y-52959000D02*
X154686000Y-52959000D01*
X124714000Y-49911000D02*
X127000000Y-49911000D01*
X127000000Y-52959000D02*
X124714000Y-52959000D01*
X154686000Y-52959000D02*
X154686000Y-49911000D01*
X124714000Y-52959000D02*
X124714000Y-49911000D01*
X151130000Y-52197000D02*
X151130000Y-52959000D01*
X151130000Y-49911000D02*
X151130000Y-50673000D01*
X149860000Y-51435000D02*
X149860000Y-52959000D01*
X148590000Y-51435000D02*
X148590000Y-52959000D01*
X147320000Y-51435000D02*
X147320000Y-52959000D01*
X146050000Y-51435000D02*
X146050000Y-52959000D01*
X144780000Y-51435000D02*
X144780000Y-52959000D01*
X143510000Y-51435000D02*
X143510000Y-52959000D01*
X142240000Y-51435000D02*
X142240000Y-52959000D01*
X140970000Y-51435000D02*
X140970000Y-52959000D01*
X149860000Y-49911000D02*
X149860000Y-51435000D01*
X148590000Y-49911000D02*
X148590000Y-51435000D01*
X147320000Y-49911000D02*
X147320000Y-51435000D01*
X146050000Y-49911000D02*
X146050000Y-51435000D01*
X144780000Y-49911000D02*
X144780000Y-51435000D01*
X143510000Y-49911000D02*
X143510000Y-51435000D01*
X142240000Y-49911000D02*
X142240000Y-51435000D01*
X140970000Y-49911000D02*
X140970000Y-51435000D01*
X140970000Y-52959000D02*
X141097000Y-52959000D01*
X140843000Y-52959000D02*
X140970000Y-52959000D01*
X142240000Y-52959000D02*
X142367000Y-52959000D01*
X142113000Y-52959000D02*
X142240000Y-52959000D01*
X143510000Y-52959000D02*
X143637000Y-52959000D01*
X143383000Y-52959000D02*
X143510000Y-52959000D01*
X144780000Y-52959000D02*
X144907000Y-52959000D01*
X144653000Y-52959000D02*
X144780000Y-52959000D01*
X146050000Y-52959000D02*
X146177000Y-52959000D01*
X145923000Y-52959000D02*
X146050000Y-52959000D01*
X147320000Y-52959000D02*
X147447000Y-52959000D01*
X147193000Y-52959000D02*
X147320000Y-52959000D01*
X148590000Y-52959000D02*
X148717000Y-52959000D01*
X148463000Y-52959000D02*
X148590000Y-52959000D01*
X149860000Y-52959000D02*
X149987000Y-52959000D01*
X149733000Y-52959000D02*
X149860000Y-52959000D01*
X151003000Y-52959000D02*
X151257000Y-52959000D01*
X151130000Y-49911000D02*
X151257000Y-49911000D01*
X151003000Y-49911000D02*
X151130000Y-49911000D01*
X149860000Y-49911000D02*
X149987000Y-49911000D01*
X149733000Y-49911000D02*
X149860000Y-49911000D01*
X148590000Y-49911000D02*
X148717000Y-49911000D01*
X148463000Y-49911000D02*
X148590000Y-49911000D01*
X147320000Y-49911000D02*
X147447000Y-49911000D01*
X147193000Y-49911000D02*
X147320000Y-49911000D01*
X146050000Y-49911000D02*
X146177000Y-49911000D01*
X145923000Y-49911000D02*
X146050000Y-49911000D01*
X144780000Y-49911000D02*
X144907000Y-49911000D01*
X144653000Y-49911000D02*
X144780000Y-49911000D01*
X143510000Y-49911000D02*
X143637000Y-49911000D01*
X143383000Y-49911000D02*
X143510000Y-49911000D01*
X142240000Y-49911000D02*
X142367000Y-49911000D01*
X142113000Y-49911000D02*
X142240000Y-49911000D01*
X140970000Y-49911000D02*
X141097000Y-49911000D01*
X140843000Y-49911000D02*
X140970000Y-49911000D01*
X151892000Y-51435000D02*
X152400000Y-51435000D01*
X149860000Y-51435000D02*
X150368000Y-51435000D01*
X148590000Y-51435000D02*
X149860000Y-51435000D01*
X147320000Y-51435000D02*
X148590000Y-51435000D01*
X146050000Y-51435000D02*
X147320000Y-51435000D01*
X144780000Y-51435000D02*
X146050000Y-51435000D01*
X143510000Y-51435000D02*
X144780000Y-51435000D01*
X142240000Y-51435000D02*
X143510000Y-51435000D01*
X140970000Y-51435000D02*
X142240000Y-51435000D01*
X139700000Y-51435000D02*
X140970000Y-51435000D01*
X152400000Y-49911000D02*
X152273000Y-49911000D01*
X152400000Y-51435000D02*
X152400000Y-49911000D01*
X152400000Y-52959000D02*
X152400000Y-51435000D01*
X152273000Y-52959000D02*
X152400000Y-52959000D01*
X139700000Y-49911000D02*
X139827000Y-49911000D01*
X139827000Y-52959000D02*
X139700000Y-52959000D01*
D12*
X151511000Y-50546000D02*
X151511000Y-51054000D01*
X151511000Y-51054000D02*
X152019000Y-51054000D01*
X152019000Y-50546000D02*
X152019000Y-51054000D01*
X151511000Y-50546000D02*
X152019000Y-50546000D01*
X150241000Y-50546000D02*
X150241000Y-51054000D01*
X150241000Y-51054000D02*
X150749000Y-51054000D01*
X150749000Y-50546000D02*
X150749000Y-51054000D01*
X150241000Y-50546000D02*
X150749000Y-50546000D01*
X148971000Y-50546000D02*
X148971000Y-51054000D01*
X148971000Y-51054000D02*
X149479000Y-51054000D01*
X149479000Y-50546000D02*
X149479000Y-51054000D01*
X148971000Y-50546000D02*
X149479000Y-50546000D01*
X147701000Y-50546000D02*
X147701000Y-51054000D01*
X147701000Y-51054000D02*
X148209000Y-51054000D01*
X148209000Y-50546000D02*
X148209000Y-51054000D01*
X147701000Y-50546000D02*
X148209000Y-50546000D01*
X146431000Y-50546000D02*
X146431000Y-51054000D01*
X146431000Y-51054000D02*
X146939000Y-51054000D01*
X146939000Y-50546000D02*
X146939000Y-51054000D01*
X146431000Y-50546000D02*
X146939000Y-50546000D01*
X145161000Y-50546000D02*
X145161000Y-51054000D01*
X145161000Y-51054000D02*
X145669000Y-51054000D01*
X145669000Y-50546000D02*
X145669000Y-51054000D01*
X145161000Y-50546000D02*
X145669000Y-50546000D01*
X143891000Y-50546000D02*
X143891000Y-51054000D01*
X143891000Y-51054000D02*
X144399000Y-51054000D01*
X144399000Y-50546000D02*
X144399000Y-51054000D01*
X143891000Y-50546000D02*
X144399000Y-50546000D01*
X142621000Y-50546000D02*
X142621000Y-51054000D01*
X142621000Y-51054000D02*
X143129000Y-51054000D01*
X143129000Y-50546000D02*
X143129000Y-51054000D01*
X142621000Y-50546000D02*
X143129000Y-50546000D01*
X141351000Y-50546000D02*
X141351000Y-51054000D01*
X141351000Y-51054000D02*
X141859000Y-51054000D01*
X141859000Y-50546000D02*
X141859000Y-51054000D01*
X141351000Y-50546000D02*
X141859000Y-50546000D01*
X140081000Y-50546000D02*
X140081000Y-51054000D01*
X140081000Y-51054000D02*
X140589000Y-51054000D01*
X140589000Y-50546000D02*
X140589000Y-51054000D01*
X140081000Y-50546000D02*
X140589000Y-50546000D01*
X151511000Y-51816000D02*
X151511000Y-52324000D01*
X151511000Y-52324000D02*
X152019000Y-52324000D01*
X152019000Y-51816000D02*
X152019000Y-52324000D01*
X151511000Y-51816000D02*
X152019000Y-51816000D01*
X150241000Y-51816000D02*
X150241000Y-52324000D01*
X150241000Y-52324000D02*
X150749000Y-52324000D01*
X150749000Y-51816000D02*
X150749000Y-52324000D01*
X150241000Y-51816000D02*
X150749000Y-51816000D01*
X148971000Y-51816000D02*
X148971000Y-52324000D01*
X148971000Y-52324000D02*
X149479000Y-52324000D01*
X149479000Y-51816000D02*
X149479000Y-52324000D01*
X148971000Y-51816000D02*
X149479000Y-51816000D01*
X147701000Y-51816000D02*
X147701000Y-52324000D01*
X147701000Y-52324000D02*
X148209000Y-52324000D01*
X148209000Y-51816000D02*
X148209000Y-52324000D01*
X147701000Y-51816000D02*
X148209000Y-51816000D01*
X146431000Y-51816000D02*
X146431000Y-52324000D01*
X146431000Y-52324000D02*
X146939000Y-52324000D01*
X146939000Y-51816000D02*
X146939000Y-52324000D01*
X146431000Y-51816000D02*
X146939000Y-51816000D01*
X145161000Y-51816000D02*
X145161000Y-52324000D01*
X145161000Y-52324000D02*
X145669000Y-52324000D01*
X145669000Y-51816000D02*
X145669000Y-52324000D01*
X145161000Y-51816000D02*
X145669000Y-51816000D01*
X143891000Y-51816000D02*
X143891000Y-52324000D01*
X143891000Y-52324000D02*
X144399000Y-52324000D01*
X144399000Y-51816000D02*
X144399000Y-52324000D01*
X143891000Y-51816000D02*
X144399000Y-51816000D01*
X142621000Y-51816000D02*
X142621000Y-52324000D01*
X142621000Y-52324000D02*
X143129000Y-52324000D01*
X143129000Y-51816000D02*
X143129000Y-52324000D01*
X142621000Y-51816000D02*
X143129000Y-51816000D01*
X141351000Y-51816000D02*
X141351000Y-52324000D01*
X141351000Y-52324000D02*
X141859000Y-52324000D01*
X141859000Y-51816000D02*
X141859000Y-52324000D01*
X141351000Y-51816000D02*
X141859000Y-51816000D01*
X140081000Y-51816000D02*
X140081000Y-52324000D01*
X140081000Y-52324000D02*
X140589000Y-52324000D01*
X140589000Y-51816000D02*
X140589000Y-52324000D01*
X140081000Y-51816000D02*
X140589000Y-51816000D01*
X127381000Y-51816000D02*
X127889000Y-51816000D01*
X127889000Y-51816000D02*
X127889000Y-52324000D01*
X127381000Y-52324000D02*
X127889000Y-52324000D01*
X127381000Y-51816000D02*
X127381000Y-52324000D01*
X128651000Y-51816000D02*
X129159000Y-51816000D01*
X129159000Y-51816000D02*
X129159000Y-52324000D01*
X128651000Y-52324000D02*
X129159000Y-52324000D01*
X128651000Y-51816000D02*
X128651000Y-52324000D01*
X129921000Y-51816000D02*
X130429000Y-51816000D01*
X130429000Y-51816000D02*
X130429000Y-52324000D01*
X129921000Y-52324000D02*
X130429000Y-52324000D01*
X129921000Y-51816000D02*
X129921000Y-52324000D01*
X131191000Y-51816000D02*
X131699000Y-51816000D01*
X131699000Y-51816000D02*
X131699000Y-52324000D01*
X131191000Y-52324000D02*
X131699000Y-52324000D01*
X131191000Y-51816000D02*
X131191000Y-52324000D01*
X132461000Y-51816000D02*
X132969000Y-51816000D01*
X132969000Y-51816000D02*
X132969000Y-52324000D01*
X132461000Y-52324000D02*
X132969000Y-52324000D01*
X132461000Y-51816000D02*
X132461000Y-52324000D01*
X133731000Y-51816000D02*
X134239000Y-51816000D01*
X134239000Y-51816000D02*
X134239000Y-52324000D01*
X133731000Y-52324000D02*
X134239000Y-52324000D01*
X133731000Y-51816000D02*
X133731000Y-52324000D01*
X135001000Y-51816000D02*
X135509000Y-51816000D01*
X135509000Y-51816000D02*
X135509000Y-52324000D01*
X135001000Y-52324000D02*
X135509000Y-52324000D01*
X135001000Y-51816000D02*
X135001000Y-52324000D01*
X136271000Y-51816000D02*
X136779000Y-51816000D01*
X136779000Y-51816000D02*
X136779000Y-52324000D01*
X136271000Y-52324000D02*
X136779000Y-52324000D01*
X136271000Y-51816000D02*
X136271000Y-52324000D01*
X137541000Y-51816000D02*
X138049000Y-51816000D01*
X138049000Y-51816000D02*
X138049000Y-52324000D01*
X137541000Y-52324000D02*
X138049000Y-52324000D01*
X137541000Y-51816000D02*
X137541000Y-52324000D01*
X138811000Y-51816000D02*
X139319000Y-51816000D01*
X139319000Y-51816000D02*
X139319000Y-52324000D01*
X138811000Y-52324000D02*
X139319000Y-52324000D01*
X138811000Y-51816000D02*
X138811000Y-52324000D01*
X127381000Y-50546000D02*
X127889000Y-50546000D01*
X127889000Y-50546000D02*
X127889000Y-51054000D01*
X127381000Y-51054000D02*
X127889000Y-51054000D01*
X127381000Y-50546000D02*
X127381000Y-51054000D01*
X128651000Y-50546000D02*
X129159000Y-50546000D01*
X129159000Y-50546000D02*
X129159000Y-51054000D01*
X128651000Y-51054000D02*
X129159000Y-51054000D01*
X128651000Y-50546000D02*
X128651000Y-51054000D01*
X129921000Y-50546000D02*
X130429000Y-50546000D01*
X130429000Y-50546000D02*
X130429000Y-51054000D01*
X129921000Y-51054000D02*
X130429000Y-51054000D01*
X129921000Y-50546000D02*
X129921000Y-51054000D01*
X131191000Y-50546000D02*
X131699000Y-50546000D01*
X131699000Y-50546000D02*
X131699000Y-51054000D01*
X131191000Y-51054000D02*
X131699000Y-51054000D01*
X131191000Y-50546000D02*
X131191000Y-51054000D01*
X132461000Y-50546000D02*
X132969000Y-50546000D01*
X132969000Y-50546000D02*
X132969000Y-51054000D01*
X132461000Y-51054000D02*
X132969000Y-51054000D01*
X132461000Y-50546000D02*
X132461000Y-51054000D01*
X133731000Y-50546000D02*
X134239000Y-50546000D01*
X134239000Y-50546000D02*
X134239000Y-51054000D01*
X133731000Y-51054000D02*
X134239000Y-51054000D01*
X133731000Y-50546000D02*
X133731000Y-51054000D01*
X135001000Y-50546000D02*
X135509000Y-50546000D01*
X135509000Y-50546000D02*
X135509000Y-51054000D01*
X135001000Y-51054000D02*
X135509000Y-51054000D01*
X135001000Y-50546000D02*
X135001000Y-51054000D01*
X136271000Y-50546000D02*
X136779000Y-50546000D01*
X136779000Y-50546000D02*
X136779000Y-51054000D01*
X136271000Y-51054000D02*
X136779000Y-51054000D01*
X136271000Y-50546000D02*
X136271000Y-51054000D01*
X137541000Y-50546000D02*
X138049000Y-50546000D01*
X138049000Y-50546000D02*
X138049000Y-51054000D01*
X137541000Y-51054000D02*
X138049000Y-51054000D01*
X137541000Y-50546000D02*
X137541000Y-51054000D01*
X138811000Y-50546000D02*
X139319000Y-50546000D01*
X139319000Y-50546000D02*
X139319000Y-51054000D01*
X138811000Y-51054000D02*
X139319000Y-51054000D01*
X138811000Y-50546000D02*
X138811000Y-51054000D01*
D11*
X127127000Y-52959000D02*
X127000000Y-52959000D01*
X127000000Y-52959000D02*
X127000000Y-51435000D01*
X127000000Y-51435000D02*
X127000000Y-49911000D01*
X127000000Y-49911000D02*
X127127000Y-49911000D01*
X139573000Y-52959000D02*
X139700000Y-52959000D01*
X139700000Y-52959000D02*
X139700000Y-51435000D01*
X139700000Y-51435000D02*
X139700000Y-49911000D01*
X139700000Y-49911000D02*
X139573000Y-49911000D01*
X127000000Y-51435000D02*
X127508000Y-51435000D01*
X129032000Y-51435000D02*
X129540000Y-51435000D01*
X129540000Y-51435000D02*
X130810000Y-51435000D01*
X130810000Y-51435000D02*
X132080000Y-51435000D01*
X132080000Y-51435000D02*
X133350000Y-51435000D01*
X133350000Y-51435000D02*
X134620000Y-51435000D01*
X134620000Y-51435000D02*
X135890000Y-51435000D01*
X135890000Y-51435000D02*
X137160000Y-51435000D01*
X137160000Y-51435000D02*
X138430000Y-51435000D01*
X138430000Y-51435000D02*
X139700000Y-51435000D01*
X128143000Y-49911000D02*
X128270000Y-49911000D01*
X128270000Y-49911000D02*
X128397000Y-49911000D01*
X129413000Y-49911000D02*
X129540000Y-49911000D01*
X129540000Y-49911000D02*
X129667000Y-49911000D01*
X130683000Y-49911000D02*
X130810000Y-49911000D01*
X130810000Y-49911000D02*
X130937000Y-49911000D01*
X131953000Y-49911000D02*
X132080000Y-49911000D01*
X132080000Y-49911000D02*
X132207000Y-49911000D01*
X133223000Y-49911000D02*
X133350000Y-49911000D01*
X133350000Y-49911000D02*
X133477000Y-49911000D01*
X134493000Y-49911000D02*
X134620000Y-49911000D01*
X134620000Y-49911000D02*
X134747000Y-49911000D01*
X135763000Y-49911000D02*
X135890000Y-49911000D01*
X135890000Y-49911000D02*
X136017000Y-49911000D01*
X137033000Y-49911000D02*
X137160000Y-49911000D01*
X137160000Y-49911000D02*
X137287000Y-49911000D01*
X138303000Y-49911000D02*
X138430000Y-49911000D01*
X138430000Y-49911000D02*
X138557000Y-49911000D01*
X138303000Y-52959000D02*
X138557000Y-52959000D01*
X137033000Y-52959000D02*
X137160000Y-52959000D01*
X137160000Y-52959000D02*
X137287000Y-52959000D01*
X135763000Y-52959000D02*
X135890000Y-52959000D01*
X135890000Y-52959000D02*
X136017000Y-52959000D01*
X134493000Y-52959000D02*
X134620000Y-52959000D01*
X134620000Y-52959000D02*
X134747000Y-52959000D01*
X133223000Y-52959000D02*
X133350000Y-52959000D01*
X133350000Y-52959000D02*
X133477000Y-52959000D01*
X131953000Y-52959000D02*
X132080000Y-52959000D01*
X132080000Y-52959000D02*
X132207000Y-52959000D01*
X130683000Y-52959000D02*
X130810000Y-52959000D01*
X130810000Y-52959000D02*
X130937000Y-52959000D01*
X129413000Y-52959000D02*
X129540000Y-52959000D01*
X129540000Y-52959000D02*
X129667000Y-52959000D01*
X128143000Y-52959000D02*
X128270000Y-52959000D01*
X128270000Y-52959000D02*
X128397000Y-52959000D01*
X128270000Y-49911000D02*
X128270000Y-50673000D01*
X129540000Y-49911000D02*
X129540000Y-51435000D01*
X130810000Y-49911000D02*
X130810000Y-51435000D01*
X132080000Y-49911000D02*
X132080000Y-51435000D01*
X133350000Y-49911000D02*
X133350000Y-51435000D01*
X134620000Y-49911000D02*
X134620000Y-51435000D01*
X135890000Y-49911000D02*
X135890000Y-51435000D01*
X137160000Y-49911000D02*
X137160000Y-51435000D01*
X128270000Y-52197000D02*
X128270000Y-52959000D01*
X129540000Y-51435000D02*
X129540000Y-52959000D01*
X130810000Y-51435000D02*
X130810000Y-52959000D01*
X132080000Y-51435000D02*
X132080000Y-52959000D01*
X133350000Y-51435000D02*
X133350000Y-52959000D01*
X134620000Y-51435000D02*
X134620000Y-52959000D01*
X135890000Y-51435000D02*
X135890000Y-52959000D01*
X137160000Y-51435000D02*
X137160000Y-52959000D01*
X138430000Y-49911000D02*
X138430000Y-51435000D01*
X138430000Y-51435000D02*
X138430000Y-52959000D01*
%TO.C,GPIO3*%
X161671000Y-96901000D02*
X159385000Y-96901000D01*
X159385000Y-99949000D02*
X161671000Y-99949000D01*
X131699000Y-96901000D02*
X133985000Y-96901000D01*
X133985000Y-99949000D02*
X131699000Y-99949000D01*
X161671000Y-99949000D02*
X161671000Y-96901000D01*
X131699000Y-99949000D02*
X131699000Y-96901000D01*
X158115000Y-99187000D02*
X158115000Y-99949000D01*
X158115000Y-96901000D02*
X158115000Y-97663000D01*
X156845000Y-98425000D02*
X156845000Y-99949000D01*
X155575000Y-98425000D02*
X155575000Y-99949000D01*
X154305000Y-98425000D02*
X154305000Y-99949000D01*
X153035000Y-98425000D02*
X153035000Y-99949000D01*
X151765000Y-98425000D02*
X151765000Y-99949000D01*
X150495000Y-98425000D02*
X150495000Y-99949000D01*
X149225000Y-98425000D02*
X149225000Y-99949000D01*
X147955000Y-98425000D02*
X147955000Y-99949000D01*
X156845000Y-96901000D02*
X156845000Y-98425000D01*
X155575000Y-96901000D02*
X155575000Y-98425000D01*
X154305000Y-96901000D02*
X154305000Y-98425000D01*
X153035000Y-96901000D02*
X153035000Y-98425000D01*
X151765000Y-96901000D02*
X151765000Y-98425000D01*
X150495000Y-96901000D02*
X150495000Y-98425000D01*
X149225000Y-96901000D02*
X149225000Y-98425000D01*
X147955000Y-96901000D02*
X147955000Y-98425000D01*
X147955000Y-99949000D02*
X148082000Y-99949000D01*
X147828000Y-99949000D02*
X147955000Y-99949000D01*
X149225000Y-99949000D02*
X149352000Y-99949000D01*
X149098000Y-99949000D02*
X149225000Y-99949000D01*
X150495000Y-99949000D02*
X150622000Y-99949000D01*
X150368000Y-99949000D02*
X150495000Y-99949000D01*
X151765000Y-99949000D02*
X151892000Y-99949000D01*
X151638000Y-99949000D02*
X151765000Y-99949000D01*
X153035000Y-99949000D02*
X153162000Y-99949000D01*
X152908000Y-99949000D02*
X153035000Y-99949000D01*
X154305000Y-99949000D02*
X154432000Y-99949000D01*
X154178000Y-99949000D02*
X154305000Y-99949000D01*
X155575000Y-99949000D02*
X155702000Y-99949000D01*
X155448000Y-99949000D02*
X155575000Y-99949000D01*
X156845000Y-99949000D02*
X156972000Y-99949000D01*
X156718000Y-99949000D02*
X156845000Y-99949000D01*
X157988000Y-99949000D02*
X158242000Y-99949000D01*
X158115000Y-96901000D02*
X158242000Y-96901000D01*
X157988000Y-96901000D02*
X158115000Y-96901000D01*
X156845000Y-96901000D02*
X156972000Y-96901000D01*
X156718000Y-96901000D02*
X156845000Y-96901000D01*
X155575000Y-96901000D02*
X155702000Y-96901000D01*
X155448000Y-96901000D02*
X155575000Y-96901000D01*
X154305000Y-96901000D02*
X154432000Y-96901000D01*
X154178000Y-96901000D02*
X154305000Y-96901000D01*
X153035000Y-96901000D02*
X153162000Y-96901000D01*
X152908000Y-96901000D02*
X153035000Y-96901000D01*
X151765000Y-96901000D02*
X151892000Y-96901000D01*
X151638000Y-96901000D02*
X151765000Y-96901000D01*
X150495000Y-96901000D02*
X150622000Y-96901000D01*
X150368000Y-96901000D02*
X150495000Y-96901000D01*
X149225000Y-96901000D02*
X149352000Y-96901000D01*
X149098000Y-96901000D02*
X149225000Y-96901000D01*
X147955000Y-96901000D02*
X148082000Y-96901000D01*
X147828000Y-96901000D02*
X147955000Y-96901000D01*
X158877000Y-98425000D02*
X159385000Y-98425000D01*
X156845000Y-98425000D02*
X157353000Y-98425000D01*
X155575000Y-98425000D02*
X156845000Y-98425000D01*
X154305000Y-98425000D02*
X155575000Y-98425000D01*
X153035000Y-98425000D02*
X154305000Y-98425000D01*
X151765000Y-98425000D02*
X153035000Y-98425000D01*
X150495000Y-98425000D02*
X151765000Y-98425000D01*
X149225000Y-98425000D02*
X150495000Y-98425000D01*
X147955000Y-98425000D02*
X149225000Y-98425000D01*
X146685000Y-98425000D02*
X147955000Y-98425000D01*
X159385000Y-96901000D02*
X159258000Y-96901000D01*
X159385000Y-98425000D02*
X159385000Y-96901000D01*
X159385000Y-99949000D02*
X159385000Y-98425000D01*
X159258000Y-99949000D02*
X159385000Y-99949000D01*
X146685000Y-96901000D02*
X146812000Y-96901000D01*
X146812000Y-99949000D02*
X146685000Y-99949000D01*
D12*
X158496000Y-97536000D02*
X158496000Y-98044000D01*
X158496000Y-98044000D02*
X159004000Y-98044000D01*
X159004000Y-97536000D02*
X159004000Y-98044000D01*
X158496000Y-97536000D02*
X159004000Y-97536000D01*
X157226000Y-97536000D02*
X157226000Y-98044000D01*
X157226000Y-98044000D02*
X157734000Y-98044000D01*
X157734000Y-97536000D02*
X157734000Y-98044000D01*
X157226000Y-97536000D02*
X157734000Y-97536000D01*
X155956000Y-97536000D02*
X155956000Y-98044000D01*
X155956000Y-98044000D02*
X156464000Y-98044000D01*
X156464000Y-97536000D02*
X156464000Y-98044000D01*
X155956000Y-97536000D02*
X156464000Y-97536000D01*
X154686000Y-97536000D02*
X154686000Y-98044000D01*
X154686000Y-98044000D02*
X155194000Y-98044000D01*
X155194000Y-97536000D02*
X155194000Y-98044000D01*
X154686000Y-97536000D02*
X155194000Y-97536000D01*
X153416000Y-97536000D02*
X153416000Y-98044000D01*
X153416000Y-98044000D02*
X153924000Y-98044000D01*
X153924000Y-97536000D02*
X153924000Y-98044000D01*
X153416000Y-97536000D02*
X153924000Y-97536000D01*
X152146000Y-97536000D02*
X152146000Y-98044000D01*
X152146000Y-98044000D02*
X152654000Y-98044000D01*
X152654000Y-97536000D02*
X152654000Y-98044000D01*
X152146000Y-97536000D02*
X152654000Y-97536000D01*
X150876000Y-97536000D02*
X150876000Y-98044000D01*
X150876000Y-98044000D02*
X151384000Y-98044000D01*
X151384000Y-97536000D02*
X151384000Y-98044000D01*
X150876000Y-97536000D02*
X151384000Y-97536000D01*
X149606000Y-97536000D02*
X149606000Y-98044000D01*
X149606000Y-98044000D02*
X150114000Y-98044000D01*
X150114000Y-97536000D02*
X150114000Y-98044000D01*
X149606000Y-97536000D02*
X150114000Y-97536000D01*
X148336000Y-97536000D02*
X148336000Y-98044000D01*
X148336000Y-98044000D02*
X148844000Y-98044000D01*
X148844000Y-97536000D02*
X148844000Y-98044000D01*
X148336000Y-97536000D02*
X148844000Y-97536000D01*
X147066000Y-97536000D02*
X147066000Y-98044000D01*
X147066000Y-98044000D02*
X147574000Y-98044000D01*
X147574000Y-97536000D02*
X147574000Y-98044000D01*
X147066000Y-97536000D02*
X147574000Y-97536000D01*
X158496000Y-98806000D02*
X158496000Y-99314000D01*
X158496000Y-99314000D02*
X159004000Y-99314000D01*
X159004000Y-98806000D02*
X159004000Y-99314000D01*
X158496000Y-98806000D02*
X159004000Y-98806000D01*
X157226000Y-98806000D02*
X157226000Y-99314000D01*
X157226000Y-99314000D02*
X157734000Y-99314000D01*
X157734000Y-98806000D02*
X157734000Y-99314000D01*
X157226000Y-98806000D02*
X157734000Y-98806000D01*
X155956000Y-98806000D02*
X155956000Y-99314000D01*
X155956000Y-99314000D02*
X156464000Y-99314000D01*
X156464000Y-98806000D02*
X156464000Y-99314000D01*
X155956000Y-98806000D02*
X156464000Y-98806000D01*
X154686000Y-98806000D02*
X154686000Y-99314000D01*
X154686000Y-99314000D02*
X155194000Y-99314000D01*
X155194000Y-98806000D02*
X155194000Y-99314000D01*
X154686000Y-98806000D02*
X155194000Y-98806000D01*
X153416000Y-98806000D02*
X153416000Y-99314000D01*
X153416000Y-99314000D02*
X153924000Y-99314000D01*
X153924000Y-98806000D02*
X153924000Y-99314000D01*
X153416000Y-98806000D02*
X153924000Y-98806000D01*
X152146000Y-98806000D02*
X152146000Y-99314000D01*
X152146000Y-99314000D02*
X152654000Y-99314000D01*
X152654000Y-98806000D02*
X152654000Y-99314000D01*
X152146000Y-98806000D02*
X152654000Y-98806000D01*
X150876000Y-98806000D02*
X150876000Y-99314000D01*
X150876000Y-99314000D02*
X151384000Y-99314000D01*
X151384000Y-98806000D02*
X151384000Y-99314000D01*
X150876000Y-98806000D02*
X151384000Y-98806000D01*
X149606000Y-98806000D02*
X149606000Y-99314000D01*
X149606000Y-99314000D02*
X150114000Y-99314000D01*
X150114000Y-98806000D02*
X150114000Y-99314000D01*
X149606000Y-98806000D02*
X150114000Y-98806000D01*
X148336000Y-98806000D02*
X148336000Y-99314000D01*
X148336000Y-99314000D02*
X148844000Y-99314000D01*
X148844000Y-98806000D02*
X148844000Y-99314000D01*
X148336000Y-98806000D02*
X148844000Y-98806000D01*
X147066000Y-98806000D02*
X147066000Y-99314000D01*
X147066000Y-99314000D02*
X147574000Y-99314000D01*
X147574000Y-98806000D02*
X147574000Y-99314000D01*
X147066000Y-98806000D02*
X147574000Y-98806000D01*
X134366000Y-98806000D02*
X134874000Y-98806000D01*
X134874000Y-98806000D02*
X134874000Y-99314000D01*
X134366000Y-99314000D02*
X134874000Y-99314000D01*
X134366000Y-98806000D02*
X134366000Y-99314000D01*
X135636000Y-98806000D02*
X136144000Y-98806000D01*
X136144000Y-98806000D02*
X136144000Y-99314000D01*
X135636000Y-99314000D02*
X136144000Y-99314000D01*
X135636000Y-98806000D02*
X135636000Y-99314000D01*
X136906000Y-98806000D02*
X137414000Y-98806000D01*
X137414000Y-98806000D02*
X137414000Y-99314000D01*
X136906000Y-99314000D02*
X137414000Y-99314000D01*
X136906000Y-98806000D02*
X136906000Y-99314000D01*
X138176000Y-98806000D02*
X138684000Y-98806000D01*
X138684000Y-98806000D02*
X138684000Y-99314000D01*
X138176000Y-99314000D02*
X138684000Y-99314000D01*
X138176000Y-98806000D02*
X138176000Y-99314000D01*
X139446000Y-98806000D02*
X139954000Y-98806000D01*
X139954000Y-98806000D02*
X139954000Y-99314000D01*
X139446000Y-99314000D02*
X139954000Y-99314000D01*
X139446000Y-98806000D02*
X139446000Y-99314000D01*
X140716000Y-98806000D02*
X141224000Y-98806000D01*
X141224000Y-98806000D02*
X141224000Y-99314000D01*
X140716000Y-99314000D02*
X141224000Y-99314000D01*
X140716000Y-98806000D02*
X140716000Y-99314000D01*
X141986000Y-98806000D02*
X142494000Y-98806000D01*
X142494000Y-98806000D02*
X142494000Y-99314000D01*
X141986000Y-99314000D02*
X142494000Y-99314000D01*
X141986000Y-98806000D02*
X141986000Y-99314000D01*
X143256000Y-98806000D02*
X143764000Y-98806000D01*
X143764000Y-98806000D02*
X143764000Y-99314000D01*
X143256000Y-99314000D02*
X143764000Y-99314000D01*
X143256000Y-98806000D02*
X143256000Y-99314000D01*
X144526000Y-98806000D02*
X145034000Y-98806000D01*
X145034000Y-98806000D02*
X145034000Y-99314000D01*
X144526000Y-99314000D02*
X145034000Y-99314000D01*
X144526000Y-98806000D02*
X144526000Y-99314000D01*
X145796000Y-98806000D02*
X146304000Y-98806000D01*
X146304000Y-98806000D02*
X146304000Y-99314000D01*
X145796000Y-99314000D02*
X146304000Y-99314000D01*
X145796000Y-98806000D02*
X145796000Y-99314000D01*
X134366000Y-97536000D02*
X134874000Y-97536000D01*
X134874000Y-97536000D02*
X134874000Y-98044000D01*
X134366000Y-98044000D02*
X134874000Y-98044000D01*
X134366000Y-97536000D02*
X134366000Y-98044000D01*
X135636000Y-97536000D02*
X136144000Y-97536000D01*
X136144000Y-97536000D02*
X136144000Y-98044000D01*
X135636000Y-98044000D02*
X136144000Y-98044000D01*
X135636000Y-97536000D02*
X135636000Y-98044000D01*
X136906000Y-97536000D02*
X137414000Y-97536000D01*
X137414000Y-97536000D02*
X137414000Y-98044000D01*
X136906000Y-98044000D02*
X137414000Y-98044000D01*
X136906000Y-97536000D02*
X136906000Y-98044000D01*
X138176000Y-97536000D02*
X138684000Y-97536000D01*
X138684000Y-97536000D02*
X138684000Y-98044000D01*
X138176000Y-98044000D02*
X138684000Y-98044000D01*
X138176000Y-97536000D02*
X138176000Y-98044000D01*
X139446000Y-97536000D02*
X139954000Y-97536000D01*
X139954000Y-97536000D02*
X139954000Y-98044000D01*
X139446000Y-98044000D02*
X139954000Y-98044000D01*
X139446000Y-97536000D02*
X139446000Y-98044000D01*
X140716000Y-97536000D02*
X141224000Y-97536000D01*
X141224000Y-97536000D02*
X141224000Y-98044000D01*
X140716000Y-98044000D02*
X141224000Y-98044000D01*
X140716000Y-97536000D02*
X140716000Y-98044000D01*
X141986000Y-97536000D02*
X142494000Y-97536000D01*
X142494000Y-97536000D02*
X142494000Y-98044000D01*
X141986000Y-98044000D02*
X142494000Y-98044000D01*
X141986000Y-97536000D02*
X141986000Y-98044000D01*
X143256000Y-97536000D02*
X143764000Y-97536000D01*
X143764000Y-97536000D02*
X143764000Y-98044000D01*
X143256000Y-98044000D02*
X143764000Y-98044000D01*
X143256000Y-97536000D02*
X143256000Y-98044000D01*
X144526000Y-97536000D02*
X145034000Y-97536000D01*
X145034000Y-97536000D02*
X145034000Y-98044000D01*
X144526000Y-98044000D02*
X145034000Y-98044000D01*
X144526000Y-97536000D02*
X144526000Y-98044000D01*
X145796000Y-97536000D02*
X146304000Y-97536000D01*
X146304000Y-97536000D02*
X146304000Y-98044000D01*
X145796000Y-98044000D02*
X146304000Y-98044000D01*
X145796000Y-97536000D02*
X145796000Y-98044000D01*
D11*
X134112000Y-99949000D02*
X133985000Y-99949000D01*
X133985000Y-99949000D02*
X133985000Y-98425000D01*
X133985000Y-98425000D02*
X133985000Y-96901000D01*
X133985000Y-96901000D02*
X134112000Y-96901000D01*
X146558000Y-99949000D02*
X146685000Y-99949000D01*
X146685000Y-99949000D02*
X146685000Y-98425000D01*
X146685000Y-98425000D02*
X146685000Y-96901000D01*
X146685000Y-96901000D02*
X146558000Y-96901000D01*
X133985000Y-98425000D02*
X134493000Y-98425000D01*
X136017000Y-98425000D02*
X136525000Y-98425000D01*
X136525000Y-98425000D02*
X137795000Y-98425000D01*
X137795000Y-98425000D02*
X139065000Y-98425000D01*
X139065000Y-98425000D02*
X140335000Y-98425000D01*
X140335000Y-98425000D02*
X141605000Y-98425000D01*
X141605000Y-98425000D02*
X142875000Y-98425000D01*
X142875000Y-98425000D02*
X144145000Y-98425000D01*
X144145000Y-98425000D02*
X145415000Y-98425000D01*
X145415000Y-98425000D02*
X146685000Y-98425000D01*
X135128000Y-96901000D02*
X135255000Y-96901000D01*
X135255000Y-96901000D02*
X135382000Y-96901000D01*
X136398000Y-96901000D02*
X136525000Y-96901000D01*
X136525000Y-96901000D02*
X136652000Y-96901000D01*
X137668000Y-96901000D02*
X137795000Y-96901000D01*
X137795000Y-96901000D02*
X137922000Y-96901000D01*
X138938000Y-96901000D02*
X139065000Y-96901000D01*
X139065000Y-96901000D02*
X139192000Y-96901000D01*
X140208000Y-96901000D02*
X140335000Y-96901000D01*
X140335000Y-96901000D02*
X140462000Y-96901000D01*
X141478000Y-96901000D02*
X141605000Y-96901000D01*
X141605000Y-96901000D02*
X141732000Y-96901000D01*
X142748000Y-96901000D02*
X142875000Y-96901000D01*
X142875000Y-96901000D02*
X143002000Y-96901000D01*
X144018000Y-96901000D02*
X144145000Y-96901000D01*
X144145000Y-96901000D02*
X144272000Y-96901000D01*
X145288000Y-96901000D02*
X145415000Y-96901000D01*
X145415000Y-96901000D02*
X145542000Y-96901000D01*
X145288000Y-99949000D02*
X145542000Y-99949000D01*
X144018000Y-99949000D02*
X144145000Y-99949000D01*
X144145000Y-99949000D02*
X144272000Y-99949000D01*
X142748000Y-99949000D02*
X142875000Y-99949000D01*
X142875000Y-99949000D02*
X143002000Y-99949000D01*
X141478000Y-99949000D02*
X141605000Y-99949000D01*
X141605000Y-99949000D02*
X141732000Y-99949000D01*
X140208000Y-99949000D02*
X140335000Y-99949000D01*
X140335000Y-99949000D02*
X140462000Y-99949000D01*
X138938000Y-99949000D02*
X139065000Y-99949000D01*
X139065000Y-99949000D02*
X139192000Y-99949000D01*
X137668000Y-99949000D02*
X137795000Y-99949000D01*
X137795000Y-99949000D02*
X137922000Y-99949000D01*
X136398000Y-99949000D02*
X136525000Y-99949000D01*
X136525000Y-99949000D02*
X136652000Y-99949000D01*
X135128000Y-99949000D02*
X135255000Y-99949000D01*
X135255000Y-99949000D02*
X135382000Y-99949000D01*
X135255000Y-96901000D02*
X135255000Y-97663000D01*
X136525000Y-96901000D02*
X136525000Y-98425000D01*
X137795000Y-96901000D02*
X137795000Y-98425000D01*
X139065000Y-96901000D02*
X139065000Y-98425000D01*
X140335000Y-96901000D02*
X140335000Y-98425000D01*
X141605000Y-96901000D02*
X141605000Y-98425000D01*
X142875000Y-96901000D02*
X142875000Y-98425000D01*
X144145000Y-96901000D02*
X144145000Y-98425000D01*
X135255000Y-99187000D02*
X135255000Y-99949000D01*
X136525000Y-98425000D02*
X136525000Y-99949000D01*
X137795000Y-98425000D02*
X137795000Y-99949000D01*
X139065000Y-98425000D02*
X139065000Y-99949000D01*
X140335000Y-98425000D02*
X140335000Y-99949000D01*
X141605000Y-98425000D02*
X141605000Y-99949000D01*
X142875000Y-98425000D02*
X142875000Y-99949000D01*
X144145000Y-98425000D02*
X144145000Y-99949000D01*
X145415000Y-96901000D02*
X145415000Y-98425000D01*
X145415000Y-98425000D02*
X145415000Y-99949000D01*
%TO.C,GPIO2*%
X154686000Y-90551000D02*
X152400000Y-90551000D01*
X152400000Y-93599000D02*
X154686000Y-93599000D01*
X124714000Y-90551000D02*
X127000000Y-90551000D01*
X127000000Y-93599000D02*
X124714000Y-93599000D01*
X154686000Y-93599000D02*
X154686000Y-90551000D01*
X124714000Y-93599000D02*
X124714000Y-90551000D01*
X151130000Y-92837000D02*
X151130000Y-93599000D01*
X151130000Y-90551000D02*
X151130000Y-91313000D01*
X149860000Y-92075000D02*
X149860000Y-93599000D01*
X148590000Y-92075000D02*
X148590000Y-93599000D01*
X147320000Y-92075000D02*
X147320000Y-93599000D01*
X146050000Y-92075000D02*
X146050000Y-93599000D01*
X144780000Y-92075000D02*
X144780000Y-93599000D01*
X143510000Y-92075000D02*
X143510000Y-93599000D01*
X142240000Y-92075000D02*
X142240000Y-93599000D01*
X140970000Y-92075000D02*
X140970000Y-93599000D01*
X149860000Y-90551000D02*
X149860000Y-92075000D01*
X148590000Y-90551000D02*
X148590000Y-92075000D01*
X147320000Y-90551000D02*
X147320000Y-92075000D01*
X146050000Y-90551000D02*
X146050000Y-92075000D01*
X144780000Y-90551000D02*
X144780000Y-92075000D01*
X143510000Y-90551000D02*
X143510000Y-92075000D01*
X142240000Y-90551000D02*
X142240000Y-92075000D01*
X140970000Y-90551000D02*
X140970000Y-92075000D01*
X140970000Y-93599000D02*
X141097000Y-93599000D01*
X140843000Y-93599000D02*
X140970000Y-93599000D01*
X142240000Y-93599000D02*
X142367000Y-93599000D01*
X142113000Y-93599000D02*
X142240000Y-93599000D01*
X143510000Y-93599000D02*
X143637000Y-93599000D01*
X143383000Y-93599000D02*
X143510000Y-93599000D01*
X144780000Y-93599000D02*
X144907000Y-93599000D01*
X144653000Y-93599000D02*
X144780000Y-93599000D01*
X146050000Y-93599000D02*
X146177000Y-93599000D01*
X145923000Y-93599000D02*
X146050000Y-93599000D01*
X147320000Y-93599000D02*
X147447000Y-93599000D01*
X147193000Y-93599000D02*
X147320000Y-93599000D01*
X148590000Y-93599000D02*
X148717000Y-93599000D01*
X148463000Y-93599000D02*
X148590000Y-93599000D01*
X149860000Y-93599000D02*
X149987000Y-93599000D01*
X149733000Y-93599000D02*
X149860000Y-93599000D01*
X151003000Y-93599000D02*
X151257000Y-93599000D01*
X151130000Y-90551000D02*
X151257000Y-90551000D01*
X151003000Y-90551000D02*
X151130000Y-90551000D01*
X149860000Y-90551000D02*
X149987000Y-90551000D01*
X149733000Y-90551000D02*
X149860000Y-90551000D01*
X148590000Y-90551000D02*
X148717000Y-90551000D01*
X148463000Y-90551000D02*
X148590000Y-90551000D01*
X147320000Y-90551000D02*
X147447000Y-90551000D01*
X147193000Y-90551000D02*
X147320000Y-90551000D01*
X146050000Y-90551000D02*
X146177000Y-90551000D01*
X145923000Y-90551000D02*
X146050000Y-90551000D01*
X144780000Y-90551000D02*
X144907000Y-90551000D01*
X144653000Y-90551000D02*
X144780000Y-90551000D01*
X143510000Y-90551000D02*
X143637000Y-90551000D01*
X143383000Y-90551000D02*
X143510000Y-90551000D01*
X142240000Y-90551000D02*
X142367000Y-90551000D01*
X142113000Y-90551000D02*
X142240000Y-90551000D01*
X140970000Y-90551000D02*
X141097000Y-90551000D01*
X140843000Y-90551000D02*
X140970000Y-90551000D01*
X151892000Y-92075000D02*
X152400000Y-92075000D01*
X149860000Y-92075000D02*
X150368000Y-92075000D01*
X148590000Y-92075000D02*
X149860000Y-92075000D01*
X147320000Y-92075000D02*
X148590000Y-92075000D01*
X146050000Y-92075000D02*
X147320000Y-92075000D01*
X144780000Y-92075000D02*
X146050000Y-92075000D01*
X143510000Y-92075000D02*
X144780000Y-92075000D01*
X142240000Y-92075000D02*
X143510000Y-92075000D01*
X140970000Y-92075000D02*
X142240000Y-92075000D01*
X139700000Y-92075000D02*
X140970000Y-92075000D01*
X152400000Y-90551000D02*
X152273000Y-90551000D01*
X152400000Y-92075000D02*
X152400000Y-90551000D01*
X152400000Y-93599000D02*
X152400000Y-92075000D01*
X152273000Y-93599000D02*
X152400000Y-93599000D01*
X139700000Y-90551000D02*
X139827000Y-90551000D01*
X139827000Y-93599000D02*
X139700000Y-93599000D01*
D12*
X151511000Y-91186000D02*
X151511000Y-91694000D01*
X151511000Y-91694000D02*
X152019000Y-91694000D01*
X152019000Y-91186000D02*
X152019000Y-91694000D01*
X151511000Y-91186000D02*
X152019000Y-91186000D01*
X150241000Y-91186000D02*
X150241000Y-91694000D01*
X150241000Y-91694000D02*
X150749000Y-91694000D01*
X150749000Y-91186000D02*
X150749000Y-91694000D01*
X150241000Y-91186000D02*
X150749000Y-91186000D01*
X148971000Y-91186000D02*
X148971000Y-91694000D01*
X148971000Y-91694000D02*
X149479000Y-91694000D01*
X149479000Y-91186000D02*
X149479000Y-91694000D01*
X148971000Y-91186000D02*
X149479000Y-91186000D01*
X147701000Y-91186000D02*
X147701000Y-91694000D01*
X147701000Y-91694000D02*
X148209000Y-91694000D01*
X148209000Y-91186000D02*
X148209000Y-91694000D01*
X147701000Y-91186000D02*
X148209000Y-91186000D01*
X146431000Y-91186000D02*
X146431000Y-91694000D01*
X146431000Y-91694000D02*
X146939000Y-91694000D01*
X146939000Y-91186000D02*
X146939000Y-91694000D01*
X146431000Y-91186000D02*
X146939000Y-91186000D01*
X145161000Y-91186000D02*
X145161000Y-91694000D01*
X145161000Y-91694000D02*
X145669000Y-91694000D01*
X145669000Y-91186000D02*
X145669000Y-91694000D01*
X145161000Y-91186000D02*
X145669000Y-91186000D01*
X143891000Y-91186000D02*
X143891000Y-91694000D01*
X143891000Y-91694000D02*
X144399000Y-91694000D01*
X144399000Y-91186000D02*
X144399000Y-91694000D01*
X143891000Y-91186000D02*
X144399000Y-91186000D01*
X142621000Y-91186000D02*
X142621000Y-91694000D01*
X142621000Y-91694000D02*
X143129000Y-91694000D01*
X143129000Y-91186000D02*
X143129000Y-91694000D01*
X142621000Y-91186000D02*
X143129000Y-91186000D01*
X141351000Y-91186000D02*
X141351000Y-91694000D01*
X141351000Y-91694000D02*
X141859000Y-91694000D01*
X141859000Y-91186000D02*
X141859000Y-91694000D01*
X141351000Y-91186000D02*
X141859000Y-91186000D01*
X140081000Y-91186000D02*
X140081000Y-91694000D01*
X140081000Y-91694000D02*
X140589000Y-91694000D01*
X140589000Y-91186000D02*
X140589000Y-91694000D01*
X140081000Y-91186000D02*
X140589000Y-91186000D01*
X151511000Y-92456000D02*
X151511000Y-92964000D01*
X151511000Y-92964000D02*
X152019000Y-92964000D01*
X152019000Y-92456000D02*
X152019000Y-92964000D01*
X151511000Y-92456000D02*
X152019000Y-92456000D01*
X150241000Y-92456000D02*
X150241000Y-92964000D01*
X150241000Y-92964000D02*
X150749000Y-92964000D01*
X150749000Y-92456000D02*
X150749000Y-92964000D01*
X150241000Y-92456000D02*
X150749000Y-92456000D01*
X148971000Y-92456000D02*
X148971000Y-92964000D01*
X148971000Y-92964000D02*
X149479000Y-92964000D01*
X149479000Y-92456000D02*
X149479000Y-92964000D01*
X148971000Y-92456000D02*
X149479000Y-92456000D01*
X147701000Y-92456000D02*
X147701000Y-92964000D01*
X147701000Y-92964000D02*
X148209000Y-92964000D01*
X148209000Y-92456000D02*
X148209000Y-92964000D01*
X147701000Y-92456000D02*
X148209000Y-92456000D01*
X146431000Y-92456000D02*
X146431000Y-92964000D01*
X146431000Y-92964000D02*
X146939000Y-92964000D01*
X146939000Y-92456000D02*
X146939000Y-92964000D01*
X146431000Y-92456000D02*
X146939000Y-92456000D01*
X145161000Y-92456000D02*
X145161000Y-92964000D01*
X145161000Y-92964000D02*
X145669000Y-92964000D01*
X145669000Y-92456000D02*
X145669000Y-92964000D01*
X145161000Y-92456000D02*
X145669000Y-92456000D01*
X143891000Y-92456000D02*
X143891000Y-92964000D01*
X143891000Y-92964000D02*
X144399000Y-92964000D01*
X144399000Y-92456000D02*
X144399000Y-92964000D01*
X143891000Y-92456000D02*
X144399000Y-92456000D01*
X142621000Y-92456000D02*
X142621000Y-92964000D01*
X142621000Y-92964000D02*
X143129000Y-92964000D01*
X143129000Y-92456000D02*
X143129000Y-92964000D01*
X142621000Y-92456000D02*
X143129000Y-92456000D01*
X141351000Y-92456000D02*
X141351000Y-92964000D01*
X141351000Y-92964000D02*
X141859000Y-92964000D01*
X141859000Y-92456000D02*
X141859000Y-92964000D01*
X141351000Y-92456000D02*
X141859000Y-92456000D01*
X140081000Y-92456000D02*
X140081000Y-92964000D01*
X140081000Y-92964000D02*
X140589000Y-92964000D01*
X140589000Y-92456000D02*
X140589000Y-92964000D01*
X140081000Y-92456000D02*
X140589000Y-92456000D01*
X127381000Y-92456000D02*
X127889000Y-92456000D01*
X127889000Y-92456000D02*
X127889000Y-92964000D01*
X127381000Y-92964000D02*
X127889000Y-92964000D01*
X127381000Y-92456000D02*
X127381000Y-92964000D01*
X128651000Y-92456000D02*
X129159000Y-92456000D01*
X129159000Y-92456000D02*
X129159000Y-92964000D01*
X128651000Y-92964000D02*
X129159000Y-92964000D01*
X128651000Y-92456000D02*
X128651000Y-92964000D01*
X129921000Y-92456000D02*
X130429000Y-92456000D01*
X130429000Y-92456000D02*
X130429000Y-92964000D01*
X129921000Y-92964000D02*
X130429000Y-92964000D01*
X129921000Y-92456000D02*
X129921000Y-92964000D01*
X131191000Y-92456000D02*
X131699000Y-92456000D01*
X131699000Y-92456000D02*
X131699000Y-92964000D01*
X131191000Y-92964000D02*
X131699000Y-92964000D01*
X131191000Y-92456000D02*
X131191000Y-92964000D01*
X132461000Y-92456000D02*
X132969000Y-92456000D01*
X132969000Y-92456000D02*
X132969000Y-92964000D01*
X132461000Y-92964000D02*
X132969000Y-92964000D01*
X132461000Y-92456000D02*
X132461000Y-92964000D01*
X133731000Y-92456000D02*
X134239000Y-92456000D01*
X134239000Y-92456000D02*
X134239000Y-92964000D01*
X133731000Y-92964000D02*
X134239000Y-92964000D01*
X133731000Y-92456000D02*
X133731000Y-92964000D01*
X135001000Y-92456000D02*
X135509000Y-92456000D01*
X135509000Y-92456000D02*
X135509000Y-92964000D01*
X135001000Y-92964000D02*
X135509000Y-92964000D01*
X135001000Y-92456000D02*
X135001000Y-92964000D01*
X136271000Y-92456000D02*
X136779000Y-92456000D01*
X136779000Y-92456000D02*
X136779000Y-92964000D01*
X136271000Y-92964000D02*
X136779000Y-92964000D01*
X136271000Y-92456000D02*
X136271000Y-92964000D01*
X137541000Y-92456000D02*
X138049000Y-92456000D01*
X138049000Y-92456000D02*
X138049000Y-92964000D01*
X137541000Y-92964000D02*
X138049000Y-92964000D01*
X137541000Y-92456000D02*
X137541000Y-92964000D01*
X138811000Y-92456000D02*
X139319000Y-92456000D01*
X139319000Y-92456000D02*
X139319000Y-92964000D01*
X138811000Y-92964000D02*
X139319000Y-92964000D01*
X138811000Y-92456000D02*
X138811000Y-92964000D01*
X127381000Y-91186000D02*
X127889000Y-91186000D01*
X127889000Y-91186000D02*
X127889000Y-91694000D01*
X127381000Y-91694000D02*
X127889000Y-91694000D01*
X127381000Y-91186000D02*
X127381000Y-91694000D01*
X128651000Y-91186000D02*
X129159000Y-91186000D01*
X129159000Y-91186000D02*
X129159000Y-91694000D01*
X128651000Y-91694000D02*
X129159000Y-91694000D01*
X128651000Y-91186000D02*
X128651000Y-91694000D01*
X129921000Y-91186000D02*
X130429000Y-91186000D01*
X130429000Y-91186000D02*
X130429000Y-91694000D01*
X129921000Y-91694000D02*
X130429000Y-91694000D01*
X129921000Y-91186000D02*
X129921000Y-91694000D01*
X131191000Y-91186000D02*
X131699000Y-91186000D01*
X131699000Y-91186000D02*
X131699000Y-91694000D01*
X131191000Y-91694000D02*
X131699000Y-91694000D01*
X131191000Y-91186000D02*
X131191000Y-91694000D01*
X132461000Y-91186000D02*
X132969000Y-91186000D01*
X132969000Y-91186000D02*
X132969000Y-91694000D01*
X132461000Y-91694000D02*
X132969000Y-91694000D01*
X132461000Y-91186000D02*
X132461000Y-91694000D01*
X133731000Y-91186000D02*
X134239000Y-91186000D01*
X134239000Y-91186000D02*
X134239000Y-91694000D01*
X133731000Y-91694000D02*
X134239000Y-91694000D01*
X133731000Y-91186000D02*
X133731000Y-91694000D01*
X135001000Y-91186000D02*
X135509000Y-91186000D01*
X135509000Y-91186000D02*
X135509000Y-91694000D01*
X135001000Y-91694000D02*
X135509000Y-91694000D01*
X135001000Y-91186000D02*
X135001000Y-91694000D01*
X136271000Y-91186000D02*
X136779000Y-91186000D01*
X136779000Y-91186000D02*
X136779000Y-91694000D01*
X136271000Y-91694000D02*
X136779000Y-91694000D01*
X136271000Y-91186000D02*
X136271000Y-91694000D01*
X137541000Y-91186000D02*
X138049000Y-91186000D01*
X138049000Y-91186000D02*
X138049000Y-91694000D01*
X137541000Y-91694000D02*
X138049000Y-91694000D01*
X137541000Y-91186000D02*
X137541000Y-91694000D01*
X138811000Y-91186000D02*
X139319000Y-91186000D01*
X139319000Y-91186000D02*
X139319000Y-91694000D01*
X138811000Y-91694000D02*
X139319000Y-91694000D01*
X138811000Y-91186000D02*
X138811000Y-91694000D01*
D11*
X127127000Y-93599000D02*
X127000000Y-93599000D01*
X127000000Y-93599000D02*
X127000000Y-92075000D01*
X127000000Y-92075000D02*
X127000000Y-90551000D01*
X127000000Y-90551000D02*
X127127000Y-90551000D01*
X139573000Y-93599000D02*
X139700000Y-93599000D01*
X139700000Y-93599000D02*
X139700000Y-92075000D01*
X139700000Y-92075000D02*
X139700000Y-90551000D01*
X139700000Y-90551000D02*
X139573000Y-90551000D01*
X127000000Y-92075000D02*
X127508000Y-92075000D01*
X129032000Y-92075000D02*
X129540000Y-92075000D01*
X129540000Y-92075000D02*
X130810000Y-92075000D01*
X130810000Y-92075000D02*
X132080000Y-92075000D01*
X132080000Y-92075000D02*
X133350000Y-92075000D01*
X133350000Y-92075000D02*
X134620000Y-92075000D01*
X134620000Y-92075000D02*
X135890000Y-92075000D01*
X135890000Y-92075000D02*
X137160000Y-92075000D01*
X137160000Y-92075000D02*
X138430000Y-92075000D01*
X138430000Y-92075000D02*
X139700000Y-92075000D01*
X128143000Y-90551000D02*
X128270000Y-90551000D01*
X128270000Y-90551000D02*
X128397000Y-90551000D01*
X129413000Y-90551000D02*
X129540000Y-90551000D01*
X129540000Y-90551000D02*
X129667000Y-90551000D01*
X130683000Y-90551000D02*
X130810000Y-90551000D01*
X130810000Y-90551000D02*
X130937000Y-90551000D01*
X131953000Y-90551000D02*
X132080000Y-90551000D01*
X132080000Y-90551000D02*
X132207000Y-90551000D01*
X133223000Y-90551000D02*
X133350000Y-90551000D01*
X133350000Y-90551000D02*
X133477000Y-90551000D01*
X134493000Y-90551000D02*
X134620000Y-90551000D01*
X134620000Y-90551000D02*
X134747000Y-90551000D01*
X135763000Y-90551000D02*
X135890000Y-90551000D01*
X135890000Y-90551000D02*
X136017000Y-90551000D01*
X137033000Y-90551000D02*
X137160000Y-90551000D01*
X137160000Y-90551000D02*
X137287000Y-90551000D01*
X138303000Y-90551000D02*
X138430000Y-90551000D01*
X138430000Y-90551000D02*
X138557000Y-90551000D01*
X138303000Y-93599000D02*
X138557000Y-93599000D01*
X137033000Y-93599000D02*
X137160000Y-93599000D01*
X137160000Y-93599000D02*
X137287000Y-93599000D01*
X135763000Y-93599000D02*
X135890000Y-93599000D01*
X135890000Y-93599000D02*
X136017000Y-93599000D01*
X134493000Y-93599000D02*
X134620000Y-93599000D01*
X134620000Y-93599000D02*
X134747000Y-93599000D01*
X133223000Y-93599000D02*
X133350000Y-93599000D01*
X133350000Y-93599000D02*
X133477000Y-93599000D01*
X131953000Y-93599000D02*
X132080000Y-93599000D01*
X132080000Y-93599000D02*
X132207000Y-93599000D01*
X130683000Y-93599000D02*
X130810000Y-93599000D01*
X130810000Y-93599000D02*
X130937000Y-93599000D01*
X129413000Y-93599000D02*
X129540000Y-93599000D01*
X129540000Y-93599000D02*
X129667000Y-93599000D01*
X128143000Y-93599000D02*
X128270000Y-93599000D01*
X128270000Y-93599000D02*
X128397000Y-93599000D01*
X128270000Y-90551000D02*
X128270000Y-91313000D01*
X129540000Y-90551000D02*
X129540000Y-92075000D01*
X130810000Y-90551000D02*
X130810000Y-92075000D01*
X132080000Y-90551000D02*
X132080000Y-92075000D01*
X133350000Y-90551000D02*
X133350000Y-92075000D01*
X134620000Y-90551000D02*
X134620000Y-92075000D01*
X135890000Y-90551000D02*
X135890000Y-92075000D01*
X137160000Y-90551000D02*
X137160000Y-92075000D01*
X128270000Y-92837000D02*
X128270000Y-93599000D01*
X129540000Y-92075000D02*
X129540000Y-93599000D01*
X130810000Y-92075000D02*
X130810000Y-93599000D01*
X132080000Y-92075000D02*
X132080000Y-93599000D01*
X133350000Y-92075000D02*
X133350000Y-93599000D01*
X134620000Y-92075000D02*
X134620000Y-93599000D01*
X135890000Y-92075000D02*
X135890000Y-93599000D01*
X137160000Y-92075000D02*
X137160000Y-93599000D01*
X138430000Y-90551000D02*
X138430000Y-92075000D01*
X138430000Y-92075000D02*
X138430000Y-93599000D01*
%TO.C,GPIO4*%
X111455200Y-49915838D02*
X111394723Y-49794885D01*
X111394723Y-49613457D01*
X111455200Y-49432028D01*
X111576152Y-49311076D01*
X111697104Y-49250600D01*
X111939009Y-49190123D01*
X112120438Y-49190123D01*
X112362342Y-49250600D01*
X112483295Y-49311076D01*
X112604247Y-49432028D01*
X112664723Y-49613457D01*
X112664723Y-49734409D01*
X112604247Y-49915838D01*
X112543771Y-49976314D01*
X112120438Y-49976314D01*
X112120438Y-49734409D01*
X112664723Y-50520600D02*
X111394723Y-50520600D01*
X111394723Y-51004409D01*
X111455200Y-51125361D01*
X111515676Y-51185838D01*
X111636628Y-51246314D01*
X111818057Y-51246314D01*
X111939009Y-51185838D01*
X111999485Y-51125361D01*
X112059961Y-51004409D01*
X112059961Y-50520600D01*
X112664723Y-51790600D02*
X111394723Y-51790600D01*
X111394723Y-52637266D02*
X111394723Y-52879171D01*
X111455200Y-53000123D01*
X111576152Y-53121076D01*
X111818057Y-53181552D01*
X112241390Y-53181552D01*
X112483295Y-53121076D01*
X112604247Y-53000123D01*
X112664723Y-52879171D01*
X112664723Y-52637266D01*
X112604247Y-52516314D01*
X112483295Y-52395361D01*
X112241390Y-52334885D01*
X111818057Y-52334885D01*
X111576152Y-52395361D01*
X111455200Y-52516314D01*
X111394723Y-52637266D01*
X111818057Y-54270123D02*
X112664723Y-54270123D01*
X111334247Y-53967742D02*
X112241390Y-53665361D01*
X112241390Y-54451552D01*
D13*
X115118619Y-55219285D02*
X115071000Y-55266904D01*
X115023380Y-55362142D01*
X115023380Y-55600238D01*
X115071000Y-55695476D01*
X115118619Y-55743095D01*
X115213857Y-55790714D01*
X115309095Y-55790714D01*
X115451952Y-55743095D01*
X116023380Y-55171666D01*
X116023380Y-55790714D01*
X117674380Y-55790714D02*
X117674380Y-55219285D01*
X117674380Y-55505000D02*
X116674380Y-55505000D01*
X116817238Y-55409761D01*
X116912476Y-55314523D01*
X116960095Y-55219285D01*
%TO.C,*%
D11*
X163189468Y-72173527D02*
X163189468Y-70473527D01*
X162618040Y-70473527D01*
X162475182Y-70554480D01*
X162403754Y-70635432D01*
X162332325Y-70797337D01*
X162332325Y-71040194D01*
X162403754Y-71202099D01*
X162475182Y-71283051D01*
X162618040Y-71364003D01*
X163189468Y-71364003D01*
X161689468Y-72173527D02*
X161689468Y-70473527D01*
X161689468Y-71121146D02*
X161546611Y-71040194D01*
X161260897Y-71040194D01*
X161118040Y-71121146D01*
X161046611Y-71202099D01*
X160975182Y-71364003D01*
X160975182Y-71849718D01*
X161046611Y-72011622D01*
X161118040Y-72092575D01*
X161260897Y-72173527D01*
X161546611Y-72173527D01*
X161689468Y-72092575D01*
D22*
X139187797Y-81249780D02*
X139187797Y-80249780D01*
X138759225Y-81249780D02*
X138759225Y-80725971D01*
X138806844Y-80630733D01*
X138902082Y-80583114D01*
X139044940Y-80583114D01*
X139140178Y-80630733D01*
X139187797Y-80678352D01*
X137854463Y-81249780D02*
X137854463Y-80725971D01*
X137902082Y-80630733D01*
X137997320Y-80583114D01*
X138187797Y-80583114D01*
X138283035Y-80630733D01*
X137854463Y-81202161D02*
X137949701Y-81249780D01*
X138187797Y-81249780D01*
X138283035Y-81202161D01*
X138330654Y-81106923D01*
X138330654Y-81011685D01*
X138283035Y-80916447D01*
X138187797Y-80868828D01*
X137949701Y-80868828D01*
X137854463Y-80821209D01*
X137378273Y-81249780D02*
X137378273Y-80583114D01*
X137378273Y-80773590D02*
X137330654Y-80678352D01*
X137283035Y-80630733D01*
X137187797Y-80583114D01*
X137092559Y-80583114D01*
X136330654Y-81249780D02*
X136330654Y-80249780D01*
X136330654Y-81202161D02*
X136425892Y-81249780D01*
X136616368Y-81249780D01*
X136711606Y-81202161D01*
X136759225Y-81154542D01*
X136806844Y-81059304D01*
X136806844Y-80773590D01*
X136759225Y-80678352D01*
X136711606Y-80630733D01*
X136616368Y-80583114D01*
X136425892Y-80583114D01*
X136330654Y-80630733D01*
X135949701Y-80583114D02*
X135759225Y-81249780D01*
X135568749Y-80773590D01*
X135378273Y-81249780D01*
X135187797Y-80583114D01*
X134378273Y-81249780D02*
X134378273Y-80725971D01*
X134425892Y-80630733D01*
X134521130Y-80583114D01*
X134711606Y-80583114D01*
X134806844Y-80630733D01*
X134378273Y-81202161D02*
X134473511Y-81249780D01*
X134711606Y-81249780D01*
X134806844Y-81202161D01*
X134854463Y-81106923D01*
X134854463Y-81011685D01*
X134806844Y-80916447D01*
X134711606Y-80868828D01*
X134473511Y-80868828D01*
X134378273Y-80821209D01*
X133902082Y-81249780D02*
X133902082Y-80583114D01*
X133902082Y-80773590D02*
X133854463Y-80678352D01*
X133806844Y-80630733D01*
X133711606Y-80583114D01*
X133616368Y-80583114D01*
X132902082Y-81202161D02*
X132997320Y-81249780D01*
X133187797Y-81249780D01*
X133283035Y-81202161D01*
X133330654Y-81106923D01*
X133330654Y-80725971D01*
X133283035Y-80630733D01*
X133187797Y-80583114D01*
X132997320Y-80583114D01*
X132902082Y-80630733D01*
X132854463Y-80725971D01*
X132854463Y-80821209D01*
X133330654Y-80916447D01*
D11*
X143503298Y-81203579D02*
X143608060Y-81151198D01*
X143660440Y-81098817D01*
X143712821Y-80994055D01*
X143712821Y-80679769D01*
X143660440Y-80575007D01*
X143608060Y-80522626D01*
X143503298Y-80470245D01*
X143346155Y-80470245D01*
X143241393Y-80522626D01*
X143189012Y-80575007D01*
X143136631Y-80679769D01*
X143136631Y-80994055D01*
X143189012Y-81098817D01*
X143241393Y-81151198D01*
X143346155Y-81203579D01*
X143503298Y-81203579D01*
X142665202Y-80470245D02*
X142665202Y-81570245D01*
X142665202Y-80522626D02*
X142560440Y-80470245D01*
X142350917Y-80470245D01*
X142246155Y-80522626D01*
X142193774Y-80575007D01*
X142141393Y-80679769D01*
X142141393Y-80994055D01*
X142193774Y-81098817D01*
X142246155Y-81151198D01*
X142350917Y-81203579D01*
X142560440Y-81203579D01*
X142665202Y-81151198D01*
X141250917Y-81151198D02*
X141355679Y-81203579D01*
X141565202Y-81203579D01*
X141669964Y-81151198D01*
X141722345Y-81046436D01*
X141722345Y-80627388D01*
X141669964Y-80522626D01*
X141565202Y-80470245D01*
X141355679Y-80470245D01*
X141250917Y-80522626D01*
X141198536Y-80627388D01*
X141198536Y-80732150D01*
X141722345Y-80836912D01*
X140727107Y-80470245D02*
X140727107Y-81203579D01*
X140727107Y-80575007D02*
X140674726Y-80522626D01*
X140569964Y-80470245D01*
X140412821Y-80470245D01*
X140308060Y-80522626D01*
X140255679Y-80627388D01*
X140255679Y-81203579D01*
%TO.C,GPIO1*%
X123012200Y-49636438D02*
X122951723Y-49515485D01*
X122951723Y-49334057D01*
X123012200Y-49152628D01*
X123133152Y-49031676D01*
X123254104Y-48971200D01*
X123496009Y-48910723D01*
X123677438Y-48910723D01*
X123919342Y-48971200D01*
X124040295Y-49031676D01*
X124161247Y-49152628D01*
X124221723Y-49334057D01*
X124221723Y-49455009D01*
X124161247Y-49636438D01*
X124100771Y-49696914D01*
X123677438Y-49696914D01*
X123677438Y-49455009D01*
X124221723Y-50241200D02*
X122951723Y-50241200D01*
X122951723Y-50725009D01*
X123012200Y-50845961D01*
X123072676Y-50906438D01*
X123193628Y-50966914D01*
X123375057Y-50966914D01*
X123496009Y-50906438D01*
X123556485Y-50845961D01*
X123616961Y-50725009D01*
X123616961Y-50241200D01*
X124221723Y-51511200D02*
X122951723Y-51511200D01*
X122951723Y-52357866D02*
X122951723Y-52599771D01*
X123012200Y-52720723D01*
X123133152Y-52841676D01*
X123375057Y-52902152D01*
X123798390Y-52902152D01*
X124040295Y-52841676D01*
X124161247Y-52720723D01*
X124221723Y-52599771D01*
X124221723Y-52357866D01*
X124161247Y-52236914D01*
X124040295Y-52115961D01*
X123798390Y-52055485D01*
X123375057Y-52055485D01*
X123133152Y-52115961D01*
X123012200Y-52236914D01*
X122951723Y-52357866D01*
X124221723Y-54111676D02*
X124221723Y-53385961D01*
X124221723Y-53748819D02*
X122951723Y-53748819D01*
X123133152Y-53627866D01*
X123254104Y-53506914D01*
X123314580Y-53385961D01*
D13*
X153785714Y-51920714D02*
X153785714Y-52587380D01*
X154023809Y-51539761D02*
X154261904Y-52254047D01*
X153642857Y-52254047D01*
X153071428Y-51587380D02*
X152976190Y-51587380D01*
X152880952Y-51635000D01*
X152833333Y-51682619D01*
X152785714Y-51777857D01*
X152738095Y-51968333D01*
X152738095Y-52206428D01*
X152785714Y-52396904D01*
X152833333Y-52492142D01*
X152880952Y-52539761D01*
X152976190Y-52587380D01*
X153071428Y-52587380D01*
X153166666Y-52539761D01*
X153214285Y-52492142D01*
X153261904Y-52396904D01*
X153309523Y-52206428D01*
X153309523Y-51968333D01*
X153261904Y-51777857D01*
X153214285Y-51682619D01*
X153166666Y-51635000D01*
X153071428Y-51587380D01*
X154309523Y-50187380D02*
X153690476Y-50187380D01*
X154023809Y-50568333D01*
X153880952Y-50568333D01*
X153785714Y-50615952D01*
X153738095Y-50663571D01*
X153690476Y-50758809D01*
X153690476Y-50996904D01*
X153738095Y-51092142D01*
X153785714Y-51139761D01*
X153880952Y-51187380D01*
X154166666Y-51187380D01*
X154261904Y-51139761D01*
X154309523Y-51092142D01*
X153214285Y-51187380D02*
X153023809Y-51187380D01*
X152928571Y-51139761D01*
X152880952Y-51092142D01*
X152785714Y-50949285D01*
X152738095Y-50758809D01*
X152738095Y-50377857D01*
X152785714Y-50282619D01*
X152833333Y-50235000D01*
X152928571Y-50187380D01*
X153119047Y-50187380D01*
X153214285Y-50235000D01*
X153261904Y-50282619D01*
X153309523Y-50377857D01*
X153309523Y-50615952D01*
X153261904Y-50711190D01*
X153214285Y-50758809D01*
X153119047Y-50806428D01*
X152928571Y-50806428D01*
X152833333Y-50758809D01*
X152785714Y-50711190D01*
X152738095Y-50615952D01*
X125714285Y-51187380D02*
X126285714Y-51187380D01*
X126000000Y-51187380D02*
X126000000Y-50187380D01*
X126095238Y-50330238D01*
X126190476Y-50425476D01*
X126285714Y-50473095D01*
X126285714Y-51682619D02*
X126238095Y-51635000D01*
X126142857Y-51587380D01*
X125904761Y-51587380D01*
X125809523Y-51635000D01*
X125761904Y-51682619D01*
X125714285Y-51777857D01*
X125714285Y-51873095D01*
X125761904Y-52015952D01*
X126333333Y-52587380D01*
X125714285Y-52587380D01*
X125825285Y-49474380D02*
X126396714Y-49474380D01*
X126111000Y-49474380D02*
X126111000Y-48474380D01*
X126206238Y-48617238D01*
X126301476Y-48712476D01*
X126396714Y-48760095D01*
%TO.C,GPIO3*%
D11*
X129692400Y-96524838D02*
X129631923Y-96403885D01*
X129631923Y-96222457D01*
X129692400Y-96041028D01*
X129813352Y-95920076D01*
X129934304Y-95859600D01*
X130176209Y-95799123D01*
X130357638Y-95799123D01*
X130599542Y-95859600D01*
X130720495Y-95920076D01*
X130841447Y-96041028D01*
X130901923Y-96222457D01*
X130901923Y-96343409D01*
X130841447Y-96524838D01*
X130780971Y-96585314D01*
X130357638Y-96585314D01*
X130357638Y-96343409D01*
X130901923Y-97129600D02*
X129631923Y-97129600D01*
X129631923Y-97613409D01*
X129692400Y-97734361D01*
X129752876Y-97794838D01*
X129873828Y-97855314D01*
X130055257Y-97855314D01*
X130176209Y-97794838D01*
X130236685Y-97734361D01*
X130297161Y-97613409D01*
X130297161Y-97129600D01*
X130901923Y-98399600D02*
X129631923Y-98399600D01*
X129631923Y-99246266D02*
X129631923Y-99488171D01*
X129692400Y-99609123D01*
X129813352Y-99730076D01*
X130055257Y-99790552D01*
X130478590Y-99790552D01*
X130720495Y-99730076D01*
X130841447Y-99609123D01*
X130901923Y-99488171D01*
X130901923Y-99246266D01*
X130841447Y-99125314D01*
X130720495Y-99004361D01*
X130478590Y-98943885D01*
X130055257Y-98943885D01*
X129813352Y-99004361D01*
X129692400Y-99125314D01*
X129631923Y-99246266D01*
X129631923Y-100213885D02*
X129631923Y-101000076D01*
X130115733Y-100576742D01*
X130115733Y-100758171D01*
X130176209Y-100879123D01*
X130236685Y-100939600D01*
X130357638Y-101000076D01*
X130660019Y-101000076D01*
X130780971Y-100939600D01*
X130841447Y-100879123D01*
X130901923Y-100758171D01*
X130901923Y-100395314D01*
X130841447Y-100274361D01*
X130780971Y-100213885D01*
D13*
X160770714Y-98910714D02*
X160770714Y-99577380D01*
X161008809Y-98529761D02*
X161246904Y-99244047D01*
X160627857Y-99244047D01*
X160056428Y-98577380D02*
X159961190Y-98577380D01*
X159865952Y-98625000D01*
X159818333Y-98672619D01*
X159770714Y-98767857D01*
X159723095Y-98958333D01*
X159723095Y-99196428D01*
X159770714Y-99386904D01*
X159818333Y-99482142D01*
X159865952Y-99529761D01*
X159961190Y-99577380D01*
X160056428Y-99577380D01*
X160151666Y-99529761D01*
X160199285Y-99482142D01*
X160246904Y-99386904D01*
X160294523Y-99196428D01*
X160294523Y-98958333D01*
X160246904Y-98767857D01*
X160199285Y-98672619D01*
X160151666Y-98625000D01*
X160056428Y-98577380D01*
X161294523Y-97177380D02*
X160675476Y-97177380D01*
X161008809Y-97558333D01*
X160865952Y-97558333D01*
X160770714Y-97605952D01*
X160723095Y-97653571D01*
X160675476Y-97748809D01*
X160675476Y-97986904D01*
X160723095Y-98082142D01*
X160770714Y-98129761D01*
X160865952Y-98177380D01*
X161151666Y-98177380D01*
X161246904Y-98129761D01*
X161294523Y-98082142D01*
X160199285Y-98177380D02*
X160008809Y-98177380D01*
X159913571Y-98129761D01*
X159865952Y-98082142D01*
X159770714Y-97939285D01*
X159723095Y-97748809D01*
X159723095Y-97367857D01*
X159770714Y-97272619D01*
X159818333Y-97225000D01*
X159913571Y-97177380D01*
X160104047Y-97177380D01*
X160199285Y-97225000D01*
X160246904Y-97272619D01*
X160294523Y-97367857D01*
X160294523Y-97605952D01*
X160246904Y-97701190D01*
X160199285Y-97748809D01*
X160104047Y-97796428D01*
X159913571Y-97796428D01*
X159818333Y-97748809D01*
X159770714Y-97701190D01*
X159723095Y-97605952D01*
X132699285Y-98177380D02*
X133270714Y-98177380D01*
X132985000Y-98177380D02*
X132985000Y-97177380D01*
X133080238Y-97320238D01*
X133175476Y-97415476D01*
X133270714Y-97463095D01*
X133270714Y-98672619D02*
X133223095Y-98625000D01*
X133127857Y-98577380D01*
X132889761Y-98577380D01*
X132794523Y-98625000D01*
X132746904Y-98672619D01*
X132699285Y-98767857D01*
X132699285Y-98863095D01*
X132746904Y-99005952D01*
X133318333Y-99577380D01*
X132699285Y-99577380D01*
X132810285Y-96464380D02*
X133381714Y-96464380D01*
X133096000Y-96464380D02*
X133096000Y-95464380D01*
X133191238Y-95607238D01*
X133286476Y-95702476D01*
X133381714Y-95750095D01*
%TO.C,GPIO2*%
D11*
X122910600Y-89946238D02*
X122850123Y-89825285D01*
X122850123Y-89643857D01*
X122910600Y-89462428D01*
X123031552Y-89341476D01*
X123152504Y-89281000D01*
X123394409Y-89220523D01*
X123575838Y-89220523D01*
X123817742Y-89281000D01*
X123938695Y-89341476D01*
X124059647Y-89462428D01*
X124120123Y-89643857D01*
X124120123Y-89764809D01*
X124059647Y-89946238D01*
X123999171Y-90006714D01*
X123575838Y-90006714D01*
X123575838Y-89764809D01*
X124120123Y-90551000D02*
X122850123Y-90551000D01*
X122850123Y-91034809D01*
X122910600Y-91155761D01*
X122971076Y-91216238D01*
X123092028Y-91276714D01*
X123273457Y-91276714D01*
X123394409Y-91216238D01*
X123454885Y-91155761D01*
X123515361Y-91034809D01*
X123515361Y-90551000D01*
X124120123Y-91821000D02*
X122850123Y-91821000D01*
X122850123Y-92667666D02*
X122850123Y-92909571D01*
X122910600Y-93030523D01*
X123031552Y-93151476D01*
X123273457Y-93211952D01*
X123696790Y-93211952D01*
X123938695Y-93151476D01*
X124059647Y-93030523D01*
X124120123Y-92909571D01*
X124120123Y-92667666D01*
X124059647Y-92546714D01*
X123938695Y-92425761D01*
X123696790Y-92365285D01*
X123273457Y-92365285D01*
X123031552Y-92425761D01*
X122910600Y-92546714D01*
X122850123Y-92667666D01*
X122971076Y-93695761D02*
X122910600Y-93756238D01*
X122850123Y-93877190D01*
X122850123Y-94179571D01*
X122910600Y-94300523D01*
X122971076Y-94361000D01*
X123092028Y-94421476D01*
X123212980Y-94421476D01*
X123394409Y-94361000D01*
X124120123Y-93635285D01*
X124120123Y-94421476D01*
D13*
X153785714Y-92560714D02*
X153785714Y-93227380D01*
X154023809Y-92179761D02*
X154261904Y-92894047D01*
X153642857Y-92894047D01*
X153071428Y-92227380D02*
X152976190Y-92227380D01*
X152880952Y-92275000D01*
X152833333Y-92322619D01*
X152785714Y-92417857D01*
X152738095Y-92608333D01*
X152738095Y-92846428D01*
X152785714Y-93036904D01*
X152833333Y-93132142D01*
X152880952Y-93179761D01*
X152976190Y-93227380D01*
X153071428Y-93227380D01*
X153166666Y-93179761D01*
X153214285Y-93132142D01*
X153261904Y-93036904D01*
X153309523Y-92846428D01*
X153309523Y-92608333D01*
X153261904Y-92417857D01*
X153214285Y-92322619D01*
X153166666Y-92275000D01*
X153071428Y-92227380D01*
X154309523Y-90827380D02*
X153690476Y-90827380D01*
X154023809Y-91208333D01*
X153880952Y-91208333D01*
X153785714Y-91255952D01*
X153738095Y-91303571D01*
X153690476Y-91398809D01*
X153690476Y-91636904D01*
X153738095Y-91732142D01*
X153785714Y-91779761D01*
X153880952Y-91827380D01*
X154166666Y-91827380D01*
X154261904Y-91779761D01*
X154309523Y-91732142D01*
X153214285Y-91827380D02*
X153023809Y-91827380D01*
X152928571Y-91779761D01*
X152880952Y-91732142D01*
X152785714Y-91589285D01*
X152738095Y-91398809D01*
X152738095Y-91017857D01*
X152785714Y-90922619D01*
X152833333Y-90875000D01*
X152928571Y-90827380D01*
X153119047Y-90827380D01*
X153214285Y-90875000D01*
X153261904Y-90922619D01*
X153309523Y-91017857D01*
X153309523Y-91255952D01*
X153261904Y-91351190D01*
X153214285Y-91398809D01*
X153119047Y-91446428D01*
X152928571Y-91446428D01*
X152833333Y-91398809D01*
X152785714Y-91351190D01*
X152738095Y-91255952D01*
X125714285Y-91827380D02*
X126285714Y-91827380D01*
X126000000Y-91827380D02*
X126000000Y-90827380D01*
X126095238Y-90970238D01*
X126190476Y-91065476D01*
X126285714Y-91113095D01*
X126285714Y-92322619D02*
X126238095Y-92275000D01*
X126142857Y-92227380D01*
X125904761Y-92227380D01*
X125809523Y-92275000D01*
X125761904Y-92322619D01*
X125714285Y-92417857D01*
X125714285Y-92513095D01*
X125761904Y-92655952D01*
X126333333Y-93227380D01*
X125714285Y-93227380D01*
X125825285Y-90114380D02*
X126396714Y-90114380D01*
X126111000Y-90114380D02*
X126111000Y-89114380D01*
X126206238Y-89257238D01*
X126301476Y-89352476D01*
X126396714Y-89400095D01*
%TD*%
M02*
