%TF.GenerationSoftware,KiCad,Pcbnew,5.1.5+dfsg1-2build2*%
%TF.CreationDate,2020-06-30T13:18:29+03:00*%
%TF.ProjectId,Lime2-SHIELD_RevB,4c696d65-322d-4534-9849-454c445f5265,D*%
%TF.SameCoordinates,Original*%
%TF.FileFunction,Copper,L4,Bot*%
%TF.FilePolarity,Positive*%
%FSLAX46Y46*%
G04 Gerber Fmt 4.6, Leading zero omitted, Abs format (unit mm)*
G04 Created by KiCad (PCBNEW 5.1.5+dfsg1-2build2) date 2020-06-30 13:18:29*
%MOMM*%
%LPD*%
G04 APERTURE LIST*
%TA.AperFunction,SMDPad,CuDef*%
%ADD10R,1.800000X0.700000*%
%TD*%
%TA.AperFunction,ConnectorPad*%
%ADD11C,1.000000*%
%TD*%
%TA.AperFunction,SMDPad,CuDef*%
%ADD12R,0.700000X1.800000*%
%TD*%
%TA.AperFunction,ComponentPad*%
%ADD13C,2.540000*%
%TD*%
%TA.AperFunction,ComponentPad*%
%ADD14C,1.900000*%
%TD*%
%TA.AperFunction,ViaPad*%
%ADD15C,0.750000*%
%TD*%
%TA.AperFunction,ViaPad*%
%ADD16C,0.600000*%
%TD*%
%TA.AperFunction,Conductor*%
%ADD17C,0.508000*%
%TD*%
%TA.AperFunction,Conductor*%
%ADD18C,0.254000*%
%TD*%
%TA.AperFunction,Conductor*%
%ADD19C,0.406400*%
%TD*%
%TA.AperFunction,Conductor*%
%ADD20C,0.762000*%
%TD*%
%TA.AperFunction,Conductor*%
%ADD21C,0.127000*%
%TD*%
G04 APERTURE END LIST*
D10*
%TO.P,GPIO4,20*%
%TO.N,/PC17_USB_DRV*%
X114428000Y-42805000D03*
%TO.P,GPIO4,19*%
%TO.N,/FMINL*%
X118492000Y-42805000D03*
%TO.P,GPIO4,18*%
%TO.N,/PC16_SDC2_RST*%
X114428000Y-44075000D03*
%TO.P,GPIO4,17*%
%TO.N,/FNINR*%
X118492000Y-44075000D03*
%TO.P,GPIO4,16*%
%TO.N,/PC7_SDC2_CLK*%
X114428000Y-45345000D03*
%TO.P,GPIO4,15*%
%TO.N,/LINEINL*%
X118492000Y-45345000D03*
%TO.P,GPIO4,14*%
%TO.N,/PA14*%
X114428000Y-46615000D03*
%TO.P,GPIO4,13*%
%TO.N,/LINEINR*%
X118492000Y-46615000D03*
%TO.P,GPIO4,11*%
%TO.N,/TVIN3*%
X118492000Y-47885000D03*
%TO.P,GPIO4,9*%
%TO.N,/TVIN2*%
X118492000Y-49155000D03*
%TO.P,GPIO4,8*%
%TO.N,/MIC1OUTN*%
X114428000Y-50425000D03*
%TO.P,GPIO4,7*%
%TO.N,/TVIN1*%
X118492000Y-50425000D03*
%TO.P,GPIO4,6*%
%TO.N,/MIC1OUTP*%
X114428000Y-51695000D03*
%TO.P,GPIO4,5*%
%TO.N,/TVIN0*%
X118492000Y-51695000D03*
%TO.P,GPIO4,4*%
%TO.N,/NMI_IN*%
X114428000Y-52965000D03*
%TO.P,GPIO4,3*%
%TO.N,/TVOUT3*%
X118492000Y-52965000D03*
%TO.P,GPIO4,2*%
%TO.N,GND*%
X114428000Y-54235000D03*
%TO.P,GPIO4,1*%
%TO.N,/+3.3V*%
X118492000Y-54235000D03*
%TD*%
D11*
%TO.P,Ref\002A,Fid1*%
%TO.N,N/C*%
X104000000Y-99140000D03*
%TD*%
%TO.P,Ref\002A,Fid1*%
%TO.N,N/C*%
X164300000Y-99330000D03*
%TD*%
%TO.P,Ref\002A,Fid1*%
%TO.N,N/C*%
X164000000Y-51000000D03*
%TD*%
%TO.P,Ref\002A,Fid1*%
%TO.N,N/C*%
X104000000Y-44000000D03*
%TD*%
D12*
%TO.P,GPIO1,20*%
%TO.N,/PG7_UART3RX*%
X139065000Y-53467000D03*
%TO.P,GPIO1,19*%
%TO.N,/VGA-G*%
X139065000Y-49403000D03*
%TO.P,GPIO1,18*%
%TO.N,/PG6_UART3TX*%
X137795000Y-53467000D03*
%TO.P,GPIO1,17*%
%TO.N,/HPOUTR*%
X137795000Y-49403000D03*
%TO.P,GPIO1,16*%
%TO.N,/PG5*%
X136525000Y-53467000D03*
%TO.P,GPIO1,15*%
%TO.N,/HPCOM*%
X136525000Y-49403000D03*
%TO.P,GPIO1,14*%
%TO.N,/PG4*%
X135255000Y-53467000D03*
%TO.P,GPIO1,13*%
%TO.N,/HPOUTL*%
X135255000Y-49403000D03*
%TO.P,GPIO1,12*%
%TO.N,/PG3*%
X133985000Y-53467000D03*
%TO.P,GPIO1,11*%
%TO.N,/VMIC*%
X133985000Y-49403000D03*
%TO.P,GPIO1,10*%
%TO.N,/PG2*%
X132715000Y-53467000D03*
%TO.P,GPIO1,9*%
%TO.N,/MICIN1*%
X132715000Y-49403000D03*
%TO.P,GPIO1,8*%
%TO.N,/PG1*%
X131445000Y-53467000D03*
%TO.P,GPIO1,7*%
%TO.N,/LRADC1*%
X131445000Y-49403000D03*
%TO.P,GPIO1,6*%
%TO.N,/PG0*%
X130175000Y-53467000D03*
%TO.P,GPIO1,5*%
%TO.N,/LRADC0*%
X130175000Y-49403000D03*
%TO.P,GPIO1,4*%
%TO.N,/+3.3V*%
X128905000Y-53467000D03*
%TO.P,GPIO1,3*%
%TO.N,GND*%
X128905000Y-49403000D03*
%TO.P,GPIO1,2*%
%TO.N,Net-(GPIO1-Pad2)*%
X127635000Y-53467000D03*
%TO.P,GPIO1,1*%
%TO.N,GND*%
X127635000Y-49403000D03*
%TO.P,GPIO1,21*%
%TO.N,/VGA-B*%
X140335000Y-49403000D03*
%TO.P,GPIO1,22*%
%TO.N,/PG8*%
X140335000Y-53467000D03*
%TO.P,GPIO1,23*%
%TO.N,/VGA-R*%
X141605000Y-49403000D03*
%TO.P,GPIO1,24*%
%TO.N,/PG9*%
X141605000Y-53467000D03*
%TO.P,GPIO1,25*%
%TO.N,/UART0-RX*%
X142875000Y-49403000D03*
%TO.P,GPIO1,26*%
%TO.N,/PG10_UART4TX*%
X142875000Y-53467000D03*
%TO.P,GPIO1,27*%
%TO.N,/UART0-TX*%
X144145000Y-49403000D03*
%TO.P,GPIO1,28*%
%TO.N,/PG11_UART4RX*%
X144145000Y-53467000D03*
%TO.P,GPIO1,29*%
%TO.N,/PB21_TWI2-SDA*%
X145415000Y-49403000D03*
%TO.P,GPIO1,30*%
%TO.N,/PC3_SATA_PWE*%
X145415000Y-53467000D03*
%TO.P,GPIO1,31*%
%TO.N,/PB20_TWI2-SCL*%
X146685000Y-49403000D03*
%TO.P,GPIO1,32*%
%TO.N,/PC18*%
X146685000Y-53467000D03*
%TO.P,GPIO1,33*%
%TO.N,/PB19_TWI1-SDA*%
X147955000Y-49403000D03*
%TO.P,GPIO1,34*%
%TO.N,/PC19_SPI2_CS0*%
X147955000Y-53467000D03*
%TO.P,GPIO1,35*%
%TO.N,/PB18_TWI1-SCL*%
X149225000Y-49403000D03*
%TO.P,GPIO1,36*%
%TO.N,/PC20_SPI2_CLK*%
X149225000Y-53467000D03*
%TO.P,GPIO1,37*%
%TO.N,/PC24*%
X150495000Y-49403000D03*
%TO.P,GPIO1,38*%
%TO.N,/PC21_SPI2_MOSI*%
X150495000Y-53467000D03*
%TO.P,GPIO1,39*%
%TO.N,/SPI0_CS*%
X151765000Y-49403000D03*
%TO.P,GPIO1,40*%
%TO.N,/PC22_SPI2_MISO*%
X151765000Y-53467000D03*
%TD*%
%TO.P,GPIO3,20*%
%TO.N,/PH13*%
X146050000Y-100457000D03*
%TO.P,GPIO3,19*%
%TO.N,/PB11*%
X146050000Y-96393000D03*
%TO.P,GPIO3,18*%
%TO.N,/PH12*%
X144780000Y-100457000D03*
%TO.P,GPIO3,17*%
%TO.N,/PB10*%
X144780000Y-96393000D03*
%TO.P,GPIO3,16*%
%TO.N,/PH11*%
X143510000Y-100457000D03*
%TO.P,GPIO3,15*%
%TO.N,/PB9*%
X143510000Y-96393000D03*
%TO.P,GPIO3,14*%
%TO.N,/PH10*%
X142240000Y-100457000D03*
%TO.P,GPIO3,13*%
%TO.N,/PB8_SATA_PWE1*%
X142240000Y-96393000D03*
%TO.P,GPIO3,12*%
%TO.N,/PH9_CANS*%
X140970000Y-100457000D03*
%TO.P,GPIO3,11*%
%TO.N,/PB7*%
X140970000Y-96393000D03*
%TO.P,GPIO3,10*%
%TO.N,/PH7*%
X139700000Y-100457000D03*
%TO.P,GPIO3,9*%
%TO.N,/PB6*%
X139700000Y-96393000D03*
%TO.P,GPIO3,8*%
%TO.N,/PH0*%
X138430000Y-100457000D03*
%TO.P,GPIO3,7*%
%TO.N,/PB5*%
X138430000Y-96393000D03*
%TO.P,GPIO3,6*%
%TO.N,/RESET_N*%
X137160000Y-100457000D03*
%TO.P,GPIO3,5*%
%TO.N,/PB4*%
X137160000Y-96393000D03*
%TO.P,GPIO3,4*%
%TO.N,/+3.3V*%
X135890000Y-100457000D03*
%TO.P,GPIO3,3*%
%TO.N,/PB3*%
X135890000Y-96393000D03*
%TO.P,GPIO3,2*%
%TO.N,/+5V*%
X134620000Y-100457000D03*
%TO.P,GPIO3,1*%
%TO.N,GND*%
X134620000Y-96393000D03*
%TO.P,GPIO3,21*%
%TO.N,/PB12*%
X147320000Y-96393000D03*
%TO.P,GPIO3,22*%
%TO.N,/PH14*%
X147320000Y-100457000D03*
%TO.P,GPIO3,23*%
%TO.N,/PB13*%
X148590000Y-96393000D03*
%TO.P,GPIO3,24*%
%TO.N,/PH15*%
X148590000Y-100457000D03*
%TO.P,GPIO3,25*%
%TO.N,/PB14*%
X149860000Y-96393000D03*
%TO.P,GPIO3,26*%
%TO.N,/PH16*%
X149860000Y-100457000D03*
%TO.P,GPIO3,27*%
%TO.N,/PB15*%
X151130000Y-96393000D03*
%TO.P,GPIO3,28*%
%TO.N,/PH17*%
X151130000Y-100457000D03*
%TO.P,GPIO3,29*%
%TO.N,/PB16*%
X152400000Y-96393000D03*
%TO.P,GPIO3,30*%
%TO.N,/PH18*%
X152400000Y-100457000D03*
%TO.P,GPIO3,31*%
%TO.N,/PB17*%
X153670000Y-96393000D03*
%TO.P,GPIO3,32*%
%TO.N,/PH19*%
X153670000Y-100457000D03*
%TO.P,GPIO3,33*%
%TO.N,/PH24*%
X154940000Y-96393000D03*
%TO.P,GPIO3,34*%
%TO.N,/PH20_CANTX*%
X154940000Y-100457000D03*
%TO.P,GPIO3,35*%
%TO.N,/PH25*%
X156210000Y-96393000D03*
%TO.P,GPIO3,36*%
%TO.N,/PH21_CANRX*%
X156210000Y-100457000D03*
%TO.P,GPIO3,37*%
%TO.N,/PH26*%
X157480000Y-96393000D03*
%TO.P,GPIO3,38*%
%TO.N,/PH22*%
X157480000Y-100457000D03*
%TO.P,GPIO3,39*%
%TO.N,/PH27*%
X158750000Y-96393000D03*
%TO.P,GPIO3,40*%
%TO.N,/PH23*%
X158750000Y-100457000D03*
%TD*%
%TO.P,GPIO2,20*%
%TO.N,/PI5*%
X139065000Y-94107000D03*
%TO.P,GPIO2,19*%
%TO.N,/PE7*%
X139065000Y-90043000D03*
%TO.P,GPIO2,18*%
%TO.N,/PI4*%
X137795000Y-94107000D03*
%TO.P,GPIO2,17*%
%TO.N,/PE6*%
X137795000Y-90043000D03*
%TO.P,GPIO2,16*%
%TO.N,/PI3_PWM1*%
X136525000Y-94107000D03*
%TO.P,GPIO2,15*%
%TO.N,/PE5*%
X136525000Y-90043000D03*
%TO.P,GPIO2,14*%
%TO.N,/PI2*%
X135255000Y-94107000D03*
%TO.P,GPIO2,13*%
%TO.N,/PE4*%
X135255000Y-90043000D03*
%TO.P,GPIO2,12*%
%TO.N,/PI1*%
X133985000Y-94107000D03*
%TO.P,GPIO2,11*%
%TO.N,/PE3*%
X133985000Y-90043000D03*
%TO.P,GPIO2,10*%
%TO.N,/PI0*%
X132715000Y-94107000D03*
%TO.P,GPIO2,9*%
%TO.N,/PE2*%
X132715000Y-90043000D03*
%TO.P,GPIO2,8*%
%TO.N,/TWI0-SDA*%
X131445000Y-94107000D03*
%TO.P,GPIO2,7*%
%TO.N,/PE1*%
X131445000Y-90043000D03*
%TO.P,GPIO2,6*%
%TO.N,/TWI0-SCK*%
X130175000Y-94107000D03*
%TO.P,GPIO2,5*%
%TO.N,/PE0*%
X130175000Y-90043000D03*
%TO.P,GPIO2,4*%
%TO.N,/+3.3V*%
X128905000Y-94107000D03*
%TO.P,GPIO2,3*%
%TO.N,/LDO3_2.8V*%
X128905000Y-90043000D03*
%TO.P,GPIO2,2*%
%TO.N,/+5V*%
X127635000Y-94107000D03*
%TO.P,GPIO2,1*%
%TO.N,GND*%
X127635000Y-90043000D03*
%TO.P,GPIO2,21*%
%TO.N,/PE8*%
X140335000Y-90043000D03*
%TO.P,GPIO2,22*%
%TO.N,/PI6*%
X140335000Y-94107000D03*
%TO.P,GPIO2,23*%
%TO.N,/PE9*%
X141605000Y-90043000D03*
%TO.P,GPIO2,24*%
%TO.N,/PI7*%
X141605000Y-94107000D03*
%TO.P,GPIO2,25*%
%TO.N,/PE10*%
X142875000Y-90043000D03*
%TO.P,GPIO2,26*%
%TO.N,/PI8*%
X142875000Y-94107000D03*
%TO.P,GPIO2,27*%
%TO.N,/PE11*%
X144145000Y-90043000D03*
%TO.P,GPIO2,28*%
%TO.N,/PI9*%
X144145000Y-94107000D03*
%TO.P,GPIO2,29*%
%TO.N,/PI21_UART7RX*%
X145415000Y-90043000D03*
%TO.P,GPIO2,30*%
%TO.N,/PI10*%
X145415000Y-94107000D03*
%TO.P,GPIO2,31*%
%TO.N,/PI20_UART7TX*%
X146685000Y-90043000D03*
%TO.P,GPIO2,32*%
%TO.N,/PI11*%
X146685000Y-94107000D03*
%TO.P,GPIO2,33*%
%TO.N,/PI19_SPI1_MISO*%
X147955000Y-90043000D03*
%TO.P,GPIO2,34*%
%TO.N,/PI12*%
X147955000Y-94107000D03*
%TO.P,GPIO2,35*%
%TO.N,/PI18_SPI1_MOSI*%
X149225000Y-90043000D03*
%TO.P,GPIO2,36*%
%TO.N,/PI13*%
X149225000Y-94107000D03*
%TO.P,GPIO2,37*%
%TO.N,/PI17_SPI1_CLK*%
X150495000Y-90043000D03*
%TO.P,GPIO2,38*%
%TO.N,/PI14*%
X150495000Y-94107000D03*
%TO.P,GPIO2,39*%
%TO.N,/PI16_SPI1_CS0*%
X151765000Y-90043000D03*
%TO.P,GPIO2,40*%
%TO.N,/PI15*%
X151765000Y-94107000D03*
%TD*%
D13*
%TO.P,CAN1,3*%
%TO.N,GND*%
X118670000Y-78200000D03*
%TO.P,CAN1,1*%
%TO.N,Net-(CAN1-Pad1)*%
X118670000Y-71200000D03*
%TO.P,CAN1,2*%
%TO.N,Net-(CAN1-Pad2)*%
X118670000Y-74700000D03*
%TD*%
D14*
%TO.P,AUDIO_JACK_5PIN2,7*%
%TO.N,N/C*%
X113840000Y-48260000D03*
%TO.P,AUDIO_JACK_5PIN2,6*%
X106840000Y-48260000D03*
%TD*%
%TO.P,AUDIO_JACK_5PIN1,7*%
%TO.N,N/C*%
X113920000Y-59560000D03*
%TO.P,AUDIO_JACK_5PIN1,6*%
X106920000Y-59560000D03*
%TD*%
D15*
%TO.N,GND*%
X124800000Y-51450000D03*
X126450000Y-47550000D03*
X139360000Y-63306600D03*
X123860000Y-64328600D03*
X123860000Y-60239200D03*
X111201200Y-54254400D03*
X138353800Y-76784200D03*
X134264400Y-79984600D03*
X104089200Y-96697800D03*
X104089200Y-94157800D03*
X104089200Y-91617800D03*
X104089200Y-89077800D03*
X104089200Y-86537800D03*
X147370800Y-76708000D03*
X147497800Y-62484000D03*
X127750000Y-42600000D03*
X127850000Y-46700000D03*
X105840000Y-53735500D03*
X122047000Y-65303400D03*
X134848600Y-69138800D03*
X123647200Y-81280000D03*
X148584000Y-87325200D03*
X132029200Y-95529400D03*
X153593800Y-93675200D03*
X142875000Y-92704998D03*
X128219200Y-87274400D03*
X123113800Y-93751400D03*
X118033800Y-93751400D03*
X110439200Y-87350600D03*
X135839200Y-92760800D03*
X146650000Y-51950000D03*
%TO.N,Net-(CAN1-Pad2)*%
X123900000Y-74700000D03*
%TO.N,/HPCOM*%
X138811000Y-50927000D03*
%TO.N,/HPOUTR*%
X137795000Y-50927000D03*
%TO.N,/HPOUTL*%
X117729000Y-63055500D03*
%TO.N,Net-(AUDIO_JACK_5PIN1-Pad1)*%
X103050000Y-65050000D03*
X124777500Y-43053000D03*
%TO.N,/+3.3V*%
X128905000Y-55270400D03*
X147396200Y-78486000D03*
X147523200Y-64008000D03*
X119913400Y-54229000D03*
X138379200Y-87579200D03*
X158673800Y-87503000D03*
X129108200Y-92659200D03*
X134937500Y-74485500D03*
X132842000Y-71247000D03*
X158673800Y-91800000D03*
%TO.N,/MICIN1*%
X132715000Y-50863500D03*
%TO.N,/VMIC*%
X133985000Y-50863500D03*
D16*
%TO.N,/PG7_UART3RX*%
X140335000Y-59944000D03*
%TO.N,/PG6_UART3TX*%
X140241737Y-60866737D03*
D15*
%TO.N,/PG5*%
X135318500Y-60896500D03*
%TO.N,/PG4*%
X134527276Y-60267501D03*
%TO.N,/PG3*%
X136969500Y-64960500D03*
%TO.N,/PG2*%
X135953500Y-64960500D03*
%TO.N,/PG1*%
X131450000Y-59800000D03*
%TO.N,/PG0*%
X131654828Y-65043328D03*
%TO.N,/+5V*%
X157353000Y-94462600D03*
X127381000Y-92659200D03*
X131127500Y-78740000D03*
D16*
%TO.N,/PG10_UART4TX*%
X142875000Y-55435500D03*
%TO.N,/PG11_UART4RX*%
X144145000Y-55435500D03*
%TO.N,/PB21_TWI2-SDA*%
X145415000Y-50863500D03*
%TO.N,/PB20_TWI2-SCL*%
X146685000Y-50863500D03*
%TO.N,/PB19_TWI1-SDA*%
X142049500Y-70675500D03*
X148653500Y-50990500D03*
X152463500Y-70675500D03*
X139636500Y-70675500D03*
%TO.N,/PC19_SPI2_CS0*%
X157670500Y-57704010D03*
%TO.N,/PB18_TWI1-SCL*%
X141444261Y-71407739D03*
X149542500Y-50990500D03*
X151130000Y-71229500D03*
X139687736Y-71407739D03*
D15*
%TO.N,/PC20_SPI2_CLK*%
X130759200Y-87477600D03*
D16*
X158813500Y-57150000D03*
D15*
X157683200Y-68503800D03*
%TO.N,/PC21_SPI2_MOSI*%
X135839200Y-87528400D03*
D16*
X155067000Y-56515000D03*
D15*
%TO.N,/PC22_SPI2_MISO*%
X155117800Y-68554600D03*
X133273800Y-87477600D03*
D16*
X156400500Y-56451500D03*
%TO.N,/PE6*%
X137795000Y-91884500D03*
%TO.N,/PI3_PWM1*%
X144145000Y-92710000D03*
%TO.N,/PE5*%
X136525000Y-91884500D03*
%TO.N,/PE4*%
X135255000Y-91901000D03*
%TO.N,/PE1*%
X123190000Y-87566500D03*
%TO.N,/PE8*%
X120586500Y-87566500D03*
%TO.N,/PE9*%
X118046500Y-87566500D03*
%TO.N,/PI7*%
X141541500Y-92900500D03*
%TO.N,/PE10*%
X115506500Y-87566500D03*
%TO.N,/PE11*%
X112966500Y-87566500D03*
%TO.N,/PI21_UART7RX*%
X148570190Y-82974690D03*
%TO.N,/PI10*%
X145415000Y-92837000D03*
%TO.N,/PI20_UART7TX*%
X149500730Y-82583932D03*
%TO.N,/PI11*%
X146685000Y-92900500D03*
%TO.N,/PI19_SPI1_MISO*%
X155003500Y-82994500D03*
%TO.N,/PI18_SPI1_MOSI*%
X153733500Y-83693000D03*
%TO.N,/PI17_SPI1_CLK*%
X157543500Y-83693000D03*
%TO.N,/PI16_SPI1_CS0*%
X156146500Y-84391500D03*
%TO.N,/PI15*%
X151765000Y-92837000D03*
D15*
%TO.N,/PH13*%
X146050000Y-99308011D03*
X120599200Y-97739200D03*
%TO.N,/PH12*%
X144780000Y-99308011D03*
X115519200Y-97739200D03*
%TO.N,/PH11*%
X143510000Y-99308011D03*
X112979200Y-97739200D03*
%TO.N,/PH10*%
X142240000Y-99308011D03*
X110439200Y-97739200D03*
%TO.N,/PH9_CANS*%
X140893800Y-99314000D03*
%TO.N,/PH14*%
X147320000Y-99308011D03*
X129597500Y-95834200D03*
%TO.N,/PH20_CANTX*%
X154940000Y-99123500D03*
%TO.N,/PH21_CANRX*%
X156210000Y-99123500D03*
%TO.N,/LINEINL*%
X117050000Y-45300000D03*
%TO.N,/LINEINR*%
X117000000Y-42750000D03*
%TO.N,Net-(MICRO_SD1-Pad5)*%
X128300000Y-72550000D03*
X133794500Y-65905500D03*
%TD*%
D17*
%TO.N,GND*%
X114428000Y-54235000D02*
X111220600Y-54235000D01*
X111220600Y-54235000D02*
X111201200Y-54254400D01*
D18*
X128219200Y-49403000D02*
X128270000Y-49352200D01*
D19*
X127635000Y-49403000D02*
X128219200Y-49403000D01*
X128219200Y-49403000D02*
X128905000Y-49403000D01*
D17*
X134620000Y-96393000D02*
X132892800Y-96393000D01*
X132892800Y-96393000D02*
X132029200Y-95529400D01*
X128219200Y-87274400D02*
X127635000Y-87858600D01*
X127635000Y-87858600D02*
X127635000Y-90043000D01*
%TO.N,Net-(CAN1-Pad2)*%
X123369670Y-74700000D02*
X118670000Y-74700000D01*
X123900000Y-74700000D02*
X123369670Y-74700000D01*
%TO.N,Net-(CAN1-Pad1)*%
X118717000Y-71247000D02*
X118670000Y-71200000D01*
D19*
%TO.N,/HPCOM*%
X138811000Y-51457330D02*
X138528530Y-51739800D01*
X138811000Y-50927000D02*
X138811000Y-51457330D01*
X138528530Y-51739800D02*
X137007600Y-51739800D01*
X137007600Y-51739800D02*
X136525000Y-51257200D01*
X136525000Y-51257200D02*
X136525000Y-49403000D01*
%TO.N,/HPOUTR*%
X137795000Y-50927000D02*
X137795000Y-49403000D01*
%TO.N,/HPOUTL*%
X128644497Y-52215201D02*
X127895503Y-52215201D01*
X128726198Y-52133500D02*
X128644497Y-52215201D01*
X127895503Y-52215201D02*
X127813802Y-52133500D01*
X133830900Y-52133500D02*
X128726198Y-52133500D01*
X135255000Y-49403000D02*
X135255000Y-50709400D01*
X135255000Y-50709400D02*
X133830900Y-52133500D01*
X127813802Y-52133500D02*
X125984000Y-52133500D01*
X124040910Y-56362590D02*
X117729000Y-62674500D01*
X125984000Y-52133500D02*
X124040910Y-54076590D01*
X124040910Y-54076590D02*
X124040910Y-56362590D01*
X117729000Y-62674500D02*
X117729000Y-63055500D01*
%TO.N,Net-(AUDIO_JACK_5PIN1-Pad1)*%
X103580330Y-65050000D02*
X103050000Y-65050000D01*
X124777500Y-43053000D02*
X123507500Y-44323000D01*
X123507500Y-55965092D02*
X114422592Y-65050000D01*
X123507500Y-44323000D02*
X123507500Y-55965092D01*
X114422592Y-65050000D02*
X103580330Y-65050000D01*
%TO.N,/+3.3V*%
X128905000Y-53467000D02*
X128905000Y-55270400D01*
D18*
X119907400Y-54235000D02*
X119913400Y-54229000D01*
X118492000Y-54235000D02*
X119907400Y-54235000D01*
D17*
X128905000Y-92862400D02*
X129108200Y-92659200D01*
X128905000Y-94107000D02*
X128905000Y-92862400D01*
X129494701Y-99205201D02*
X133204799Y-99205201D01*
D19*
X129494701Y-99205201D02*
X129476500Y-99187000D01*
D17*
X128841500Y-98552000D02*
X129476500Y-99187000D01*
D19*
X135890000Y-99187000D02*
X135871799Y-99205201D01*
X135871799Y-99205201D02*
X129494701Y-99205201D01*
D17*
X128841500Y-98552000D02*
X128841500Y-94170500D01*
X128841500Y-94170500D02*
X128905000Y-94107000D01*
X135890000Y-100457000D02*
X135890000Y-99187000D01*
D18*
X134937500Y-73342500D02*
X134937500Y-74485500D01*
X132842000Y-71247000D02*
X134937500Y-73342500D01*
%TO.N,/MICIN1*%
X132715000Y-49403000D02*
X132715000Y-50863500D01*
%TO.N,/VMIC*%
X133985000Y-49403000D02*
X133985000Y-50863500D01*
%TO.N,/PG7_UART3RX*%
X140335000Y-59944000D02*
X139065000Y-58674000D01*
X139065000Y-58674000D02*
X139065000Y-53467000D01*
%TO.N,/PG6_UART3TX*%
X137795000Y-53467000D02*
X137795000Y-58420000D01*
X137795000Y-58420000D02*
X140241737Y-60866737D01*
%TO.N,/PG5*%
X136525000Y-55919878D02*
X135318500Y-57126378D01*
X135318500Y-57126378D02*
X135318500Y-60896500D01*
X136525000Y-53467000D02*
X136525000Y-55919878D01*
%TO.N,/PG4*%
X135255000Y-54017000D02*
X134527276Y-54744724D01*
X135255000Y-53467000D02*
X135255000Y-54017000D01*
X134527276Y-54744724D02*
X134527276Y-59737171D01*
X134527276Y-59737171D02*
X134527276Y-60267501D01*
%TO.N,/PG3*%
X133898275Y-61889275D02*
X136594501Y-64585501D01*
X136594501Y-64585501D02*
X136969500Y-64960500D01*
X133898275Y-59965580D02*
X133898275Y-61889275D01*
X133985000Y-59878855D02*
X133898275Y-59965580D01*
X133985000Y-53467000D02*
X133985000Y-59878855D01*
%TO.N,/PG2*%
X132715000Y-61722000D02*
X135953500Y-64960500D01*
X132715000Y-53467000D02*
X132715000Y-61722000D01*
%TO.N,/PG1*%
X131445000Y-53467000D02*
X131445000Y-54621000D01*
X131450000Y-59269670D02*
X131450000Y-56800000D01*
X131450000Y-59800000D02*
X131450000Y-59269670D01*
X131445000Y-54621000D02*
X131450000Y-56800000D01*
X131450000Y-56800000D02*
X131445000Y-56832500D01*
%TO.N,/PG0*%
X130175000Y-53467000D02*
X130175000Y-63563500D01*
X130175000Y-63563500D02*
X131654828Y-65043328D01*
D20*
%TO.N,/+5V*%
X127635000Y-99441000D02*
X127635000Y-95758000D01*
X128651000Y-100457000D02*
X127635000Y-99441000D01*
D17*
X134620000Y-100457000D02*
X133781800Y-100457000D01*
D20*
X133781800Y-100457000D02*
X128651000Y-100457000D01*
D17*
X127635000Y-92913200D02*
X127381000Y-92659200D01*
X127635000Y-94107000D02*
X127635000Y-92913200D01*
X127635000Y-99441000D02*
X127635000Y-94107000D01*
D18*
%TO.N,/PG10_UART4TX*%
X142875000Y-55435500D02*
X142875000Y-53467000D01*
%TO.N,/PG11_UART4RX*%
X144145000Y-54621000D02*
X144145000Y-55435500D01*
X144145000Y-53467000D02*
X144145000Y-54621000D01*
%TO.N,/PB21_TWI2-SDA*%
X145415000Y-50863500D02*
X145415000Y-49403000D01*
%TO.N,/PB20_TWI2-SCL*%
X146685000Y-49403000D02*
X146685000Y-50863500D01*
%TO.N,/PB19_TWI1-SDA*%
X139636500Y-70675500D02*
X142049500Y-70675500D01*
X152463500Y-70675500D02*
X142049500Y-70675500D01*
X147955000Y-50292000D02*
X148653500Y-50990500D01*
X147955000Y-49403000D02*
X147955000Y-50292000D01*
%TO.N,/PC19_SPI2_CS0*%
X151038010Y-57704010D02*
X157246236Y-57704010D01*
X147955000Y-53467000D02*
X147955000Y-54621000D01*
X157246236Y-57704010D02*
X157670500Y-57704010D01*
X147955000Y-54621000D02*
X151038010Y-57704010D01*
%TO.N,/PB18_TWI1-SCL*%
X141444261Y-71407739D02*
X150951761Y-71407739D01*
X139687736Y-71407739D02*
X141444261Y-71407739D01*
X149225000Y-50673000D02*
X149542500Y-50990500D01*
X149225000Y-49403000D02*
X149225000Y-50673000D01*
X150951761Y-71407739D02*
X151130000Y-71229500D01*
%TO.N,/PC20_SPI2_CLK*%
X149225000Y-55054500D02*
X151320500Y-57150000D01*
X149225000Y-53467000D02*
X149225000Y-55054500D01*
X151320500Y-57150000D02*
X158813500Y-57150000D01*
%TO.N,/PC21_SPI2_MOSI*%
X150495000Y-54621000D02*
X152389000Y-56515000D01*
X150495000Y-53467000D02*
X150495000Y-54621000D01*
X152389000Y-56515000D02*
X155067000Y-56515000D01*
%TO.N,/PC22_SPI2_MISO*%
X151765000Y-54800500D02*
X152527000Y-55562500D01*
X152527000Y-55562500D02*
X155067000Y-55562500D01*
X155956000Y-56451500D02*
X156400500Y-56451500D01*
X151765000Y-53467000D02*
X151765000Y-54800500D01*
X155067000Y-55562500D02*
X155956000Y-56451500D01*
%TO.N,/PE6*%
X137795000Y-91884500D02*
X137795000Y-90043000D01*
%TO.N,/PI3_PWM1*%
X143433800Y-91440000D02*
X144145000Y-92151200D01*
X144145000Y-92151200D02*
X144145000Y-92710000D01*
X138276821Y-92634579D02*
X139471400Y-91440000D01*
X139471400Y-91440000D02*
X143433800Y-91440000D01*
X136525000Y-94107000D02*
X136525000Y-93557000D01*
X137447421Y-92634579D02*
X138276821Y-92634579D01*
X136525000Y-93557000D02*
X137447421Y-92634579D01*
%TO.N,/PE5*%
X136525000Y-91197000D02*
X136525000Y-91884500D01*
X136525000Y-90043000D02*
X136525000Y-91197000D01*
X136525000Y-90043000D02*
X136525000Y-90593000D01*
%TO.N,/PE4*%
X135255000Y-91901000D02*
X135255000Y-90043000D01*
%TO.N,/PE1*%
X131445000Y-86664800D02*
X130276600Y-85496400D01*
X131445000Y-90043000D02*
X131445000Y-86664800D01*
X130276600Y-85496400D02*
X125260100Y-85496400D01*
X125260100Y-85496400D02*
X123190000Y-87566500D01*
%TO.N,/PE8*%
X123063000Y-85090000D02*
X138226800Y-85090000D01*
X120586500Y-87566500D02*
X123063000Y-85090000D01*
X138226800Y-85090000D02*
X140335000Y-87198200D01*
X140335000Y-87198200D02*
X140335000Y-90043000D01*
%TO.N,/PE9*%
X141605000Y-87693500D02*
X141605000Y-90043000D01*
X138620490Y-84708990D02*
X141605000Y-87693500D01*
X118046500Y-87566500D02*
X120904010Y-84708990D01*
X120904010Y-84708990D02*
X138620490Y-84708990D01*
%TO.N,/PI7*%
X141541500Y-92900500D02*
X141541500Y-94043500D01*
X141541500Y-94043500D02*
X141605000Y-94107000D01*
%TO.N,/PE10*%
X139636480Y-84327980D02*
X142875000Y-87566500D01*
X142875000Y-87566500D02*
X142875000Y-90043000D01*
X118745020Y-84327980D02*
X139636480Y-84327980D01*
X115506500Y-87566500D02*
X118745020Y-84327980D01*
%TO.N,/PE11*%
X116586030Y-83946970D02*
X139794299Y-83946970D01*
X144145000Y-88297671D02*
X144145000Y-88889000D01*
X144145000Y-88889000D02*
X144145000Y-90043000D01*
X139794299Y-83946970D02*
X144145000Y-88297671D01*
X112966500Y-87566500D02*
X116586030Y-83946970D01*
%TO.N,/PI21_UART7RX*%
X148270191Y-83274689D02*
X148570190Y-82974690D01*
X145415000Y-86129880D02*
X148270191Y-83274689D01*
X145415000Y-90043000D02*
X145415000Y-86129880D01*
%TO.N,/PI10*%
X145415000Y-92837000D02*
X145415000Y-94107000D01*
%TO.N,/PI20_UART7TX*%
X146685000Y-90043000D02*
X146685000Y-85643370D01*
X146685000Y-85643370D02*
X149200731Y-83127639D01*
X149200731Y-83127639D02*
X149200731Y-82883931D01*
X149200731Y-82883931D02*
X149500730Y-82583932D01*
%TO.N,/PI11*%
X146685000Y-92900500D02*
X146685000Y-94107000D01*
%TO.N,/PI19_SPI1_MISO*%
X155003500Y-82994500D02*
X149872700Y-82994500D01*
X147955000Y-84912200D02*
X147955000Y-90043000D01*
X149872700Y-82994500D02*
X147955000Y-84912200D01*
%TO.N,/PI18_SPI1_MOSI*%
X149225000Y-88201500D02*
X153733500Y-83693000D01*
X149225000Y-90043000D02*
X149225000Y-88201500D01*
%TO.N,/PI17_SPI1_CLK*%
X155067000Y-83693000D02*
X150495000Y-88265000D01*
X150495000Y-88265000D02*
X150495000Y-90043000D01*
X157543500Y-83693000D02*
X155067000Y-83693000D01*
%TO.N,/PI16_SPI1_CS0*%
X154907328Y-84391500D02*
X156146500Y-84391500D01*
X151765000Y-87533828D02*
X154907328Y-84391500D01*
X151765000Y-88889000D02*
X151765000Y-87533828D01*
X151765000Y-90043000D02*
X151765000Y-88889000D01*
%TO.N,/PI15*%
X151765000Y-92837000D02*
X151765000Y-94107000D01*
D21*
%TO.N,/PH13*%
X146050000Y-100457000D02*
X146050000Y-99308011D01*
%TO.N,/PH12*%
X144780000Y-100457000D02*
X144780000Y-99308011D01*
%TO.N,/PH11*%
X143510000Y-100457000D02*
X143510000Y-99308011D01*
%TO.N,/PH10*%
X142240000Y-100457000D02*
X142240000Y-99308011D01*
D18*
%TO.N,/PH9_CANS*%
X140893800Y-99844330D02*
X140893800Y-99314000D01*
X140970000Y-100457000D02*
X140893800Y-100380800D01*
X140893800Y-100380800D02*
X140893800Y-99844330D01*
D21*
%TO.N,/PH14*%
X147320000Y-100457000D02*
X147320000Y-99308011D01*
D18*
%TO.N,/PH20_CANTX*%
X154940000Y-99303000D02*
X154940000Y-99123500D01*
X154940000Y-100457000D02*
X154940000Y-99303000D01*
%TO.N,/PH21_CANRX*%
X156210000Y-100457000D02*
X156210000Y-99123500D01*
%TO.N,/LINEINL*%
X118492000Y-45345000D02*
X117095000Y-45345000D01*
X117095000Y-45345000D02*
X117050000Y-45300000D01*
%TO.N,/PC7_SDC2_CLK*%
X114422000Y-45339000D02*
X114428000Y-45345000D01*
%TO.N,/LINEINR*%
X115800000Y-45800000D02*
X115800000Y-43050000D01*
X116100000Y-42750000D02*
X117000000Y-42750000D01*
X118492000Y-46615000D02*
X116615000Y-46615000D01*
X115800000Y-43050000D02*
X116100000Y-42750000D01*
X116615000Y-46615000D02*
X115800000Y-45800000D01*
%TO.N,/PA14*%
X114422000Y-46609000D02*
X114428000Y-46615000D01*
%TO.N,Net-(MICRO_SD1-Pad5)*%
X128300000Y-71400000D02*
X133794500Y-65905500D01*
X128300000Y-72550000D02*
X128300000Y-71400000D01*
%TD*%
%TO.N,GND*%
G36*
X103303805Y-42507004D02*
G01*
X103074059Y-42637519D01*
X102868134Y-42803086D01*
X102691330Y-42999446D01*
X102548195Y-43221549D01*
X102442411Y-43463679D01*
X102376700Y-43719607D01*
X102352752Y-43982749D01*
X102371184Y-44246335D01*
X102431521Y-44503583D01*
X102532211Y-44747876D01*
X102670663Y-44972927D01*
X102843317Y-45172947D01*
X103045728Y-45342791D01*
X103272690Y-45478088D01*
X103518365Y-45575358D01*
X103776431Y-45632097D01*
X104040248Y-45646846D01*
X104303030Y-45619227D01*
X104558016Y-45549949D01*
X104798646Y-45440794D01*
X105018727Y-45294572D01*
X105212601Y-45115044D01*
X105375277Y-44906828D01*
X105502570Y-44675282D01*
X105591207Y-44426363D01*
X105639025Y-44165821D01*
X105642138Y-43868541D01*
X105599786Y-43607055D01*
X105516382Y-43356334D01*
X105393966Y-43122173D01*
X105235686Y-42910595D01*
X105045615Y-42727047D01*
X104828644Y-42576247D01*
X104590353Y-42462078D01*
X104467772Y-42426000D01*
X112997464Y-42426000D01*
X112994164Y-42442590D01*
X112994164Y-43167410D01*
X113032520Y-43360235D01*
X113085817Y-43440000D01*
X113032520Y-43519765D01*
X112994164Y-43712590D01*
X112994164Y-44437410D01*
X113032520Y-44630235D01*
X113085817Y-44710000D01*
X113032520Y-44789765D01*
X112994164Y-44982590D01*
X112994164Y-45707410D01*
X113032520Y-45900235D01*
X113085817Y-45980000D01*
X113032520Y-46059765D01*
X112994164Y-46252590D01*
X112994164Y-46977410D01*
X113006046Y-47037146D01*
X112990167Y-47046314D01*
X112792324Y-47212324D01*
X112626314Y-47410167D01*
X112497181Y-47633833D01*
X112408848Y-47876524D01*
X112364001Y-48130866D01*
X112364001Y-48389134D01*
X112408848Y-48643476D01*
X112497181Y-48886167D01*
X112626314Y-49109833D01*
X112792324Y-49307676D01*
X112990167Y-49473686D01*
X113213833Y-49602819D01*
X113261778Y-49620270D01*
X113148775Y-49695775D01*
X113032520Y-49869765D01*
X112994164Y-50062590D01*
X112994164Y-50787410D01*
X113032520Y-50980235D01*
X113085817Y-51060000D01*
X113032520Y-51139765D01*
X112994164Y-51332590D01*
X112994164Y-52057410D01*
X113032520Y-52250235D01*
X113085817Y-52330000D01*
X113032520Y-52409765D01*
X112994164Y-52602590D01*
X112994164Y-53327410D01*
X113025857Y-53486737D01*
X112923044Y-53664814D01*
X112862002Y-54011000D01*
X114652000Y-54011000D01*
X114652000Y-55226837D01*
X115344588Y-55226837D01*
X115645512Y-55146205D01*
X115821165Y-54998815D01*
X115932956Y-54805186D01*
X115969837Y-54596024D01*
X115969837Y-54327822D01*
X116101275Y-54405709D01*
X116296250Y-54466624D01*
X116500008Y-54481051D01*
X116701621Y-54448216D01*
X116890272Y-54369881D01*
X117055843Y-54250248D01*
X117058164Y-54247564D01*
X117058164Y-54597410D01*
X117096520Y-54790235D01*
X117212775Y-54964225D01*
X117386765Y-55080480D01*
X117579590Y-55118836D01*
X119404410Y-55118836D01*
X119597234Y-55080480D01*
X119604656Y-55075521D01*
X119715007Y-55116560D01*
X119960998Y-55137216D01*
X120203481Y-55090960D01*
X120424594Y-54981199D01*
X120608044Y-54816020D01*
X120740317Y-54607592D01*
X120811860Y-54370627D01*
X120814629Y-54106220D01*
X120748064Y-53867809D01*
X120620185Y-53656656D01*
X120440235Y-53487672D01*
X120221469Y-53373304D01*
X119980007Y-53321980D01*
X119925836Y-53325388D01*
X119925836Y-52602590D01*
X119887480Y-52409765D01*
X119834183Y-52330000D01*
X119887480Y-52250235D01*
X119925836Y-52057410D01*
X119925836Y-51332590D01*
X119887480Y-51139765D01*
X119834183Y-51060000D01*
X119887480Y-50980235D01*
X119925836Y-50787410D01*
X119925836Y-50062590D01*
X119887480Y-49869765D01*
X119834183Y-49790000D01*
X119887480Y-49710235D01*
X119925836Y-49517410D01*
X119925836Y-48792590D01*
X119887480Y-48599765D01*
X119834183Y-48520000D01*
X119887480Y-48440235D01*
X119925836Y-48247410D01*
X119925836Y-47522590D01*
X119887480Y-47329765D01*
X119834183Y-47250000D01*
X119887480Y-47170235D01*
X119925836Y-46977410D01*
X119925836Y-46252590D01*
X119887480Y-46059765D01*
X119834183Y-45980000D01*
X119887480Y-45900235D01*
X119925836Y-45707410D01*
X119925836Y-44982590D01*
X119887480Y-44789765D01*
X119834183Y-44710000D01*
X119887480Y-44630235D01*
X119925836Y-44437410D01*
X119925836Y-43712590D01*
X119887480Y-43519765D01*
X119834183Y-43440000D01*
X119887480Y-43360235D01*
X119925836Y-43167410D01*
X119925836Y-42442590D01*
X119922536Y-42426000D01*
X124126787Y-42426000D01*
X124004554Y-42573754D01*
X123904149Y-42799268D01*
X123887545Y-42911710D01*
X122954273Y-43844983D01*
X122954268Y-43844990D01*
X122910211Y-43889047D01*
X122883836Y-43940813D01*
X122849681Y-43987823D01*
X122831724Y-44043087D01*
X122805346Y-44094858D01*
X122796256Y-44152249D01*
X122778302Y-44207506D01*
X122778302Y-44265886D01*
X122778300Y-44265899D01*
X122778301Y-55663047D01*
X114120549Y-64320800D01*
X103589750Y-64320800D01*
X103576835Y-64308672D01*
X103358069Y-64194304D01*
X103116607Y-64142980D01*
X102870238Y-64158480D01*
X102637113Y-64239663D01*
X102434406Y-64380548D01*
X102277054Y-64570754D01*
X102176649Y-64796268D01*
X102140587Y-65040476D01*
X102171527Y-65285387D01*
X102267188Y-65512954D01*
X102420521Y-65706414D01*
X102620233Y-65851512D01*
X102851607Y-65937560D01*
X103097598Y-65958216D01*
X103340081Y-65911960D01*
X103561194Y-65802199D01*
X103586737Y-65779200D01*
X114479694Y-65779200D01*
X114479707Y-65779198D01*
X114538085Y-65779198D01*
X114593337Y-65761246D01*
X114650735Y-65752154D01*
X114702508Y-65725774D01*
X114757768Y-65707819D01*
X114804772Y-65673669D01*
X114856547Y-65647288D01*
X114898312Y-65605523D01*
X114898319Y-65605517D01*
X116963517Y-63540318D01*
X117099521Y-63711914D01*
X117299233Y-63857012D01*
X117530607Y-63943060D01*
X117776598Y-63963716D01*
X118019081Y-63917460D01*
X118240194Y-63807699D01*
X118423644Y-63642520D01*
X118555917Y-63434092D01*
X118627460Y-63197127D01*
X118630229Y-62932720D01*
X118602247Y-62832496D01*
X124597469Y-56837276D01*
X124597476Y-56837266D01*
X124638198Y-56796545D01*
X124664576Y-56744773D01*
X124698729Y-56697767D01*
X124716686Y-56642503D01*
X124743064Y-56590733D01*
X124752154Y-56533343D01*
X124770109Y-56478084D01*
X124770109Y-56420490D01*
X124770110Y-56420484D01*
X124770110Y-54378633D01*
X126286044Y-52862700D01*
X126751164Y-52862700D01*
X126751164Y-54379410D01*
X126789520Y-54572235D01*
X126905775Y-54746225D01*
X127079765Y-54862480D01*
X127272590Y-54900836D01*
X127997410Y-54900836D01*
X128091559Y-54882108D01*
X128031649Y-55016668D01*
X127995587Y-55260876D01*
X128026527Y-55505787D01*
X128122188Y-55733354D01*
X128275521Y-55926814D01*
X128359025Y-55987483D01*
X128347508Y-55988693D01*
X128142390Y-56055340D01*
X127955611Y-56163176D01*
X127795334Y-56307491D01*
X127668564Y-56481975D01*
X127580842Y-56679002D01*
X127536000Y-56889963D01*
X127536000Y-57105637D01*
X127580842Y-57316598D01*
X127668564Y-57513625D01*
X127795334Y-57688109D01*
X127955611Y-57832424D01*
X128142390Y-57940260D01*
X128347508Y-58006907D01*
X128562000Y-58029451D01*
X128776492Y-58006907D01*
X128981610Y-57940260D01*
X129168389Y-57832424D01*
X129328666Y-57688109D01*
X129455436Y-57513625D01*
X129522000Y-57364119D01*
X129522001Y-63493828D01*
X129513715Y-63532315D01*
X129522001Y-63602321D01*
X129522001Y-63617688D01*
X129528297Y-63655512D01*
X129539930Y-63753795D01*
X129546506Y-63764915D01*
X129548674Y-63777940D01*
X129651903Y-63969257D01*
X129722991Y-64034970D01*
X130748826Y-65060806D01*
X130776355Y-65278715D01*
X130872016Y-65506282D01*
X131025349Y-65699742D01*
X131225061Y-65844840D01*
X131456435Y-65930888D01*
X131702426Y-65951544D01*
X131944909Y-65905288D01*
X132166022Y-65795527D01*
X132349472Y-65630348D01*
X132481745Y-65421920D01*
X132553288Y-65184955D01*
X132556057Y-64920548D01*
X132489492Y-64682137D01*
X132361613Y-64470984D01*
X132181663Y-64302000D01*
X131962897Y-64187632D01*
X131721435Y-64136308D01*
X131674256Y-64139276D01*
X130828000Y-63293020D01*
X130828000Y-60461848D01*
X131020233Y-60601512D01*
X131251607Y-60687560D01*
X131497598Y-60708216D01*
X131740081Y-60661960D01*
X131961194Y-60552199D01*
X132062001Y-60461432D01*
X132062001Y-61652328D01*
X132053715Y-61690815D01*
X132062001Y-61760821D01*
X132062001Y-61776188D01*
X132068297Y-61814012D01*
X132079930Y-61912295D01*
X132086506Y-61923415D01*
X132088674Y-61936440D01*
X132191903Y-62127757D01*
X132262991Y-62193470D01*
X135047498Y-64977978D01*
X135075027Y-65195887D01*
X135170688Y-65423454D01*
X135324021Y-65616914D01*
X135523733Y-65762012D01*
X135755107Y-65848060D01*
X136001098Y-65868716D01*
X136243581Y-65822460D01*
X136464694Y-65712699D01*
X136467894Y-65709818D01*
X136539733Y-65762012D01*
X136771107Y-65848060D01*
X137017098Y-65868716D01*
X137259581Y-65822460D01*
X137480694Y-65712699D01*
X137664144Y-65547520D01*
X137796417Y-65339092D01*
X137867960Y-65102127D01*
X137870729Y-64837720D01*
X137804164Y-64599309D01*
X137676285Y-64388156D01*
X137496335Y-64219172D01*
X137277569Y-64104804D01*
X137036107Y-64053480D01*
X136988928Y-64056448D01*
X136930956Y-63998476D01*
X146613787Y-63998476D01*
X146644727Y-64243387D01*
X146740388Y-64470954D01*
X146893721Y-64664414D01*
X147093433Y-64809512D01*
X147324807Y-64895560D01*
X147570798Y-64916216D01*
X147813281Y-64869960D01*
X148034394Y-64760199D01*
X148217844Y-64595020D01*
X148350117Y-64386592D01*
X148392940Y-64244753D01*
X148603447Y-64300371D01*
X148831842Y-64313140D01*
X149058140Y-64279724D01*
X149273097Y-64201486D01*
X149467931Y-64081622D01*
X149634685Y-63925031D01*
X149766545Y-63738107D01*
X149858126Y-63528488D01*
X149905732Y-63304516D01*
X149906171Y-63178549D01*
X155268701Y-63178549D01*
X155291024Y-63406210D01*
X155358668Y-63624731D01*
X155468870Y-63825188D01*
X155617128Y-63999392D01*
X155797388Y-64140226D01*
X156002284Y-64241937D01*
X156223447Y-64300371D01*
X156451842Y-64313140D01*
X156678140Y-64279724D01*
X156893097Y-64201486D01*
X157087931Y-64081622D01*
X157254685Y-63925031D01*
X157386545Y-63738107D01*
X157478126Y-63528488D01*
X157525732Y-63304516D01*
X157526556Y-63068342D01*
X157480514Y-62844044D01*
X157390399Y-62633790D01*
X157259848Y-62445951D01*
X157094192Y-62288198D01*
X156900199Y-62166978D01*
X156685793Y-62087241D01*
X156459734Y-62052246D01*
X156231256Y-62063421D01*
X156009690Y-62120308D01*
X155804089Y-62220586D01*
X155622850Y-62360159D01*
X155473380Y-62533324D01*
X155361781Y-62733006D01*
X155292613Y-62951050D01*
X155268701Y-63178549D01*
X149906171Y-63178549D01*
X149906556Y-63068342D01*
X149860514Y-62844044D01*
X149770399Y-62633790D01*
X149639848Y-62445951D01*
X149474192Y-62288198D01*
X149280199Y-62166978D01*
X149065793Y-62087241D01*
X148839734Y-62052246D01*
X148611256Y-62063421D01*
X148389690Y-62120308D01*
X148184089Y-62220586D01*
X148002850Y-62360159D01*
X147853380Y-62533324D01*
X147741781Y-62733006D01*
X147672613Y-62951050D01*
X147655389Y-63114920D01*
X147589807Y-63100980D01*
X147343438Y-63116480D01*
X147110313Y-63197663D01*
X146907606Y-63338548D01*
X146750254Y-63528754D01*
X146649849Y-63754268D01*
X146613787Y-63998476D01*
X136930956Y-63998476D01*
X134551275Y-61618795D01*
X134551275Y-61379120D01*
X134689021Y-61552914D01*
X134888733Y-61698012D01*
X135120107Y-61784060D01*
X135366098Y-61804716D01*
X135608581Y-61758460D01*
X135829694Y-61648699D01*
X136013144Y-61483520D01*
X136145417Y-61275092D01*
X136216960Y-61038127D01*
X136219729Y-60773720D01*
X136153164Y-60535309D01*
X136025285Y-60324156D01*
X135971500Y-60273649D01*
X135971500Y-57841020D01*
X136143390Y-57940260D01*
X136348508Y-58006907D01*
X136563000Y-58029451D01*
X136777492Y-58006907D01*
X136982610Y-57940260D01*
X137142001Y-57848236D01*
X137142001Y-58350328D01*
X137133715Y-58388815D01*
X137142001Y-58458821D01*
X137142001Y-58474188D01*
X137148297Y-58512012D01*
X137159930Y-58610295D01*
X137166506Y-58621415D01*
X137168674Y-58634440D01*
X137271903Y-58825757D01*
X137342991Y-58891470D01*
X139422176Y-60970656D01*
X139441229Y-61105379D01*
X139546788Y-61330211D01*
X139713789Y-61514065D01*
X139927469Y-61640687D01*
X140168934Y-61698880D01*
X140416836Y-61683501D01*
X140649257Y-61595908D01*
X140845648Y-61443846D01*
X140988644Y-61240759D01*
X141065759Y-61004123D01*
X141068032Y-60743753D01*
X140995058Y-60505807D01*
X140972795Y-60472987D01*
X141081907Y-60318022D01*
X141159022Y-60081386D01*
X141161295Y-59821016D01*
X141088321Y-59583069D01*
X140948890Y-59377519D01*
X140755184Y-59222053D01*
X140524327Y-59130417D01*
X140438029Y-59123549D01*
X139718000Y-58403520D01*
X139718000Y-54821211D01*
X139779765Y-54862480D01*
X139972590Y-54900836D01*
X140697410Y-54900836D01*
X140890235Y-54862480D01*
X140970000Y-54809183D01*
X141049765Y-54862480D01*
X141242590Y-54900836D01*
X141967410Y-54900836D01*
X142160235Y-54862480D01*
X142222000Y-54821211D01*
X142222000Y-54924085D01*
X142188244Y-54959969D01*
X142078779Y-55182924D01*
X142039710Y-55428210D01*
X142074492Y-55674142D01*
X142180051Y-55898974D01*
X142347052Y-56082828D01*
X142560732Y-56209450D01*
X142802197Y-56267643D01*
X143050099Y-56252264D01*
X143282520Y-56164671D01*
X143478911Y-56012609D01*
X143511381Y-55966494D01*
X143617052Y-56082828D01*
X143830732Y-56209450D01*
X144072197Y-56267643D01*
X144320099Y-56252264D01*
X144552520Y-56164671D01*
X144748911Y-56012609D01*
X144891907Y-55809522D01*
X144969022Y-55572886D01*
X144971295Y-55312516D01*
X144898321Y-55074569D01*
X144798000Y-54926675D01*
X144798000Y-54821211D01*
X144859765Y-54862480D01*
X145052590Y-54900836D01*
X145777410Y-54900836D01*
X145970235Y-54862480D01*
X146050000Y-54809183D01*
X146129765Y-54862480D01*
X146322590Y-54900836D01*
X147047410Y-54900836D01*
X147240235Y-54862480D01*
X147319704Y-54809382D01*
X147319930Y-54811295D01*
X147326506Y-54822415D01*
X147328674Y-54835440D01*
X147431903Y-55026757D01*
X147502991Y-55092470D01*
X150527006Y-58116487D01*
X150548359Y-58149557D01*
X150603710Y-58193191D01*
X150614586Y-58204068D01*
X150645824Y-58226391D01*
X150723505Y-58287630D01*
X150736017Y-58290843D01*
X150746763Y-58298522D01*
X150955037Y-58360809D01*
X151051736Y-58357010D01*
X157152124Y-58357010D01*
X157356232Y-58477960D01*
X157597697Y-58536153D01*
X157845599Y-58520774D01*
X158078020Y-58433181D01*
X158274411Y-58281119D01*
X158417407Y-58078032D01*
X158472736Y-57908249D01*
X158499232Y-57923950D01*
X158740697Y-57982143D01*
X158988599Y-57966764D01*
X159221020Y-57879171D01*
X159417411Y-57727109D01*
X159560407Y-57524022D01*
X159637522Y-57287386D01*
X159639795Y-57027016D01*
X159566821Y-56789069D01*
X159427390Y-56583519D01*
X159233684Y-56428053D01*
X159002827Y-56336417D01*
X158755231Y-56316712D01*
X158512787Y-56370684D01*
X158296930Y-56493556D01*
X158293690Y-56497000D01*
X157225324Y-56497000D01*
X157226795Y-56328516D01*
X157153821Y-56090569D01*
X157014390Y-55885019D01*
X156820684Y-55729553D01*
X156589827Y-55637917D01*
X156342231Y-55618212D01*
X156100095Y-55672115D01*
X155578006Y-55150026D01*
X155556650Y-55116953D01*
X155501292Y-55073312D01*
X155490423Y-55062442D01*
X155459199Y-55040129D01*
X155381501Y-54978877D01*
X155368988Y-54975665D01*
X155358248Y-54967989D01*
X155149972Y-54905701D01*
X155053284Y-54909500D01*
X152797482Y-54909500D01*
X152550293Y-54662312D01*
X152610480Y-54572235D01*
X152648836Y-54379410D01*
X152648836Y-52554590D01*
X152610480Y-52361765D01*
X152494225Y-52187775D01*
X152320235Y-52071520D01*
X152127410Y-52033164D01*
X151901238Y-52033164D01*
X151967976Y-51946502D01*
X152058266Y-51754628D01*
X152105297Y-51547623D01*
X152106059Y-51329188D01*
X152060474Y-51121861D01*
X151996197Y-50982749D01*
X162352752Y-50982749D01*
X162371184Y-51246335D01*
X162431521Y-51503583D01*
X162532211Y-51747876D01*
X162670663Y-51972927D01*
X162843317Y-52172947D01*
X163045728Y-52342791D01*
X163272690Y-52478088D01*
X163518365Y-52575358D01*
X163776431Y-52632097D01*
X164040248Y-52646846D01*
X164303030Y-52619227D01*
X164558016Y-52549949D01*
X164798646Y-52440794D01*
X165018727Y-52294572D01*
X165212601Y-52115044D01*
X165375277Y-51906828D01*
X165502570Y-51675282D01*
X165591207Y-51426363D01*
X165639025Y-51165821D01*
X165642138Y-50868541D01*
X165599786Y-50607055D01*
X165516382Y-50356334D01*
X165393966Y-50122173D01*
X165235686Y-49910595D01*
X165045615Y-49727047D01*
X164828644Y-49576247D01*
X164590353Y-49462078D01*
X164336874Y-49387474D01*
X164074728Y-49354358D01*
X163810660Y-49363580D01*
X163551463Y-49414902D01*
X163303805Y-49507004D01*
X163074059Y-49637519D01*
X162868134Y-49803086D01*
X162691330Y-49999446D01*
X162548195Y-50221549D01*
X162442411Y-50463679D01*
X162376700Y-50719607D01*
X162352752Y-50982749D01*
X151996197Y-50982749D01*
X151971527Y-50929359D01*
X151901298Y-50836836D01*
X152127410Y-50836836D01*
X152320235Y-50798480D01*
X152494225Y-50682225D01*
X152610480Y-50508235D01*
X152648836Y-50315410D01*
X152648836Y-48726000D01*
X166074001Y-48726000D01*
X166074000Y-101074000D01*
X159633836Y-101074000D01*
X159633836Y-99544590D01*
X159595480Y-99351765D01*
X159569411Y-99312749D01*
X162652752Y-99312749D01*
X162671184Y-99576335D01*
X162731521Y-99833583D01*
X162832211Y-100077876D01*
X162970663Y-100302927D01*
X163143317Y-100502947D01*
X163345728Y-100672791D01*
X163572690Y-100808088D01*
X163818365Y-100905358D01*
X164076431Y-100962097D01*
X164340248Y-100976846D01*
X164603030Y-100949227D01*
X164858016Y-100879949D01*
X165098646Y-100770794D01*
X165318727Y-100624572D01*
X165512601Y-100445044D01*
X165675277Y-100236828D01*
X165802570Y-100005282D01*
X165891207Y-99756363D01*
X165939025Y-99495821D01*
X165942138Y-99198541D01*
X165899786Y-98937055D01*
X165816382Y-98686334D01*
X165693966Y-98452173D01*
X165535686Y-98240595D01*
X165345615Y-98057047D01*
X165128644Y-97906247D01*
X164890353Y-97792078D01*
X164636874Y-97717474D01*
X164374728Y-97684358D01*
X164110660Y-97693580D01*
X163851463Y-97744902D01*
X163603805Y-97837004D01*
X163374059Y-97967519D01*
X163168134Y-98133086D01*
X162991330Y-98329446D01*
X162848195Y-98551549D01*
X162742411Y-98793679D01*
X162676700Y-99049607D01*
X162652752Y-99312749D01*
X159569411Y-99312749D01*
X159479225Y-99177775D01*
X159305235Y-99061520D01*
X159112410Y-99023164D01*
X158886238Y-99023164D01*
X158952976Y-98936502D01*
X159043266Y-98744628D01*
X159090297Y-98537623D01*
X159091059Y-98319188D01*
X159045474Y-98111861D01*
X158956527Y-97919359D01*
X158886298Y-97826836D01*
X159112410Y-97826836D01*
X159305235Y-97788480D01*
X159479225Y-97672225D01*
X159595480Y-97498235D01*
X159633836Y-97305410D01*
X159633836Y-95480590D01*
X159595480Y-95287765D01*
X159479225Y-95113775D01*
X159305235Y-94997520D01*
X159112410Y-94959164D01*
X158387590Y-94959164D01*
X158194765Y-94997520D01*
X158115000Y-95050817D01*
X158067167Y-95018856D01*
X158179917Y-94841192D01*
X158251460Y-94604227D01*
X158254229Y-94339820D01*
X158187664Y-94101409D01*
X158059785Y-93890256D01*
X157902581Y-93742632D01*
X157912597Y-93738986D01*
X158107431Y-93619122D01*
X158274185Y-93462531D01*
X158406045Y-93275607D01*
X158497626Y-93065988D01*
X158545232Y-92842016D01*
X158545750Y-92693467D01*
X158721398Y-92708216D01*
X158963881Y-92661960D01*
X159184994Y-92552199D01*
X159368444Y-92387020D01*
X159500717Y-92178592D01*
X159572260Y-91941627D01*
X159575029Y-91677220D01*
X159508464Y-91438809D01*
X159380585Y-91227656D01*
X159200635Y-91058672D01*
X158981869Y-90944304D01*
X158740407Y-90892980D01*
X158494038Y-90908480D01*
X158260913Y-90989663D01*
X158058206Y-91130548D01*
X157900854Y-91320754D01*
X157800449Y-91546268D01*
X157784511Y-91654202D01*
X157705293Y-91624741D01*
X157479234Y-91589746D01*
X157250756Y-91600921D01*
X157029190Y-91657808D01*
X156823589Y-91758086D01*
X156642350Y-91897659D01*
X156492880Y-92070824D01*
X156381281Y-92270506D01*
X156312113Y-92488550D01*
X156288201Y-92716049D01*
X156310524Y-92943710D01*
X156378168Y-93162231D01*
X156488370Y-93362688D01*
X156636628Y-93536892D01*
X156816888Y-93677726D01*
X156867400Y-93702800D01*
X156737406Y-93793148D01*
X156580054Y-93983354D01*
X156479649Y-94208868D01*
X156443587Y-94453076D01*
X156474527Y-94697987D01*
X156570188Y-94925554D01*
X156601397Y-94964930D01*
X156572410Y-94959164D01*
X155847590Y-94959164D01*
X155654765Y-94997520D01*
X155575000Y-95050817D01*
X155495235Y-94997520D01*
X155302410Y-94959164D01*
X154577590Y-94959164D01*
X154384765Y-94997520D01*
X154305000Y-95050817D01*
X154225235Y-94997520D01*
X154032410Y-94959164D01*
X153307590Y-94959164D01*
X153114765Y-94997520D01*
X153035000Y-95050817D01*
X152955235Y-94997520D01*
X152762410Y-94959164D01*
X152648836Y-94959164D01*
X152648836Y-93194590D01*
X152610480Y-93001766D01*
X152589063Y-92969712D01*
X152591295Y-92714016D01*
X152518321Y-92476069D01*
X152378890Y-92270519D01*
X152185184Y-92115053D01*
X152105660Y-92083487D01*
X152106059Y-91969188D01*
X152060474Y-91761861D01*
X151971527Y-91569359D01*
X151901298Y-91476836D01*
X152127410Y-91476836D01*
X152320235Y-91438480D01*
X152494225Y-91322225D01*
X152610480Y-91148235D01*
X152648836Y-90955410D01*
X152648836Y-89130590D01*
X152610480Y-88937765D01*
X152494225Y-88763775D01*
X152418000Y-88712843D01*
X152418000Y-87804307D01*
X152728831Y-87493476D01*
X157764387Y-87493476D01*
X157795327Y-87738387D01*
X157890988Y-87965954D01*
X158044321Y-88159414D01*
X158244033Y-88304512D01*
X158475407Y-88390560D01*
X158721398Y-88411216D01*
X158963881Y-88364960D01*
X159184994Y-88255199D01*
X159368444Y-88090020D01*
X159500717Y-87881592D01*
X159572260Y-87644627D01*
X159575029Y-87380220D01*
X159508464Y-87141809D01*
X159380585Y-86930656D01*
X159200635Y-86761672D01*
X158981869Y-86647304D01*
X158740407Y-86595980D01*
X158494038Y-86611480D01*
X158260913Y-86692663D01*
X158058206Y-86833548D01*
X157900854Y-87023754D01*
X157800449Y-87249268D01*
X157764387Y-87493476D01*
X152728831Y-87493476D01*
X155177809Y-85044500D01*
X155628124Y-85044500D01*
X155832232Y-85165450D01*
X156073697Y-85223643D01*
X156321599Y-85208264D01*
X156554020Y-85120671D01*
X156750411Y-84968609D01*
X156893407Y-84765522D01*
X156970522Y-84528886D01*
X156972119Y-84346000D01*
X157025124Y-84346000D01*
X157229232Y-84466950D01*
X157470697Y-84525143D01*
X157718599Y-84509764D01*
X157951020Y-84422171D01*
X158147411Y-84270109D01*
X158290407Y-84067022D01*
X158367522Y-83830386D01*
X158369795Y-83570016D01*
X158296821Y-83332069D01*
X158157390Y-83126519D01*
X157963684Y-82971053D01*
X157732827Y-82879417D01*
X157485231Y-82859712D01*
X157242787Y-82913684D01*
X157026930Y-83036556D01*
X157023690Y-83040000D01*
X155828324Y-83040000D01*
X155829795Y-82871516D01*
X155756821Y-82633569D01*
X155617390Y-82428019D01*
X155423684Y-82272553D01*
X155192827Y-82180917D01*
X154945231Y-82161212D01*
X154702787Y-82215184D01*
X154486930Y-82338056D01*
X154483690Y-82341500D01*
X150290392Y-82341500D01*
X150254051Y-82223001D01*
X150114620Y-82017451D01*
X149920914Y-81861985D01*
X149690057Y-81770349D01*
X149442461Y-81750644D01*
X149200017Y-81804616D01*
X148984160Y-81927488D01*
X148813974Y-82108401D01*
X148783436Y-82170601D01*
X148759517Y-82161107D01*
X148511921Y-82141402D01*
X148269477Y-82195374D01*
X148053620Y-82318246D01*
X147883435Y-82499159D01*
X147773969Y-82722114D01*
X147750227Y-82871173D01*
X145002524Y-85618876D01*
X144969454Y-85640229D01*
X144925820Y-85695580D01*
X144914942Y-85706457D01*
X144892619Y-85737695D01*
X144831380Y-85815377D01*
X144828167Y-85827889D01*
X144820489Y-85838634D01*
X144758201Y-86046908D01*
X144762001Y-86143622D01*
X144762000Y-88065946D01*
X144668098Y-87891914D01*
X144597010Y-87826201D01*
X140305305Y-83534496D01*
X140283949Y-83501423D01*
X140228591Y-83457782D01*
X140217722Y-83446912D01*
X140186498Y-83424599D01*
X140108800Y-83363347D01*
X140096287Y-83360135D01*
X140085547Y-83352459D01*
X139877271Y-83290171D01*
X139780583Y-83293970D01*
X116655692Y-83293970D01*
X116617215Y-83285686D01*
X116547225Y-83293970D01*
X116531841Y-83293970D01*
X116493970Y-83300274D01*
X116395731Y-83311901D01*
X116384615Y-83318475D01*
X116371591Y-83320643D01*
X116180273Y-83423872D01*
X116114560Y-83494960D01*
X112867166Y-86742354D01*
X112665787Y-86787184D01*
X112449930Y-86910056D01*
X112279745Y-87090969D01*
X112170279Y-87313924D01*
X112131210Y-87559210D01*
X112165992Y-87805142D01*
X112271551Y-88029974D01*
X112438552Y-88213828D01*
X112652232Y-88340450D01*
X112893697Y-88398643D01*
X113141599Y-88383264D01*
X113374020Y-88295671D01*
X113570411Y-88143609D01*
X113713407Y-87940522D01*
X113790522Y-87703886D01*
X113790856Y-87665623D01*
X116856510Y-84599970D01*
X117549550Y-84599970D01*
X115407166Y-86742354D01*
X115205787Y-86787184D01*
X114989930Y-86910056D01*
X114819745Y-87090969D01*
X114710279Y-87313924D01*
X114671210Y-87559210D01*
X114705992Y-87805142D01*
X114811551Y-88029974D01*
X114978552Y-88213828D01*
X115192232Y-88340450D01*
X115433697Y-88398643D01*
X115681599Y-88383264D01*
X115914020Y-88295671D01*
X116110411Y-88143609D01*
X116253407Y-87940522D01*
X116330522Y-87703886D01*
X116330856Y-87665623D01*
X119015501Y-84980980D01*
X119708540Y-84980980D01*
X117947166Y-86742354D01*
X117745787Y-86787184D01*
X117529930Y-86910056D01*
X117359745Y-87090969D01*
X117250279Y-87313924D01*
X117211210Y-87559210D01*
X117245992Y-87805142D01*
X117351551Y-88029974D01*
X117518552Y-88213828D01*
X117732232Y-88340450D01*
X117973697Y-88398643D01*
X118221599Y-88383264D01*
X118454020Y-88295671D01*
X118650411Y-88143609D01*
X118793407Y-87940522D01*
X118870522Y-87703886D01*
X118870856Y-87665623D01*
X121174490Y-85361990D01*
X121867530Y-85361990D01*
X120487166Y-86742354D01*
X120285787Y-86787184D01*
X120069930Y-86910056D01*
X119899745Y-87090969D01*
X119790279Y-87313924D01*
X119751210Y-87559210D01*
X119785992Y-87805142D01*
X119891551Y-88029974D01*
X120058552Y-88213828D01*
X120272232Y-88340450D01*
X120513697Y-88398643D01*
X120761599Y-88383264D01*
X120994020Y-88295671D01*
X121190411Y-88143609D01*
X121333407Y-87940522D01*
X121410522Y-87703886D01*
X121410856Y-87665623D01*
X123333481Y-85743000D01*
X124090019Y-85743000D01*
X123090666Y-86742354D01*
X122889287Y-86787184D01*
X122673430Y-86910056D01*
X122503245Y-87090969D01*
X122393779Y-87313924D01*
X122354710Y-87559210D01*
X122389492Y-87805142D01*
X122495051Y-88029974D01*
X122662052Y-88213828D01*
X122875732Y-88340450D01*
X123117197Y-88398643D01*
X123365099Y-88383264D01*
X123597520Y-88295671D01*
X123793911Y-88143609D01*
X123936907Y-87940522D01*
X124014022Y-87703886D01*
X124014356Y-87665623D01*
X125530580Y-86149400D01*
X130006120Y-86149400D01*
X130478092Y-86621373D01*
X130346313Y-86667263D01*
X130143606Y-86808148D01*
X129986254Y-86998354D01*
X129885849Y-87223868D01*
X129849787Y-87468076D01*
X129880727Y-87712987D01*
X129976388Y-87940554D01*
X130129721Y-88134014D01*
X130329433Y-88279112D01*
X130560807Y-88365160D01*
X130792001Y-88384573D01*
X130792000Y-88688790D01*
X130730235Y-88647520D01*
X130537410Y-88609164D01*
X129812590Y-88609164D01*
X129619765Y-88647520D01*
X129540000Y-88700817D01*
X129460235Y-88647520D01*
X129267410Y-88609164D01*
X128542590Y-88609164D01*
X128383263Y-88640857D01*
X128205186Y-88538044D01*
X127859000Y-88477002D01*
X127859000Y-90267000D01*
X126643163Y-90267000D01*
X126643163Y-90959588D01*
X126723795Y-91260512D01*
X126871185Y-91436165D01*
X127064814Y-91547956D01*
X127273976Y-91584837D01*
X127425806Y-91584837D01*
X127380230Y-91660093D01*
X127346719Y-91758527D01*
X127201238Y-91767680D01*
X126968113Y-91848863D01*
X126765406Y-91989748D01*
X126608054Y-92179954D01*
X126507649Y-92405468D01*
X126471587Y-92649676D01*
X126502527Y-92894587D01*
X126598188Y-93122154D01*
X126751164Y-93315164D01*
X126751164Y-95019410D01*
X126789520Y-95212235D01*
X126850010Y-95302764D01*
X126796141Y-95389645D01*
X126728001Y-95710216D01*
X126728000Y-99420873D01*
X126723545Y-99527158D01*
X126742149Y-99606477D01*
X126753206Y-99687200D01*
X126770403Y-99726940D01*
X126781371Y-99773699D01*
X126809146Y-99816467D01*
X126851897Y-99915262D01*
X127008284Y-100108385D01*
X127047716Y-100136407D01*
X127985308Y-101074000D01*
X102126000Y-101074000D01*
X102126000Y-99122749D01*
X102352752Y-99122749D01*
X102371184Y-99386335D01*
X102431521Y-99643583D01*
X102532211Y-99887876D01*
X102670663Y-100112927D01*
X102843317Y-100312947D01*
X103045728Y-100482791D01*
X103272690Y-100618088D01*
X103518365Y-100715358D01*
X103776431Y-100772097D01*
X104040248Y-100786846D01*
X104303030Y-100759227D01*
X104558016Y-100689949D01*
X104798646Y-100580794D01*
X105018727Y-100434572D01*
X105212601Y-100255044D01*
X105375277Y-100046828D01*
X105502570Y-99815282D01*
X105591207Y-99566363D01*
X105639025Y-99305821D01*
X105642138Y-99008541D01*
X105599786Y-98747055D01*
X105516382Y-98496334D01*
X105393966Y-98262173D01*
X105235686Y-98050595D01*
X105045615Y-97867047D01*
X104847966Y-97729676D01*
X109529787Y-97729676D01*
X109560727Y-97974587D01*
X109656388Y-98202154D01*
X109809721Y-98395614D01*
X110009433Y-98540712D01*
X110240807Y-98626760D01*
X110486798Y-98647416D01*
X110729281Y-98601160D01*
X110950394Y-98491399D01*
X111133844Y-98326220D01*
X111266117Y-98117792D01*
X111337660Y-97880827D01*
X111339242Y-97729676D01*
X112069787Y-97729676D01*
X112100727Y-97974587D01*
X112196388Y-98202154D01*
X112349721Y-98395614D01*
X112549433Y-98540712D01*
X112780807Y-98626760D01*
X113026798Y-98647416D01*
X113269281Y-98601160D01*
X113490394Y-98491399D01*
X113673844Y-98326220D01*
X113806117Y-98117792D01*
X113877660Y-97880827D01*
X113879242Y-97729676D01*
X114609787Y-97729676D01*
X114640727Y-97974587D01*
X114736388Y-98202154D01*
X114889721Y-98395614D01*
X115089433Y-98540712D01*
X115320807Y-98626760D01*
X115566798Y-98647416D01*
X115809281Y-98601160D01*
X116030394Y-98491399D01*
X116213844Y-98326220D01*
X116346117Y-98117792D01*
X116417660Y-97880827D01*
X116419242Y-97729676D01*
X119689787Y-97729676D01*
X119720727Y-97974587D01*
X119816388Y-98202154D01*
X119969721Y-98395614D01*
X120169433Y-98540712D01*
X120400807Y-98626760D01*
X120646798Y-98647416D01*
X120889281Y-98601160D01*
X121110394Y-98491399D01*
X121293844Y-98326220D01*
X121426117Y-98117792D01*
X121497660Y-97880827D01*
X121500429Y-97616420D01*
X121433864Y-97378009D01*
X121305985Y-97166856D01*
X121126035Y-96997872D01*
X120907269Y-96883504D01*
X120665807Y-96832180D01*
X120419438Y-96847680D01*
X120186313Y-96928863D01*
X119983606Y-97069748D01*
X119826254Y-97259954D01*
X119725849Y-97485468D01*
X119689787Y-97729676D01*
X116419242Y-97729676D01*
X116420429Y-97616420D01*
X116353864Y-97378009D01*
X116225985Y-97166856D01*
X116046035Y-96997872D01*
X115827269Y-96883504D01*
X115585807Y-96832180D01*
X115339438Y-96847680D01*
X115106313Y-96928863D01*
X114903606Y-97069748D01*
X114746254Y-97259954D01*
X114645849Y-97485468D01*
X114609787Y-97729676D01*
X113879242Y-97729676D01*
X113880429Y-97616420D01*
X113813864Y-97378009D01*
X113685985Y-97166856D01*
X113506035Y-96997872D01*
X113287269Y-96883504D01*
X113045807Y-96832180D01*
X112799438Y-96847680D01*
X112566313Y-96928863D01*
X112363606Y-97069748D01*
X112206254Y-97259954D01*
X112105849Y-97485468D01*
X112069787Y-97729676D01*
X111339242Y-97729676D01*
X111340429Y-97616420D01*
X111273864Y-97378009D01*
X111145985Y-97166856D01*
X110966035Y-96997872D01*
X110747269Y-96883504D01*
X110505807Y-96832180D01*
X110259438Y-96847680D01*
X110026313Y-96928863D01*
X109823606Y-97069748D01*
X109666254Y-97259954D01*
X109565849Y-97485468D01*
X109529787Y-97729676D01*
X104847966Y-97729676D01*
X104828644Y-97716247D01*
X104590353Y-97602078D01*
X104336874Y-97527474D01*
X104074728Y-97494358D01*
X103810660Y-97503580D01*
X103551463Y-97554902D01*
X103303805Y-97647004D01*
X103074059Y-97777519D01*
X102868134Y-97943086D01*
X102691330Y-98139446D01*
X102548195Y-98361549D01*
X102442411Y-98603679D01*
X102376700Y-98859607D01*
X102352752Y-99122749D01*
X102126000Y-99122749D01*
X102126000Y-92716049D01*
X110568201Y-92716049D01*
X110590524Y-92943710D01*
X110658168Y-93162231D01*
X110768370Y-93362688D01*
X110916628Y-93536892D01*
X111096888Y-93677726D01*
X111301784Y-93779437D01*
X111522947Y-93837871D01*
X111751342Y-93850640D01*
X111977640Y-93817224D01*
X112192597Y-93738986D01*
X112387431Y-93619122D01*
X112554185Y-93462531D01*
X112686045Y-93275607D01*
X112777626Y-93065988D01*
X112825232Y-92842016D01*
X112826056Y-92605842D01*
X112780014Y-92381544D01*
X112689899Y-92171290D01*
X112559348Y-91983451D01*
X112393692Y-91825698D01*
X112199699Y-91704478D01*
X111985293Y-91624741D01*
X111759234Y-91589746D01*
X111530756Y-91600921D01*
X111309190Y-91657808D01*
X111103589Y-91758086D01*
X110922350Y-91897659D01*
X110772880Y-92070824D01*
X110661281Y-92270506D01*
X110592113Y-92488550D01*
X110568201Y-92716049D01*
X102126000Y-92716049D01*
X102126000Y-89131976D01*
X126643163Y-89131976D01*
X126643163Y-89819000D01*
X127411000Y-89819000D01*
X127411000Y-88462957D01*
X126967489Y-88581795D01*
X126791835Y-88729185D01*
X126680044Y-88922814D01*
X126643163Y-89131976D01*
X102126000Y-89131976D01*
X102126000Y-85126000D01*
X113558601Y-85126000D01*
X113600000Y-85132557D01*
X113651191Y-85124449D01*
X113764569Y-85106492D01*
X113913029Y-85030848D01*
X114030848Y-84913029D01*
X114106492Y-84764569D01*
X114132557Y-84600000D01*
X114126000Y-84558601D01*
X114126000Y-79720376D01*
X117510249Y-79720376D01*
X117779513Y-79888959D01*
X118038939Y-80002030D01*
X118312227Y-80075512D01*
X118593375Y-80107795D01*
X118876206Y-80098164D01*
X119154508Y-80046836D01*
X119422167Y-79954935D01*
X119673301Y-79824480D01*
X119824326Y-79714951D01*
X118670000Y-78560624D01*
X117510249Y-79720376D01*
X114126000Y-79720376D01*
X114126000Y-78289942D01*
X116762787Y-78289942D01*
X116797031Y-78570858D01*
X116872420Y-78843627D01*
X116987299Y-79102257D01*
X117150481Y-79358894D01*
X118309376Y-78200000D01*
X119030624Y-78200000D01*
X120200927Y-79370302D01*
X120410172Y-78985718D01*
X120503324Y-78730476D01*
X130218087Y-78730476D01*
X130249027Y-78975387D01*
X130344688Y-79202954D01*
X130498021Y-79396414D01*
X130697733Y-79541512D01*
X130929107Y-79627560D01*
X131175098Y-79648216D01*
X131417581Y-79601960D01*
X131638694Y-79492199D01*
X131822144Y-79327020D01*
X131954417Y-79118592D01*
X132025960Y-78881627D01*
X132028729Y-78617220D01*
X131989433Y-78476476D01*
X146486787Y-78476476D01*
X146517727Y-78721387D01*
X146613388Y-78948954D01*
X146766721Y-79142414D01*
X146966433Y-79287512D01*
X147197807Y-79373560D01*
X147443798Y-79394216D01*
X147686281Y-79347960D01*
X147907394Y-79238199D01*
X148090844Y-79073020D01*
X148223117Y-78864592D01*
X148283695Y-78663944D01*
X148476447Y-78714871D01*
X148704842Y-78727640D01*
X148931140Y-78694224D01*
X149146097Y-78615986D01*
X149340931Y-78496122D01*
X149507685Y-78339531D01*
X149639545Y-78152607D01*
X149731126Y-77942988D01*
X149778732Y-77719016D01*
X149779171Y-77593049D01*
X155141701Y-77593049D01*
X155164024Y-77820710D01*
X155231668Y-78039231D01*
X155341870Y-78239688D01*
X155490128Y-78413892D01*
X155670388Y-78554726D01*
X155875284Y-78656437D01*
X156096447Y-78714871D01*
X156324842Y-78727640D01*
X156551140Y-78694224D01*
X156766097Y-78615986D01*
X156960931Y-78496122D01*
X157127685Y-78339531D01*
X157259545Y-78152607D01*
X157351126Y-77942988D01*
X157398732Y-77719016D01*
X157399556Y-77482842D01*
X157353514Y-77258544D01*
X157263399Y-77048290D01*
X157132848Y-76860451D01*
X156967192Y-76702698D01*
X156773199Y-76581478D01*
X156558793Y-76501741D01*
X156332734Y-76466746D01*
X156104256Y-76477921D01*
X155882690Y-76534808D01*
X155677089Y-76635086D01*
X155495850Y-76774659D01*
X155346380Y-76947824D01*
X155234781Y-77147506D01*
X155165613Y-77365550D01*
X155141701Y-77593049D01*
X149779171Y-77593049D01*
X149779556Y-77482842D01*
X149733514Y-77258544D01*
X149643399Y-77048290D01*
X149512848Y-76860451D01*
X149347192Y-76702698D01*
X149153199Y-76581478D01*
X148938793Y-76501741D01*
X148712734Y-76466746D01*
X148484256Y-76477921D01*
X148262690Y-76534808D01*
X148057089Y-76635086D01*
X147875850Y-76774659D01*
X147726380Y-76947824D01*
X147614781Y-77147506D01*
X147545613Y-77365550D01*
X147521860Y-77591532D01*
X147462807Y-77578980D01*
X147216438Y-77594480D01*
X146983313Y-77675663D01*
X146780606Y-77816548D01*
X146623254Y-78006754D01*
X146522849Y-78232268D01*
X146486787Y-78476476D01*
X131989433Y-78476476D01*
X131962164Y-78378809D01*
X131834285Y-78167656D01*
X131654335Y-77998672D01*
X131435569Y-77884304D01*
X131194107Y-77832980D01*
X130947738Y-77848480D01*
X130714613Y-77929663D01*
X130511906Y-78070548D01*
X130354554Y-78260754D01*
X130254149Y-78486268D01*
X130218087Y-78730476D01*
X120503324Y-78730476D01*
X120507194Y-78719874D01*
X120564189Y-78440982D01*
X120574449Y-78061806D01*
X120532619Y-77780241D01*
X120450116Y-77509539D01*
X120328506Y-77254005D01*
X120186922Y-77043704D01*
X119030624Y-78200000D01*
X118309376Y-78200000D01*
X117154788Y-77045414D01*
X117038554Y-77208065D01*
X116909857Y-77460104D01*
X116819826Y-77728396D01*
X116770442Y-78007050D01*
X116762787Y-78289942D01*
X114126000Y-78289942D01*
X114126000Y-71146563D01*
X116869515Y-71146563D01*
X116882149Y-71419521D01*
X116935924Y-71687426D01*
X117029605Y-71944115D01*
X117161035Y-72183682D01*
X117327191Y-72400611D01*
X117524247Y-72589911D01*
X117747668Y-72747226D01*
X117992316Y-72868936D01*
X118252557Y-72952240D01*
X118254053Y-72952478D01*
X118092487Y-72993811D01*
X117841052Y-73100798D01*
X117608694Y-73244585D01*
X117400758Y-73421866D01*
X117222030Y-73628559D01*
X117076624Y-73859907D01*
X116967884Y-74110589D01*
X116898314Y-74374835D01*
X116869515Y-74646563D01*
X116882149Y-74919521D01*
X116935924Y-75187426D01*
X117029605Y-75444115D01*
X117161035Y-75683682D01*
X117327191Y-75900611D01*
X117524247Y-76089911D01*
X117747668Y-76247226D01*
X117992316Y-76368936D01*
X118066793Y-76392776D01*
X117872153Y-76465356D01*
X117501187Y-76670562D01*
X118670000Y-77839376D01*
X119833596Y-76675779D01*
X119515970Y-76488309D01*
X119278380Y-76392076D01*
X119327244Y-76377090D01*
X119573360Y-76258378D01*
X119798687Y-76103804D01*
X119998041Y-75916925D01*
X120166834Y-75702043D01*
X120292204Y-75480000D01*
X123440624Y-75480000D01*
X123470233Y-75501512D01*
X123701607Y-75587560D01*
X123947598Y-75608216D01*
X124190081Y-75561960D01*
X124411194Y-75452199D01*
X124594644Y-75287020D01*
X124726917Y-75078592D01*
X124798460Y-74841627D01*
X124801229Y-74577220D01*
X124734664Y-74338809D01*
X124606785Y-74127656D01*
X124426835Y-73958672D01*
X124208069Y-73844304D01*
X123966607Y-73792980D01*
X123720238Y-73808480D01*
X123487113Y-73889663D01*
X123443463Y-73920000D01*
X120287909Y-73920000D01*
X120223627Y-73788493D01*
X120067875Y-73563977D01*
X119879955Y-73365605D01*
X119664192Y-73197940D01*
X119425550Y-73064841D01*
X119169521Y-72969370D01*
X119084209Y-72951625D01*
X119327244Y-72877090D01*
X119573360Y-72758378D01*
X119798687Y-72603804D01*
X119866242Y-72540476D01*
X127390587Y-72540476D01*
X127421527Y-72785387D01*
X127517188Y-73012954D01*
X127670521Y-73206414D01*
X127870233Y-73351512D01*
X128101607Y-73437560D01*
X128347598Y-73458216D01*
X128590081Y-73411960D01*
X128811194Y-73302199D01*
X128994644Y-73137020D01*
X129126917Y-72928592D01*
X129198460Y-72691627D01*
X129201229Y-72427220D01*
X129134664Y-72188809D01*
X129006785Y-71977656D01*
X128953000Y-71927149D01*
X128953000Y-71670479D01*
X129386003Y-71237476D01*
X131932587Y-71237476D01*
X131963527Y-71482387D01*
X132059188Y-71709954D01*
X132212521Y-71903414D01*
X132412233Y-72048512D01*
X132643607Y-72134560D01*
X132820974Y-72149454D01*
X134284500Y-73612982D01*
X134284500Y-73861263D01*
X134164554Y-74006254D01*
X134064149Y-74231768D01*
X134028087Y-74475976D01*
X134059027Y-74720887D01*
X134154688Y-74948454D01*
X134308021Y-75141914D01*
X134507733Y-75287012D01*
X134739107Y-75373060D01*
X134985098Y-75393716D01*
X135227581Y-75347460D01*
X135448694Y-75237699D01*
X135632144Y-75072520D01*
X135764417Y-74864092D01*
X135835960Y-74627127D01*
X135838729Y-74362720D01*
X135772164Y-74124309D01*
X135644285Y-73913156D01*
X135590500Y-73862649D01*
X135590500Y-73412165D01*
X135598785Y-73373686D01*
X135590500Y-73303688D01*
X135590500Y-73288312D01*
X135584199Y-73250454D01*
X135572570Y-73152202D01*
X135565995Y-73141085D01*
X135563827Y-73128060D01*
X135460598Y-72936743D01*
X135389523Y-72871042D01*
X133742187Y-71223706D01*
X133743229Y-71124220D01*
X133676664Y-70885809D01*
X133548785Y-70674656D01*
X133541921Y-70668210D01*
X138801210Y-70668210D01*
X138835992Y-70914142D01*
X138920978Y-71095155D01*
X138891515Y-71155164D01*
X138852446Y-71400449D01*
X138887228Y-71646381D01*
X138992787Y-71871213D01*
X139159788Y-72055067D01*
X139373468Y-72181689D01*
X139614933Y-72239882D01*
X139862835Y-72224503D01*
X140095256Y-72136910D01*
X140193633Y-72060739D01*
X140925885Y-72060739D01*
X141129993Y-72181689D01*
X141371458Y-72239882D01*
X141619360Y-72224503D01*
X141851781Y-72136910D01*
X141950158Y-72060739D01*
X150882097Y-72060739D01*
X150920576Y-72069024D01*
X150990574Y-72060739D01*
X151005950Y-72060739D01*
X151034042Y-72056063D01*
X151057196Y-72061643D01*
X151305099Y-72046264D01*
X151537520Y-71958671D01*
X151733911Y-71806609D01*
X151876907Y-71603522D01*
X151954023Y-71366886D01*
X151954310Y-71333944D01*
X152149232Y-71449450D01*
X152390697Y-71507643D01*
X152638599Y-71492264D01*
X152871020Y-71404671D01*
X153067411Y-71252609D01*
X153210407Y-71049522D01*
X153287522Y-70812886D01*
X153289795Y-70552516D01*
X153216821Y-70314569D01*
X153077390Y-70109019D01*
X152883684Y-69953553D01*
X152652827Y-69861917D01*
X152405231Y-69842212D01*
X152162787Y-69896184D01*
X151946930Y-70019056D01*
X151943690Y-70022500D01*
X142555590Y-70022500D01*
X142469684Y-69953553D01*
X142238827Y-69861917D01*
X141991231Y-69842212D01*
X141748787Y-69896184D01*
X141532930Y-70019056D01*
X141529690Y-70022500D01*
X140142590Y-70022500D01*
X140056684Y-69953553D01*
X139825827Y-69861917D01*
X139578231Y-69842212D01*
X139335787Y-69896184D01*
X139119930Y-70019056D01*
X138949745Y-70199969D01*
X138840279Y-70422924D01*
X138801210Y-70668210D01*
X133541921Y-70668210D01*
X133368835Y-70505672D01*
X133150069Y-70391304D01*
X132908607Y-70339980D01*
X132662238Y-70355480D01*
X132429113Y-70436663D01*
X132226406Y-70577548D01*
X132069054Y-70767754D01*
X131968649Y-70993268D01*
X131932587Y-71237476D01*
X129386003Y-71237476D01*
X132078403Y-68545076D01*
X154208387Y-68545076D01*
X154239327Y-68789987D01*
X154334988Y-69017554D01*
X154488321Y-69211014D01*
X154688033Y-69356112D01*
X154919407Y-69442160D01*
X155165398Y-69462816D01*
X155407881Y-69416560D01*
X155628994Y-69306799D01*
X155812444Y-69141620D01*
X155944717Y-68933192D01*
X156016260Y-68696227D01*
X156018374Y-68494276D01*
X156773787Y-68494276D01*
X156804727Y-68739187D01*
X156900388Y-68966754D01*
X157053721Y-69160214D01*
X157253433Y-69305312D01*
X157484807Y-69391360D01*
X157730798Y-69412016D01*
X157973281Y-69365760D01*
X158194394Y-69255999D01*
X158377844Y-69090820D01*
X158510117Y-68882392D01*
X158581660Y-68645427D01*
X158584429Y-68381020D01*
X158517864Y-68142609D01*
X158389985Y-67931456D01*
X158210035Y-67762472D01*
X157991269Y-67648104D01*
X157749807Y-67596780D01*
X157503438Y-67612280D01*
X157270313Y-67693463D01*
X157067606Y-67834348D01*
X156910254Y-68024554D01*
X156809849Y-68250068D01*
X156773787Y-68494276D01*
X156018374Y-68494276D01*
X156019029Y-68431820D01*
X155952464Y-68193409D01*
X155824585Y-67982256D01*
X155644635Y-67813272D01*
X155425869Y-67698904D01*
X155184407Y-67647580D01*
X154938038Y-67663080D01*
X154704913Y-67744263D01*
X154502206Y-67885148D01*
X154344854Y-68075354D01*
X154244449Y-68300868D01*
X154208387Y-68545076D01*
X132078403Y-68545076D01*
X133812269Y-66811211D01*
X133842098Y-66813716D01*
X134084581Y-66767460D01*
X134305694Y-66657699D01*
X134489144Y-66492520D01*
X134621417Y-66284092D01*
X134692960Y-66047127D01*
X134695729Y-65782720D01*
X134629164Y-65544309D01*
X134501285Y-65333156D01*
X134321335Y-65164172D01*
X134102569Y-65049804D01*
X133861107Y-64998480D01*
X133614738Y-65013980D01*
X133381613Y-65095163D01*
X133178906Y-65236048D01*
X133021554Y-65426254D01*
X132921149Y-65651768D01*
X132885874Y-65890645D01*
X127887524Y-70888996D01*
X127854454Y-70910349D01*
X127810820Y-70965700D01*
X127799942Y-70976577D01*
X127777619Y-71007815D01*
X127716380Y-71085497D01*
X127713167Y-71098009D01*
X127705489Y-71108754D01*
X127643201Y-71317028D01*
X127647001Y-71413741D01*
X127647001Y-71925763D01*
X127527054Y-72070754D01*
X127426649Y-72296268D01*
X127390587Y-72540476D01*
X119866242Y-72540476D01*
X119998041Y-72416925D01*
X120166834Y-72202043D01*
X120301181Y-71964101D01*
X120397991Y-71708576D01*
X120455418Y-71439559D01*
X120466482Y-71066748D01*
X120425111Y-70794800D01*
X120343626Y-70533983D01*
X120223627Y-70288493D01*
X120067875Y-70063977D01*
X119879955Y-69865605D01*
X119664192Y-69697940D01*
X119425550Y-69564841D01*
X119169521Y-69469370D01*
X118901997Y-69413724D01*
X118629134Y-69399186D01*
X118357211Y-69426088D01*
X118092487Y-69493811D01*
X117841052Y-69600798D01*
X117608694Y-69744585D01*
X117400758Y-69921866D01*
X117222030Y-70128559D01*
X117076624Y-70359907D01*
X116967884Y-70610589D01*
X116898314Y-70874835D01*
X116869515Y-71146563D01*
X114126000Y-71146563D01*
X114126000Y-66641399D01*
X114132557Y-66600000D01*
X114106492Y-66435431D01*
X114030848Y-66286971D01*
X113913029Y-66169152D01*
X113764569Y-66093508D01*
X113651191Y-66075551D01*
X113600000Y-66067443D01*
X113558601Y-66074000D01*
X102126000Y-66074000D01*
X102126000Y-59430866D01*
X105444001Y-59430866D01*
X105444001Y-59689134D01*
X105488848Y-59943476D01*
X105577181Y-60186167D01*
X105706314Y-60409833D01*
X105872324Y-60607676D01*
X106070167Y-60773686D01*
X106293833Y-60902819D01*
X106536524Y-60991152D01*
X106790866Y-61035999D01*
X107049134Y-61035999D01*
X107303476Y-60991152D01*
X107546167Y-60902819D01*
X107769833Y-60773686D01*
X107967676Y-60607676D01*
X108133686Y-60409833D01*
X108262819Y-60186167D01*
X108351152Y-59943476D01*
X108395999Y-59689134D01*
X108395999Y-59430866D01*
X112444001Y-59430866D01*
X112444001Y-59689134D01*
X112488848Y-59943476D01*
X112577181Y-60186167D01*
X112706314Y-60409833D01*
X112872324Y-60607676D01*
X113070167Y-60773686D01*
X113293833Y-60902819D01*
X113536524Y-60991152D01*
X113790866Y-61035999D01*
X114049134Y-61035999D01*
X114303476Y-60991152D01*
X114546167Y-60902819D01*
X114769833Y-60773686D01*
X114967676Y-60607676D01*
X115133686Y-60409833D01*
X115262819Y-60186167D01*
X115351152Y-59943476D01*
X115395999Y-59689134D01*
X115395999Y-59430866D01*
X115351152Y-59176524D01*
X115262819Y-58933833D01*
X115133686Y-58710167D01*
X114967676Y-58512324D01*
X114769833Y-58346314D01*
X114546167Y-58217181D01*
X114303476Y-58128848D01*
X114049134Y-58084001D01*
X113790866Y-58084001D01*
X113536524Y-58128848D01*
X113293833Y-58217181D01*
X113070167Y-58346314D01*
X112872324Y-58512324D01*
X112706314Y-58710167D01*
X112577181Y-58933833D01*
X112488848Y-59176524D01*
X112444001Y-59430866D01*
X108395999Y-59430866D01*
X108351152Y-59176524D01*
X108262819Y-58933833D01*
X108133686Y-58710167D01*
X107967676Y-58512324D01*
X107769833Y-58346314D01*
X107546167Y-58217181D01*
X107303476Y-58128848D01*
X107049134Y-58084001D01*
X106790866Y-58084001D01*
X106536524Y-58128848D01*
X106293833Y-58217181D01*
X106070167Y-58346314D01*
X105872324Y-58512324D01*
X105706314Y-58710167D01*
X105577181Y-58933833D01*
X105488848Y-59176524D01*
X105444001Y-59430866D01*
X102126000Y-59430866D01*
X102126000Y-54459000D01*
X112847957Y-54459000D01*
X112966795Y-54902512D01*
X113114185Y-55078165D01*
X113307814Y-55189956D01*
X113516976Y-55226837D01*
X114204000Y-55226837D01*
X114204000Y-54459000D01*
X112847957Y-54459000D01*
X102126000Y-54459000D01*
X102126000Y-48130866D01*
X105364001Y-48130866D01*
X105364001Y-48389134D01*
X105408848Y-48643476D01*
X105497181Y-48886167D01*
X105626314Y-49109833D01*
X105792324Y-49307676D01*
X105990167Y-49473686D01*
X106213833Y-49602819D01*
X106456524Y-49691152D01*
X106710866Y-49735999D01*
X106969134Y-49735999D01*
X107223476Y-49691152D01*
X107466167Y-49602819D01*
X107689833Y-49473686D01*
X107887676Y-49307676D01*
X108053686Y-49109833D01*
X108182819Y-48886167D01*
X108271152Y-48643476D01*
X108315999Y-48389134D01*
X108315999Y-48130866D01*
X108271152Y-47876524D01*
X108182819Y-47633833D01*
X108053686Y-47410167D01*
X107887676Y-47212324D01*
X107689833Y-47046314D01*
X107466167Y-46917181D01*
X107223476Y-46828848D01*
X106969134Y-46784001D01*
X106710866Y-46784001D01*
X106456524Y-46828848D01*
X106213833Y-46917181D01*
X105990167Y-47046314D01*
X105792324Y-47212324D01*
X105626314Y-47410167D01*
X105497181Y-47633833D01*
X105408848Y-47876524D01*
X105364001Y-48130866D01*
X102126000Y-48130866D01*
X102126000Y-42426000D01*
X103521621Y-42426000D01*
X103303805Y-42507004D01*
G37*
X103303805Y-42507004D02*
X103074059Y-42637519D01*
X102868134Y-42803086D01*
X102691330Y-42999446D01*
X102548195Y-43221549D01*
X102442411Y-43463679D01*
X102376700Y-43719607D01*
X102352752Y-43982749D01*
X102371184Y-44246335D01*
X102431521Y-44503583D01*
X102532211Y-44747876D01*
X102670663Y-44972927D01*
X102843317Y-45172947D01*
X103045728Y-45342791D01*
X103272690Y-45478088D01*
X103518365Y-45575358D01*
X103776431Y-45632097D01*
X104040248Y-45646846D01*
X104303030Y-45619227D01*
X104558016Y-45549949D01*
X104798646Y-45440794D01*
X105018727Y-45294572D01*
X105212601Y-45115044D01*
X105375277Y-44906828D01*
X105502570Y-44675282D01*
X105591207Y-44426363D01*
X105639025Y-44165821D01*
X105642138Y-43868541D01*
X105599786Y-43607055D01*
X105516382Y-43356334D01*
X105393966Y-43122173D01*
X105235686Y-42910595D01*
X105045615Y-42727047D01*
X104828644Y-42576247D01*
X104590353Y-42462078D01*
X104467772Y-42426000D01*
X112997464Y-42426000D01*
X112994164Y-42442590D01*
X112994164Y-43167410D01*
X113032520Y-43360235D01*
X113085817Y-43440000D01*
X113032520Y-43519765D01*
X112994164Y-43712590D01*
X112994164Y-44437410D01*
X113032520Y-44630235D01*
X113085817Y-44710000D01*
X113032520Y-44789765D01*
X112994164Y-44982590D01*
X112994164Y-45707410D01*
X113032520Y-45900235D01*
X113085817Y-45980000D01*
X113032520Y-46059765D01*
X112994164Y-46252590D01*
X112994164Y-46977410D01*
X113006046Y-47037146D01*
X112990167Y-47046314D01*
X112792324Y-47212324D01*
X112626314Y-47410167D01*
X112497181Y-47633833D01*
X112408848Y-47876524D01*
X112364001Y-48130866D01*
X112364001Y-48389134D01*
X112408848Y-48643476D01*
X112497181Y-48886167D01*
X112626314Y-49109833D01*
X112792324Y-49307676D01*
X112990167Y-49473686D01*
X113213833Y-49602819D01*
X113261778Y-49620270D01*
X113148775Y-49695775D01*
X113032520Y-49869765D01*
X112994164Y-50062590D01*
X112994164Y-50787410D01*
X113032520Y-50980235D01*
X113085817Y-51060000D01*
X113032520Y-51139765D01*
X112994164Y-51332590D01*
X112994164Y-52057410D01*
X113032520Y-52250235D01*
X113085817Y-52330000D01*
X113032520Y-52409765D01*
X112994164Y-52602590D01*
X112994164Y-53327410D01*
X113025857Y-53486737D01*
X112923044Y-53664814D01*
X112862002Y-54011000D01*
X114652000Y-54011000D01*
X114652000Y-55226837D01*
X115344588Y-55226837D01*
X115645512Y-55146205D01*
X115821165Y-54998815D01*
X115932956Y-54805186D01*
X115969837Y-54596024D01*
X115969837Y-54327822D01*
X116101275Y-54405709D01*
X116296250Y-54466624D01*
X116500008Y-54481051D01*
X116701621Y-54448216D01*
X116890272Y-54369881D01*
X117055843Y-54250248D01*
X117058164Y-54247564D01*
X117058164Y-54597410D01*
X117096520Y-54790235D01*
X117212775Y-54964225D01*
X117386765Y-55080480D01*
X117579590Y-55118836D01*
X119404410Y-55118836D01*
X119597234Y-55080480D01*
X119604656Y-55075521D01*
X119715007Y-55116560D01*
X119960998Y-55137216D01*
X120203481Y-55090960D01*
X120424594Y-54981199D01*
X120608044Y-54816020D01*
X120740317Y-54607592D01*
X120811860Y-54370627D01*
X120814629Y-54106220D01*
X120748064Y-53867809D01*
X120620185Y-53656656D01*
X120440235Y-53487672D01*
X120221469Y-53373304D01*
X119980007Y-53321980D01*
X119925836Y-53325388D01*
X119925836Y-52602590D01*
X119887480Y-52409765D01*
X119834183Y-52330000D01*
X119887480Y-52250235D01*
X119925836Y-52057410D01*
X119925836Y-51332590D01*
X119887480Y-51139765D01*
X119834183Y-51060000D01*
X119887480Y-50980235D01*
X119925836Y-50787410D01*
X119925836Y-50062590D01*
X119887480Y-49869765D01*
X119834183Y-49790000D01*
X119887480Y-49710235D01*
X119925836Y-49517410D01*
X119925836Y-48792590D01*
X119887480Y-48599765D01*
X119834183Y-48520000D01*
X119887480Y-48440235D01*
X119925836Y-48247410D01*
X119925836Y-47522590D01*
X119887480Y-47329765D01*
X119834183Y-47250000D01*
X119887480Y-47170235D01*
X119925836Y-46977410D01*
X119925836Y-46252590D01*
X119887480Y-46059765D01*
X119834183Y-45980000D01*
X119887480Y-45900235D01*
X119925836Y-45707410D01*
X119925836Y-44982590D01*
X119887480Y-44789765D01*
X119834183Y-44710000D01*
X119887480Y-44630235D01*
X119925836Y-44437410D01*
X119925836Y-43712590D01*
X119887480Y-43519765D01*
X119834183Y-43440000D01*
X119887480Y-43360235D01*
X119925836Y-43167410D01*
X119925836Y-42442590D01*
X119922536Y-42426000D01*
X124126787Y-42426000D01*
X124004554Y-42573754D01*
X123904149Y-42799268D01*
X123887545Y-42911710D01*
X122954273Y-43844983D01*
X122954268Y-43844990D01*
X122910211Y-43889047D01*
X122883836Y-43940813D01*
X122849681Y-43987823D01*
X122831724Y-44043087D01*
X122805346Y-44094858D01*
X122796256Y-44152249D01*
X122778302Y-44207506D01*
X122778302Y-44265886D01*
X122778300Y-44265899D01*
X122778301Y-55663047D01*
X114120549Y-64320800D01*
X103589750Y-64320800D01*
X103576835Y-64308672D01*
X103358069Y-64194304D01*
X103116607Y-64142980D01*
X102870238Y-64158480D01*
X102637113Y-64239663D01*
X102434406Y-64380548D01*
X102277054Y-64570754D01*
X102176649Y-64796268D01*
X102140587Y-65040476D01*
X102171527Y-65285387D01*
X102267188Y-65512954D01*
X102420521Y-65706414D01*
X102620233Y-65851512D01*
X102851607Y-65937560D01*
X103097598Y-65958216D01*
X103340081Y-65911960D01*
X103561194Y-65802199D01*
X103586737Y-65779200D01*
X114479694Y-65779200D01*
X114479707Y-65779198D01*
X114538085Y-65779198D01*
X114593337Y-65761246D01*
X114650735Y-65752154D01*
X114702508Y-65725774D01*
X114757768Y-65707819D01*
X114804772Y-65673669D01*
X114856547Y-65647288D01*
X114898312Y-65605523D01*
X114898319Y-65605517D01*
X116963517Y-63540318D01*
X117099521Y-63711914D01*
X117299233Y-63857012D01*
X117530607Y-63943060D01*
X117776598Y-63963716D01*
X118019081Y-63917460D01*
X118240194Y-63807699D01*
X118423644Y-63642520D01*
X118555917Y-63434092D01*
X118627460Y-63197127D01*
X118630229Y-62932720D01*
X118602247Y-62832496D01*
X124597469Y-56837276D01*
X124597476Y-56837266D01*
X124638198Y-56796545D01*
X124664576Y-56744773D01*
X124698729Y-56697767D01*
X124716686Y-56642503D01*
X124743064Y-56590733D01*
X124752154Y-56533343D01*
X124770109Y-56478084D01*
X124770109Y-56420490D01*
X124770110Y-56420484D01*
X124770110Y-54378633D01*
X126286044Y-52862700D01*
X126751164Y-52862700D01*
X126751164Y-54379410D01*
X126789520Y-54572235D01*
X126905775Y-54746225D01*
X127079765Y-54862480D01*
X127272590Y-54900836D01*
X127997410Y-54900836D01*
X128091559Y-54882108D01*
X128031649Y-55016668D01*
X127995587Y-55260876D01*
X128026527Y-55505787D01*
X128122188Y-55733354D01*
X128275521Y-55926814D01*
X128359025Y-55987483D01*
X128347508Y-55988693D01*
X128142390Y-56055340D01*
X127955611Y-56163176D01*
X127795334Y-56307491D01*
X127668564Y-56481975D01*
X127580842Y-56679002D01*
X127536000Y-56889963D01*
X127536000Y-57105637D01*
X127580842Y-57316598D01*
X127668564Y-57513625D01*
X127795334Y-57688109D01*
X127955611Y-57832424D01*
X128142390Y-57940260D01*
X128347508Y-58006907D01*
X128562000Y-58029451D01*
X128776492Y-58006907D01*
X128981610Y-57940260D01*
X129168389Y-57832424D01*
X129328666Y-57688109D01*
X129455436Y-57513625D01*
X129522000Y-57364119D01*
X129522001Y-63493828D01*
X129513715Y-63532315D01*
X129522001Y-63602321D01*
X129522001Y-63617688D01*
X129528297Y-63655512D01*
X129539930Y-63753795D01*
X129546506Y-63764915D01*
X129548674Y-63777940D01*
X129651903Y-63969257D01*
X129722991Y-64034970D01*
X130748826Y-65060806D01*
X130776355Y-65278715D01*
X130872016Y-65506282D01*
X131025349Y-65699742D01*
X131225061Y-65844840D01*
X131456435Y-65930888D01*
X131702426Y-65951544D01*
X131944909Y-65905288D01*
X132166022Y-65795527D01*
X132349472Y-65630348D01*
X132481745Y-65421920D01*
X132553288Y-65184955D01*
X132556057Y-64920548D01*
X132489492Y-64682137D01*
X132361613Y-64470984D01*
X132181663Y-64302000D01*
X131962897Y-64187632D01*
X131721435Y-64136308D01*
X131674256Y-64139276D01*
X130828000Y-63293020D01*
X130828000Y-60461848D01*
X131020233Y-60601512D01*
X131251607Y-60687560D01*
X131497598Y-60708216D01*
X131740081Y-60661960D01*
X131961194Y-60552199D01*
X132062001Y-60461432D01*
X132062001Y-61652328D01*
X132053715Y-61690815D01*
X132062001Y-61760821D01*
X132062001Y-61776188D01*
X132068297Y-61814012D01*
X132079930Y-61912295D01*
X132086506Y-61923415D01*
X132088674Y-61936440D01*
X132191903Y-62127757D01*
X132262991Y-62193470D01*
X135047498Y-64977978D01*
X135075027Y-65195887D01*
X135170688Y-65423454D01*
X135324021Y-65616914D01*
X135523733Y-65762012D01*
X135755107Y-65848060D01*
X136001098Y-65868716D01*
X136243581Y-65822460D01*
X136464694Y-65712699D01*
X136467894Y-65709818D01*
X136539733Y-65762012D01*
X136771107Y-65848060D01*
X137017098Y-65868716D01*
X137259581Y-65822460D01*
X137480694Y-65712699D01*
X137664144Y-65547520D01*
X137796417Y-65339092D01*
X137867960Y-65102127D01*
X137870729Y-64837720D01*
X137804164Y-64599309D01*
X137676285Y-64388156D01*
X137496335Y-64219172D01*
X137277569Y-64104804D01*
X137036107Y-64053480D01*
X136988928Y-64056448D01*
X136930956Y-63998476D01*
X146613787Y-63998476D01*
X146644727Y-64243387D01*
X146740388Y-64470954D01*
X146893721Y-64664414D01*
X147093433Y-64809512D01*
X147324807Y-64895560D01*
X147570798Y-64916216D01*
X147813281Y-64869960D01*
X148034394Y-64760199D01*
X148217844Y-64595020D01*
X148350117Y-64386592D01*
X148392940Y-64244753D01*
X148603447Y-64300371D01*
X148831842Y-64313140D01*
X149058140Y-64279724D01*
X149273097Y-64201486D01*
X149467931Y-64081622D01*
X149634685Y-63925031D01*
X149766545Y-63738107D01*
X149858126Y-63528488D01*
X149905732Y-63304516D01*
X149906171Y-63178549D01*
X155268701Y-63178549D01*
X155291024Y-63406210D01*
X155358668Y-63624731D01*
X155468870Y-63825188D01*
X155617128Y-63999392D01*
X155797388Y-64140226D01*
X156002284Y-64241937D01*
X156223447Y-64300371D01*
X156451842Y-64313140D01*
X156678140Y-64279724D01*
X156893097Y-64201486D01*
X157087931Y-64081622D01*
X157254685Y-63925031D01*
X157386545Y-63738107D01*
X157478126Y-63528488D01*
X157525732Y-63304516D01*
X157526556Y-63068342D01*
X157480514Y-62844044D01*
X157390399Y-62633790D01*
X157259848Y-62445951D01*
X157094192Y-62288198D01*
X156900199Y-62166978D01*
X156685793Y-62087241D01*
X156459734Y-62052246D01*
X156231256Y-62063421D01*
X156009690Y-62120308D01*
X155804089Y-62220586D01*
X155622850Y-62360159D01*
X155473380Y-62533324D01*
X155361781Y-62733006D01*
X155292613Y-62951050D01*
X155268701Y-63178549D01*
X149906171Y-63178549D01*
X149906556Y-63068342D01*
X149860514Y-62844044D01*
X149770399Y-62633790D01*
X149639848Y-62445951D01*
X149474192Y-62288198D01*
X149280199Y-62166978D01*
X149065793Y-62087241D01*
X148839734Y-62052246D01*
X148611256Y-62063421D01*
X148389690Y-62120308D01*
X148184089Y-62220586D01*
X148002850Y-62360159D01*
X147853380Y-62533324D01*
X147741781Y-62733006D01*
X147672613Y-62951050D01*
X147655389Y-63114920D01*
X147589807Y-63100980D01*
X147343438Y-63116480D01*
X147110313Y-63197663D01*
X146907606Y-63338548D01*
X146750254Y-63528754D01*
X146649849Y-63754268D01*
X146613787Y-63998476D01*
X136930956Y-63998476D01*
X134551275Y-61618795D01*
X134551275Y-61379120D01*
X134689021Y-61552914D01*
X134888733Y-61698012D01*
X135120107Y-61784060D01*
X135366098Y-61804716D01*
X135608581Y-61758460D01*
X135829694Y-61648699D01*
X136013144Y-61483520D01*
X136145417Y-61275092D01*
X136216960Y-61038127D01*
X136219729Y-60773720D01*
X136153164Y-60535309D01*
X136025285Y-60324156D01*
X135971500Y-60273649D01*
X135971500Y-57841020D01*
X136143390Y-57940260D01*
X136348508Y-58006907D01*
X136563000Y-58029451D01*
X136777492Y-58006907D01*
X136982610Y-57940260D01*
X137142001Y-57848236D01*
X137142001Y-58350328D01*
X137133715Y-58388815D01*
X137142001Y-58458821D01*
X137142001Y-58474188D01*
X137148297Y-58512012D01*
X137159930Y-58610295D01*
X137166506Y-58621415D01*
X137168674Y-58634440D01*
X137271903Y-58825757D01*
X137342991Y-58891470D01*
X139422176Y-60970656D01*
X139441229Y-61105379D01*
X139546788Y-61330211D01*
X139713789Y-61514065D01*
X139927469Y-61640687D01*
X140168934Y-61698880D01*
X140416836Y-61683501D01*
X140649257Y-61595908D01*
X140845648Y-61443846D01*
X140988644Y-61240759D01*
X141065759Y-61004123D01*
X141068032Y-60743753D01*
X140995058Y-60505807D01*
X140972795Y-60472987D01*
X141081907Y-60318022D01*
X141159022Y-60081386D01*
X141161295Y-59821016D01*
X141088321Y-59583069D01*
X140948890Y-59377519D01*
X140755184Y-59222053D01*
X140524327Y-59130417D01*
X140438029Y-59123549D01*
X139718000Y-58403520D01*
X139718000Y-54821211D01*
X139779765Y-54862480D01*
X139972590Y-54900836D01*
X140697410Y-54900836D01*
X140890235Y-54862480D01*
X140970000Y-54809183D01*
X141049765Y-54862480D01*
X141242590Y-54900836D01*
X141967410Y-54900836D01*
X142160235Y-54862480D01*
X142222000Y-54821211D01*
X142222000Y-54924085D01*
X142188244Y-54959969D01*
X142078779Y-55182924D01*
X142039710Y-55428210D01*
X142074492Y-55674142D01*
X142180051Y-55898974D01*
X142347052Y-56082828D01*
X142560732Y-56209450D01*
X142802197Y-56267643D01*
X143050099Y-56252264D01*
X143282520Y-56164671D01*
X143478911Y-56012609D01*
X143511381Y-55966494D01*
X143617052Y-56082828D01*
X143830732Y-56209450D01*
X144072197Y-56267643D01*
X144320099Y-56252264D01*
X144552520Y-56164671D01*
X144748911Y-56012609D01*
X144891907Y-55809522D01*
X144969022Y-55572886D01*
X144971295Y-55312516D01*
X144898321Y-55074569D01*
X144798000Y-54926675D01*
X144798000Y-54821211D01*
X144859765Y-54862480D01*
X145052590Y-54900836D01*
X145777410Y-54900836D01*
X145970235Y-54862480D01*
X146050000Y-54809183D01*
X146129765Y-54862480D01*
X146322590Y-54900836D01*
X147047410Y-54900836D01*
X147240235Y-54862480D01*
X147319704Y-54809382D01*
X147319930Y-54811295D01*
X147326506Y-54822415D01*
X147328674Y-54835440D01*
X147431903Y-55026757D01*
X147502991Y-55092470D01*
X150527006Y-58116487D01*
X150548359Y-58149557D01*
X150603710Y-58193191D01*
X150614586Y-58204068D01*
X150645824Y-58226391D01*
X150723505Y-58287630D01*
X150736017Y-58290843D01*
X150746763Y-58298522D01*
X150955037Y-58360809D01*
X151051736Y-58357010D01*
X157152124Y-58357010D01*
X157356232Y-58477960D01*
X157597697Y-58536153D01*
X157845599Y-58520774D01*
X158078020Y-58433181D01*
X158274411Y-58281119D01*
X158417407Y-58078032D01*
X158472736Y-57908249D01*
X158499232Y-57923950D01*
X158740697Y-57982143D01*
X158988599Y-57966764D01*
X159221020Y-57879171D01*
X159417411Y-57727109D01*
X159560407Y-57524022D01*
X159637522Y-57287386D01*
X159639795Y-57027016D01*
X159566821Y-56789069D01*
X159427390Y-56583519D01*
X159233684Y-56428053D01*
X159002827Y-56336417D01*
X158755231Y-56316712D01*
X158512787Y-56370684D01*
X158296930Y-56493556D01*
X158293690Y-56497000D01*
X157225324Y-56497000D01*
X157226795Y-56328516D01*
X157153821Y-56090569D01*
X157014390Y-55885019D01*
X156820684Y-55729553D01*
X156589827Y-55637917D01*
X156342231Y-55618212D01*
X156100095Y-55672115D01*
X155578006Y-55150026D01*
X155556650Y-55116953D01*
X155501292Y-55073312D01*
X155490423Y-55062442D01*
X155459199Y-55040129D01*
X155381501Y-54978877D01*
X155368988Y-54975665D01*
X155358248Y-54967989D01*
X155149972Y-54905701D01*
X155053284Y-54909500D01*
X152797482Y-54909500D01*
X152550293Y-54662312D01*
X152610480Y-54572235D01*
X152648836Y-54379410D01*
X152648836Y-52554590D01*
X152610480Y-52361765D01*
X152494225Y-52187775D01*
X152320235Y-52071520D01*
X152127410Y-52033164D01*
X151901238Y-52033164D01*
X151967976Y-51946502D01*
X152058266Y-51754628D01*
X152105297Y-51547623D01*
X152106059Y-51329188D01*
X152060474Y-51121861D01*
X151996197Y-50982749D01*
X162352752Y-50982749D01*
X162371184Y-51246335D01*
X162431521Y-51503583D01*
X162532211Y-51747876D01*
X162670663Y-51972927D01*
X162843317Y-52172947D01*
X163045728Y-52342791D01*
X163272690Y-52478088D01*
X163518365Y-52575358D01*
X163776431Y-52632097D01*
X164040248Y-52646846D01*
X164303030Y-52619227D01*
X164558016Y-52549949D01*
X164798646Y-52440794D01*
X165018727Y-52294572D01*
X165212601Y-52115044D01*
X165375277Y-51906828D01*
X165502570Y-51675282D01*
X165591207Y-51426363D01*
X165639025Y-51165821D01*
X165642138Y-50868541D01*
X165599786Y-50607055D01*
X165516382Y-50356334D01*
X165393966Y-50122173D01*
X165235686Y-49910595D01*
X165045615Y-49727047D01*
X164828644Y-49576247D01*
X164590353Y-49462078D01*
X164336874Y-49387474D01*
X164074728Y-49354358D01*
X163810660Y-49363580D01*
X163551463Y-49414902D01*
X163303805Y-49507004D01*
X163074059Y-49637519D01*
X162868134Y-49803086D01*
X162691330Y-49999446D01*
X162548195Y-50221549D01*
X162442411Y-50463679D01*
X162376700Y-50719607D01*
X162352752Y-50982749D01*
X151996197Y-50982749D01*
X151971527Y-50929359D01*
X151901298Y-50836836D01*
X152127410Y-50836836D01*
X152320235Y-50798480D01*
X152494225Y-50682225D01*
X152610480Y-50508235D01*
X152648836Y-50315410D01*
X152648836Y-48726000D01*
X166074001Y-48726000D01*
X166074000Y-101074000D01*
X159633836Y-101074000D01*
X159633836Y-99544590D01*
X159595480Y-99351765D01*
X159569411Y-99312749D01*
X162652752Y-99312749D01*
X162671184Y-99576335D01*
X162731521Y-99833583D01*
X162832211Y-100077876D01*
X162970663Y-100302927D01*
X163143317Y-100502947D01*
X163345728Y-100672791D01*
X163572690Y-100808088D01*
X163818365Y-100905358D01*
X164076431Y-100962097D01*
X164340248Y-100976846D01*
X164603030Y-100949227D01*
X164858016Y-100879949D01*
X165098646Y-100770794D01*
X165318727Y-100624572D01*
X165512601Y-100445044D01*
X165675277Y-100236828D01*
X165802570Y-100005282D01*
X165891207Y-99756363D01*
X165939025Y-99495821D01*
X165942138Y-99198541D01*
X165899786Y-98937055D01*
X165816382Y-98686334D01*
X165693966Y-98452173D01*
X165535686Y-98240595D01*
X165345615Y-98057047D01*
X165128644Y-97906247D01*
X164890353Y-97792078D01*
X164636874Y-97717474D01*
X164374728Y-97684358D01*
X164110660Y-97693580D01*
X163851463Y-97744902D01*
X163603805Y-97837004D01*
X163374059Y-97967519D01*
X163168134Y-98133086D01*
X162991330Y-98329446D01*
X162848195Y-98551549D01*
X162742411Y-98793679D01*
X162676700Y-99049607D01*
X162652752Y-99312749D01*
X159569411Y-99312749D01*
X159479225Y-99177775D01*
X159305235Y-99061520D01*
X159112410Y-99023164D01*
X158886238Y-99023164D01*
X158952976Y-98936502D01*
X159043266Y-98744628D01*
X159090297Y-98537623D01*
X159091059Y-98319188D01*
X159045474Y-98111861D01*
X158956527Y-97919359D01*
X158886298Y-97826836D01*
X159112410Y-97826836D01*
X159305235Y-97788480D01*
X159479225Y-97672225D01*
X159595480Y-97498235D01*
X159633836Y-97305410D01*
X159633836Y-95480590D01*
X159595480Y-95287765D01*
X159479225Y-95113775D01*
X159305235Y-94997520D01*
X159112410Y-94959164D01*
X158387590Y-94959164D01*
X158194765Y-94997520D01*
X158115000Y-95050817D01*
X158067167Y-95018856D01*
X158179917Y-94841192D01*
X158251460Y-94604227D01*
X158254229Y-94339820D01*
X158187664Y-94101409D01*
X158059785Y-93890256D01*
X157902581Y-93742632D01*
X157912597Y-93738986D01*
X158107431Y-93619122D01*
X158274185Y-93462531D01*
X158406045Y-93275607D01*
X158497626Y-93065988D01*
X158545232Y-92842016D01*
X158545750Y-92693467D01*
X158721398Y-92708216D01*
X158963881Y-92661960D01*
X159184994Y-92552199D01*
X159368444Y-92387020D01*
X159500717Y-92178592D01*
X159572260Y-91941627D01*
X159575029Y-91677220D01*
X159508464Y-91438809D01*
X159380585Y-91227656D01*
X159200635Y-91058672D01*
X158981869Y-90944304D01*
X158740407Y-90892980D01*
X158494038Y-90908480D01*
X158260913Y-90989663D01*
X158058206Y-91130548D01*
X157900854Y-91320754D01*
X157800449Y-91546268D01*
X157784511Y-91654202D01*
X157705293Y-91624741D01*
X157479234Y-91589746D01*
X157250756Y-91600921D01*
X157029190Y-91657808D01*
X156823589Y-91758086D01*
X156642350Y-91897659D01*
X156492880Y-92070824D01*
X156381281Y-92270506D01*
X156312113Y-92488550D01*
X156288201Y-92716049D01*
X156310524Y-92943710D01*
X156378168Y-93162231D01*
X156488370Y-93362688D01*
X156636628Y-93536892D01*
X156816888Y-93677726D01*
X156867400Y-93702800D01*
X156737406Y-93793148D01*
X156580054Y-93983354D01*
X156479649Y-94208868D01*
X156443587Y-94453076D01*
X156474527Y-94697987D01*
X156570188Y-94925554D01*
X156601397Y-94964930D01*
X156572410Y-94959164D01*
X155847590Y-94959164D01*
X155654765Y-94997520D01*
X155575000Y-95050817D01*
X155495235Y-94997520D01*
X155302410Y-94959164D01*
X154577590Y-94959164D01*
X154384765Y-94997520D01*
X154305000Y-95050817D01*
X154225235Y-94997520D01*
X154032410Y-94959164D01*
X153307590Y-94959164D01*
X153114765Y-94997520D01*
X153035000Y-95050817D01*
X152955235Y-94997520D01*
X152762410Y-94959164D01*
X152648836Y-94959164D01*
X152648836Y-93194590D01*
X152610480Y-93001766D01*
X152589063Y-92969712D01*
X152591295Y-92714016D01*
X152518321Y-92476069D01*
X152378890Y-92270519D01*
X152185184Y-92115053D01*
X152105660Y-92083487D01*
X152106059Y-91969188D01*
X152060474Y-91761861D01*
X151971527Y-91569359D01*
X151901298Y-91476836D01*
X152127410Y-91476836D01*
X152320235Y-91438480D01*
X152494225Y-91322225D01*
X152610480Y-91148235D01*
X152648836Y-90955410D01*
X152648836Y-89130590D01*
X152610480Y-88937765D01*
X152494225Y-88763775D01*
X152418000Y-88712843D01*
X152418000Y-87804307D01*
X152728831Y-87493476D01*
X157764387Y-87493476D01*
X157795327Y-87738387D01*
X157890988Y-87965954D01*
X158044321Y-88159414D01*
X158244033Y-88304512D01*
X158475407Y-88390560D01*
X158721398Y-88411216D01*
X158963881Y-88364960D01*
X159184994Y-88255199D01*
X159368444Y-88090020D01*
X159500717Y-87881592D01*
X159572260Y-87644627D01*
X159575029Y-87380220D01*
X159508464Y-87141809D01*
X159380585Y-86930656D01*
X159200635Y-86761672D01*
X158981869Y-86647304D01*
X158740407Y-86595980D01*
X158494038Y-86611480D01*
X158260913Y-86692663D01*
X158058206Y-86833548D01*
X157900854Y-87023754D01*
X157800449Y-87249268D01*
X157764387Y-87493476D01*
X152728831Y-87493476D01*
X155177809Y-85044500D01*
X155628124Y-85044500D01*
X155832232Y-85165450D01*
X156073697Y-85223643D01*
X156321599Y-85208264D01*
X156554020Y-85120671D01*
X156750411Y-84968609D01*
X156893407Y-84765522D01*
X156970522Y-84528886D01*
X156972119Y-84346000D01*
X157025124Y-84346000D01*
X157229232Y-84466950D01*
X157470697Y-84525143D01*
X157718599Y-84509764D01*
X157951020Y-84422171D01*
X158147411Y-84270109D01*
X158290407Y-84067022D01*
X158367522Y-83830386D01*
X158369795Y-83570016D01*
X158296821Y-83332069D01*
X158157390Y-83126519D01*
X157963684Y-82971053D01*
X157732827Y-82879417D01*
X157485231Y-82859712D01*
X157242787Y-82913684D01*
X157026930Y-83036556D01*
X157023690Y-83040000D01*
X155828324Y-83040000D01*
X155829795Y-82871516D01*
X155756821Y-82633569D01*
X155617390Y-82428019D01*
X155423684Y-82272553D01*
X155192827Y-82180917D01*
X154945231Y-82161212D01*
X154702787Y-82215184D01*
X154486930Y-82338056D01*
X154483690Y-82341500D01*
X150290392Y-82341500D01*
X150254051Y-82223001D01*
X150114620Y-82017451D01*
X149920914Y-81861985D01*
X149690057Y-81770349D01*
X149442461Y-81750644D01*
X149200017Y-81804616D01*
X148984160Y-81927488D01*
X148813974Y-82108401D01*
X148783436Y-82170601D01*
X148759517Y-82161107D01*
X148511921Y-82141402D01*
X148269477Y-82195374D01*
X148053620Y-82318246D01*
X147883435Y-82499159D01*
X147773969Y-82722114D01*
X147750227Y-82871173D01*
X145002524Y-85618876D01*
X144969454Y-85640229D01*
X144925820Y-85695580D01*
X144914942Y-85706457D01*
X144892619Y-85737695D01*
X144831380Y-85815377D01*
X144828167Y-85827889D01*
X144820489Y-85838634D01*
X144758201Y-86046908D01*
X144762001Y-86143622D01*
X144762000Y-88065946D01*
X144668098Y-87891914D01*
X144597010Y-87826201D01*
X140305305Y-83534496D01*
X140283949Y-83501423D01*
X140228591Y-83457782D01*
X140217722Y-83446912D01*
X140186498Y-83424599D01*
X140108800Y-83363347D01*
X140096287Y-83360135D01*
X140085547Y-83352459D01*
X139877271Y-83290171D01*
X139780583Y-83293970D01*
X116655692Y-83293970D01*
X116617215Y-83285686D01*
X116547225Y-83293970D01*
X116531841Y-83293970D01*
X116493970Y-83300274D01*
X116395731Y-83311901D01*
X116384615Y-83318475D01*
X116371591Y-83320643D01*
X116180273Y-83423872D01*
X116114560Y-83494960D01*
X112867166Y-86742354D01*
X112665787Y-86787184D01*
X112449930Y-86910056D01*
X112279745Y-87090969D01*
X112170279Y-87313924D01*
X112131210Y-87559210D01*
X112165992Y-87805142D01*
X112271551Y-88029974D01*
X112438552Y-88213828D01*
X112652232Y-88340450D01*
X112893697Y-88398643D01*
X113141599Y-88383264D01*
X113374020Y-88295671D01*
X113570411Y-88143609D01*
X113713407Y-87940522D01*
X113790522Y-87703886D01*
X113790856Y-87665623D01*
X116856510Y-84599970D01*
X117549550Y-84599970D01*
X115407166Y-86742354D01*
X115205787Y-86787184D01*
X114989930Y-86910056D01*
X114819745Y-87090969D01*
X114710279Y-87313924D01*
X114671210Y-87559210D01*
X114705992Y-87805142D01*
X114811551Y-88029974D01*
X114978552Y-88213828D01*
X115192232Y-88340450D01*
X115433697Y-88398643D01*
X115681599Y-88383264D01*
X115914020Y-88295671D01*
X116110411Y-88143609D01*
X116253407Y-87940522D01*
X116330522Y-87703886D01*
X116330856Y-87665623D01*
X119015501Y-84980980D01*
X119708540Y-84980980D01*
X117947166Y-86742354D01*
X117745787Y-86787184D01*
X117529930Y-86910056D01*
X117359745Y-87090969D01*
X117250279Y-87313924D01*
X117211210Y-87559210D01*
X117245992Y-87805142D01*
X117351551Y-88029974D01*
X117518552Y-88213828D01*
X117732232Y-88340450D01*
X117973697Y-88398643D01*
X118221599Y-88383264D01*
X118454020Y-88295671D01*
X118650411Y-88143609D01*
X118793407Y-87940522D01*
X118870522Y-87703886D01*
X118870856Y-87665623D01*
X121174490Y-85361990D01*
X121867530Y-85361990D01*
X120487166Y-86742354D01*
X120285787Y-86787184D01*
X120069930Y-86910056D01*
X119899745Y-87090969D01*
X119790279Y-87313924D01*
X119751210Y-87559210D01*
X119785992Y-87805142D01*
X119891551Y-88029974D01*
X120058552Y-88213828D01*
X120272232Y-88340450D01*
X120513697Y-88398643D01*
X120761599Y-88383264D01*
X120994020Y-88295671D01*
X121190411Y-88143609D01*
X121333407Y-87940522D01*
X121410522Y-87703886D01*
X121410856Y-87665623D01*
X123333481Y-85743000D01*
X124090019Y-85743000D01*
X123090666Y-86742354D01*
X122889287Y-86787184D01*
X122673430Y-86910056D01*
X122503245Y-87090969D01*
X122393779Y-87313924D01*
X122354710Y-87559210D01*
X122389492Y-87805142D01*
X122495051Y-88029974D01*
X122662052Y-88213828D01*
X122875732Y-88340450D01*
X123117197Y-88398643D01*
X123365099Y-88383264D01*
X123597520Y-88295671D01*
X123793911Y-88143609D01*
X123936907Y-87940522D01*
X124014022Y-87703886D01*
X124014356Y-87665623D01*
X125530580Y-86149400D01*
X130006120Y-86149400D01*
X130478092Y-86621373D01*
X130346313Y-86667263D01*
X130143606Y-86808148D01*
X129986254Y-86998354D01*
X129885849Y-87223868D01*
X129849787Y-87468076D01*
X129880727Y-87712987D01*
X129976388Y-87940554D01*
X130129721Y-88134014D01*
X130329433Y-88279112D01*
X130560807Y-88365160D01*
X130792001Y-88384573D01*
X130792000Y-88688790D01*
X130730235Y-88647520D01*
X130537410Y-88609164D01*
X129812590Y-88609164D01*
X129619765Y-88647520D01*
X129540000Y-88700817D01*
X129460235Y-88647520D01*
X129267410Y-88609164D01*
X128542590Y-88609164D01*
X128383263Y-88640857D01*
X128205186Y-88538044D01*
X127859000Y-88477002D01*
X127859000Y-90267000D01*
X126643163Y-90267000D01*
X126643163Y-90959588D01*
X126723795Y-91260512D01*
X126871185Y-91436165D01*
X127064814Y-91547956D01*
X127273976Y-91584837D01*
X127425806Y-91584837D01*
X127380230Y-91660093D01*
X127346719Y-91758527D01*
X127201238Y-91767680D01*
X126968113Y-91848863D01*
X126765406Y-91989748D01*
X126608054Y-92179954D01*
X126507649Y-92405468D01*
X126471587Y-92649676D01*
X126502527Y-92894587D01*
X126598188Y-93122154D01*
X126751164Y-93315164D01*
X126751164Y-95019410D01*
X126789520Y-95212235D01*
X126850010Y-95302764D01*
X126796141Y-95389645D01*
X126728001Y-95710216D01*
X126728000Y-99420873D01*
X126723545Y-99527158D01*
X126742149Y-99606477D01*
X126753206Y-99687200D01*
X126770403Y-99726940D01*
X126781371Y-99773699D01*
X126809146Y-99816467D01*
X126851897Y-99915262D01*
X127008284Y-100108385D01*
X127047716Y-100136407D01*
X127985308Y-101074000D01*
X102126000Y-101074000D01*
X102126000Y-99122749D01*
X102352752Y-99122749D01*
X102371184Y-99386335D01*
X102431521Y-99643583D01*
X102532211Y-99887876D01*
X102670663Y-100112927D01*
X102843317Y-100312947D01*
X103045728Y-100482791D01*
X103272690Y-100618088D01*
X103518365Y-100715358D01*
X103776431Y-100772097D01*
X104040248Y-100786846D01*
X104303030Y-100759227D01*
X104558016Y-100689949D01*
X104798646Y-100580794D01*
X105018727Y-100434572D01*
X105212601Y-100255044D01*
X105375277Y-100046828D01*
X105502570Y-99815282D01*
X105591207Y-99566363D01*
X105639025Y-99305821D01*
X105642138Y-99008541D01*
X105599786Y-98747055D01*
X105516382Y-98496334D01*
X105393966Y-98262173D01*
X105235686Y-98050595D01*
X105045615Y-97867047D01*
X104847966Y-97729676D01*
X109529787Y-97729676D01*
X109560727Y-97974587D01*
X109656388Y-98202154D01*
X109809721Y-98395614D01*
X110009433Y-98540712D01*
X110240807Y-98626760D01*
X110486798Y-98647416D01*
X110729281Y-98601160D01*
X110950394Y-98491399D01*
X111133844Y-98326220D01*
X111266117Y-98117792D01*
X111337660Y-97880827D01*
X111339242Y-97729676D01*
X112069787Y-97729676D01*
X112100727Y-97974587D01*
X112196388Y-98202154D01*
X112349721Y-98395614D01*
X112549433Y-98540712D01*
X112780807Y-98626760D01*
X113026798Y-98647416D01*
X113269281Y-98601160D01*
X113490394Y-98491399D01*
X113673844Y-98326220D01*
X113806117Y-98117792D01*
X113877660Y-97880827D01*
X113879242Y-97729676D01*
X114609787Y-97729676D01*
X114640727Y-97974587D01*
X114736388Y-98202154D01*
X114889721Y-98395614D01*
X115089433Y-98540712D01*
X115320807Y-98626760D01*
X115566798Y-98647416D01*
X115809281Y-98601160D01*
X116030394Y-98491399D01*
X116213844Y-98326220D01*
X116346117Y-98117792D01*
X116417660Y-97880827D01*
X116419242Y-97729676D01*
X119689787Y-97729676D01*
X119720727Y-97974587D01*
X119816388Y-98202154D01*
X119969721Y-98395614D01*
X120169433Y-98540712D01*
X120400807Y-98626760D01*
X120646798Y-98647416D01*
X120889281Y-98601160D01*
X121110394Y-98491399D01*
X121293844Y-98326220D01*
X121426117Y-98117792D01*
X121497660Y-97880827D01*
X121500429Y-97616420D01*
X121433864Y-97378009D01*
X121305985Y-97166856D01*
X121126035Y-96997872D01*
X120907269Y-96883504D01*
X120665807Y-96832180D01*
X120419438Y-96847680D01*
X120186313Y-96928863D01*
X119983606Y-97069748D01*
X119826254Y-97259954D01*
X119725849Y-97485468D01*
X119689787Y-97729676D01*
X116419242Y-97729676D01*
X116420429Y-97616420D01*
X116353864Y-97378009D01*
X116225985Y-97166856D01*
X116046035Y-96997872D01*
X115827269Y-96883504D01*
X115585807Y-96832180D01*
X115339438Y-96847680D01*
X115106313Y-96928863D01*
X114903606Y-97069748D01*
X114746254Y-97259954D01*
X114645849Y-97485468D01*
X114609787Y-97729676D01*
X113879242Y-97729676D01*
X113880429Y-97616420D01*
X113813864Y-97378009D01*
X113685985Y-97166856D01*
X113506035Y-96997872D01*
X113287269Y-96883504D01*
X113045807Y-96832180D01*
X112799438Y-96847680D01*
X112566313Y-96928863D01*
X112363606Y-97069748D01*
X112206254Y-97259954D01*
X112105849Y-97485468D01*
X112069787Y-97729676D01*
X111339242Y-97729676D01*
X111340429Y-97616420D01*
X111273864Y-97378009D01*
X111145985Y-97166856D01*
X110966035Y-96997872D01*
X110747269Y-96883504D01*
X110505807Y-96832180D01*
X110259438Y-96847680D01*
X110026313Y-96928863D01*
X109823606Y-97069748D01*
X109666254Y-97259954D01*
X109565849Y-97485468D01*
X109529787Y-97729676D01*
X104847966Y-97729676D01*
X104828644Y-97716247D01*
X104590353Y-97602078D01*
X104336874Y-97527474D01*
X104074728Y-97494358D01*
X103810660Y-97503580D01*
X103551463Y-97554902D01*
X103303805Y-97647004D01*
X103074059Y-97777519D01*
X102868134Y-97943086D01*
X102691330Y-98139446D01*
X102548195Y-98361549D01*
X102442411Y-98603679D01*
X102376700Y-98859607D01*
X102352752Y-99122749D01*
X102126000Y-99122749D01*
X102126000Y-92716049D01*
X110568201Y-92716049D01*
X110590524Y-92943710D01*
X110658168Y-93162231D01*
X110768370Y-93362688D01*
X110916628Y-93536892D01*
X111096888Y-93677726D01*
X111301784Y-93779437D01*
X111522947Y-93837871D01*
X111751342Y-93850640D01*
X111977640Y-93817224D01*
X112192597Y-93738986D01*
X112387431Y-93619122D01*
X112554185Y-93462531D01*
X112686045Y-93275607D01*
X112777626Y-93065988D01*
X112825232Y-92842016D01*
X112826056Y-92605842D01*
X112780014Y-92381544D01*
X112689899Y-92171290D01*
X112559348Y-91983451D01*
X112393692Y-91825698D01*
X112199699Y-91704478D01*
X111985293Y-91624741D01*
X111759234Y-91589746D01*
X111530756Y-91600921D01*
X111309190Y-91657808D01*
X111103589Y-91758086D01*
X110922350Y-91897659D01*
X110772880Y-92070824D01*
X110661281Y-92270506D01*
X110592113Y-92488550D01*
X110568201Y-92716049D01*
X102126000Y-92716049D01*
X102126000Y-89131976D01*
X126643163Y-89131976D01*
X126643163Y-89819000D01*
X127411000Y-89819000D01*
X127411000Y-88462957D01*
X126967489Y-88581795D01*
X126791835Y-88729185D01*
X126680044Y-88922814D01*
X126643163Y-89131976D01*
X102126000Y-89131976D01*
X102126000Y-85126000D01*
X113558601Y-85126000D01*
X113600000Y-85132557D01*
X113651191Y-85124449D01*
X113764569Y-85106492D01*
X113913029Y-85030848D01*
X114030848Y-84913029D01*
X114106492Y-84764569D01*
X114132557Y-84600000D01*
X114126000Y-84558601D01*
X114126000Y-79720376D01*
X117510249Y-79720376D01*
X117779513Y-79888959D01*
X118038939Y-80002030D01*
X118312227Y-80075512D01*
X118593375Y-80107795D01*
X118876206Y-80098164D01*
X119154508Y-80046836D01*
X119422167Y-79954935D01*
X119673301Y-79824480D01*
X119824326Y-79714951D01*
X118670000Y-78560624D01*
X117510249Y-79720376D01*
X114126000Y-79720376D01*
X114126000Y-78289942D01*
X116762787Y-78289942D01*
X116797031Y-78570858D01*
X116872420Y-78843627D01*
X116987299Y-79102257D01*
X117150481Y-79358894D01*
X118309376Y-78200000D01*
X119030624Y-78200000D01*
X120200927Y-79370302D01*
X120410172Y-78985718D01*
X120503324Y-78730476D01*
X130218087Y-78730476D01*
X130249027Y-78975387D01*
X130344688Y-79202954D01*
X130498021Y-79396414D01*
X130697733Y-79541512D01*
X130929107Y-79627560D01*
X131175098Y-79648216D01*
X131417581Y-79601960D01*
X131638694Y-79492199D01*
X131822144Y-79327020D01*
X131954417Y-79118592D01*
X132025960Y-78881627D01*
X132028729Y-78617220D01*
X131989433Y-78476476D01*
X146486787Y-78476476D01*
X146517727Y-78721387D01*
X146613388Y-78948954D01*
X146766721Y-79142414D01*
X146966433Y-79287512D01*
X147197807Y-79373560D01*
X147443798Y-79394216D01*
X147686281Y-79347960D01*
X147907394Y-79238199D01*
X148090844Y-79073020D01*
X148223117Y-78864592D01*
X148283695Y-78663944D01*
X148476447Y-78714871D01*
X148704842Y-78727640D01*
X148931140Y-78694224D01*
X149146097Y-78615986D01*
X149340931Y-78496122D01*
X149507685Y-78339531D01*
X149639545Y-78152607D01*
X149731126Y-77942988D01*
X149778732Y-77719016D01*
X149779171Y-77593049D01*
X155141701Y-77593049D01*
X155164024Y-77820710D01*
X155231668Y-78039231D01*
X155341870Y-78239688D01*
X155490128Y-78413892D01*
X155670388Y-78554726D01*
X155875284Y-78656437D01*
X156096447Y-78714871D01*
X156324842Y-78727640D01*
X156551140Y-78694224D01*
X156766097Y-78615986D01*
X156960931Y-78496122D01*
X157127685Y-78339531D01*
X157259545Y-78152607D01*
X157351126Y-77942988D01*
X157398732Y-77719016D01*
X157399556Y-77482842D01*
X157353514Y-77258544D01*
X157263399Y-77048290D01*
X157132848Y-76860451D01*
X156967192Y-76702698D01*
X156773199Y-76581478D01*
X156558793Y-76501741D01*
X156332734Y-76466746D01*
X156104256Y-76477921D01*
X155882690Y-76534808D01*
X155677089Y-76635086D01*
X155495850Y-76774659D01*
X155346380Y-76947824D01*
X155234781Y-77147506D01*
X155165613Y-77365550D01*
X155141701Y-77593049D01*
X149779171Y-77593049D01*
X149779556Y-77482842D01*
X149733514Y-77258544D01*
X149643399Y-77048290D01*
X149512848Y-76860451D01*
X149347192Y-76702698D01*
X149153199Y-76581478D01*
X148938793Y-76501741D01*
X148712734Y-76466746D01*
X148484256Y-76477921D01*
X148262690Y-76534808D01*
X148057089Y-76635086D01*
X147875850Y-76774659D01*
X147726380Y-76947824D01*
X147614781Y-77147506D01*
X147545613Y-77365550D01*
X147521860Y-77591532D01*
X147462807Y-77578980D01*
X147216438Y-77594480D01*
X146983313Y-77675663D01*
X146780606Y-77816548D01*
X146623254Y-78006754D01*
X146522849Y-78232268D01*
X146486787Y-78476476D01*
X131989433Y-78476476D01*
X131962164Y-78378809D01*
X131834285Y-78167656D01*
X131654335Y-77998672D01*
X131435569Y-77884304D01*
X131194107Y-77832980D01*
X130947738Y-77848480D01*
X130714613Y-77929663D01*
X130511906Y-78070548D01*
X130354554Y-78260754D01*
X130254149Y-78486268D01*
X130218087Y-78730476D01*
X120503324Y-78730476D01*
X120507194Y-78719874D01*
X120564189Y-78440982D01*
X120574449Y-78061806D01*
X120532619Y-77780241D01*
X120450116Y-77509539D01*
X120328506Y-77254005D01*
X120186922Y-77043704D01*
X119030624Y-78200000D01*
X118309376Y-78200000D01*
X117154788Y-77045414D01*
X117038554Y-77208065D01*
X116909857Y-77460104D01*
X116819826Y-77728396D01*
X116770442Y-78007050D01*
X116762787Y-78289942D01*
X114126000Y-78289942D01*
X114126000Y-71146563D01*
X116869515Y-71146563D01*
X116882149Y-71419521D01*
X116935924Y-71687426D01*
X117029605Y-71944115D01*
X117161035Y-72183682D01*
X117327191Y-72400611D01*
X117524247Y-72589911D01*
X117747668Y-72747226D01*
X117992316Y-72868936D01*
X118252557Y-72952240D01*
X118254053Y-72952478D01*
X118092487Y-72993811D01*
X117841052Y-73100798D01*
X117608694Y-73244585D01*
X117400758Y-73421866D01*
X117222030Y-73628559D01*
X117076624Y-73859907D01*
X116967884Y-74110589D01*
X116898314Y-74374835D01*
X116869515Y-74646563D01*
X116882149Y-74919521D01*
X116935924Y-75187426D01*
X117029605Y-75444115D01*
X117161035Y-75683682D01*
X117327191Y-75900611D01*
X117524247Y-76089911D01*
X117747668Y-76247226D01*
X117992316Y-76368936D01*
X118066793Y-76392776D01*
X117872153Y-76465356D01*
X117501187Y-76670562D01*
X118670000Y-77839376D01*
X119833596Y-76675779D01*
X119515970Y-76488309D01*
X119278380Y-76392076D01*
X119327244Y-76377090D01*
X119573360Y-76258378D01*
X119798687Y-76103804D01*
X119998041Y-75916925D01*
X120166834Y-75702043D01*
X120292204Y-75480000D01*
X123440624Y-75480000D01*
X123470233Y-75501512D01*
X123701607Y-75587560D01*
X123947598Y-75608216D01*
X124190081Y-75561960D01*
X124411194Y-75452199D01*
X124594644Y-75287020D01*
X124726917Y-75078592D01*
X124798460Y-74841627D01*
X124801229Y-74577220D01*
X124734664Y-74338809D01*
X124606785Y-74127656D01*
X124426835Y-73958672D01*
X124208069Y-73844304D01*
X123966607Y-73792980D01*
X123720238Y-73808480D01*
X123487113Y-73889663D01*
X123443463Y-73920000D01*
X120287909Y-73920000D01*
X120223627Y-73788493D01*
X120067875Y-73563977D01*
X119879955Y-73365605D01*
X119664192Y-73197940D01*
X119425550Y-73064841D01*
X119169521Y-72969370D01*
X119084209Y-72951625D01*
X119327244Y-72877090D01*
X119573360Y-72758378D01*
X119798687Y-72603804D01*
X119866242Y-72540476D01*
X127390587Y-72540476D01*
X127421527Y-72785387D01*
X127517188Y-73012954D01*
X127670521Y-73206414D01*
X127870233Y-73351512D01*
X128101607Y-73437560D01*
X128347598Y-73458216D01*
X128590081Y-73411960D01*
X128811194Y-73302199D01*
X128994644Y-73137020D01*
X129126917Y-72928592D01*
X129198460Y-72691627D01*
X129201229Y-72427220D01*
X129134664Y-72188809D01*
X129006785Y-71977656D01*
X128953000Y-71927149D01*
X128953000Y-71670479D01*
X129386003Y-71237476D01*
X131932587Y-71237476D01*
X131963527Y-71482387D01*
X132059188Y-71709954D01*
X132212521Y-71903414D01*
X132412233Y-72048512D01*
X132643607Y-72134560D01*
X132820974Y-72149454D01*
X134284500Y-73612982D01*
X134284500Y-73861263D01*
X134164554Y-74006254D01*
X134064149Y-74231768D01*
X134028087Y-74475976D01*
X134059027Y-74720887D01*
X134154688Y-74948454D01*
X134308021Y-75141914D01*
X134507733Y-75287012D01*
X134739107Y-75373060D01*
X134985098Y-75393716D01*
X135227581Y-75347460D01*
X135448694Y-75237699D01*
X135632144Y-75072520D01*
X135764417Y-74864092D01*
X135835960Y-74627127D01*
X135838729Y-74362720D01*
X135772164Y-74124309D01*
X135644285Y-73913156D01*
X135590500Y-73862649D01*
X135590500Y-73412165D01*
X135598785Y-73373686D01*
X135590500Y-73303688D01*
X135590500Y-73288312D01*
X135584199Y-73250454D01*
X135572570Y-73152202D01*
X135565995Y-73141085D01*
X135563827Y-73128060D01*
X135460598Y-72936743D01*
X135389523Y-72871042D01*
X133742187Y-71223706D01*
X133743229Y-71124220D01*
X133676664Y-70885809D01*
X133548785Y-70674656D01*
X133541921Y-70668210D01*
X138801210Y-70668210D01*
X138835992Y-70914142D01*
X138920978Y-71095155D01*
X138891515Y-71155164D01*
X138852446Y-71400449D01*
X138887228Y-71646381D01*
X138992787Y-71871213D01*
X139159788Y-72055067D01*
X139373468Y-72181689D01*
X139614933Y-72239882D01*
X139862835Y-72224503D01*
X140095256Y-72136910D01*
X140193633Y-72060739D01*
X140925885Y-72060739D01*
X141129993Y-72181689D01*
X141371458Y-72239882D01*
X141619360Y-72224503D01*
X141851781Y-72136910D01*
X141950158Y-72060739D01*
X150882097Y-72060739D01*
X150920576Y-72069024D01*
X150990574Y-72060739D01*
X151005950Y-72060739D01*
X151034042Y-72056063D01*
X151057196Y-72061643D01*
X151305099Y-72046264D01*
X151537520Y-71958671D01*
X151733911Y-71806609D01*
X151876907Y-71603522D01*
X151954023Y-71366886D01*
X151954310Y-71333944D01*
X152149232Y-71449450D01*
X152390697Y-71507643D01*
X152638599Y-71492264D01*
X152871020Y-71404671D01*
X153067411Y-71252609D01*
X153210407Y-71049522D01*
X153287522Y-70812886D01*
X153289795Y-70552516D01*
X153216821Y-70314569D01*
X153077390Y-70109019D01*
X152883684Y-69953553D01*
X152652827Y-69861917D01*
X152405231Y-69842212D01*
X152162787Y-69896184D01*
X151946930Y-70019056D01*
X151943690Y-70022500D01*
X142555590Y-70022500D01*
X142469684Y-69953553D01*
X142238827Y-69861917D01*
X141991231Y-69842212D01*
X141748787Y-69896184D01*
X141532930Y-70019056D01*
X141529690Y-70022500D01*
X140142590Y-70022500D01*
X140056684Y-69953553D01*
X139825827Y-69861917D01*
X139578231Y-69842212D01*
X139335787Y-69896184D01*
X139119930Y-70019056D01*
X138949745Y-70199969D01*
X138840279Y-70422924D01*
X138801210Y-70668210D01*
X133541921Y-70668210D01*
X133368835Y-70505672D01*
X133150069Y-70391304D01*
X132908607Y-70339980D01*
X132662238Y-70355480D01*
X132429113Y-70436663D01*
X132226406Y-70577548D01*
X132069054Y-70767754D01*
X131968649Y-70993268D01*
X131932587Y-71237476D01*
X129386003Y-71237476D01*
X132078403Y-68545076D01*
X154208387Y-68545076D01*
X154239327Y-68789987D01*
X154334988Y-69017554D01*
X154488321Y-69211014D01*
X154688033Y-69356112D01*
X154919407Y-69442160D01*
X155165398Y-69462816D01*
X155407881Y-69416560D01*
X155628994Y-69306799D01*
X155812444Y-69141620D01*
X155944717Y-68933192D01*
X156016260Y-68696227D01*
X156018374Y-68494276D01*
X156773787Y-68494276D01*
X156804727Y-68739187D01*
X156900388Y-68966754D01*
X157053721Y-69160214D01*
X157253433Y-69305312D01*
X157484807Y-69391360D01*
X157730798Y-69412016D01*
X157973281Y-69365760D01*
X158194394Y-69255999D01*
X158377844Y-69090820D01*
X158510117Y-68882392D01*
X158581660Y-68645427D01*
X158584429Y-68381020D01*
X158517864Y-68142609D01*
X158389985Y-67931456D01*
X158210035Y-67762472D01*
X157991269Y-67648104D01*
X157749807Y-67596780D01*
X157503438Y-67612280D01*
X157270313Y-67693463D01*
X157067606Y-67834348D01*
X156910254Y-68024554D01*
X156809849Y-68250068D01*
X156773787Y-68494276D01*
X156018374Y-68494276D01*
X156019029Y-68431820D01*
X155952464Y-68193409D01*
X155824585Y-67982256D01*
X155644635Y-67813272D01*
X155425869Y-67698904D01*
X155184407Y-67647580D01*
X154938038Y-67663080D01*
X154704913Y-67744263D01*
X154502206Y-67885148D01*
X154344854Y-68075354D01*
X154244449Y-68300868D01*
X154208387Y-68545076D01*
X132078403Y-68545076D01*
X133812269Y-66811211D01*
X133842098Y-66813716D01*
X134084581Y-66767460D01*
X134305694Y-66657699D01*
X134489144Y-66492520D01*
X134621417Y-66284092D01*
X134692960Y-66047127D01*
X134695729Y-65782720D01*
X134629164Y-65544309D01*
X134501285Y-65333156D01*
X134321335Y-65164172D01*
X134102569Y-65049804D01*
X133861107Y-64998480D01*
X133614738Y-65013980D01*
X133381613Y-65095163D01*
X133178906Y-65236048D01*
X133021554Y-65426254D01*
X132921149Y-65651768D01*
X132885874Y-65890645D01*
X127887524Y-70888996D01*
X127854454Y-70910349D01*
X127810820Y-70965700D01*
X127799942Y-70976577D01*
X127777619Y-71007815D01*
X127716380Y-71085497D01*
X127713167Y-71098009D01*
X127705489Y-71108754D01*
X127643201Y-71317028D01*
X127647001Y-71413741D01*
X127647001Y-71925763D01*
X127527054Y-72070754D01*
X127426649Y-72296268D01*
X127390587Y-72540476D01*
X119866242Y-72540476D01*
X119998041Y-72416925D01*
X120166834Y-72202043D01*
X120301181Y-71964101D01*
X120397991Y-71708576D01*
X120455418Y-71439559D01*
X120466482Y-71066748D01*
X120425111Y-70794800D01*
X120343626Y-70533983D01*
X120223627Y-70288493D01*
X120067875Y-70063977D01*
X119879955Y-69865605D01*
X119664192Y-69697940D01*
X119425550Y-69564841D01*
X119169521Y-69469370D01*
X118901997Y-69413724D01*
X118629134Y-69399186D01*
X118357211Y-69426088D01*
X118092487Y-69493811D01*
X117841052Y-69600798D01*
X117608694Y-69744585D01*
X117400758Y-69921866D01*
X117222030Y-70128559D01*
X117076624Y-70359907D01*
X116967884Y-70610589D01*
X116898314Y-70874835D01*
X116869515Y-71146563D01*
X114126000Y-71146563D01*
X114126000Y-66641399D01*
X114132557Y-66600000D01*
X114106492Y-66435431D01*
X114030848Y-66286971D01*
X113913029Y-66169152D01*
X113764569Y-66093508D01*
X113651191Y-66075551D01*
X113600000Y-66067443D01*
X113558601Y-66074000D01*
X102126000Y-66074000D01*
X102126000Y-59430866D01*
X105444001Y-59430866D01*
X105444001Y-59689134D01*
X105488848Y-59943476D01*
X105577181Y-60186167D01*
X105706314Y-60409833D01*
X105872324Y-60607676D01*
X106070167Y-60773686D01*
X106293833Y-60902819D01*
X106536524Y-60991152D01*
X106790866Y-61035999D01*
X107049134Y-61035999D01*
X107303476Y-60991152D01*
X107546167Y-60902819D01*
X107769833Y-60773686D01*
X107967676Y-60607676D01*
X108133686Y-60409833D01*
X108262819Y-60186167D01*
X108351152Y-59943476D01*
X108395999Y-59689134D01*
X108395999Y-59430866D01*
X112444001Y-59430866D01*
X112444001Y-59689134D01*
X112488848Y-59943476D01*
X112577181Y-60186167D01*
X112706314Y-60409833D01*
X112872324Y-60607676D01*
X113070167Y-60773686D01*
X113293833Y-60902819D01*
X113536524Y-60991152D01*
X113790866Y-61035999D01*
X114049134Y-61035999D01*
X114303476Y-60991152D01*
X114546167Y-60902819D01*
X114769833Y-60773686D01*
X114967676Y-60607676D01*
X115133686Y-60409833D01*
X115262819Y-60186167D01*
X115351152Y-59943476D01*
X115395999Y-59689134D01*
X115395999Y-59430866D01*
X115351152Y-59176524D01*
X115262819Y-58933833D01*
X115133686Y-58710167D01*
X114967676Y-58512324D01*
X114769833Y-58346314D01*
X114546167Y-58217181D01*
X114303476Y-58128848D01*
X114049134Y-58084001D01*
X113790866Y-58084001D01*
X113536524Y-58128848D01*
X113293833Y-58217181D01*
X113070167Y-58346314D01*
X112872324Y-58512324D01*
X112706314Y-58710167D01*
X112577181Y-58933833D01*
X112488848Y-59176524D01*
X112444001Y-59430866D01*
X108395999Y-59430866D01*
X108351152Y-59176524D01*
X108262819Y-58933833D01*
X108133686Y-58710167D01*
X107967676Y-58512324D01*
X107769833Y-58346314D01*
X107546167Y-58217181D01*
X107303476Y-58128848D01*
X107049134Y-58084001D01*
X106790866Y-58084001D01*
X106536524Y-58128848D01*
X106293833Y-58217181D01*
X106070167Y-58346314D01*
X105872324Y-58512324D01*
X105706314Y-58710167D01*
X105577181Y-58933833D01*
X105488848Y-59176524D01*
X105444001Y-59430866D01*
X102126000Y-59430866D01*
X102126000Y-54459000D01*
X112847957Y-54459000D01*
X112966795Y-54902512D01*
X113114185Y-55078165D01*
X113307814Y-55189956D01*
X113516976Y-55226837D01*
X114204000Y-55226837D01*
X114204000Y-54459000D01*
X112847957Y-54459000D01*
X102126000Y-54459000D01*
X102126000Y-48130866D01*
X105364001Y-48130866D01*
X105364001Y-48389134D01*
X105408848Y-48643476D01*
X105497181Y-48886167D01*
X105626314Y-49109833D01*
X105792324Y-49307676D01*
X105990167Y-49473686D01*
X106213833Y-49602819D01*
X106456524Y-49691152D01*
X106710866Y-49735999D01*
X106969134Y-49735999D01*
X107223476Y-49691152D01*
X107466167Y-49602819D01*
X107689833Y-49473686D01*
X107887676Y-49307676D01*
X108053686Y-49109833D01*
X108182819Y-48886167D01*
X108271152Y-48643476D01*
X108315999Y-48389134D01*
X108315999Y-48130866D01*
X108271152Y-47876524D01*
X108182819Y-47633833D01*
X108053686Y-47410167D01*
X107887676Y-47212324D01*
X107689833Y-47046314D01*
X107466167Y-46917181D01*
X107223476Y-46828848D01*
X106969134Y-46784001D01*
X106710866Y-46784001D01*
X106456524Y-46828848D01*
X106213833Y-46917181D01*
X105990167Y-47046314D01*
X105792324Y-47212324D01*
X105626314Y-47410167D01*
X105497181Y-47633833D01*
X105408848Y-47876524D01*
X105364001Y-48130866D01*
X102126000Y-48130866D01*
X102126000Y-42426000D01*
X103521621Y-42426000D01*
X103303805Y-42507004D01*
G36*
X133429765Y-95502480D02*
G01*
X133622590Y-95540836D01*
X133628163Y-95540836D01*
X133628163Y-96169000D01*
X134844000Y-96169000D01*
X134844000Y-96617000D01*
X133628163Y-96617000D01*
X133628163Y-97309588D01*
X133708795Y-97610512D01*
X133856185Y-97786165D01*
X134049814Y-97897956D01*
X134258976Y-97934837D01*
X134410806Y-97934837D01*
X134365229Y-98010093D01*
X134296890Y-98210837D01*
X134273252Y-98421573D01*
X134278973Y-98476001D01*
X133470248Y-98476001D01*
X133251081Y-98425201D01*
X129817786Y-98425201D01*
X129621500Y-98228915D01*
X129621500Y-96740434D01*
X129645098Y-96742416D01*
X129887581Y-96696160D01*
X130108694Y-96586399D01*
X130292144Y-96421220D01*
X130424417Y-96212792D01*
X130495960Y-95975827D01*
X130498729Y-95711420D01*
X130451101Y-95540836D01*
X130537410Y-95540836D01*
X130730235Y-95502480D01*
X130810000Y-95449183D01*
X130889765Y-95502480D01*
X131082590Y-95540836D01*
X131807410Y-95540836D01*
X132000235Y-95502480D01*
X132080000Y-95449183D01*
X132159765Y-95502480D01*
X132352590Y-95540836D01*
X133077410Y-95540836D01*
X133270235Y-95502480D01*
X133350000Y-95449183D01*
X133429765Y-95502480D01*
G37*
X133429765Y-95502480D02*
X133622590Y-95540836D01*
X133628163Y-95540836D01*
X133628163Y-96169000D01*
X134844000Y-96169000D01*
X134844000Y-96617000D01*
X133628163Y-96617000D01*
X133628163Y-97309588D01*
X133708795Y-97610512D01*
X133856185Y-97786165D01*
X134049814Y-97897956D01*
X134258976Y-97934837D01*
X134410806Y-97934837D01*
X134365229Y-98010093D01*
X134296890Y-98210837D01*
X134273252Y-98421573D01*
X134278973Y-98476001D01*
X133470248Y-98476001D01*
X133251081Y-98425201D01*
X129817786Y-98425201D01*
X129621500Y-98228915D01*
X129621500Y-96740434D01*
X129645098Y-96742416D01*
X129887581Y-96696160D01*
X130108694Y-96586399D01*
X130292144Y-96421220D01*
X130424417Y-96212792D01*
X130495960Y-95975827D01*
X130498729Y-95711420D01*
X130451101Y-95540836D01*
X130537410Y-95540836D01*
X130730235Y-95502480D01*
X130810000Y-95449183D01*
X130889765Y-95502480D01*
X131082590Y-95540836D01*
X131807410Y-95540836D01*
X132000235Y-95502480D01*
X132080000Y-95449183D01*
X132159765Y-95502480D01*
X132352590Y-95540836D01*
X133077410Y-95540836D01*
X133270235Y-95502480D01*
X133350000Y-95449183D01*
X133429765Y-95502480D01*
G36*
X135997052Y-92531828D02*
G01*
X136210732Y-92658450D01*
X136271786Y-92673164D01*
X136162590Y-92673164D01*
X135969765Y-92711520D01*
X135890000Y-92764817D01*
X135810235Y-92711520D01*
X135617410Y-92673164D01*
X135548442Y-92673164D01*
X135662520Y-92630171D01*
X135858911Y-92478109D01*
X135897926Y-92422699D01*
X135997052Y-92531828D01*
G37*
X135997052Y-92531828D02*
X136210732Y-92658450D01*
X136271786Y-92673164D01*
X136162590Y-92673164D01*
X135969765Y-92711520D01*
X135890000Y-92764817D01*
X135810235Y-92711520D01*
X135617410Y-92673164D01*
X135548442Y-92673164D01*
X135662520Y-92630171D01*
X135858911Y-92478109D01*
X135897926Y-92422699D01*
X135997052Y-92531828D01*
G36*
X148812524Y-87690496D02*
G01*
X148779454Y-87711849D01*
X148735820Y-87767200D01*
X148724942Y-87778077D01*
X148702619Y-87809315D01*
X148641380Y-87886997D01*
X148638167Y-87899509D01*
X148630489Y-87910254D01*
X148608000Y-87985451D01*
X148608000Y-85182679D01*
X150143180Y-83647500D01*
X152855520Y-83647500D01*
X148812524Y-87690496D01*
G37*
X148812524Y-87690496D02*
X148779454Y-87711849D01*
X148735820Y-87767200D01*
X148724942Y-87778077D01*
X148702619Y-87809315D01*
X148641380Y-87886997D01*
X148638167Y-87899509D01*
X148630489Y-87910254D01*
X148608000Y-87985451D01*
X148608000Y-85182679D01*
X150143180Y-83647500D01*
X152855520Y-83647500D01*
X148812524Y-87690496D01*
G36*
X128074000Y-47874912D02*
G01*
X127859000Y-47837002D01*
X127859000Y-49627000D01*
X126643163Y-49627000D01*
X126643163Y-50319588D01*
X126723795Y-50620512D01*
X126871185Y-50796165D01*
X127064814Y-50907956D01*
X127273976Y-50944837D01*
X127425806Y-50944837D01*
X127380229Y-51020093D01*
X127311890Y-51220837D01*
X127291311Y-51404300D01*
X125926898Y-51404300D01*
X125926885Y-51404302D01*
X125868505Y-51404302D01*
X125813248Y-51422256D01*
X125755857Y-51431346D01*
X125704086Y-51457724D01*
X125648822Y-51475681D01*
X125601812Y-51509836D01*
X125550045Y-51536212D01*
X125509324Y-51576934D01*
X125509314Y-51576941D01*
X124236700Y-52849557D01*
X124236700Y-48491976D01*
X126643163Y-48491976D01*
X126643163Y-49179000D01*
X127411000Y-49179000D01*
X127411000Y-47822957D01*
X126967489Y-47941795D01*
X126791835Y-48089185D01*
X126680044Y-48282814D01*
X126643163Y-48491976D01*
X124236700Y-48491976D01*
X124236700Y-44625044D01*
X124918310Y-43943435D01*
X125067581Y-43914960D01*
X125288694Y-43805199D01*
X125472144Y-43640020D01*
X125604417Y-43431592D01*
X125675960Y-43194627D01*
X125678729Y-42930220D01*
X125612164Y-42691809D01*
X125484285Y-42480656D01*
X125426082Y-42426000D01*
X128074001Y-42426000D01*
X128074000Y-47874912D01*
G37*
X128074000Y-47874912D02*
X127859000Y-47837002D01*
X127859000Y-49627000D01*
X126643163Y-49627000D01*
X126643163Y-50319588D01*
X126723795Y-50620512D01*
X126871185Y-50796165D01*
X127064814Y-50907956D01*
X127273976Y-50944837D01*
X127425806Y-50944837D01*
X127380229Y-51020093D01*
X127311890Y-51220837D01*
X127291311Y-51404300D01*
X125926898Y-51404300D01*
X125926885Y-51404302D01*
X125868505Y-51404302D01*
X125813248Y-51422256D01*
X125755857Y-51431346D01*
X125704086Y-51457724D01*
X125648822Y-51475681D01*
X125601812Y-51509836D01*
X125550045Y-51536212D01*
X125509324Y-51576934D01*
X125509314Y-51576941D01*
X124236700Y-52849557D01*
X124236700Y-48491976D01*
X126643163Y-48491976D01*
X126643163Y-49179000D01*
X127411000Y-49179000D01*
X127411000Y-47822957D01*
X126967489Y-47941795D01*
X126791835Y-48089185D01*
X126680044Y-48282814D01*
X126643163Y-48491976D01*
X124236700Y-48491976D01*
X124236700Y-44625044D01*
X124918310Y-43943435D01*
X125067581Y-43914960D01*
X125288694Y-43805199D01*
X125472144Y-43640020D01*
X125604417Y-43431592D01*
X125675960Y-43194627D01*
X125678729Y-42930220D01*
X125612164Y-42691809D01*
X125484285Y-42480656D01*
X125426082Y-42426000D01*
X128074001Y-42426000D01*
X128074000Y-47874912D01*
G36*
X143589765Y-50798480D02*
G01*
X143782590Y-50836836D01*
X144507410Y-50836836D01*
X144585263Y-50821350D01*
X144579710Y-50856210D01*
X144614492Y-51102142D01*
X144720051Y-51326974D01*
X144887052Y-51510828D01*
X145100732Y-51637450D01*
X145342197Y-51695643D01*
X145590099Y-51680264D01*
X145822520Y-51592671D01*
X146018911Y-51440609D01*
X146051381Y-51394494D01*
X146157052Y-51510828D01*
X146370732Y-51637450D01*
X146612197Y-51695643D01*
X146860099Y-51680264D01*
X147092520Y-51592671D01*
X147288911Y-51440609D01*
X147431907Y-51237522D01*
X147509022Y-51000886D01*
X147510597Y-50820526D01*
X147572325Y-50832805D01*
X147833938Y-51094419D01*
X147852992Y-51229142D01*
X147958551Y-51453974D01*
X148125552Y-51637828D01*
X148339232Y-51764450D01*
X148580697Y-51822643D01*
X148828599Y-51807264D01*
X149061020Y-51719671D01*
X149100751Y-51688908D01*
X149228232Y-51764450D01*
X149469697Y-51822643D01*
X149717599Y-51807264D01*
X149950020Y-51719671D01*
X150146411Y-51567609D01*
X150160454Y-51547664D01*
X150170419Y-51642469D01*
X150237354Y-51843685D01*
X150345937Y-52025834D01*
X150352820Y-52033164D01*
X150132590Y-52033164D01*
X149939765Y-52071520D01*
X149860000Y-52124817D01*
X149780235Y-52071520D01*
X149587410Y-52033164D01*
X148862590Y-52033164D01*
X148669765Y-52071520D01*
X148590000Y-52124817D01*
X148510235Y-52071520D01*
X148317410Y-52033164D01*
X147592590Y-52033164D01*
X147399765Y-52071520D01*
X147320000Y-52124817D01*
X147240235Y-52071520D01*
X147047410Y-52033164D01*
X146322590Y-52033164D01*
X146129765Y-52071520D01*
X146050000Y-52124817D01*
X145970235Y-52071520D01*
X145777410Y-52033164D01*
X145052590Y-52033164D01*
X144859765Y-52071520D01*
X144780000Y-52124817D01*
X144700235Y-52071520D01*
X144507410Y-52033164D01*
X143782590Y-52033164D01*
X143589765Y-52071520D01*
X143510000Y-52124817D01*
X143430235Y-52071520D01*
X143237410Y-52033164D01*
X142512590Y-52033164D01*
X142319765Y-52071520D01*
X142240000Y-52124817D01*
X142160235Y-52071520D01*
X141967410Y-52033164D01*
X141242590Y-52033164D01*
X141049765Y-52071520D01*
X140970000Y-52124817D01*
X140890235Y-52071520D01*
X140697410Y-52033164D01*
X139972590Y-52033164D01*
X139779765Y-52071520D01*
X139700000Y-52124817D01*
X139620235Y-52071520D01*
X139427410Y-52033164D01*
X139266410Y-52033164D01*
X139366517Y-51933057D01*
X139366523Y-51933050D01*
X139408288Y-51891285D01*
X139434668Y-51839512D01*
X139468819Y-51792507D01*
X139486775Y-51737244D01*
X139513154Y-51685473D01*
X139522244Y-51628082D01*
X139540198Y-51572825D01*
X139540198Y-51514445D01*
X139540200Y-51514432D01*
X139540200Y-51459568D01*
X139637917Y-51305592D01*
X139709460Y-51068627D01*
X139712229Y-50804220D01*
X139696415Y-50747579D01*
X139700000Y-50745183D01*
X139779765Y-50798480D01*
X139972590Y-50836836D01*
X140697410Y-50836836D01*
X140890235Y-50798480D01*
X140970000Y-50745183D01*
X141049765Y-50798480D01*
X141242590Y-50836836D01*
X141967410Y-50836836D01*
X142160235Y-50798480D01*
X142240000Y-50745183D01*
X142319765Y-50798480D01*
X142512590Y-50836836D01*
X143237410Y-50836836D01*
X143430235Y-50798480D01*
X143510000Y-50745183D01*
X143589765Y-50798480D01*
G37*
X143589765Y-50798480D02*
X143782590Y-50836836D01*
X144507410Y-50836836D01*
X144585263Y-50821350D01*
X144579710Y-50856210D01*
X144614492Y-51102142D01*
X144720051Y-51326974D01*
X144887052Y-51510828D01*
X145100732Y-51637450D01*
X145342197Y-51695643D01*
X145590099Y-51680264D01*
X145822520Y-51592671D01*
X146018911Y-51440609D01*
X146051381Y-51394494D01*
X146157052Y-51510828D01*
X146370732Y-51637450D01*
X146612197Y-51695643D01*
X146860099Y-51680264D01*
X147092520Y-51592671D01*
X147288911Y-51440609D01*
X147431907Y-51237522D01*
X147509022Y-51000886D01*
X147510597Y-50820526D01*
X147572325Y-50832805D01*
X147833938Y-51094419D01*
X147852992Y-51229142D01*
X147958551Y-51453974D01*
X148125552Y-51637828D01*
X148339232Y-51764450D01*
X148580697Y-51822643D01*
X148828599Y-51807264D01*
X149061020Y-51719671D01*
X149100751Y-51688908D01*
X149228232Y-51764450D01*
X149469697Y-51822643D01*
X149717599Y-51807264D01*
X149950020Y-51719671D01*
X150146411Y-51567609D01*
X150160454Y-51547664D01*
X150170419Y-51642469D01*
X150237354Y-51843685D01*
X150345937Y-52025834D01*
X150352820Y-52033164D01*
X150132590Y-52033164D01*
X149939765Y-52071520D01*
X149860000Y-52124817D01*
X149780235Y-52071520D01*
X149587410Y-52033164D01*
X148862590Y-52033164D01*
X148669765Y-52071520D01*
X148590000Y-52124817D01*
X148510235Y-52071520D01*
X148317410Y-52033164D01*
X147592590Y-52033164D01*
X147399765Y-52071520D01*
X147320000Y-52124817D01*
X147240235Y-52071520D01*
X147047410Y-52033164D01*
X146322590Y-52033164D01*
X146129765Y-52071520D01*
X146050000Y-52124817D01*
X145970235Y-52071520D01*
X145777410Y-52033164D01*
X145052590Y-52033164D01*
X144859765Y-52071520D01*
X144780000Y-52124817D01*
X144700235Y-52071520D01*
X144507410Y-52033164D01*
X143782590Y-52033164D01*
X143589765Y-52071520D01*
X143510000Y-52124817D01*
X143430235Y-52071520D01*
X143237410Y-52033164D01*
X142512590Y-52033164D01*
X142319765Y-52071520D01*
X142240000Y-52124817D01*
X142160235Y-52071520D01*
X141967410Y-52033164D01*
X141242590Y-52033164D01*
X141049765Y-52071520D01*
X140970000Y-52124817D01*
X140890235Y-52071520D01*
X140697410Y-52033164D01*
X139972590Y-52033164D01*
X139779765Y-52071520D01*
X139700000Y-52124817D01*
X139620235Y-52071520D01*
X139427410Y-52033164D01*
X139266410Y-52033164D01*
X139366517Y-51933057D01*
X139366523Y-51933050D01*
X139408288Y-51891285D01*
X139434668Y-51839512D01*
X139468819Y-51792507D01*
X139486775Y-51737244D01*
X139513154Y-51685473D01*
X139522244Y-51628082D01*
X139540198Y-51572825D01*
X139540198Y-51514445D01*
X139540200Y-51514432D01*
X139540200Y-51459568D01*
X139637917Y-51305592D01*
X139709460Y-51068627D01*
X139712229Y-50804220D01*
X139696415Y-50747579D01*
X139700000Y-50745183D01*
X139779765Y-50798480D01*
X139972590Y-50836836D01*
X140697410Y-50836836D01*
X140890235Y-50798480D01*
X140970000Y-50745183D01*
X141049765Y-50798480D01*
X141242590Y-50836836D01*
X141967410Y-50836836D01*
X142160235Y-50798480D01*
X142240000Y-50745183D01*
X142319765Y-50798480D01*
X142512590Y-50836836D01*
X143237410Y-50836836D01*
X143430235Y-50798480D01*
X143510000Y-50745183D01*
X143589765Y-50798480D01*
%TD*%
M02*
