%TF.GenerationSoftware,KiCad,Pcbnew,5.1.5+dfsg1-2build2*%
%TF.CreationDate,2020-06-30T13:18:29+03:00*%
%TF.ProjectId,Lime2-SHIELD_RevB,4c696d65-322d-4534-9849-454c445f5265,D*%
%TF.SameCoordinates,Original*%
%TF.FileFunction,Copper,L2,Inr*%
%TF.FilePolarity,Positive*%
%FSLAX46Y46*%
G04 Gerber Fmt 4.6, Leading zero omitted, Abs format (unit mm)*
G04 Created by KiCad (PCBNEW 5.1.5+dfsg1-2build2) date 2020-06-30 13:18:29*
%MOMM*%
%LPD*%
G04 APERTURE LIST*
%TA.AperFunction,ViaPad*%
%ADD10C,2.540000*%
%TD*%
%TA.AperFunction,ViaPad*%
%ADD11C,1.900000*%
%TD*%
%TA.AperFunction,ViaPad*%
%ADD12C,0.750000*%
%TD*%
%TA.AperFunction,ViaPad*%
%ADD13C,0.600000*%
%TD*%
%TA.AperFunction,Conductor*%
%ADD14C,0.762000*%
%TD*%
%TA.AperFunction,Conductor*%
%ADD15C,0.254000*%
%TD*%
G04 APERTURE END LIST*
D10*
%TO.N,GND*%
%TO.C,CAN1*%
X118670000Y-78200000D03*
%TO.N,Net-(CAN1-Pad1)*%
X118670000Y-71200000D03*
%TO.N,Net-(CAN1-Pad2)*%
X118670000Y-74700000D03*
%TD*%
D11*
%TO.N,N/C*%
%TO.C,AUDIO_JACK_5PIN2*%
X113840000Y-48260000D03*
X106840000Y-48260000D03*
%TD*%
%TO.N,N/C*%
%TO.C,AUDIO_JACK_5PIN1*%
X113920000Y-59560000D03*
X106920000Y-59560000D03*
%TD*%
D12*
%TO.N,GND*%
X124800000Y-51450000D03*
X126450000Y-47550000D03*
X139360000Y-63306600D03*
X123860000Y-64328600D03*
X123860000Y-60239200D03*
X111201200Y-54254400D03*
X138353800Y-76784200D03*
X134264400Y-79984600D03*
X104089200Y-96697800D03*
X104089200Y-94157800D03*
X104089200Y-91617800D03*
X104089200Y-89077800D03*
X104089200Y-86537800D03*
X147370800Y-76708000D03*
X147497800Y-62484000D03*
X127750000Y-42600000D03*
X127850000Y-46700000D03*
X105840000Y-53735500D03*
X122047000Y-65303400D03*
X134848600Y-69138800D03*
X123647200Y-81280000D03*
X148584000Y-87325200D03*
X132029200Y-95529400D03*
X153593800Y-93675200D03*
X142875000Y-92704998D03*
X128219200Y-87274400D03*
X123113800Y-93751400D03*
X118033800Y-93751400D03*
X110439200Y-87350600D03*
X135839200Y-92760800D03*
X146650000Y-51950000D03*
%TO.N,Net-(CAN1-Pad2)*%
X123900000Y-74700000D03*
%TO.N,/HPCOM*%
X138811000Y-50927000D03*
%TO.N,/HPOUTR*%
X137795000Y-50927000D03*
%TO.N,/HPOUTL*%
X117729000Y-63055500D03*
%TO.N,Net-(AUDIO_JACK_5PIN1-Pad1)*%
X103050000Y-65050000D03*
X124777500Y-43053000D03*
%TO.N,/+3.3V*%
X128905000Y-55270400D03*
X147396200Y-78486000D03*
X147523200Y-64008000D03*
X119913400Y-54229000D03*
X138379200Y-87579200D03*
X158673800Y-87503000D03*
X129108200Y-92659200D03*
X134937500Y-74485500D03*
X132842000Y-71247000D03*
X158673800Y-91800000D03*
%TO.N,/MICIN1*%
X132715000Y-50863500D03*
%TO.N,/VMIC*%
X133985000Y-50863500D03*
D13*
%TO.N,/PG7_UART3RX*%
X140335000Y-59944000D03*
%TO.N,/PG6_UART3TX*%
X140241737Y-60866737D03*
D12*
%TO.N,/PG5*%
X135318500Y-60896500D03*
%TO.N,/PG4*%
X134527276Y-60267501D03*
%TO.N,/PG3*%
X136969500Y-64960500D03*
%TO.N,/PG2*%
X135953500Y-64960500D03*
%TO.N,/PG1*%
X131450000Y-59800000D03*
%TO.N,/PG0*%
X131654828Y-65043328D03*
%TO.N,/+5V*%
X157353000Y-94462600D03*
X127381000Y-92659200D03*
X131127500Y-78740000D03*
D13*
%TO.N,/PG10_UART4TX*%
X142875000Y-55435500D03*
%TO.N,/PG11_UART4RX*%
X144145000Y-55435500D03*
%TO.N,/PB21_TWI2-SDA*%
X145415000Y-50863500D03*
%TO.N,/PB20_TWI2-SCL*%
X146685000Y-50863500D03*
%TO.N,/PB19_TWI1-SDA*%
X142049500Y-70675500D03*
X148653500Y-50990500D03*
X152463500Y-70675500D03*
X139636500Y-70675500D03*
%TO.N,/PC19_SPI2_CS0*%
X157670500Y-57704010D03*
%TO.N,/PB18_TWI1-SCL*%
X141444261Y-71407739D03*
X149542500Y-50990500D03*
X151130000Y-71229500D03*
X139687736Y-71407739D03*
D12*
%TO.N,/PC20_SPI2_CLK*%
X130759200Y-87477600D03*
D13*
X158813500Y-57150000D03*
D12*
X157683200Y-68503800D03*
%TO.N,/PC21_SPI2_MOSI*%
X135839200Y-87528400D03*
D13*
X155067000Y-56515000D03*
D12*
%TO.N,/PC22_SPI2_MISO*%
X155117800Y-68554600D03*
X133273800Y-87477600D03*
D13*
X156400500Y-56451500D03*
%TO.N,/PE6*%
X137795000Y-91884500D03*
%TO.N,/PI3_PWM1*%
X144145000Y-92710000D03*
%TO.N,/PE5*%
X136525000Y-91884500D03*
%TO.N,/PE4*%
X135255000Y-91901000D03*
%TO.N,/PE1*%
X123190000Y-87566500D03*
%TO.N,/PE8*%
X120586500Y-87566500D03*
%TO.N,/PE9*%
X118046500Y-87566500D03*
%TO.N,/PI7*%
X141541500Y-92900500D03*
%TO.N,/PE10*%
X115506500Y-87566500D03*
%TO.N,/PE11*%
X112966500Y-87566500D03*
%TO.N,/PI21_UART7RX*%
X148570190Y-82974690D03*
%TO.N,/PI10*%
X145415000Y-92837000D03*
%TO.N,/PI20_UART7TX*%
X149500730Y-82583932D03*
%TO.N,/PI11*%
X146685000Y-92900500D03*
%TO.N,/PI19_SPI1_MISO*%
X155003500Y-82994500D03*
%TO.N,/PI18_SPI1_MOSI*%
X153733500Y-83693000D03*
%TO.N,/PI17_SPI1_CLK*%
X157543500Y-83693000D03*
%TO.N,/PI16_SPI1_CS0*%
X156146500Y-84391500D03*
%TO.N,/PI15*%
X151765000Y-92837000D03*
D12*
%TO.N,/PH13*%
X146050000Y-99308011D03*
X120599200Y-97739200D03*
%TO.N,/PH12*%
X144780000Y-99308011D03*
X115519200Y-97739200D03*
%TO.N,/PH11*%
X143510000Y-99308011D03*
X112979200Y-97739200D03*
%TO.N,/PH10*%
X142240000Y-99308011D03*
X110439200Y-97739200D03*
%TO.N,/PH9_CANS*%
X140893800Y-99314000D03*
%TO.N,/PH14*%
X147320000Y-99308011D03*
X129597500Y-95834200D03*
%TO.N,/PH20_CANTX*%
X154940000Y-99123500D03*
%TO.N,/PH21_CANRX*%
X156210000Y-99123500D03*
%TO.N,/LINEINL*%
X117050000Y-45300000D03*
%TO.N,/LINEINR*%
X117000000Y-42750000D03*
%TO.N,Net-(MICRO_SD1-Pad5)*%
X128300000Y-72550000D03*
X133794500Y-65905500D03*
%TD*%
D14*
%TO.N,/+5V*%
X127381000Y-92659200D02*
X127006001Y-92284201D01*
X153966899Y-91076499D02*
X156978001Y-94087601D01*
X127006001Y-92284201D02*
X127006001Y-91921157D01*
X127006001Y-91921157D02*
X127850659Y-91076499D01*
X127850659Y-91076499D02*
X153966899Y-91076499D01*
X156978001Y-94087601D02*
X157353000Y-94462600D01*
X131127500Y-78740000D02*
X127006001Y-82861499D01*
X127006001Y-82861499D02*
X127006001Y-92284201D01*
D15*
%TO.N,/PC20_SPI2_CLK*%
X141046200Y-89027000D02*
X132308600Y-89027000D01*
X132308600Y-89027000D02*
X130759200Y-87477600D01*
X155419499Y-74653701D02*
X141046200Y-89027000D01*
X157683200Y-68503800D02*
X155419499Y-70767501D01*
X155419499Y-70767501D02*
X155419499Y-74653701D01*
%TO.N,/PC21_SPI2_MOSI*%
X154355800Y-57226200D02*
X154355800Y-74619772D01*
X136575780Y-88264980D02*
X135839200Y-87528400D01*
X155067000Y-56515000D02*
X154355800Y-57226200D01*
X154355800Y-74619772D02*
X140710592Y-88264980D01*
X140710592Y-88264980D02*
X136575780Y-88264980D01*
%TO.N,/PC22_SPI2_MISO*%
X140868410Y-88645990D02*
X134442190Y-88645990D01*
X134442190Y-88645990D02*
X133273800Y-87477600D01*
X155038489Y-74475911D02*
X140868410Y-88645990D01*
X155038489Y-69164241D02*
X155038489Y-74475911D01*
X155117800Y-68554600D02*
X155117800Y-69084930D01*
X155117800Y-69084930D02*
X155038489Y-69164241D01*
%TD*%
%TO.N,/+3.3V*%
G36*
X116126649Y-42496268D02*
G01*
X116106420Y-42633260D01*
X115937869Y-42729205D01*
X115788355Y-42868385D01*
X115674869Y-43038229D01*
X115603500Y-43229623D01*
X115578075Y-43432304D01*
X115599959Y-43635396D01*
X115667977Y-43828008D01*
X115778481Y-43999806D01*
X115925543Y-44141574D01*
X116101275Y-44245709D01*
X116296250Y-44306624D01*
X116500008Y-44321051D01*
X116701621Y-44288216D01*
X116890272Y-44209881D01*
X117055843Y-44090248D01*
X117189451Y-43935734D01*
X117283929Y-43754628D01*
X117324502Y-43594873D01*
X117511194Y-43502199D01*
X117694644Y-43337020D01*
X117826917Y-43128592D01*
X117898460Y-42891627D01*
X117901229Y-42627220D01*
X117845048Y-42426000D01*
X124126787Y-42426000D01*
X124004554Y-42573754D01*
X123904149Y-42799268D01*
X123868087Y-43043476D01*
X123899027Y-43288387D01*
X123994688Y-43515954D01*
X124148021Y-43709414D01*
X124347733Y-43854512D01*
X124579107Y-43940560D01*
X124825098Y-43961216D01*
X125067581Y-43914960D01*
X125288694Y-43805199D01*
X125472144Y-43640020D01*
X125604417Y-43431592D01*
X125675960Y-43194627D01*
X125678729Y-42930220D01*
X125612164Y-42691809D01*
X125484285Y-42480656D01*
X125426082Y-42426000D01*
X126864875Y-42426000D01*
X126840587Y-42590476D01*
X126871527Y-42835387D01*
X126967188Y-43062954D01*
X127120521Y-43256414D01*
X127320233Y-43401512D01*
X127551607Y-43487560D01*
X127797598Y-43508216D01*
X128040081Y-43461960D01*
X128074001Y-43445122D01*
X128074000Y-45826435D01*
X127916607Y-45792980D01*
X127670238Y-45808480D01*
X127437113Y-45889663D01*
X127234406Y-46030548D01*
X127077054Y-46220754D01*
X126976649Y-46446268D01*
X126940587Y-46690476D01*
X126954012Y-46796740D01*
X126758069Y-46694304D01*
X126516607Y-46642980D01*
X126270238Y-46658480D01*
X126037113Y-46739663D01*
X125834406Y-46880548D01*
X125677054Y-47070754D01*
X125576649Y-47296268D01*
X125540587Y-47540476D01*
X125571527Y-47785387D01*
X125667188Y-48012954D01*
X125820521Y-48206414D01*
X126020233Y-48351512D01*
X126251607Y-48437560D01*
X126497598Y-48458216D01*
X126740081Y-48411960D01*
X126961194Y-48302199D01*
X127144644Y-48137020D01*
X127276917Y-47928592D01*
X127348460Y-47691627D01*
X127350978Y-47451196D01*
X127420233Y-47501512D01*
X127651607Y-47587560D01*
X127897598Y-47608216D01*
X128074000Y-47574566D01*
X128074000Y-48158601D01*
X128067443Y-48200000D01*
X128093508Y-48364569D01*
X128169152Y-48513029D01*
X128286971Y-48630848D01*
X128435431Y-48706492D01*
X128600000Y-48732557D01*
X128641399Y-48726000D01*
X166074001Y-48726000D01*
X166074000Y-101074000D01*
X102126000Y-101074000D01*
X102126000Y-97729676D01*
X109529787Y-97729676D01*
X109560727Y-97974587D01*
X109656388Y-98202154D01*
X109809721Y-98395614D01*
X110009433Y-98540712D01*
X110240807Y-98626760D01*
X110486798Y-98647416D01*
X110729281Y-98601160D01*
X110950394Y-98491399D01*
X111133844Y-98326220D01*
X111266117Y-98117792D01*
X111337660Y-97880827D01*
X111339242Y-97729676D01*
X112069787Y-97729676D01*
X112100727Y-97974587D01*
X112196388Y-98202154D01*
X112349721Y-98395614D01*
X112549433Y-98540712D01*
X112780807Y-98626760D01*
X113026798Y-98647416D01*
X113269281Y-98601160D01*
X113490394Y-98491399D01*
X113673844Y-98326220D01*
X113806117Y-98117792D01*
X113877660Y-97880827D01*
X113879242Y-97729676D01*
X114609787Y-97729676D01*
X114640727Y-97974587D01*
X114736388Y-98202154D01*
X114889721Y-98395614D01*
X115089433Y-98540712D01*
X115320807Y-98626760D01*
X115566798Y-98647416D01*
X115809281Y-98601160D01*
X116030394Y-98491399D01*
X116213844Y-98326220D01*
X116346117Y-98117792D01*
X116417660Y-97880827D01*
X116419242Y-97729676D01*
X119689787Y-97729676D01*
X119720727Y-97974587D01*
X119816388Y-98202154D01*
X119969721Y-98395614D01*
X120169433Y-98540712D01*
X120400807Y-98626760D01*
X120646798Y-98647416D01*
X120889281Y-98601160D01*
X121110394Y-98491399D01*
X121187943Y-98421573D01*
X134273252Y-98421573D01*
X134295419Y-98632469D01*
X134362354Y-98833685D01*
X134470937Y-99015834D01*
X134616100Y-99170417D01*
X134791071Y-99290223D01*
X134987688Y-99369661D01*
X135196776Y-99405025D01*
X135408580Y-99394666D01*
X135613219Y-99339067D01*
X135679385Y-99304476D01*
X139984387Y-99304476D01*
X140015327Y-99549387D01*
X140110988Y-99776954D01*
X140264321Y-99970414D01*
X140464033Y-100115512D01*
X140695407Y-100201560D01*
X140941398Y-100222216D01*
X141183881Y-100175960D01*
X141404994Y-100066199D01*
X141572001Y-99915825D01*
X141610521Y-99964425D01*
X141810233Y-100109523D01*
X142041607Y-100195571D01*
X142287598Y-100216227D01*
X142530081Y-100169971D01*
X142751194Y-100060210D01*
X142870965Y-99952368D01*
X142880521Y-99964425D01*
X143080233Y-100109523D01*
X143311607Y-100195571D01*
X143557598Y-100216227D01*
X143800081Y-100169971D01*
X144021194Y-100060210D01*
X144140965Y-99952368D01*
X144150521Y-99964425D01*
X144350233Y-100109523D01*
X144581607Y-100195571D01*
X144827598Y-100216227D01*
X145070081Y-100169971D01*
X145291194Y-100060210D01*
X145410965Y-99952368D01*
X145420521Y-99964425D01*
X145620233Y-100109523D01*
X145851607Y-100195571D01*
X146097598Y-100216227D01*
X146340081Y-100169971D01*
X146561194Y-100060210D01*
X146680965Y-99952368D01*
X146690521Y-99964425D01*
X146890233Y-100109523D01*
X147121607Y-100195571D01*
X147367598Y-100216227D01*
X147610081Y-100169971D01*
X147831194Y-100060210D01*
X148014644Y-99895031D01*
X148146917Y-99686603D01*
X148218460Y-99449638D01*
X148221229Y-99185231D01*
X148201335Y-99113976D01*
X154030587Y-99113976D01*
X154061527Y-99358887D01*
X154157188Y-99586454D01*
X154310521Y-99779914D01*
X154510233Y-99925012D01*
X154741607Y-100011060D01*
X154987598Y-100031716D01*
X155230081Y-99985460D01*
X155451194Y-99875699D01*
X155570965Y-99767857D01*
X155580521Y-99779914D01*
X155780233Y-99925012D01*
X156011607Y-100011060D01*
X156257598Y-100031716D01*
X156500081Y-99985460D01*
X156721194Y-99875699D01*
X156904644Y-99710520D01*
X157036917Y-99502092D01*
X157108460Y-99265127D01*
X157111229Y-99000720D01*
X157044664Y-98762309D01*
X156916785Y-98551156D01*
X156778793Y-98421573D01*
X157133252Y-98421573D01*
X157155419Y-98632469D01*
X157222354Y-98833685D01*
X157330937Y-99015834D01*
X157476100Y-99170417D01*
X157651071Y-99290223D01*
X157847688Y-99369661D01*
X158056776Y-99405025D01*
X158268580Y-99394666D01*
X158473219Y-99339067D01*
X158661144Y-99240822D01*
X158823591Y-99104514D01*
X158952976Y-98936502D01*
X159043266Y-98744628D01*
X159090297Y-98537623D01*
X159091059Y-98319188D01*
X159045474Y-98111861D01*
X158956527Y-97919359D01*
X158828317Y-97750450D01*
X158666827Y-97613011D01*
X158479592Y-97513455D01*
X158275346Y-97456430D01*
X158063619Y-97444592D01*
X157854289Y-97478496D01*
X157657124Y-97556560D01*
X157481320Y-97675140D01*
X157335081Y-97828706D01*
X157225229Y-98010093D01*
X157156890Y-98210837D01*
X157133252Y-98421573D01*
X156778793Y-98421573D01*
X156736835Y-98382172D01*
X156518069Y-98267804D01*
X156276607Y-98216480D01*
X156030238Y-98231980D01*
X155797113Y-98313163D01*
X155594406Y-98454048D01*
X155572095Y-98481018D01*
X155466835Y-98382172D01*
X155248069Y-98267804D01*
X155006607Y-98216480D01*
X154760238Y-98231980D01*
X154527113Y-98313163D01*
X154324406Y-98454048D01*
X154167054Y-98644254D01*
X154066649Y-98869768D01*
X154030587Y-99113976D01*
X148201335Y-99113976D01*
X148154664Y-98946820D01*
X148026785Y-98735667D01*
X147846835Y-98566683D01*
X147628069Y-98452315D01*
X147386607Y-98400991D01*
X147140238Y-98416491D01*
X146907113Y-98497674D01*
X146704406Y-98638559D01*
X146682095Y-98665529D01*
X146576835Y-98566683D01*
X146358069Y-98452315D01*
X146116607Y-98400991D01*
X145870238Y-98416491D01*
X145637113Y-98497674D01*
X145434406Y-98638559D01*
X145412095Y-98665529D01*
X145306835Y-98566683D01*
X145088069Y-98452315D01*
X144846607Y-98400991D01*
X144600238Y-98416491D01*
X144367113Y-98497674D01*
X144164406Y-98638559D01*
X144142095Y-98665529D01*
X144036835Y-98566683D01*
X143818069Y-98452315D01*
X143576607Y-98400991D01*
X143330238Y-98416491D01*
X143097113Y-98497674D01*
X142894406Y-98638559D01*
X142872095Y-98665529D01*
X142766835Y-98566683D01*
X142548069Y-98452315D01*
X142306607Y-98400991D01*
X142060238Y-98416491D01*
X141827113Y-98497674D01*
X141624406Y-98638559D01*
X141565991Y-98709170D01*
X141420635Y-98572672D01*
X141201869Y-98458304D01*
X140960407Y-98406980D01*
X140714038Y-98422480D01*
X140480913Y-98503663D01*
X140278206Y-98644548D01*
X140120854Y-98834754D01*
X140020449Y-99060268D01*
X139984387Y-99304476D01*
X135679385Y-99304476D01*
X135801144Y-99240822D01*
X135963591Y-99104514D01*
X136092976Y-98936502D01*
X136183266Y-98744628D01*
X136230297Y-98537623D01*
X136231059Y-98319188D01*
X136185474Y-98111861D01*
X136096527Y-97919359D01*
X135968317Y-97750450D01*
X135806827Y-97613011D01*
X135619592Y-97513455D01*
X135415346Y-97456430D01*
X135203619Y-97444592D01*
X134994289Y-97478496D01*
X134797124Y-97556560D01*
X134621320Y-97675140D01*
X134475081Y-97828706D01*
X134365229Y-98010093D01*
X134296890Y-98210837D01*
X134273252Y-98421573D01*
X121187943Y-98421573D01*
X121293844Y-98326220D01*
X121426117Y-98117792D01*
X121497660Y-97880827D01*
X121500429Y-97616420D01*
X121433864Y-97378009D01*
X121305985Y-97166856D01*
X121126035Y-96997872D01*
X120907269Y-96883504D01*
X120665807Y-96832180D01*
X120419438Y-96847680D01*
X120186313Y-96928863D01*
X119983606Y-97069748D01*
X119826254Y-97259954D01*
X119725849Y-97485468D01*
X119689787Y-97729676D01*
X116419242Y-97729676D01*
X116420429Y-97616420D01*
X116353864Y-97378009D01*
X116225985Y-97166856D01*
X116046035Y-96997872D01*
X115827269Y-96883504D01*
X115585807Y-96832180D01*
X115339438Y-96847680D01*
X115106313Y-96928863D01*
X114903606Y-97069748D01*
X114746254Y-97259954D01*
X114645849Y-97485468D01*
X114609787Y-97729676D01*
X113879242Y-97729676D01*
X113880429Y-97616420D01*
X113813864Y-97378009D01*
X113685985Y-97166856D01*
X113506035Y-96997872D01*
X113287269Y-96883504D01*
X113045807Y-96832180D01*
X112799438Y-96847680D01*
X112566313Y-96928863D01*
X112363606Y-97069748D01*
X112206254Y-97259954D01*
X112105849Y-97485468D01*
X112069787Y-97729676D01*
X111339242Y-97729676D01*
X111340429Y-97616420D01*
X111273864Y-97378009D01*
X111145985Y-97166856D01*
X110966035Y-96997872D01*
X110747269Y-96883504D01*
X110505807Y-96832180D01*
X110259438Y-96847680D01*
X110026313Y-96928863D01*
X109823606Y-97069748D01*
X109666254Y-97259954D01*
X109565849Y-97485468D01*
X109529787Y-97729676D01*
X102126000Y-97729676D01*
X102126000Y-96688276D01*
X103179787Y-96688276D01*
X103210727Y-96933187D01*
X103306388Y-97160754D01*
X103459721Y-97354214D01*
X103659433Y-97499312D01*
X103890807Y-97585360D01*
X104136798Y-97606016D01*
X104379281Y-97559760D01*
X104600394Y-97449999D01*
X104783844Y-97284820D01*
X104916117Y-97076392D01*
X104987660Y-96839427D01*
X104990429Y-96575020D01*
X104923864Y-96336609D01*
X104795985Y-96125456D01*
X104616035Y-95956472D01*
X104397269Y-95842104D01*
X104315277Y-95824676D01*
X128688087Y-95824676D01*
X128719027Y-96069587D01*
X128814688Y-96297154D01*
X128968021Y-96490614D01*
X129167733Y-96635712D01*
X129399107Y-96721760D01*
X129645098Y-96742416D01*
X129887581Y-96696160D01*
X130108694Y-96586399D01*
X130292144Y-96421220D01*
X130424417Y-96212792D01*
X130495960Y-95975827D01*
X130498729Y-95711420D01*
X130445250Y-95519876D01*
X131119787Y-95519876D01*
X131150727Y-95764787D01*
X131246388Y-95992354D01*
X131399721Y-96185814D01*
X131599433Y-96330912D01*
X131830807Y-96416960D01*
X132076798Y-96437616D01*
X132319281Y-96391360D01*
X132540394Y-96281599D01*
X132723844Y-96116420D01*
X132856117Y-95907992D01*
X132927660Y-95671027D01*
X132930429Y-95406620D01*
X132863864Y-95168209D01*
X132735985Y-94957056D01*
X132556035Y-94788072D01*
X132337269Y-94673704D01*
X132095807Y-94622380D01*
X131849438Y-94637880D01*
X131616313Y-94719063D01*
X131413606Y-94859948D01*
X131256254Y-95050154D01*
X131155849Y-95275668D01*
X131119787Y-95519876D01*
X130445250Y-95519876D01*
X130432164Y-95473009D01*
X130304285Y-95261856D01*
X130124335Y-95092872D01*
X129905569Y-94978504D01*
X129664107Y-94927180D01*
X129417738Y-94942680D01*
X129184613Y-95023863D01*
X128981906Y-95164748D01*
X128824554Y-95354954D01*
X128724149Y-95580468D01*
X128688087Y-95824676D01*
X104315277Y-95824676D01*
X104155807Y-95790780D01*
X103909438Y-95806280D01*
X103676313Y-95887463D01*
X103473606Y-96028348D01*
X103316254Y-96218554D01*
X103215849Y-96444068D01*
X103179787Y-96688276D01*
X102126000Y-96688276D01*
X102126000Y-94148276D01*
X103179787Y-94148276D01*
X103210727Y-94393187D01*
X103306388Y-94620754D01*
X103459721Y-94814214D01*
X103659433Y-94959312D01*
X103890807Y-95045360D01*
X104136798Y-95066016D01*
X104379281Y-95019760D01*
X104600394Y-94909999D01*
X104783844Y-94744820D01*
X104916117Y-94536392D01*
X104987660Y-94299427D01*
X104990429Y-94035020D01*
X104923864Y-93796609D01*
X104795985Y-93585456D01*
X104616035Y-93416472D01*
X104397269Y-93302104D01*
X104155807Y-93250780D01*
X103909438Y-93266280D01*
X103676313Y-93347463D01*
X103473606Y-93488348D01*
X103316254Y-93678554D01*
X103215849Y-93904068D01*
X103179787Y-94148276D01*
X102126000Y-94148276D01*
X102126000Y-92716049D01*
X110568201Y-92716049D01*
X110590524Y-92943710D01*
X110658168Y-93162231D01*
X110768370Y-93362688D01*
X110916628Y-93536892D01*
X111096888Y-93677726D01*
X111301784Y-93779437D01*
X111522947Y-93837871D01*
X111751342Y-93850640D01*
X111977640Y-93817224D01*
X112184656Y-93741876D01*
X117124387Y-93741876D01*
X117155327Y-93986787D01*
X117250988Y-94214354D01*
X117404321Y-94407814D01*
X117604033Y-94552912D01*
X117835407Y-94638960D01*
X118081398Y-94659616D01*
X118323881Y-94613360D01*
X118544994Y-94503599D01*
X118728444Y-94338420D01*
X118860717Y-94129992D01*
X118932260Y-93893027D01*
X118933842Y-93741876D01*
X122204387Y-93741876D01*
X122235327Y-93986787D01*
X122330988Y-94214354D01*
X122484321Y-94407814D01*
X122684033Y-94552912D01*
X122915407Y-94638960D01*
X123161398Y-94659616D01*
X123403881Y-94613360D01*
X123624994Y-94503599D01*
X123808444Y-94338420D01*
X123940717Y-94129992D01*
X124012260Y-93893027D01*
X124015029Y-93628620D01*
X123948464Y-93390209D01*
X123820585Y-93179056D01*
X123640635Y-93010072D01*
X123421869Y-92895704D01*
X123180407Y-92844380D01*
X122934038Y-92859880D01*
X122700913Y-92941063D01*
X122498206Y-93081948D01*
X122340854Y-93272154D01*
X122240449Y-93497668D01*
X122204387Y-93741876D01*
X118933842Y-93741876D01*
X118935029Y-93628620D01*
X118868464Y-93390209D01*
X118740585Y-93179056D01*
X118560635Y-93010072D01*
X118341869Y-92895704D01*
X118100407Y-92844380D01*
X117854038Y-92859880D01*
X117620913Y-92941063D01*
X117418206Y-93081948D01*
X117260854Y-93272154D01*
X117160449Y-93497668D01*
X117124387Y-93741876D01*
X112184656Y-93741876D01*
X112192597Y-93738986D01*
X112387431Y-93619122D01*
X112554185Y-93462531D01*
X112686045Y-93275607D01*
X112777626Y-93065988D01*
X112825232Y-92842016D01*
X112826056Y-92605842D01*
X112780014Y-92381544D01*
X112689899Y-92171290D01*
X112559348Y-91983451D01*
X112393692Y-91825698D01*
X112199699Y-91704478D01*
X111985293Y-91624741D01*
X111759234Y-91589746D01*
X111530756Y-91600921D01*
X111309190Y-91657808D01*
X111103589Y-91758086D01*
X110922350Y-91897659D01*
X110772880Y-92070824D01*
X110661281Y-92270506D01*
X110592113Y-92488550D01*
X110568201Y-92716049D01*
X102126000Y-92716049D01*
X102126000Y-91608276D01*
X103179787Y-91608276D01*
X103210727Y-91853187D01*
X103306388Y-92080754D01*
X103459721Y-92274214D01*
X103659433Y-92419312D01*
X103890807Y-92505360D01*
X104136798Y-92526016D01*
X104379281Y-92479760D01*
X104600394Y-92369999D01*
X104783844Y-92204820D01*
X104916117Y-91996392D01*
X104987660Y-91759427D01*
X104990429Y-91495020D01*
X104923864Y-91256609D01*
X104795985Y-91045456D01*
X104616035Y-90876472D01*
X104397269Y-90762104D01*
X104155807Y-90710780D01*
X103909438Y-90726280D01*
X103676313Y-90807463D01*
X103473606Y-90948348D01*
X103316254Y-91138554D01*
X103215849Y-91364068D01*
X103179787Y-91608276D01*
X102126000Y-91608276D01*
X102126000Y-89068276D01*
X103179787Y-89068276D01*
X103210727Y-89313187D01*
X103306388Y-89540754D01*
X103459721Y-89734214D01*
X103659433Y-89879312D01*
X103890807Y-89965360D01*
X104136798Y-89986016D01*
X104379281Y-89939760D01*
X104600394Y-89829999D01*
X104783844Y-89664820D01*
X104916117Y-89456392D01*
X104987660Y-89219427D01*
X104990429Y-88955020D01*
X104923864Y-88716609D01*
X104795985Y-88505456D01*
X104616035Y-88336472D01*
X104397269Y-88222104D01*
X104155807Y-88170780D01*
X103909438Y-88186280D01*
X103676313Y-88267463D01*
X103473606Y-88408348D01*
X103316254Y-88598554D01*
X103215849Y-88824068D01*
X103179787Y-89068276D01*
X102126000Y-89068276D01*
X102126000Y-86528276D01*
X103179787Y-86528276D01*
X103210727Y-86773187D01*
X103306388Y-87000754D01*
X103459721Y-87194214D01*
X103659433Y-87339312D01*
X103890807Y-87425360D01*
X104136798Y-87446016D01*
X104379281Y-87399760D01*
X104497499Y-87341076D01*
X109529787Y-87341076D01*
X109560727Y-87585987D01*
X109656388Y-87813554D01*
X109809721Y-88007014D01*
X110009433Y-88152112D01*
X110240807Y-88238160D01*
X110486798Y-88258816D01*
X110729281Y-88212560D01*
X110950394Y-88102799D01*
X111133844Y-87937620D01*
X111266117Y-87729192D01*
X111317436Y-87559210D01*
X112131210Y-87559210D01*
X112165992Y-87805142D01*
X112271551Y-88029974D01*
X112438552Y-88213828D01*
X112652232Y-88340450D01*
X112893697Y-88398643D01*
X113141599Y-88383264D01*
X113374020Y-88295671D01*
X113570411Y-88143609D01*
X113713407Y-87940522D01*
X113790522Y-87703886D01*
X113791785Y-87559210D01*
X114671210Y-87559210D01*
X114705992Y-87805142D01*
X114811551Y-88029974D01*
X114978552Y-88213828D01*
X115192232Y-88340450D01*
X115433697Y-88398643D01*
X115681599Y-88383264D01*
X115914020Y-88295671D01*
X116110411Y-88143609D01*
X116253407Y-87940522D01*
X116330522Y-87703886D01*
X116331785Y-87559210D01*
X117211210Y-87559210D01*
X117245992Y-87805142D01*
X117351551Y-88029974D01*
X117518552Y-88213828D01*
X117732232Y-88340450D01*
X117973697Y-88398643D01*
X118221599Y-88383264D01*
X118454020Y-88295671D01*
X118650411Y-88143609D01*
X118793407Y-87940522D01*
X118870522Y-87703886D01*
X118871785Y-87559210D01*
X119751210Y-87559210D01*
X119785992Y-87805142D01*
X119891551Y-88029974D01*
X120058552Y-88213828D01*
X120272232Y-88340450D01*
X120513697Y-88398643D01*
X120761599Y-88383264D01*
X120994020Y-88295671D01*
X121190411Y-88143609D01*
X121333407Y-87940522D01*
X121410522Y-87703886D01*
X121411785Y-87559210D01*
X122354710Y-87559210D01*
X122389492Y-87805142D01*
X122495051Y-88029974D01*
X122662052Y-88213828D01*
X122875732Y-88340450D01*
X123117197Y-88398643D01*
X123365099Y-88383264D01*
X123597520Y-88295671D01*
X123793911Y-88143609D01*
X123936907Y-87940522D01*
X124014022Y-87703886D01*
X124016295Y-87443516D01*
X123943321Y-87205569D01*
X123803890Y-87000019D01*
X123610184Y-86844553D01*
X123379327Y-86752917D01*
X123131731Y-86733212D01*
X122889287Y-86787184D01*
X122673430Y-86910056D01*
X122503245Y-87090969D01*
X122393779Y-87313924D01*
X122354710Y-87559210D01*
X121411785Y-87559210D01*
X121412795Y-87443516D01*
X121339821Y-87205569D01*
X121200390Y-87000019D01*
X121006684Y-86844553D01*
X120775827Y-86752917D01*
X120528231Y-86733212D01*
X120285787Y-86787184D01*
X120069930Y-86910056D01*
X119899745Y-87090969D01*
X119790279Y-87313924D01*
X119751210Y-87559210D01*
X118871785Y-87559210D01*
X118872795Y-87443516D01*
X118799821Y-87205569D01*
X118660390Y-87000019D01*
X118466684Y-86844553D01*
X118235827Y-86752917D01*
X117988231Y-86733212D01*
X117745787Y-86787184D01*
X117529930Y-86910056D01*
X117359745Y-87090969D01*
X117250279Y-87313924D01*
X117211210Y-87559210D01*
X116331785Y-87559210D01*
X116332795Y-87443516D01*
X116259821Y-87205569D01*
X116120390Y-87000019D01*
X115926684Y-86844553D01*
X115695827Y-86752917D01*
X115448231Y-86733212D01*
X115205787Y-86787184D01*
X114989930Y-86910056D01*
X114819745Y-87090969D01*
X114710279Y-87313924D01*
X114671210Y-87559210D01*
X113791785Y-87559210D01*
X113792795Y-87443516D01*
X113719821Y-87205569D01*
X113580390Y-87000019D01*
X113386684Y-86844553D01*
X113155827Y-86752917D01*
X112908231Y-86733212D01*
X112665787Y-86787184D01*
X112449930Y-86910056D01*
X112279745Y-87090969D01*
X112170279Y-87313924D01*
X112131210Y-87559210D01*
X111317436Y-87559210D01*
X111337660Y-87492227D01*
X111340429Y-87227820D01*
X111273864Y-86989409D01*
X111145985Y-86778256D01*
X110966035Y-86609272D01*
X110747269Y-86494904D01*
X110505807Y-86443580D01*
X110259438Y-86459080D01*
X110026313Y-86540263D01*
X109823606Y-86681148D01*
X109666254Y-86871354D01*
X109565849Y-87096868D01*
X109529787Y-87341076D01*
X104497499Y-87341076D01*
X104600394Y-87289999D01*
X104783844Y-87124820D01*
X104916117Y-86916392D01*
X104987660Y-86679427D01*
X104990429Y-86415020D01*
X104923864Y-86176609D01*
X104795985Y-85965456D01*
X104616035Y-85796472D01*
X104397269Y-85682104D01*
X104155807Y-85630780D01*
X103909438Y-85646280D01*
X103676313Y-85727463D01*
X103473606Y-85868348D01*
X103316254Y-86058554D01*
X103215849Y-86284068D01*
X103179787Y-86528276D01*
X102126000Y-86528276D01*
X102126000Y-85126000D01*
X113558601Y-85126000D01*
X113600000Y-85132557D01*
X113651191Y-85124449D01*
X113764569Y-85106492D01*
X113913029Y-85030848D01*
X114030848Y-84913029D01*
X114106492Y-84764569D01*
X114132557Y-84600000D01*
X114126000Y-84558601D01*
X114126000Y-82890255D01*
X126090934Y-82890255D01*
X126099001Y-82937953D01*
X126099002Y-91873153D01*
X126090934Y-91949913D01*
X126099001Y-91997611D01*
X126099001Y-92264075D01*
X126094546Y-92370359D01*
X126113150Y-92449678D01*
X126124207Y-92530401D01*
X126141404Y-92570141D01*
X126152372Y-92616900D01*
X126180147Y-92659668D01*
X126222898Y-92758463D01*
X126379285Y-92951585D01*
X126418719Y-92979610D01*
X126739283Y-93300173D01*
X126751522Y-93315615D01*
X126763235Y-93324124D01*
X126783629Y-93344519D01*
X126931568Y-93456813D01*
X127162617Y-93548292D01*
X127409758Y-93574267D01*
X127654777Y-93532825D01*
X127879626Y-93427018D01*
X128067739Y-93264644D01*
X128205258Y-93057662D01*
X128206410Y-93054117D01*
X128211775Y-93055025D01*
X128423580Y-93044666D01*
X128628219Y-92989067D01*
X128816144Y-92890822D01*
X128978591Y-92754514D01*
X129107976Y-92586502D01*
X129198266Y-92394628D01*
X129245297Y-92187623D01*
X129246009Y-91983499D01*
X134432409Y-91983499D01*
X134454492Y-92139642D01*
X134560051Y-92364474D01*
X134727052Y-92548328D01*
X134940732Y-92674950D01*
X134941047Y-92675026D01*
X134929787Y-92751276D01*
X134960727Y-92996187D01*
X135056388Y-93223754D01*
X135209721Y-93417214D01*
X135409433Y-93562312D01*
X135640807Y-93648360D01*
X135886798Y-93669016D01*
X136129281Y-93622760D01*
X136350394Y-93512999D01*
X136533844Y-93347820D01*
X136666117Y-93139392D01*
X136737660Y-92902427D01*
X136739924Y-92686255D01*
X136932520Y-92613671D01*
X137128911Y-92461609D01*
X137161381Y-92415494D01*
X137267052Y-92531828D01*
X137480732Y-92658450D01*
X137722197Y-92716643D01*
X137970099Y-92701264D01*
X138202520Y-92613671D01*
X138398911Y-92461609D01*
X138541907Y-92258522D01*
X138619023Y-92021886D01*
X138619358Y-91983499D01*
X142334292Y-91983499D01*
X142259406Y-92035546D01*
X142102054Y-92225752D01*
X142080582Y-92273979D01*
X141961684Y-92178553D01*
X141730827Y-92086917D01*
X141483231Y-92067212D01*
X141240787Y-92121184D01*
X141024930Y-92244056D01*
X140854745Y-92424969D01*
X140745279Y-92647924D01*
X140706210Y-92893210D01*
X140740992Y-93139142D01*
X140846551Y-93363974D01*
X141013552Y-93547828D01*
X141227232Y-93674450D01*
X141468697Y-93732643D01*
X141716599Y-93717264D01*
X141949020Y-93629671D01*
X142145411Y-93477609D01*
X142235833Y-93349189D01*
X142245521Y-93361412D01*
X142445233Y-93506510D01*
X142676607Y-93592558D01*
X142922598Y-93613214D01*
X143165081Y-93566958D01*
X143386194Y-93457197D01*
X143563089Y-93297920D01*
X143617052Y-93357328D01*
X143830732Y-93483950D01*
X144072197Y-93542143D01*
X144320099Y-93526764D01*
X144552520Y-93439171D01*
X144724840Y-93305747D01*
X144887052Y-93484328D01*
X145100732Y-93610950D01*
X145342197Y-93669143D01*
X145590099Y-93653764D01*
X145822520Y-93566171D01*
X146018911Y-93414109D01*
X146026194Y-93403765D01*
X146157052Y-93547828D01*
X146370732Y-93674450D01*
X146612197Y-93732643D01*
X146860099Y-93717264D01*
X147092520Y-93629671D01*
X147288911Y-93477609D01*
X147431907Y-93274522D01*
X147509022Y-93037886D01*
X147511295Y-92777516D01*
X147438321Y-92539569D01*
X147298890Y-92334019D01*
X147105184Y-92178553D01*
X146874327Y-92086917D01*
X146626731Y-92067212D01*
X146384287Y-92121184D01*
X146168430Y-92244056D01*
X146076924Y-92341331D01*
X146028890Y-92270519D01*
X145835184Y-92115053D01*
X145604327Y-92023417D01*
X145356731Y-92003712D01*
X145114287Y-92057684D01*
X144898430Y-92180556D01*
X144831951Y-92251226D01*
X144758890Y-92143519D01*
X144565184Y-91988053D01*
X144553711Y-91983499D01*
X150158131Y-91983499D01*
X150148252Y-92071573D01*
X150170419Y-92282469D01*
X150237354Y-92483685D01*
X150345937Y-92665834D01*
X150491100Y-92820417D01*
X150666071Y-92940223D01*
X150862688Y-93019661D01*
X150958876Y-93035930D01*
X150964492Y-93075642D01*
X151070051Y-93300474D01*
X151237052Y-93484328D01*
X151450732Y-93610950D01*
X151692197Y-93669143D01*
X151748083Y-93665676D01*
X152684387Y-93665676D01*
X152715327Y-93910587D01*
X152810988Y-94138154D01*
X152964321Y-94331614D01*
X153164033Y-94476712D01*
X153395407Y-94562760D01*
X153641398Y-94583416D01*
X153883881Y-94537160D01*
X154104994Y-94427399D01*
X154288444Y-94262220D01*
X154420717Y-94053792D01*
X154492260Y-93816827D01*
X154495029Y-93552420D01*
X154428464Y-93314009D01*
X154300585Y-93102856D01*
X154120635Y-92933872D01*
X153901869Y-92819504D01*
X153660407Y-92768180D01*
X153414038Y-92783680D01*
X153180913Y-92864863D01*
X152978206Y-93005748D01*
X152820854Y-93195954D01*
X152720449Y-93421468D01*
X152684387Y-93665676D01*
X151748083Y-93665676D01*
X151940099Y-93653764D01*
X152172520Y-93566171D01*
X152368911Y-93414109D01*
X152511907Y-93211022D01*
X152589022Y-92974386D01*
X152591295Y-92714016D01*
X152518321Y-92476069D01*
X152378890Y-92270519D01*
X152185184Y-92115053D01*
X152105660Y-92083487D01*
X152106009Y-91983499D01*
X153591209Y-91983499D01*
X156379489Y-94771781D01*
X156379494Y-94771785D01*
X156711283Y-95103573D01*
X156723522Y-95119015D01*
X156735235Y-95127524D01*
X156755629Y-95147919D01*
X156903568Y-95260213D01*
X157134617Y-95351692D01*
X157381758Y-95377667D01*
X157626777Y-95336225D01*
X157851626Y-95230418D01*
X158039739Y-95068044D01*
X158177259Y-94861062D01*
X158254049Y-94624724D01*
X158264455Y-94376442D01*
X158206631Y-94129903D01*
X158181268Y-94090846D01*
X158059785Y-93890257D01*
X158037272Y-93869115D01*
X158028133Y-93855043D01*
X157912215Y-93739125D01*
X157912597Y-93738986D01*
X158107431Y-93619122D01*
X158274185Y-93462531D01*
X158406045Y-93275607D01*
X158497626Y-93065988D01*
X158545232Y-92842016D01*
X158546056Y-92605842D01*
X158500014Y-92381544D01*
X158409899Y-92171290D01*
X158279348Y-91983451D01*
X158113692Y-91825698D01*
X157919699Y-91704478D01*
X157705293Y-91624741D01*
X157479234Y-91589746D01*
X157250756Y-91600921D01*
X157029190Y-91657808D01*
X156823589Y-91758086D01*
X156642350Y-91897659D01*
X156492880Y-92070824D01*
X156403622Y-92230531D01*
X154622499Y-90449409D01*
X154550473Y-90371080D01*
X154481224Y-90328144D01*
X154416330Y-90278887D01*
X154376071Y-90262947D01*
X154335254Y-90237639D01*
X154285363Y-90227034D01*
X154185281Y-90187408D01*
X153938143Y-90161432D01*
X153890445Y-90169499D01*
X127913001Y-90169499D01*
X127913001Y-88121867D01*
X128020807Y-88161960D01*
X128266798Y-88182616D01*
X128509281Y-88136360D01*
X128730394Y-88026599D01*
X128913844Y-87861420D01*
X129046117Y-87652992D01*
X129101945Y-87468076D01*
X129849787Y-87468076D01*
X129880727Y-87712987D01*
X129976388Y-87940554D01*
X130129721Y-88134014D01*
X130329433Y-88279112D01*
X130560807Y-88365160D01*
X130738175Y-88380054D01*
X131797594Y-89439474D01*
X131818950Y-89472547D01*
X131874308Y-89516188D01*
X131885176Y-89527057D01*
X131916392Y-89549365D01*
X131994096Y-89610621D01*
X132006607Y-89613833D01*
X132017350Y-89621511D01*
X132225626Y-89683799D01*
X132322315Y-89680000D01*
X140976536Y-89680000D01*
X141015015Y-89688285D01*
X141085013Y-89680000D01*
X141100389Y-89680000D01*
X141138240Y-89673700D01*
X141236496Y-89662070D01*
X141247613Y-89655495D01*
X141260639Y-89653327D01*
X141451957Y-89550098D01*
X141517683Y-89478996D01*
X143681003Y-87315676D01*
X147674587Y-87315676D01*
X147705527Y-87560587D01*
X147801188Y-87788154D01*
X147954521Y-87981614D01*
X148154233Y-88126712D01*
X148385607Y-88212760D01*
X148631598Y-88233416D01*
X148874081Y-88187160D01*
X149095194Y-88077399D01*
X149278644Y-87912220D01*
X149410917Y-87703792D01*
X149482460Y-87466827D01*
X149485229Y-87202420D01*
X149418664Y-86964009D01*
X149290785Y-86752856D01*
X149110835Y-86583872D01*
X148892069Y-86469504D01*
X148650607Y-86418180D01*
X148404238Y-86433680D01*
X148171113Y-86514863D01*
X147968406Y-86655748D01*
X147811054Y-86845954D01*
X147710649Y-87071468D01*
X147674587Y-87315676D01*
X143681003Y-87315676D01*
X147774048Y-83222632D01*
X147875241Y-83438164D01*
X148042242Y-83622018D01*
X148255922Y-83748640D01*
X148497387Y-83806833D01*
X148745289Y-83791454D01*
X148977710Y-83703861D01*
X149001152Y-83685710D01*
X152898210Y-83685710D01*
X152932992Y-83931642D01*
X153038551Y-84156474D01*
X153205552Y-84340328D01*
X153419232Y-84466950D01*
X153660697Y-84525143D01*
X153908599Y-84509764D01*
X154141020Y-84422171D01*
X154190047Y-84384210D01*
X155311210Y-84384210D01*
X155345992Y-84630142D01*
X155451551Y-84854974D01*
X155618552Y-85038828D01*
X155832232Y-85165450D01*
X156073697Y-85223643D01*
X156321599Y-85208264D01*
X156554020Y-85120671D01*
X156750411Y-84968609D01*
X156893407Y-84765522D01*
X156970522Y-84528886D01*
X156972581Y-84293021D01*
X157015552Y-84340328D01*
X157229232Y-84466950D01*
X157470697Y-84525143D01*
X157718599Y-84509764D01*
X157951020Y-84422171D01*
X158147411Y-84270109D01*
X158290407Y-84067022D01*
X158367522Y-83830386D01*
X158369795Y-83570016D01*
X158296821Y-83332069D01*
X158157390Y-83126519D01*
X157963684Y-82971053D01*
X157732827Y-82879417D01*
X157485231Y-82859712D01*
X157242787Y-82913684D01*
X157026930Y-83036556D01*
X156856745Y-83217469D01*
X156747279Y-83440424D01*
X156708210Y-83685710D01*
X156723754Y-83795615D01*
X156566684Y-83669553D01*
X156335827Y-83577917D01*
X156088231Y-83558212D01*
X155845787Y-83612184D01*
X155629930Y-83735056D01*
X155459745Y-83915969D01*
X155350279Y-84138924D01*
X155311210Y-84384210D01*
X154190047Y-84384210D01*
X154337411Y-84270109D01*
X154480407Y-84067022D01*
X154557522Y-83830386D01*
X154558738Y-83691122D01*
X154689232Y-83768450D01*
X154930697Y-83826643D01*
X155178599Y-83811264D01*
X155411020Y-83723671D01*
X155607411Y-83571609D01*
X155750407Y-83368522D01*
X155827522Y-83131886D01*
X155829795Y-82871516D01*
X155756821Y-82633569D01*
X155617390Y-82428019D01*
X155423684Y-82272553D01*
X155192827Y-82180917D01*
X154945231Y-82161212D01*
X154702787Y-82215184D01*
X154486930Y-82338056D01*
X154316745Y-82518969D01*
X154207279Y-82741924D01*
X154168845Y-82983221D01*
X154153684Y-82971053D01*
X153922827Y-82879417D01*
X153675231Y-82859712D01*
X153432787Y-82913684D01*
X153216930Y-83036556D01*
X153046745Y-83217469D01*
X152937279Y-83440424D01*
X152898210Y-83685710D01*
X149001152Y-83685710D01*
X149174101Y-83551799D01*
X149292626Y-83383467D01*
X149427927Y-83416075D01*
X149675829Y-83400696D01*
X149908250Y-83313103D01*
X150104641Y-83161041D01*
X150247637Y-82957954D01*
X150324752Y-82721318D01*
X150327025Y-82460948D01*
X150254051Y-82223001D01*
X150114620Y-82017451D01*
X149920914Y-81861985D01*
X149690057Y-81770349D01*
X149442461Y-81750644D01*
X149200017Y-81804616D01*
X149181555Y-81815125D01*
X153403631Y-77593049D01*
X155141701Y-77593049D01*
X155164024Y-77820710D01*
X155231668Y-78039231D01*
X155341870Y-78239688D01*
X155490128Y-78413892D01*
X155670388Y-78554726D01*
X155875284Y-78656437D01*
X156096447Y-78714871D01*
X156324842Y-78727640D01*
X156551140Y-78694224D01*
X156766097Y-78615986D01*
X156960931Y-78496122D01*
X157127685Y-78339531D01*
X157259545Y-78152607D01*
X157351126Y-77942988D01*
X157398732Y-77719016D01*
X157399556Y-77482842D01*
X157353514Y-77258544D01*
X157263399Y-77048290D01*
X157132848Y-76860451D01*
X156967192Y-76702698D01*
X156773199Y-76581478D01*
X156558793Y-76501741D01*
X156332734Y-76466746D01*
X156104256Y-76477921D01*
X155882690Y-76534808D01*
X155677089Y-76635086D01*
X155495850Y-76774659D01*
X155346380Y-76947824D01*
X155234781Y-77147506D01*
X155165613Y-77365550D01*
X155141701Y-77593049D01*
X153403631Y-77593049D01*
X155831973Y-75164707D01*
X155865046Y-75143351D01*
X155908687Y-75087993D01*
X155919556Y-75077125D01*
X155941864Y-75045909D01*
X156003120Y-74968205D01*
X156006333Y-74955693D01*
X156014010Y-74944950D01*
X156076298Y-74736674D01*
X156072499Y-74639986D01*
X156072499Y-71037980D01*
X157700969Y-69409511D01*
X157730798Y-69412016D01*
X157973281Y-69365760D01*
X158194394Y-69255999D01*
X158377844Y-69090820D01*
X158510117Y-68882392D01*
X158581660Y-68645427D01*
X158584429Y-68381020D01*
X158517864Y-68142609D01*
X158389985Y-67931456D01*
X158210035Y-67762472D01*
X157991269Y-67648104D01*
X157749807Y-67596780D01*
X157503438Y-67612280D01*
X157270313Y-67693463D01*
X157067606Y-67834348D01*
X156910254Y-68024554D01*
X156809849Y-68250068D01*
X156774574Y-68488945D01*
X155691489Y-69572031D01*
X155691489Y-69412032D01*
X155701423Y-69399430D01*
X155704635Y-69386919D01*
X155712311Y-69376178D01*
X155771410Y-69178567D01*
X155812444Y-69141620D01*
X155944717Y-68933192D01*
X156016260Y-68696227D01*
X156019029Y-68431820D01*
X155952464Y-68193409D01*
X155824585Y-67982256D01*
X155644635Y-67813272D01*
X155425869Y-67698904D01*
X155184407Y-67647580D01*
X155008800Y-67658628D01*
X155008800Y-63178549D01*
X155268701Y-63178549D01*
X155291024Y-63406210D01*
X155358668Y-63624731D01*
X155468870Y-63825188D01*
X155617128Y-63999392D01*
X155797388Y-64140226D01*
X156002284Y-64241937D01*
X156223447Y-64300371D01*
X156451842Y-64313140D01*
X156678140Y-64279724D01*
X156893097Y-64201486D01*
X157087931Y-64081622D01*
X157254685Y-63925031D01*
X157386545Y-63738107D01*
X157478126Y-63528488D01*
X157525732Y-63304516D01*
X157526556Y-63068342D01*
X157480514Y-62844044D01*
X157390399Y-62633790D01*
X157259848Y-62445951D01*
X157094192Y-62288198D01*
X156900199Y-62166978D01*
X156685793Y-62087241D01*
X156459734Y-62052246D01*
X156231256Y-62063421D01*
X156009690Y-62120308D01*
X155804089Y-62220586D01*
X155622850Y-62360159D01*
X155473380Y-62533324D01*
X155361781Y-62733006D01*
X155292613Y-62951050D01*
X155268701Y-63178549D01*
X155008800Y-63178549D01*
X155008800Y-57696720D01*
X156835210Y-57696720D01*
X156869992Y-57942652D01*
X156975551Y-58167484D01*
X157142552Y-58351338D01*
X157356232Y-58477960D01*
X157597697Y-58536153D01*
X157845599Y-58520774D01*
X158078020Y-58433181D01*
X158274411Y-58281119D01*
X158417407Y-58078032D01*
X158472736Y-57908249D01*
X158499232Y-57923950D01*
X158740697Y-57982143D01*
X158988599Y-57966764D01*
X159221020Y-57879171D01*
X159417411Y-57727109D01*
X159560407Y-57524022D01*
X159637522Y-57287386D01*
X159639795Y-57027016D01*
X159566821Y-56789069D01*
X159427390Y-56583519D01*
X159233684Y-56428053D01*
X159002827Y-56336417D01*
X158755231Y-56316712D01*
X158512787Y-56370684D01*
X158296930Y-56493556D01*
X158126745Y-56674469D01*
X158017279Y-56897424D01*
X158008964Y-56949625D01*
X157859827Y-56890427D01*
X157612231Y-56870722D01*
X157369787Y-56924694D01*
X157153930Y-57047566D01*
X156983745Y-57228479D01*
X156874279Y-57451434D01*
X156835210Y-57696720D01*
X155008800Y-57696720D01*
X155008800Y-57496680D01*
X155169194Y-57336287D01*
X155242099Y-57331764D01*
X155474520Y-57244171D01*
X155670911Y-57092109D01*
X155756297Y-56970841D01*
X155872552Y-57098828D01*
X156086232Y-57225450D01*
X156327697Y-57283643D01*
X156575599Y-57268264D01*
X156808020Y-57180671D01*
X157004411Y-57028609D01*
X157147407Y-56825522D01*
X157224522Y-56588886D01*
X157226795Y-56328516D01*
X157153821Y-56090569D01*
X157014390Y-55885019D01*
X156820684Y-55729553D01*
X156589827Y-55637917D01*
X156342231Y-55618212D01*
X156099787Y-55672184D01*
X155883930Y-55795056D01*
X155713745Y-55975969D01*
X155707768Y-55988143D01*
X155680890Y-55948519D01*
X155487184Y-55793053D01*
X155256327Y-55701417D01*
X155008731Y-55681712D01*
X154766287Y-55735684D01*
X154550430Y-55858556D01*
X154380245Y-56039469D01*
X154270779Y-56262424D01*
X154247037Y-56411481D01*
X153943321Y-56715198D01*
X153910253Y-56736549D01*
X153866612Y-56791908D01*
X153855742Y-56802777D01*
X153833432Y-56833998D01*
X153772178Y-56911699D01*
X153768966Y-56924210D01*
X153761289Y-56934952D01*
X153699001Y-57143228D01*
X153702800Y-57239916D01*
X153702801Y-74349291D01*
X140440112Y-87611980D01*
X136846261Y-87611980D01*
X136739387Y-87505106D01*
X136740429Y-87405620D01*
X136673864Y-87167209D01*
X136545985Y-86956056D01*
X136366035Y-86787072D01*
X136147269Y-86672704D01*
X135905807Y-86621380D01*
X135659438Y-86636880D01*
X135426313Y-86718063D01*
X135223606Y-86858948D01*
X135066254Y-87049154D01*
X134965849Y-87274668D01*
X134929787Y-87518876D01*
X134960727Y-87763787D01*
X135056388Y-87991354D01*
X135057685Y-87992990D01*
X134712670Y-87992990D01*
X134173987Y-87454307D01*
X134175029Y-87354820D01*
X134108464Y-87116409D01*
X133980585Y-86905256D01*
X133800635Y-86736272D01*
X133581869Y-86621904D01*
X133340407Y-86570580D01*
X133094038Y-86586080D01*
X132860913Y-86667263D01*
X132658206Y-86808148D01*
X132500854Y-86998354D01*
X132400449Y-87223868D01*
X132364387Y-87468076D01*
X132395327Y-87712987D01*
X132490988Y-87940554D01*
X132644321Y-88134014D01*
X132844033Y-88279112D01*
X133075407Y-88365160D01*
X133180681Y-88374000D01*
X132579081Y-88374000D01*
X131659387Y-87454306D01*
X131660429Y-87354820D01*
X131593864Y-87116409D01*
X131465985Y-86905256D01*
X131286035Y-86736272D01*
X131067269Y-86621904D01*
X130825807Y-86570580D01*
X130579438Y-86586080D01*
X130346313Y-86667263D01*
X130143606Y-86808148D01*
X129986254Y-86998354D01*
X129885849Y-87223868D01*
X129849787Y-87468076D01*
X129101945Y-87468076D01*
X129117660Y-87416027D01*
X129120429Y-87151620D01*
X129053864Y-86913209D01*
X128925985Y-86702056D01*
X128746035Y-86533072D01*
X128527269Y-86418704D01*
X128285807Y-86367380D01*
X128039438Y-86382880D01*
X127913001Y-86426910D01*
X127913001Y-83237189D01*
X131175115Y-79975076D01*
X133354987Y-79975076D01*
X133385927Y-80219987D01*
X133481588Y-80447554D01*
X133634921Y-80641014D01*
X133834633Y-80786112D01*
X134066007Y-80872160D01*
X134311998Y-80892816D01*
X134554481Y-80846560D01*
X134775594Y-80736799D01*
X134959044Y-80571620D01*
X135091317Y-80363192D01*
X135162860Y-80126227D01*
X135165629Y-79861820D01*
X135099064Y-79623409D01*
X134971185Y-79412256D01*
X134791235Y-79243272D01*
X134572469Y-79128904D01*
X134331007Y-79077580D01*
X134084638Y-79093080D01*
X133851513Y-79174263D01*
X133648806Y-79315148D01*
X133491454Y-79505354D01*
X133391049Y-79730868D01*
X133354987Y-79975076D01*
X131175115Y-79975076D01*
X131812820Y-79337372D01*
X131817495Y-79331212D01*
X131822138Y-79327035D01*
X131829630Y-79315225D01*
X131925113Y-79189433D01*
X131951087Y-79123830D01*
X131954416Y-79118580D01*
X131958445Y-79105245D01*
X132016592Y-78958382D01*
X132023962Y-78888256D01*
X132025965Y-78881630D01*
X132026105Y-78867865D01*
X132042567Y-78711243D01*
X132028608Y-78628709D01*
X132028728Y-78617213D01*
X132023492Y-78598463D01*
X132001125Y-78466223D01*
X131965335Y-78390166D01*
X131962165Y-78378809D01*
X131952417Y-78362716D01*
X131895318Y-78241373D01*
X131840395Y-78177746D01*
X131834286Y-78167656D01*
X131820574Y-78154781D01*
X131732944Y-78053261D01*
X131662929Y-78006743D01*
X131654337Y-77998674D01*
X131637667Y-77989958D01*
X131525962Y-77915741D01*
X131446024Y-77889769D01*
X131435570Y-77884303D01*
X131417163Y-77880391D01*
X131289624Y-77838951D01*
X131205647Y-77835432D01*
X131194112Y-77832979D01*
X131175331Y-77834161D01*
X131041342Y-77828545D01*
X130959501Y-77847740D01*
X130947731Y-77848481D01*
X130929974Y-77854667D01*
X130794803Y-77886370D01*
X130743775Y-77919508D01*
X130714613Y-77929663D01*
X130511906Y-78070548D01*
X130500627Y-78084182D01*
X126378904Y-82205906D01*
X126300581Y-82277927D01*
X126257647Y-82347174D01*
X126208389Y-82412067D01*
X126192450Y-82452326D01*
X126167140Y-82493145D01*
X126156537Y-82543032D01*
X126116911Y-82643117D01*
X126090934Y-82890255D01*
X114126000Y-82890255D01*
X114126000Y-81270476D01*
X122737787Y-81270476D01*
X122768727Y-81515387D01*
X122864388Y-81742954D01*
X123017721Y-81936414D01*
X123217433Y-82081512D01*
X123448807Y-82167560D01*
X123694798Y-82188216D01*
X123937281Y-82141960D01*
X124158394Y-82032199D01*
X124341844Y-81867020D01*
X124474117Y-81658592D01*
X124545660Y-81421627D01*
X124548429Y-81157220D01*
X124481864Y-80918809D01*
X124353985Y-80707656D01*
X124174035Y-80538672D01*
X123955269Y-80424304D01*
X123713807Y-80372980D01*
X123467438Y-80388480D01*
X123234313Y-80469663D01*
X123031606Y-80610548D01*
X122874254Y-80800754D01*
X122773849Y-81026268D01*
X122737787Y-81270476D01*
X114126000Y-81270476D01*
X114126000Y-71146563D01*
X116869515Y-71146563D01*
X116882149Y-71419521D01*
X116935924Y-71687426D01*
X117029605Y-71944115D01*
X117161035Y-72183682D01*
X117327191Y-72400611D01*
X117524247Y-72589911D01*
X117747668Y-72747226D01*
X117992316Y-72868936D01*
X118252557Y-72952240D01*
X118254053Y-72952478D01*
X118092487Y-72993811D01*
X117841052Y-73100798D01*
X117608694Y-73244585D01*
X117400758Y-73421866D01*
X117222030Y-73628559D01*
X117076624Y-73859907D01*
X116967884Y-74110589D01*
X116898314Y-74374835D01*
X116869515Y-74646563D01*
X116882149Y-74919521D01*
X116935924Y-75187426D01*
X117029605Y-75444115D01*
X117161035Y-75683682D01*
X117327191Y-75900611D01*
X117524247Y-76089911D01*
X117747668Y-76247226D01*
X117992316Y-76368936D01*
X118252557Y-76452240D01*
X118254053Y-76452478D01*
X118092487Y-76493811D01*
X117841052Y-76600798D01*
X117608694Y-76744585D01*
X117400758Y-76921866D01*
X117222030Y-77128559D01*
X117076624Y-77359907D01*
X116967884Y-77610589D01*
X116898314Y-77874835D01*
X116869515Y-78146563D01*
X116882149Y-78419521D01*
X116935924Y-78687426D01*
X117029605Y-78944115D01*
X117161035Y-79183682D01*
X117327191Y-79400611D01*
X117524247Y-79589911D01*
X117747668Y-79747226D01*
X117992316Y-79868936D01*
X118252557Y-79952240D01*
X118522406Y-79995221D01*
X118795651Y-79996890D01*
X119066004Y-79957208D01*
X119327244Y-79877090D01*
X119573360Y-79758378D01*
X119798687Y-79603804D01*
X119998041Y-79416925D01*
X120166834Y-79202043D01*
X120301181Y-78964101D01*
X120397991Y-78708576D01*
X120455418Y-78439559D01*
X120466482Y-78066748D01*
X120425111Y-77794800D01*
X120343626Y-77533983D01*
X120223627Y-77288493D01*
X120067875Y-77063977D01*
X119879955Y-76865605D01*
X119762942Y-76774676D01*
X137444387Y-76774676D01*
X137475327Y-77019587D01*
X137570988Y-77247154D01*
X137724321Y-77440614D01*
X137924033Y-77585712D01*
X138155407Y-77671760D01*
X138401398Y-77692416D01*
X138643881Y-77646160D01*
X138864994Y-77536399D01*
X139048444Y-77371220D01*
X139180717Y-77162792D01*
X139252260Y-76925827D01*
X139254640Y-76698476D01*
X146461387Y-76698476D01*
X146492327Y-76943387D01*
X146587988Y-77170954D01*
X146741321Y-77364414D01*
X146941033Y-77509512D01*
X147172407Y-77595560D01*
X147418398Y-77616216D01*
X147522034Y-77596446D01*
X147544024Y-77820710D01*
X147611668Y-78039231D01*
X147721870Y-78239688D01*
X147870128Y-78413892D01*
X148050388Y-78554726D01*
X148255284Y-78656437D01*
X148476447Y-78714871D01*
X148704842Y-78727640D01*
X148931140Y-78694224D01*
X149146097Y-78615986D01*
X149340931Y-78496122D01*
X149507685Y-78339531D01*
X149639545Y-78152607D01*
X149731126Y-77942988D01*
X149778732Y-77719016D01*
X149779556Y-77482842D01*
X149733514Y-77258544D01*
X149643399Y-77048290D01*
X149512848Y-76860451D01*
X149347192Y-76702698D01*
X149153199Y-76581478D01*
X148938793Y-76501741D01*
X148712734Y-76466746D01*
X148484256Y-76477921D01*
X148262690Y-76534808D01*
X148258521Y-76536841D01*
X148205464Y-76346809D01*
X148077585Y-76135656D01*
X147897635Y-75966672D01*
X147678869Y-75852304D01*
X147437407Y-75800980D01*
X147191038Y-75816480D01*
X146957913Y-75897663D01*
X146755206Y-76038548D01*
X146597854Y-76228754D01*
X146497449Y-76454268D01*
X146461387Y-76698476D01*
X139254640Y-76698476D01*
X139255029Y-76661420D01*
X139188464Y-76423009D01*
X139060585Y-76211856D01*
X138880635Y-76042872D01*
X138661869Y-75928504D01*
X138420407Y-75877180D01*
X138174038Y-75892680D01*
X137940913Y-75973863D01*
X137738206Y-76114748D01*
X137580854Y-76304954D01*
X137480449Y-76530468D01*
X137444387Y-76774676D01*
X119762942Y-76774676D01*
X119664192Y-76697940D01*
X119425550Y-76564841D01*
X119169521Y-76469370D01*
X119084209Y-76451625D01*
X119327244Y-76377090D01*
X119573360Y-76258378D01*
X119798687Y-76103804D01*
X119998041Y-75916925D01*
X120166834Y-75702043D01*
X120301181Y-75464101D01*
X120397991Y-75208576D01*
X120455418Y-74939559D01*
X120462810Y-74690476D01*
X122990587Y-74690476D01*
X123021527Y-74935387D01*
X123117188Y-75162954D01*
X123270521Y-75356414D01*
X123470233Y-75501512D01*
X123701607Y-75587560D01*
X123947598Y-75608216D01*
X124190081Y-75561960D01*
X124411194Y-75452199D01*
X124594644Y-75287020D01*
X124726917Y-75078592D01*
X124798460Y-74841627D01*
X124801229Y-74577220D01*
X124734664Y-74338809D01*
X124606785Y-74127656D01*
X124426835Y-73958672D01*
X124208069Y-73844304D01*
X123966607Y-73792980D01*
X123720238Y-73808480D01*
X123487113Y-73889663D01*
X123284406Y-74030548D01*
X123127054Y-74220754D01*
X123026649Y-74446268D01*
X122990587Y-74690476D01*
X120462810Y-74690476D01*
X120466482Y-74566748D01*
X120425111Y-74294800D01*
X120343626Y-74033983D01*
X120223627Y-73788493D01*
X120067875Y-73563977D01*
X119879955Y-73365605D01*
X119664192Y-73197940D01*
X119425550Y-73064841D01*
X119169521Y-72969370D01*
X119084209Y-72951625D01*
X119327244Y-72877090D01*
X119573360Y-72758378D01*
X119798687Y-72603804D01*
X119866242Y-72540476D01*
X127390587Y-72540476D01*
X127421527Y-72785387D01*
X127517188Y-73012954D01*
X127670521Y-73206414D01*
X127870233Y-73351512D01*
X128101607Y-73437560D01*
X128347598Y-73458216D01*
X128590081Y-73411960D01*
X128811194Y-73302199D01*
X128994644Y-73137020D01*
X129126917Y-72928592D01*
X129198460Y-72691627D01*
X129201229Y-72427220D01*
X129134664Y-72188809D01*
X129006785Y-71977656D01*
X128826835Y-71808672D01*
X128608069Y-71694304D01*
X128366607Y-71642980D01*
X128120238Y-71658480D01*
X127887113Y-71739663D01*
X127684406Y-71880548D01*
X127527054Y-72070754D01*
X127426649Y-72296268D01*
X127390587Y-72540476D01*
X119866242Y-72540476D01*
X119998041Y-72416925D01*
X120166834Y-72202043D01*
X120301181Y-71964101D01*
X120397991Y-71708576D01*
X120455418Y-71439559D01*
X120466482Y-71066748D01*
X120425111Y-70794800D01*
X120385562Y-70668210D01*
X138801210Y-70668210D01*
X138835992Y-70914142D01*
X138920978Y-71095155D01*
X138891515Y-71155164D01*
X138852446Y-71400449D01*
X138887228Y-71646381D01*
X138992787Y-71871213D01*
X139159788Y-72055067D01*
X139373468Y-72181689D01*
X139614933Y-72239882D01*
X139862835Y-72224503D01*
X140095256Y-72136910D01*
X140291647Y-71984848D01*
X140434643Y-71781761D01*
X140511758Y-71545125D01*
X140513021Y-71400449D01*
X140608971Y-71400449D01*
X140643753Y-71646381D01*
X140749312Y-71871213D01*
X140916313Y-72055067D01*
X141129993Y-72181689D01*
X141371458Y-72239882D01*
X141619360Y-72224503D01*
X141851781Y-72136910D01*
X142048172Y-71984848D01*
X142191168Y-71781761D01*
X142268283Y-71545125D01*
X142268890Y-71475572D01*
X142457020Y-71404671D01*
X142653411Y-71252609D01*
X142674815Y-71222210D01*
X150294710Y-71222210D01*
X150329492Y-71468142D01*
X150435051Y-71692974D01*
X150602052Y-71876828D01*
X150815732Y-72003450D01*
X151057197Y-72061643D01*
X151305099Y-72046264D01*
X151537520Y-71958671D01*
X151733911Y-71806609D01*
X151876907Y-71603522D01*
X151954022Y-71366886D01*
X151954310Y-71333943D01*
X152149232Y-71449450D01*
X152390697Y-71507643D01*
X152638599Y-71492264D01*
X152871020Y-71404671D01*
X153067411Y-71252609D01*
X153210407Y-71049522D01*
X153287522Y-70812886D01*
X153289795Y-70552516D01*
X153216821Y-70314569D01*
X153077390Y-70109019D01*
X152883684Y-69953553D01*
X152652827Y-69861917D01*
X152405231Y-69842212D01*
X152162787Y-69896184D01*
X151946930Y-70019056D01*
X151776745Y-70199969D01*
X151667279Y-70422924D01*
X151642055Y-70581287D01*
X151550184Y-70507553D01*
X151319327Y-70415917D01*
X151071731Y-70396212D01*
X150829287Y-70450184D01*
X150613430Y-70573056D01*
X150443245Y-70753969D01*
X150333779Y-70976924D01*
X150294710Y-71222210D01*
X142674815Y-71222210D01*
X142796407Y-71049522D01*
X142873522Y-70812886D01*
X142875795Y-70552516D01*
X142802821Y-70314569D01*
X142663390Y-70109019D01*
X142469684Y-69953553D01*
X142238827Y-69861917D01*
X141991231Y-69842212D01*
X141748787Y-69896184D01*
X141532930Y-70019056D01*
X141362745Y-70199969D01*
X141253279Y-70422924D01*
X141223378Y-70610652D01*
X141143547Y-70628423D01*
X140927691Y-70751295D01*
X140757506Y-70932208D01*
X140648040Y-71155163D01*
X140608971Y-71400449D01*
X140513021Y-71400449D01*
X140514031Y-71284755D01*
X140441057Y-71046808D01*
X140402713Y-70990280D01*
X140460522Y-70812886D01*
X140462795Y-70552516D01*
X140389821Y-70314569D01*
X140250390Y-70109019D01*
X140056684Y-69953553D01*
X139825827Y-69861917D01*
X139578231Y-69842212D01*
X139335787Y-69896184D01*
X139119930Y-70019056D01*
X138949745Y-70199969D01*
X138840279Y-70422924D01*
X138801210Y-70668210D01*
X120385562Y-70668210D01*
X120343626Y-70533983D01*
X120223627Y-70288493D01*
X120067875Y-70063977D01*
X119879955Y-69865605D01*
X119664192Y-69697940D01*
X119425550Y-69564841D01*
X119169521Y-69469370D01*
X118901997Y-69413724D01*
X118629134Y-69399186D01*
X118357211Y-69426088D01*
X118092487Y-69493811D01*
X117841052Y-69600798D01*
X117608694Y-69744585D01*
X117400758Y-69921866D01*
X117222030Y-70128559D01*
X117076624Y-70359907D01*
X116967884Y-70610589D01*
X116898314Y-70874835D01*
X116869515Y-71146563D01*
X114126000Y-71146563D01*
X114126000Y-69129276D01*
X133939187Y-69129276D01*
X133970127Y-69374187D01*
X134065788Y-69601754D01*
X134219121Y-69795214D01*
X134418833Y-69940312D01*
X134650207Y-70026360D01*
X134896198Y-70047016D01*
X135138681Y-70000760D01*
X135359794Y-69890999D01*
X135543244Y-69725820D01*
X135675517Y-69517392D01*
X135747060Y-69280427D01*
X135749829Y-69016020D01*
X135683264Y-68777609D01*
X135555385Y-68566456D01*
X135375435Y-68397472D01*
X135156669Y-68283104D01*
X134915207Y-68231780D01*
X134668838Y-68247280D01*
X134435713Y-68328463D01*
X134233006Y-68469348D01*
X134075654Y-68659554D01*
X133975249Y-68885068D01*
X133939187Y-69129276D01*
X114126000Y-69129276D01*
X114126000Y-66641399D01*
X114132557Y-66600000D01*
X114106492Y-66435431D01*
X114030848Y-66286971D01*
X113913029Y-66169152D01*
X113764569Y-66093508D01*
X113651191Y-66075551D01*
X113600000Y-66067443D01*
X113558601Y-66074000D01*
X102126000Y-66074000D01*
X102126000Y-65040476D01*
X102140587Y-65040476D01*
X102171527Y-65285387D01*
X102267188Y-65512954D01*
X102420521Y-65706414D01*
X102620233Y-65851512D01*
X102851607Y-65937560D01*
X103097598Y-65958216D01*
X103340081Y-65911960D01*
X103561194Y-65802199D01*
X103744644Y-65637020D01*
X103876917Y-65428592D01*
X103917589Y-65293876D01*
X121137587Y-65293876D01*
X121168527Y-65538787D01*
X121264188Y-65766354D01*
X121417521Y-65959814D01*
X121617233Y-66104912D01*
X121848607Y-66190960D01*
X122094598Y-66211616D01*
X122337081Y-66165360D01*
X122558194Y-66055599D01*
X122741644Y-65890420D01*
X122873917Y-65681992D01*
X122945460Y-65445027D01*
X122948229Y-65180620D01*
X122881664Y-64942209D01*
X122753785Y-64731056D01*
X122573835Y-64562072D01*
X122355069Y-64447704D01*
X122113607Y-64396380D01*
X121867238Y-64411880D01*
X121634113Y-64493063D01*
X121431406Y-64633948D01*
X121274054Y-64824154D01*
X121173649Y-65049668D01*
X121137587Y-65293876D01*
X103917589Y-65293876D01*
X103948460Y-65191627D01*
X103951229Y-64927220D01*
X103884664Y-64688809D01*
X103756785Y-64477656D01*
X103587915Y-64319076D01*
X122950587Y-64319076D01*
X122981527Y-64563987D01*
X123077188Y-64791554D01*
X123230521Y-64985014D01*
X123430233Y-65130112D01*
X123661607Y-65216160D01*
X123907598Y-65236816D01*
X124150081Y-65190560D01*
X124371194Y-65080799D01*
X124423387Y-65033804D01*
X130745415Y-65033804D01*
X130776355Y-65278715D01*
X130872016Y-65506282D01*
X131025349Y-65699742D01*
X131225061Y-65844840D01*
X131456435Y-65930888D01*
X131702426Y-65951544D01*
X131944909Y-65905288D01*
X131963667Y-65895976D01*
X132885087Y-65895976D01*
X132916027Y-66140887D01*
X133011688Y-66368454D01*
X133165021Y-66561914D01*
X133364733Y-66707012D01*
X133596107Y-66793060D01*
X133842098Y-66813716D01*
X134084581Y-66767460D01*
X134305694Y-66657699D01*
X134489144Y-66492520D01*
X134621417Y-66284092D01*
X134692960Y-66047127D01*
X134695729Y-65782720D01*
X134629164Y-65544309D01*
X134501285Y-65333156D01*
X134321335Y-65164172D01*
X134102569Y-65049804D01*
X133861107Y-64998480D01*
X133614738Y-65013980D01*
X133381613Y-65095163D01*
X133178906Y-65236048D01*
X133021554Y-65426254D01*
X132921149Y-65651768D01*
X132885087Y-65895976D01*
X131963667Y-65895976D01*
X132166022Y-65795527D01*
X132349472Y-65630348D01*
X132481745Y-65421920D01*
X132553288Y-65184955D01*
X132555738Y-64950976D01*
X135044087Y-64950976D01*
X135075027Y-65195887D01*
X135170688Y-65423454D01*
X135324021Y-65616914D01*
X135523733Y-65762012D01*
X135755107Y-65848060D01*
X136001098Y-65868716D01*
X136243581Y-65822460D01*
X136464694Y-65712699D01*
X136467894Y-65709818D01*
X136539733Y-65762012D01*
X136771107Y-65848060D01*
X137017098Y-65868716D01*
X137259581Y-65822460D01*
X137480694Y-65712699D01*
X137664144Y-65547520D01*
X137796417Y-65339092D01*
X137867960Y-65102127D01*
X137870729Y-64837720D01*
X137804164Y-64599309D01*
X137676285Y-64388156D01*
X137496335Y-64219172D01*
X137277569Y-64104804D01*
X137036107Y-64053480D01*
X136789738Y-64068980D01*
X136556613Y-64150163D01*
X136467201Y-64212306D01*
X136261569Y-64104804D01*
X136020107Y-64053480D01*
X135773738Y-64068980D01*
X135540613Y-64150163D01*
X135337906Y-64291048D01*
X135180554Y-64481254D01*
X135080149Y-64706768D01*
X135044087Y-64950976D01*
X132555738Y-64950976D01*
X132556057Y-64920548D01*
X132489492Y-64682137D01*
X132361613Y-64470984D01*
X132181663Y-64302000D01*
X131962897Y-64187632D01*
X131721435Y-64136308D01*
X131475066Y-64151808D01*
X131241941Y-64232991D01*
X131039234Y-64373876D01*
X130881882Y-64564082D01*
X130781477Y-64789596D01*
X130745415Y-65033804D01*
X124423387Y-65033804D01*
X124554644Y-64915620D01*
X124686917Y-64707192D01*
X124758460Y-64470227D01*
X124761229Y-64205820D01*
X124694664Y-63967409D01*
X124566785Y-63756256D01*
X124386835Y-63587272D01*
X124168069Y-63472904D01*
X123926607Y-63421580D01*
X123680238Y-63437080D01*
X123447113Y-63518263D01*
X123244406Y-63659148D01*
X123087054Y-63849354D01*
X122986649Y-64074868D01*
X122950587Y-64319076D01*
X103587915Y-64319076D01*
X103576835Y-64308672D01*
X103358069Y-64194304D01*
X103116607Y-64142980D01*
X102870238Y-64158480D01*
X102637113Y-64239663D01*
X102434406Y-64380548D01*
X102277054Y-64570754D01*
X102176649Y-64796268D01*
X102140587Y-65040476D01*
X102126000Y-65040476D01*
X102126000Y-63045976D01*
X116819587Y-63045976D01*
X116850527Y-63290887D01*
X116946188Y-63518454D01*
X117099521Y-63711914D01*
X117299233Y-63857012D01*
X117530607Y-63943060D01*
X117776598Y-63963716D01*
X118019081Y-63917460D01*
X118240194Y-63807699D01*
X118423644Y-63642520D01*
X118555917Y-63434092D01*
X118597284Y-63297076D01*
X138450587Y-63297076D01*
X138481527Y-63541987D01*
X138577188Y-63769554D01*
X138730521Y-63963014D01*
X138930233Y-64108112D01*
X139161607Y-64194160D01*
X139407598Y-64214816D01*
X139650081Y-64168560D01*
X139871194Y-64058799D01*
X140054644Y-63893620D01*
X140186917Y-63685192D01*
X140258460Y-63448227D01*
X140261229Y-63183820D01*
X140194664Y-62945409D01*
X140066785Y-62734256D01*
X139886835Y-62565272D01*
X139713159Y-62474476D01*
X146588387Y-62474476D01*
X146619327Y-62719387D01*
X146714988Y-62946954D01*
X146868321Y-63140414D01*
X147068033Y-63285512D01*
X147299407Y-63371560D01*
X147545398Y-63392216D01*
X147667370Y-63368949D01*
X147671024Y-63406210D01*
X147738668Y-63624731D01*
X147848870Y-63825188D01*
X147997128Y-63999392D01*
X148177388Y-64140226D01*
X148382284Y-64241937D01*
X148603447Y-64300371D01*
X148831842Y-64313140D01*
X149058140Y-64279724D01*
X149273097Y-64201486D01*
X149467931Y-64081622D01*
X149634685Y-63925031D01*
X149766545Y-63738107D01*
X149858126Y-63528488D01*
X149905732Y-63304516D01*
X149906556Y-63068342D01*
X149860514Y-62844044D01*
X149770399Y-62633790D01*
X149639848Y-62445951D01*
X149474192Y-62288198D01*
X149280199Y-62166978D01*
X149065793Y-62087241D01*
X148839734Y-62052246D01*
X148611256Y-62063421D01*
X148389690Y-62120308D01*
X148338708Y-62145174D01*
X148332464Y-62122809D01*
X148204585Y-61911656D01*
X148024635Y-61742672D01*
X147805869Y-61628304D01*
X147564407Y-61576980D01*
X147318038Y-61592480D01*
X147084913Y-61673663D01*
X146882206Y-61814548D01*
X146724854Y-62004754D01*
X146624449Y-62230268D01*
X146588387Y-62474476D01*
X139713159Y-62474476D01*
X139668069Y-62450904D01*
X139426607Y-62399580D01*
X139180238Y-62415080D01*
X138947113Y-62496263D01*
X138744406Y-62637148D01*
X138587054Y-62827354D01*
X138486649Y-63052868D01*
X138450587Y-63297076D01*
X118597284Y-63297076D01*
X118627460Y-63197127D01*
X118630229Y-62932720D01*
X118563664Y-62694309D01*
X118435785Y-62483156D01*
X118255835Y-62314172D01*
X118037069Y-62199804D01*
X117795607Y-62148480D01*
X117549238Y-62163980D01*
X117316113Y-62245163D01*
X117113406Y-62386048D01*
X116956054Y-62576254D01*
X116855649Y-62801768D01*
X116819587Y-63045976D01*
X102126000Y-63045976D01*
X102126000Y-59430866D01*
X105444001Y-59430866D01*
X105444001Y-59689134D01*
X105488848Y-59943476D01*
X105577181Y-60186167D01*
X105706314Y-60409833D01*
X105872324Y-60607676D01*
X106070167Y-60773686D01*
X106293833Y-60902819D01*
X106536524Y-60991152D01*
X106790866Y-61035999D01*
X107049134Y-61035999D01*
X107303476Y-60991152D01*
X107546167Y-60902819D01*
X107769833Y-60773686D01*
X107967676Y-60607676D01*
X108133686Y-60409833D01*
X108262819Y-60186167D01*
X108351152Y-59943476D01*
X108395999Y-59689134D01*
X108395999Y-59430866D01*
X112444001Y-59430866D01*
X112444001Y-59689134D01*
X112488848Y-59943476D01*
X112577181Y-60186167D01*
X112706314Y-60409833D01*
X112872324Y-60607676D01*
X113070167Y-60773686D01*
X113293833Y-60902819D01*
X113536524Y-60991152D01*
X113790866Y-61035999D01*
X114049134Y-61035999D01*
X114303476Y-60991152D01*
X114546167Y-60902819D01*
X114769833Y-60773686D01*
X114967676Y-60607676D01*
X115133686Y-60409833D01*
X115237699Y-60229676D01*
X122950587Y-60229676D01*
X122981527Y-60474587D01*
X123077188Y-60702154D01*
X123230521Y-60895614D01*
X123430233Y-61040712D01*
X123661607Y-61126760D01*
X123907598Y-61147416D01*
X124150081Y-61101160D01*
X124371194Y-60991399D01*
X124554644Y-60826220D01*
X124686917Y-60617792D01*
X124758460Y-60380827D01*
X124761229Y-60116420D01*
X124694664Y-59878009D01*
X124641653Y-59790476D01*
X130540587Y-59790476D01*
X130571527Y-60035387D01*
X130667188Y-60262954D01*
X130820521Y-60456414D01*
X131020233Y-60601512D01*
X131251607Y-60687560D01*
X131497598Y-60708216D01*
X131740081Y-60661960D01*
X131961194Y-60552199D01*
X132144644Y-60387020D01*
X132226537Y-60257977D01*
X133617863Y-60257977D01*
X133648803Y-60502888D01*
X133744464Y-60730455D01*
X133897797Y-60923915D01*
X134097509Y-61069013D01*
X134328883Y-61155061D01*
X134454192Y-61165583D01*
X134535688Y-61359454D01*
X134689021Y-61552914D01*
X134888733Y-61698012D01*
X135120107Y-61784060D01*
X135366098Y-61804716D01*
X135608581Y-61758460D01*
X135829694Y-61648699D01*
X136013144Y-61483520D01*
X136145417Y-61275092D01*
X136216960Y-61038127D01*
X136218831Y-60859447D01*
X139406447Y-60859447D01*
X139441229Y-61105379D01*
X139546788Y-61330211D01*
X139713789Y-61514065D01*
X139927469Y-61640687D01*
X140168934Y-61698880D01*
X140416836Y-61683501D01*
X140649257Y-61595908D01*
X140845648Y-61443846D01*
X140988644Y-61240759D01*
X141065759Y-61004123D01*
X141068032Y-60743753D01*
X140995058Y-60505807D01*
X140972795Y-60472987D01*
X141081907Y-60318022D01*
X141159022Y-60081386D01*
X141161295Y-59821016D01*
X141088321Y-59583069D01*
X140948890Y-59377519D01*
X140755184Y-59222053D01*
X140524327Y-59130417D01*
X140276731Y-59110712D01*
X140034287Y-59164684D01*
X139818430Y-59287556D01*
X139648245Y-59468469D01*
X139538779Y-59691424D01*
X139499710Y-59936710D01*
X139534492Y-60182642D01*
X139606633Y-60336299D01*
X139554982Y-60391206D01*
X139445516Y-60614161D01*
X139406447Y-60859447D01*
X136218831Y-60859447D01*
X136219729Y-60773720D01*
X136153164Y-60535309D01*
X136025285Y-60324156D01*
X135845335Y-60155172D01*
X135626569Y-60040804D01*
X135385165Y-59989492D01*
X135361940Y-59906310D01*
X135234061Y-59695157D01*
X135054111Y-59526173D01*
X134835345Y-59411805D01*
X134593883Y-59360481D01*
X134347514Y-59375981D01*
X134114389Y-59457164D01*
X133911682Y-59598049D01*
X133754330Y-59788255D01*
X133653925Y-60013769D01*
X133617863Y-60257977D01*
X132226537Y-60257977D01*
X132276917Y-60178592D01*
X132348460Y-59941627D01*
X132351229Y-59677220D01*
X132284664Y-59438809D01*
X132156785Y-59227656D01*
X131976835Y-59058672D01*
X131758069Y-58944304D01*
X131516607Y-58892980D01*
X131270238Y-58908480D01*
X131037113Y-58989663D01*
X130834406Y-59130548D01*
X130677054Y-59320754D01*
X130576649Y-59546268D01*
X130540587Y-59790476D01*
X124641653Y-59790476D01*
X124566785Y-59666856D01*
X124386835Y-59497872D01*
X124168069Y-59383504D01*
X123926607Y-59332180D01*
X123680238Y-59347680D01*
X123447113Y-59428863D01*
X123244406Y-59569748D01*
X123087054Y-59759954D01*
X122986649Y-59985468D01*
X122950587Y-60229676D01*
X115237699Y-60229676D01*
X115262819Y-60186167D01*
X115351152Y-59943476D01*
X115395999Y-59689134D01*
X115395999Y-59430866D01*
X115351152Y-59176524D01*
X115262819Y-58933833D01*
X115133686Y-58710167D01*
X114967676Y-58512324D01*
X114769833Y-58346314D01*
X114546167Y-58217181D01*
X114303476Y-58128848D01*
X114049134Y-58084001D01*
X113790866Y-58084001D01*
X113536524Y-58128848D01*
X113293833Y-58217181D01*
X113070167Y-58346314D01*
X112872324Y-58512324D01*
X112706314Y-58710167D01*
X112577181Y-58933833D01*
X112488848Y-59176524D01*
X112444001Y-59430866D01*
X108395999Y-59430866D01*
X108351152Y-59176524D01*
X108262819Y-58933833D01*
X108133686Y-58710167D01*
X107967676Y-58512324D01*
X107769833Y-58346314D01*
X107546167Y-58217181D01*
X107303476Y-58128848D01*
X107049134Y-58084001D01*
X106790866Y-58084001D01*
X106536524Y-58128848D01*
X106293833Y-58217181D01*
X106070167Y-58346314D01*
X105872324Y-58512324D01*
X105706314Y-58710167D01*
X105577181Y-58933833D01*
X105488848Y-59176524D01*
X105444001Y-59430866D01*
X102126000Y-59430866D01*
X102126000Y-56889963D01*
X127536000Y-56889963D01*
X127536000Y-57105637D01*
X127580842Y-57316598D01*
X127668564Y-57513625D01*
X127795334Y-57688109D01*
X127955611Y-57832424D01*
X128142390Y-57940260D01*
X128347508Y-58006907D01*
X128562000Y-58029451D01*
X128776492Y-58006907D01*
X128981610Y-57940260D01*
X129168389Y-57832424D01*
X129328666Y-57688109D01*
X129455436Y-57513625D01*
X129543158Y-57316598D01*
X129588000Y-57105637D01*
X129588000Y-56889963D01*
X135537000Y-56889963D01*
X135537000Y-57105637D01*
X135581842Y-57316598D01*
X135669564Y-57513625D01*
X135796334Y-57688109D01*
X135956611Y-57832424D01*
X136143390Y-57940260D01*
X136348508Y-58006907D01*
X136563000Y-58029451D01*
X136777492Y-58006907D01*
X136982610Y-57940260D01*
X137169389Y-57832424D01*
X137329666Y-57688109D01*
X137456436Y-57513625D01*
X137544158Y-57316598D01*
X137589000Y-57105637D01*
X137589000Y-56889963D01*
X137544158Y-56679002D01*
X137456436Y-56481975D01*
X137329666Y-56307491D01*
X137169389Y-56163176D01*
X136982610Y-56055340D01*
X136777492Y-55988693D01*
X136563000Y-55966149D01*
X136348508Y-55988693D01*
X136143390Y-56055340D01*
X135956611Y-56163176D01*
X135796334Y-56307491D01*
X135669564Y-56481975D01*
X135581842Y-56679002D01*
X135537000Y-56889963D01*
X129588000Y-56889963D01*
X129543158Y-56679002D01*
X129455436Y-56481975D01*
X129328666Y-56307491D01*
X129168389Y-56163176D01*
X128981610Y-56055340D01*
X128776492Y-55988693D01*
X128562000Y-55966149D01*
X128347508Y-55988693D01*
X128142390Y-56055340D01*
X127955611Y-56163176D01*
X127795334Y-56307491D01*
X127668564Y-56481975D01*
X127580842Y-56679002D01*
X127536000Y-56889963D01*
X102126000Y-56889963D01*
X102126000Y-55428210D01*
X142039710Y-55428210D01*
X142074492Y-55674142D01*
X142180051Y-55898974D01*
X142347052Y-56082828D01*
X142560732Y-56209450D01*
X142802197Y-56267643D01*
X143050099Y-56252264D01*
X143282520Y-56164671D01*
X143478911Y-56012609D01*
X143511381Y-55966494D01*
X143617052Y-56082828D01*
X143830732Y-56209450D01*
X144072197Y-56267643D01*
X144320099Y-56252264D01*
X144552520Y-56164671D01*
X144748911Y-56012609D01*
X144891907Y-55809522D01*
X144969022Y-55572886D01*
X144971295Y-55312516D01*
X144898321Y-55074569D01*
X144758890Y-54869019D01*
X144565184Y-54713553D01*
X144334327Y-54621917D01*
X144086731Y-54602212D01*
X143844287Y-54656184D01*
X143628430Y-54779056D01*
X143511896Y-54902935D01*
X143488890Y-54869019D01*
X143295184Y-54713553D01*
X143064327Y-54621917D01*
X142816731Y-54602212D01*
X142574287Y-54656184D01*
X142358430Y-54779056D01*
X142188245Y-54959969D01*
X142078779Y-55182924D01*
X142039710Y-55428210D01*
X102126000Y-55428210D01*
X102126000Y-53725976D01*
X104930587Y-53725976D01*
X104961527Y-53970887D01*
X105057188Y-54198454D01*
X105210521Y-54391914D01*
X105410233Y-54537012D01*
X105641607Y-54623060D01*
X105887598Y-54643716D01*
X106130081Y-54597460D01*
X106351194Y-54487699D01*
X106534644Y-54322520D01*
X106583918Y-54244876D01*
X110291787Y-54244876D01*
X110322727Y-54489787D01*
X110418388Y-54717354D01*
X110571721Y-54910814D01*
X110771433Y-55055912D01*
X111002807Y-55141960D01*
X111248798Y-55162616D01*
X111491281Y-55116360D01*
X111712394Y-55006599D01*
X111895844Y-54841420D01*
X112028117Y-54632992D01*
X112099660Y-54396027D01*
X112102429Y-54131620D01*
X112035864Y-53893209D01*
X111907985Y-53682056D01*
X111812409Y-53592304D01*
X115578075Y-53592304D01*
X115599959Y-53795396D01*
X115667977Y-53988008D01*
X115778481Y-54159806D01*
X115925543Y-54301574D01*
X116101275Y-54405709D01*
X116296250Y-54466624D01*
X116500008Y-54481051D01*
X116701621Y-54448216D01*
X116890272Y-54369881D01*
X117055843Y-54250248D01*
X117189451Y-54095734D01*
X117283929Y-53914628D01*
X117334335Y-53716158D01*
X117336229Y-53499118D01*
X117289295Y-53299800D01*
X117197992Y-53117072D01*
X117067100Y-52960250D01*
X116903643Y-52837746D01*
X116716388Y-52756130D01*
X116515378Y-52719782D01*
X116311400Y-52730650D01*
X116115391Y-52788153D01*
X115937869Y-52889205D01*
X115788355Y-53028385D01*
X115674869Y-53198229D01*
X115603500Y-53389623D01*
X115578075Y-53592304D01*
X111812409Y-53592304D01*
X111728035Y-53513072D01*
X111509269Y-53398704D01*
X111267807Y-53347380D01*
X111021438Y-53362880D01*
X110788313Y-53444063D01*
X110585606Y-53584948D01*
X110428254Y-53775154D01*
X110327849Y-54000668D01*
X110291787Y-54244876D01*
X106583918Y-54244876D01*
X106666917Y-54114092D01*
X106738460Y-53877127D01*
X106741229Y-53612720D01*
X106674664Y-53374309D01*
X106546785Y-53163156D01*
X106366835Y-52994172D01*
X106148069Y-52879804D01*
X105906607Y-52828480D01*
X105660238Y-52843980D01*
X105427113Y-52925163D01*
X105224406Y-53066048D01*
X105067054Y-53256254D01*
X104966649Y-53481768D01*
X104930587Y-53725976D01*
X102126000Y-53725976D01*
X102126000Y-51440476D01*
X123890587Y-51440476D01*
X123921527Y-51685387D01*
X124017188Y-51912954D01*
X124170521Y-52106414D01*
X124370233Y-52251512D01*
X124601607Y-52337560D01*
X124847598Y-52358216D01*
X125090081Y-52311960D01*
X125311194Y-52202199D01*
X125494644Y-52037020D01*
X125626917Y-51828592D01*
X125698460Y-51591627D01*
X125700136Y-51431573D01*
X127288252Y-51431573D01*
X127310419Y-51642469D01*
X127377354Y-51843685D01*
X127485937Y-52025834D01*
X127631100Y-52180417D01*
X127806071Y-52300223D01*
X128002688Y-52379661D01*
X128211776Y-52415025D01*
X128423580Y-52404666D01*
X128628219Y-52349067D01*
X128816144Y-52250822D01*
X128978591Y-52114514D01*
X129107976Y-51946502D01*
X129198266Y-51754628D01*
X129245297Y-51547623D01*
X129246059Y-51329188D01*
X129200474Y-51121861D01*
X129111527Y-50929359D01*
X129054308Y-50853976D01*
X131805587Y-50853976D01*
X131836527Y-51098887D01*
X131932188Y-51326454D01*
X132085521Y-51519914D01*
X132285233Y-51665012D01*
X132516607Y-51751060D01*
X132762598Y-51771716D01*
X133005081Y-51725460D01*
X133226194Y-51615699D01*
X133345965Y-51507857D01*
X133355521Y-51519914D01*
X133555233Y-51665012D01*
X133786607Y-51751060D01*
X134032598Y-51771716D01*
X134275081Y-51725460D01*
X134496194Y-51615699D01*
X134679644Y-51450520D01*
X134811917Y-51242092D01*
X134883460Y-51005127D01*
X134884377Y-50917476D01*
X136885587Y-50917476D01*
X136916527Y-51162387D01*
X137012188Y-51389954D01*
X137165521Y-51583414D01*
X137365233Y-51728512D01*
X137596607Y-51814560D01*
X137842598Y-51835216D01*
X138085081Y-51788960D01*
X138306194Y-51679199D01*
X138309394Y-51676318D01*
X138381233Y-51728512D01*
X138612607Y-51814560D01*
X138858598Y-51835216D01*
X139101081Y-51788960D01*
X139322194Y-51679199D01*
X139505644Y-51514020D01*
X139637917Y-51305592D01*
X139709460Y-51068627D01*
X139711684Y-50856210D01*
X144579710Y-50856210D01*
X144614492Y-51102142D01*
X144720051Y-51326974D01*
X144887052Y-51510828D01*
X145100732Y-51637450D01*
X145342197Y-51695643D01*
X145590099Y-51680264D01*
X145822520Y-51592671D01*
X145822906Y-51592372D01*
X145776649Y-51696268D01*
X145740587Y-51940476D01*
X145771527Y-52185387D01*
X145867188Y-52412954D01*
X146020521Y-52606414D01*
X146220233Y-52751512D01*
X146451607Y-52837560D01*
X146697598Y-52858216D01*
X146940081Y-52811960D01*
X147161194Y-52702199D01*
X147344644Y-52537020D01*
X147476917Y-52328592D01*
X147548460Y-52091627D01*
X147551229Y-51827220D01*
X147484664Y-51588809D01*
X147356785Y-51377656D01*
X147342610Y-51364344D01*
X147431907Y-51237522D01*
X147509022Y-51000886D01*
X147509176Y-50983210D01*
X147818210Y-50983210D01*
X147852992Y-51229142D01*
X147958551Y-51453974D01*
X148125552Y-51637828D01*
X148339232Y-51764450D01*
X148580697Y-51822643D01*
X148828599Y-51807264D01*
X149061020Y-51719671D01*
X149100751Y-51688908D01*
X149228232Y-51764450D01*
X149469697Y-51822643D01*
X149717599Y-51807264D01*
X149950020Y-51719671D01*
X150146411Y-51567609D01*
X150160454Y-51547664D01*
X150170419Y-51642469D01*
X150237354Y-51843685D01*
X150345937Y-52025834D01*
X150491100Y-52180417D01*
X150666071Y-52300223D01*
X150862688Y-52379661D01*
X151071776Y-52415025D01*
X151283580Y-52404666D01*
X151488219Y-52349067D01*
X151676144Y-52250822D01*
X151838591Y-52114514D01*
X151967976Y-51946502D01*
X152058266Y-51754628D01*
X152105297Y-51547623D01*
X152106059Y-51329188D01*
X152060474Y-51121861D01*
X151971527Y-50929359D01*
X151843317Y-50760450D01*
X151681827Y-50623011D01*
X151494592Y-50523455D01*
X151290346Y-50466430D01*
X151078619Y-50454592D01*
X150869289Y-50488496D01*
X150672124Y-50566560D01*
X150496320Y-50685140D01*
X150357553Y-50830860D01*
X150295821Y-50629569D01*
X150156390Y-50424019D01*
X149962684Y-50268553D01*
X149731827Y-50176917D01*
X149484231Y-50157212D01*
X149241787Y-50211184D01*
X149101619Y-50290972D01*
X149073684Y-50268552D01*
X148842827Y-50176917D01*
X148595231Y-50157212D01*
X148352787Y-50211184D01*
X148136930Y-50334056D01*
X147966745Y-50514969D01*
X147857279Y-50737924D01*
X147818210Y-50983210D01*
X147509176Y-50983210D01*
X147511295Y-50740516D01*
X147438321Y-50502569D01*
X147298890Y-50297019D01*
X147105184Y-50141553D01*
X146874327Y-50049917D01*
X146626731Y-50030212D01*
X146384287Y-50084184D01*
X146168430Y-50207056D01*
X146051896Y-50330935D01*
X146028890Y-50297019D01*
X145835184Y-50141553D01*
X145604327Y-50049917D01*
X145356731Y-50030212D01*
X145114287Y-50084184D01*
X144898430Y-50207056D01*
X144728245Y-50387969D01*
X144618779Y-50610924D01*
X144579710Y-50856210D01*
X139711684Y-50856210D01*
X139712229Y-50804220D01*
X139645664Y-50565809D01*
X139517785Y-50354656D01*
X139337835Y-50185672D01*
X139119069Y-50071304D01*
X138877607Y-50019980D01*
X138631238Y-50035480D01*
X138398113Y-50116663D01*
X138308701Y-50178806D01*
X138103069Y-50071304D01*
X137861607Y-50019980D01*
X137615238Y-50035480D01*
X137382113Y-50116663D01*
X137179406Y-50257548D01*
X137022054Y-50447754D01*
X136921649Y-50673268D01*
X136885587Y-50917476D01*
X134884377Y-50917476D01*
X134886229Y-50740720D01*
X134819664Y-50502309D01*
X134691785Y-50291156D01*
X134511835Y-50122172D01*
X134293069Y-50007804D01*
X134051607Y-49956480D01*
X133805238Y-49971980D01*
X133572113Y-50053163D01*
X133369406Y-50194048D01*
X133347095Y-50221018D01*
X133241835Y-50122172D01*
X133023069Y-50007804D01*
X132781607Y-49956480D01*
X132535238Y-49971980D01*
X132302113Y-50053163D01*
X132099406Y-50194048D01*
X131942054Y-50384254D01*
X131841649Y-50609768D01*
X131805587Y-50853976D01*
X129054308Y-50853976D01*
X128983317Y-50760450D01*
X128821827Y-50623011D01*
X128634592Y-50523455D01*
X128430346Y-50466430D01*
X128218619Y-50454592D01*
X128009289Y-50488496D01*
X127812124Y-50566560D01*
X127636320Y-50685140D01*
X127490081Y-50838706D01*
X127380229Y-51020093D01*
X127311890Y-51220837D01*
X127288252Y-51431573D01*
X125700136Y-51431573D01*
X125701229Y-51327220D01*
X125634664Y-51088809D01*
X125506785Y-50877656D01*
X125326835Y-50708672D01*
X125108069Y-50594304D01*
X124866607Y-50542980D01*
X124620238Y-50558480D01*
X124387113Y-50639663D01*
X124184406Y-50780548D01*
X124027054Y-50970754D01*
X123926649Y-51196268D01*
X123890587Y-51440476D01*
X102126000Y-51440476D01*
X102126000Y-48130866D01*
X105364001Y-48130866D01*
X105364001Y-48389134D01*
X105408848Y-48643476D01*
X105497181Y-48886167D01*
X105626314Y-49109833D01*
X105792324Y-49307676D01*
X105990167Y-49473686D01*
X106213833Y-49602819D01*
X106456524Y-49691152D01*
X106710866Y-49735999D01*
X106969134Y-49735999D01*
X107223476Y-49691152D01*
X107466167Y-49602819D01*
X107689833Y-49473686D01*
X107887676Y-49307676D01*
X108053686Y-49109833D01*
X108182819Y-48886167D01*
X108271152Y-48643476D01*
X108315999Y-48389134D01*
X108315999Y-48130866D01*
X112364001Y-48130866D01*
X112364001Y-48389134D01*
X112408848Y-48643476D01*
X112497181Y-48886167D01*
X112626314Y-49109833D01*
X112792324Y-49307676D01*
X112990167Y-49473686D01*
X113213833Y-49602819D01*
X113456524Y-49691152D01*
X113710866Y-49735999D01*
X113969134Y-49735999D01*
X114223476Y-49691152D01*
X114466167Y-49602819D01*
X114689833Y-49473686D01*
X114887676Y-49307676D01*
X115053686Y-49109833D01*
X115182819Y-48886167D01*
X115271152Y-48643476D01*
X115315999Y-48389134D01*
X115315999Y-48130866D01*
X115271152Y-47876524D01*
X115182819Y-47633833D01*
X115053686Y-47410167D01*
X114887676Y-47212324D01*
X114689833Y-47046314D01*
X114466167Y-46917181D01*
X114223476Y-46828848D01*
X113969134Y-46784001D01*
X113710866Y-46784001D01*
X113456524Y-46828848D01*
X113213833Y-46917181D01*
X112990167Y-47046314D01*
X112792324Y-47212324D01*
X112626314Y-47410167D01*
X112497181Y-47633833D01*
X112408848Y-47876524D01*
X112364001Y-48130866D01*
X108315999Y-48130866D01*
X108271152Y-47876524D01*
X108182819Y-47633833D01*
X108053686Y-47410167D01*
X107887676Y-47212324D01*
X107689833Y-47046314D01*
X107466167Y-46917181D01*
X107223476Y-46828848D01*
X106969134Y-46784001D01*
X106710866Y-46784001D01*
X106456524Y-46828848D01*
X106213833Y-46917181D01*
X105990167Y-47046314D01*
X105792324Y-47212324D01*
X105626314Y-47410167D01*
X105497181Y-47633833D01*
X105408848Y-47876524D01*
X105364001Y-48130866D01*
X102126000Y-48130866D01*
X102126000Y-45290476D01*
X116140587Y-45290476D01*
X116171527Y-45535387D01*
X116267188Y-45762954D01*
X116420521Y-45956414D01*
X116620233Y-46101512D01*
X116851607Y-46187560D01*
X117097598Y-46208216D01*
X117340081Y-46161960D01*
X117561194Y-46052199D01*
X117744644Y-45887020D01*
X117876917Y-45678592D01*
X117948460Y-45441627D01*
X117951229Y-45177220D01*
X117884664Y-44938809D01*
X117756785Y-44727656D01*
X117576835Y-44558672D01*
X117358069Y-44444304D01*
X117116607Y-44392980D01*
X116870238Y-44408480D01*
X116637113Y-44489663D01*
X116434406Y-44630548D01*
X116277054Y-44820754D01*
X116176649Y-45046268D01*
X116140587Y-45290476D01*
X102126000Y-45290476D01*
X102126000Y-42426000D01*
X116157934Y-42426000D01*
X116126649Y-42496268D01*
G37*
X116126649Y-42496268D02*
X116106420Y-42633260D01*
X115937869Y-42729205D01*
X115788355Y-42868385D01*
X115674869Y-43038229D01*
X115603500Y-43229623D01*
X115578075Y-43432304D01*
X115599959Y-43635396D01*
X115667977Y-43828008D01*
X115778481Y-43999806D01*
X115925543Y-44141574D01*
X116101275Y-44245709D01*
X116296250Y-44306624D01*
X116500008Y-44321051D01*
X116701621Y-44288216D01*
X116890272Y-44209881D01*
X117055843Y-44090248D01*
X117189451Y-43935734D01*
X117283929Y-43754628D01*
X117324502Y-43594873D01*
X117511194Y-43502199D01*
X117694644Y-43337020D01*
X117826917Y-43128592D01*
X117898460Y-42891627D01*
X117901229Y-42627220D01*
X117845048Y-42426000D01*
X124126787Y-42426000D01*
X124004554Y-42573754D01*
X123904149Y-42799268D01*
X123868087Y-43043476D01*
X123899027Y-43288387D01*
X123994688Y-43515954D01*
X124148021Y-43709414D01*
X124347733Y-43854512D01*
X124579107Y-43940560D01*
X124825098Y-43961216D01*
X125067581Y-43914960D01*
X125288694Y-43805199D01*
X125472144Y-43640020D01*
X125604417Y-43431592D01*
X125675960Y-43194627D01*
X125678729Y-42930220D01*
X125612164Y-42691809D01*
X125484285Y-42480656D01*
X125426082Y-42426000D01*
X126864875Y-42426000D01*
X126840587Y-42590476D01*
X126871527Y-42835387D01*
X126967188Y-43062954D01*
X127120521Y-43256414D01*
X127320233Y-43401512D01*
X127551607Y-43487560D01*
X127797598Y-43508216D01*
X128040081Y-43461960D01*
X128074001Y-43445122D01*
X128074000Y-45826435D01*
X127916607Y-45792980D01*
X127670238Y-45808480D01*
X127437113Y-45889663D01*
X127234406Y-46030548D01*
X127077054Y-46220754D01*
X126976649Y-46446268D01*
X126940587Y-46690476D01*
X126954012Y-46796740D01*
X126758069Y-46694304D01*
X126516607Y-46642980D01*
X126270238Y-46658480D01*
X126037113Y-46739663D01*
X125834406Y-46880548D01*
X125677054Y-47070754D01*
X125576649Y-47296268D01*
X125540587Y-47540476D01*
X125571527Y-47785387D01*
X125667188Y-48012954D01*
X125820521Y-48206414D01*
X126020233Y-48351512D01*
X126251607Y-48437560D01*
X126497598Y-48458216D01*
X126740081Y-48411960D01*
X126961194Y-48302199D01*
X127144644Y-48137020D01*
X127276917Y-47928592D01*
X127348460Y-47691627D01*
X127350978Y-47451196D01*
X127420233Y-47501512D01*
X127651607Y-47587560D01*
X127897598Y-47608216D01*
X128074000Y-47574566D01*
X128074000Y-48158601D01*
X128067443Y-48200000D01*
X128093508Y-48364569D01*
X128169152Y-48513029D01*
X128286971Y-48630848D01*
X128435431Y-48706492D01*
X128600000Y-48732557D01*
X128641399Y-48726000D01*
X166074001Y-48726000D01*
X166074000Y-101074000D01*
X102126000Y-101074000D01*
X102126000Y-97729676D01*
X109529787Y-97729676D01*
X109560727Y-97974587D01*
X109656388Y-98202154D01*
X109809721Y-98395614D01*
X110009433Y-98540712D01*
X110240807Y-98626760D01*
X110486798Y-98647416D01*
X110729281Y-98601160D01*
X110950394Y-98491399D01*
X111133844Y-98326220D01*
X111266117Y-98117792D01*
X111337660Y-97880827D01*
X111339242Y-97729676D01*
X112069787Y-97729676D01*
X112100727Y-97974587D01*
X112196388Y-98202154D01*
X112349721Y-98395614D01*
X112549433Y-98540712D01*
X112780807Y-98626760D01*
X113026798Y-98647416D01*
X113269281Y-98601160D01*
X113490394Y-98491399D01*
X113673844Y-98326220D01*
X113806117Y-98117792D01*
X113877660Y-97880827D01*
X113879242Y-97729676D01*
X114609787Y-97729676D01*
X114640727Y-97974587D01*
X114736388Y-98202154D01*
X114889721Y-98395614D01*
X115089433Y-98540712D01*
X115320807Y-98626760D01*
X115566798Y-98647416D01*
X115809281Y-98601160D01*
X116030394Y-98491399D01*
X116213844Y-98326220D01*
X116346117Y-98117792D01*
X116417660Y-97880827D01*
X116419242Y-97729676D01*
X119689787Y-97729676D01*
X119720727Y-97974587D01*
X119816388Y-98202154D01*
X119969721Y-98395614D01*
X120169433Y-98540712D01*
X120400807Y-98626760D01*
X120646798Y-98647416D01*
X120889281Y-98601160D01*
X121110394Y-98491399D01*
X121187943Y-98421573D01*
X134273252Y-98421573D01*
X134295419Y-98632469D01*
X134362354Y-98833685D01*
X134470937Y-99015834D01*
X134616100Y-99170417D01*
X134791071Y-99290223D01*
X134987688Y-99369661D01*
X135196776Y-99405025D01*
X135408580Y-99394666D01*
X135613219Y-99339067D01*
X135679385Y-99304476D01*
X139984387Y-99304476D01*
X140015327Y-99549387D01*
X140110988Y-99776954D01*
X140264321Y-99970414D01*
X140464033Y-100115512D01*
X140695407Y-100201560D01*
X140941398Y-100222216D01*
X141183881Y-100175960D01*
X141404994Y-100066199D01*
X141572001Y-99915825D01*
X141610521Y-99964425D01*
X141810233Y-100109523D01*
X142041607Y-100195571D01*
X142287598Y-100216227D01*
X142530081Y-100169971D01*
X142751194Y-100060210D01*
X142870965Y-99952368D01*
X142880521Y-99964425D01*
X143080233Y-100109523D01*
X143311607Y-100195571D01*
X143557598Y-100216227D01*
X143800081Y-100169971D01*
X144021194Y-100060210D01*
X144140965Y-99952368D01*
X144150521Y-99964425D01*
X144350233Y-100109523D01*
X144581607Y-100195571D01*
X144827598Y-100216227D01*
X145070081Y-100169971D01*
X145291194Y-100060210D01*
X145410965Y-99952368D01*
X145420521Y-99964425D01*
X145620233Y-100109523D01*
X145851607Y-100195571D01*
X146097598Y-100216227D01*
X146340081Y-100169971D01*
X146561194Y-100060210D01*
X146680965Y-99952368D01*
X146690521Y-99964425D01*
X146890233Y-100109523D01*
X147121607Y-100195571D01*
X147367598Y-100216227D01*
X147610081Y-100169971D01*
X147831194Y-100060210D01*
X148014644Y-99895031D01*
X148146917Y-99686603D01*
X148218460Y-99449638D01*
X148221229Y-99185231D01*
X148201335Y-99113976D01*
X154030587Y-99113976D01*
X154061527Y-99358887D01*
X154157188Y-99586454D01*
X154310521Y-99779914D01*
X154510233Y-99925012D01*
X154741607Y-100011060D01*
X154987598Y-100031716D01*
X155230081Y-99985460D01*
X155451194Y-99875699D01*
X155570965Y-99767857D01*
X155580521Y-99779914D01*
X155780233Y-99925012D01*
X156011607Y-100011060D01*
X156257598Y-100031716D01*
X156500081Y-99985460D01*
X156721194Y-99875699D01*
X156904644Y-99710520D01*
X157036917Y-99502092D01*
X157108460Y-99265127D01*
X157111229Y-99000720D01*
X157044664Y-98762309D01*
X156916785Y-98551156D01*
X156778793Y-98421573D01*
X157133252Y-98421573D01*
X157155419Y-98632469D01*
X157222354Y-98833685D01*
X157330937Y-99015834D01*
X157476100Y-99170417D01*
X157651071Y-99290223D01*
X157847688Y-99369661D01*
X158056776Y-99405025D01*
X158268580Y-99394666D01*
X158473219Y-99339067D01*
X158661144Y-99240822D01*
X158823591Y-99104514D01*
X158952976Y-98936502D01*
X159043266Y-98744628D01*
X159090297Y-98537623D01*
X159091059Y-98319188D01*
X159045474Y-98111861D01*
X158956527Y-97919359D01*
X158828317Y-97750450D01*
X158666827Y-97613011D01*
X158479592Y-97513455D01*
X158275346Y-97456430D01*
X158063619Y-97444592D01*
X157854289Y-97478496D01*
X157657124Y-97556560D01*
X157481320Y-97675140D01*
X157335081Y-97828706D01*
X157225229Y-98010093D01*
X157156890Y-98210837D01*
X157133252Y-98421573D01*
X156778793Y-98421573D01*
X156736835Y-98382172D01*
X156518069Y-98267804D01*
X156276607Y-98216480D01*
X156030238Y-98231980D01*
X155797113Y-98313163D01*
X155594406Y-98454048D01*
X155572095Y-98481018D01*
X155466835Y-98382172D01*
X155248069Y-98267804D01*
X155006607Y-98216480D01*
X154760238Y-98231980D01*
X154527113Y-98313163D01*
X154324406Y-98454048D01*
X154167054Y-98644254D01*
X154066649Y-98869768D01*
X154030587Y-99113976D01*
X148201335Y-99113976D01*
X148154664Y-98946820D01*
X148026785Y-98735667D01*
X147846835Y-98566683D01*
X147628069Y-98452315D01*
X147386607Y-98400991D01*
X147140238Y-98416491D01*
X146907113Y-98497674D01*
X146704406Y-98638559D01*
X146682095Y-98665529D01*
X146576835Y-98566683D01*
X146358069Y-98452315D01*
X146116607Y-98400991D01*
X145870238Y-98416491D01*
X145637113Y-98497674D01*
X145434406Y-98638559D01*
X145412095Y-98665529D01*
X145306835Y-98566683D01*
X145088069Y-98452315D01*
X144846607Y-98400991D01*
X144600238Y-98416491D01*
X144367113Y-98497674D01*
X144164406Y-98638559D01*
X144142095Y-98665529D01*
X144036835Y-98566683D01*
X143818069Y-98452315D01*
X143576607Y-98400991D01*
X143330238Y-98416491D01*
X143097113Y-98497674D01*
X142894406Y-98638559D01*
X142872095Y-98665529D01*
X142766835Y-98566683D01*
X142548069Y-98452315D01*
X142306607Y-98400991D01*
X142060238Y-98416491D01*
X141827113Y-98497674D01*
X141624406Y-98638559D01*
X141565991Y-98709170D01*
X141420635Y-98572672D01*
X141201869Y-98458304D01*
X140960407Y-98406980D01*
X140714038Y-98422480D01*
X140480913Y-98503663D01*
X140278206Y-98644548D01*
X140120854Y-98834754D01*
X140020449Y-99060268D01*
X139984387Y-99304476D01*
X135679385Y-99304476D01*
X135801144Y-99240822D01*
X135963591Y-99104514D01*
X136092976Y-98936502D01*
X136183266Y-98744628D01*
X136230297Y-98537623D01*
X136231059Y-98319188D01*
X136185474Y-98111861D01*
X136096527Y-97919359D01*
X135968317Y-97750450D01*
X135806827Y-97613011D01*
X135619592Y-97513455D01*
X135415346Y-97456430D01*
X135203619Y-97444592D01*
X134994289Y-97478496D01*
X134797124Y-97556560D01*
X134621320Y-97675140D01*
X134475081Y-97828706D01*
X134365229Y-98010093D01*
X134296890Y-98210837D01*
X134273252Y-98421573D01*
X121187943Y-98421573D01*
X121293844Y-98326220D01*
X121426117Y-98117792D01*
X121497660Y-97880827D01*
X121500429Y-97616420D01*
X121433864Y-97378009D01*
X121305985Y-97166856D01*
X121126035Y-96997872D01*
X120907269Y-96883504D01*
X120665807Y-96832180D01*
X120419438Y-96847680D01*
X120186313Y-96928863D01*
X119983606Y-97069748D01*
X119826254Y-97259954D01*
X119725849Y-97485468D01*
X119689787Y-97729676D01*
X116419242Y-97729676D01*
X116420429Y-97616420D01*
X116353864Y-97378009D01*
X116225985Y-97166856D01*
X116046035Y-96997872D01*
X115827269Y-96883504D01*
X115585807Y-96832180D01*
X115339438Y-96847680D01*
X115106313Y-96928863D01*
X114903606Y-97069748D01*
X114746254Y-97259954D01*
X114645849Y-97485468D01*
X114609787Y-97729676D01*
X113879242Y-97729676D01*
X113880429Y-97616420D01*
X113813864Y-97378009D01*
X113685985Y-97166856D01*
X113506035Y-96997872D01*
X113287269Y-96883504D01*
X113045807Y-96832180D01*
X112799438Y-96847680D01*
X112566313Y-96928863D01*
X112363606Y-97069748D01*
X112206254Y-97259954D01*
X112105849Y-97485468D01*
X112069787Y-97729676D01*
X111339242Y-97729676D01*
X111340429Y-97616420D01*
X111273864Y-97378009D01*
X111145985Y-97166856D01*
X110966035Y-96997872D01*
X110747269Y-96883504D01*
X110505807Y-96832180D01*
X110259438Y-96847680D01*
X110026313Y-96928863D01*
X109823606Y-97069748D01*
X109666254Y-97259954D01*
X109565849Y-97485468D01*
X109529787Y-97729676D01*
X102126000Y-97729676D01*
X102126000Y-96688276D01*
X103179787Y-96688276D01*
X103210727Y-96933187D01*
X103306388Y-97160754D01*
X103459721Y-97354214D01*
X103659433Y-97499312D01*
X103890807Y-97585360D01*
X104136798Y-97606016D01*
X104379281Y-97559760D01*
X104600394Y-97449999D01*
X104783844Y-97284820D01*
X104916117Y-97076392D01*
X104987660Y-96839427D01*
X104990429Y-96575020D01*
X104923864Y-96336609D01*
X104795985Y-96125456D01*
X104616035Y-95956472D01*
X104397269Y-95842104D01*
X104315277Y-95824676D01*
X128688087Y-95824676D01*
X128719027Y-96069587D01*
X128814688Y-96297154D01*
X128968021Y-96490614D01*
X129167733Y-96635712D01*
X129399107Y-96721760D01*
X129645098Y-96742416D01*
X129887581Y-96696160D01*
X130108694Y-96586399D01*
X130292144Y-96421220D01*
X130424417Y-96212792D01*
X130495960Y-95975827D01*
X130498729Y-95711420D01*
X130445250Y-95519876D01*
X131119787Y-95519876D01*
X131150727Y-95764787D01*
X131246388Y-95992354D01*
X131399721Y-96185814D01*
X131599433Y-96330912D01*
X131830807Y-96416960D01*
X132076798Y-96437616D01*
X132319281Y-96391360D01*
X132540394Y-96281599D01*
X132723844Y-96116420D01*
X132856117Y-95907992D01*
X132927660Y-95671027D01*
X132930429Y-95406620D01*
X132863864Y-95168209D01*
X132735985Y-94957056D01*
X132556035Y-94788072D01*
X132337269Y-94673704D01*
X132095807Y-94622380D01*
X131849438Y-94637880D01*
X131616313Y-94719063D01*
X131413606Y-94859948D01*
X131256254Y-95050154D01*
X131155849Y-95275668D01*
X131119787Y-95519876D01*
X130445250Y-95519876D01*
X130432164Y-95473009D01*
X130304285Y-95261856D01*
X130124335Y-95092872D01*
X129905569Y-94978504D01*
X129664107Y-94927180D01*
X129417738Y-94942680D01*
X129184613Y-95023863D01*
X128981906Y-95164748D01*
X128824554Y-95354954D01*
X128724149Y-95580468D01*
X128688087Y-95824676D01*
X104315277Y-95824676D01*
X104155807Y-95790780D01*
X103909438Y-95806280D01*
X103676313Y-95887463D01*
X103473606Y-96028348D01*
X103316254Y-96218554D01*
X103215849Y-96444068D01*
X103179787Y-96688276D01*
X102126000Y-96688276D01*
X102126000Y-94148276D01*
X103179787Y-94148276D01*
X103210727Y-94393187D01*
X103306388Y-94620754D01*
X103459721Y-94814214D01*
X103659433Y-94959312D01*
X103890807Y-95045360D01*
X104136798Y-95066016D01*
X104379281Y-95019760D01*
X104600394Y-94909999D01*
X104783844Y-94744820D01*
X104916117Y-94536392D01*
X104987660Y-94299427D01*
X104990429Y-94035020D01*
X104923864Y-93796609D01*
X104795985Y-93585456D01*
X104616035Y-93416472D01*
X104397269Y-93302104D01*
X104155807Y-93250780D01*
X103909438Y-93266280D01*
X103676313Y-93347463D01*
X103473606Y-93488348D01*
X103316254Y-93678554D01*
X103215849Y-93904068D01*
X103179787Y-94148276D01*
X102126000Y-94148276D01*
X102126000Y-92716049D01*
X110568201Y-92716049D01*
X110590524Y-92943710D01*
X110658168Y-93162231D01*
X110768370Y-93362688D01*
X110916628Y-93536892D01*
X111096888Y-93677726D01*
X111301784Y-93779437D01*
X111522947Y-93837871D01*
X111751342Y-93850640D01*
X111977640Y-93817224D01*
X112184656Y-93741876D01*
X117124387Y-93741876D01*
X117155327Y-93986787D01*
X117250988Y-94214354D01*
X117404321Y-94407814D01*
X117604033Y-94552912D01*
X117835407Y-94638960D01*
X118081398Y-94659616D01*
X118323881Y-94613360D01*
X118544994Y-94503599D01*
X118728444Y-94338420D01*
X118860717Y-94129992D01*
X118932260Y-93893027D01*
X118933842Y-93741876D01*
X122204387Y-93741876D01*
X122235327Y-93986787D01*
X122330988Y-94214354D01*
X122484321Y-94407814D01*
X122684033Y-94552912D01*
X122915407Y-94638960D01*
X123161398Y-94659616D01*
X123403881Y-94613360D01*
X123624994Y-94503599D01*
X123808444Y-94338420D01*
X123940717Y-94129992D01*
X124012260Y-93893027D01*
X124015029Y-93628620D01*
X123948464Y-93390209D01*
X123820585Y-93179056D01*
X123640635Y-93010072D01*
X123421869Y-92895704D01*
X123180407Y-92844380D01*
X122934038Y-92859880D01*
X122700913Y-92941063D01*
X122498206Y-93081948D01*
X122340854Y-93272154D01*
X122240449Y-93497668D01*
X122204387Y-93741876D01*
X118933842Y-93741876D01*
X118935029Y-93628620D01*
X118868464Y-93390209D01*
X118740585Y-93179056D01*
X118560635Y-93010072D01*
X118341869Y-92895704D01*
X118100407Y-92844380D01*
X117854038Y-92859880D01*
X117620913Y-92941063D01*
X117418206Y-93081948D01*
X117260854Y-93272154D01*
X117160449Y-93497668D01*
X117124387Y-93741876D01*
X112184656Y-93741876D01*
X112192597Y-93738986D01*
X112387431Y-93619122D01*
X112554185Y-93462531D01*
X112686045Y-93275607D01*
X112777626Y-93065988D01*
X112825232Y-92842016D01*
X112826056Y-92605842D01*
X112780014Y-92381544D01*
X112689899Y-92171290D01*
X112559348Y-91983451D01*
X112393692Y-91825698D01*
X112199699Y-91704478D01*
X111985293Y-91624741D01*
X111759234Y-91589746D01*
X111530756Y-91600921D01*
X111309190Y-91657808D01*
X111103589Y-91758086D01*
X110922350Y-91897659D01*
X110772880Y-92070824D01*
X110661281Y-92270506D01*
X110592113Y-92488550D01*
X110568201Y-92716049D01*
X102126000Y-92716049D01*
X102126000Y-91608276D01*
X103179787Y-91608276D01*
X103210727Y-91853187D01*
X103306388Y-92080754D01*
X103459721Y-92274214D01*
X103659433Y-92419312D01*
X103890807Y-92505360D01*
X104136798Y-92526016D01*
X104379281Y-92479760D01*
X104600394Y-92369999D01*
X104783844Y-92204820D01*
X104916117Y-91996392D01*
X104987660Y-91759427D01*
X104990429Y-91495020D01*
X104923864Y-91256609D01*
X104795985Y-91045456D01*
X104616035Y-90876472D01*
X104397269Y-90762104D01*
X104155807Y-90710780D01*
X103909438Y-90726280D01*
X103676313Y-90807463D01*
X103473606Y-90948348D01*
X103316254Y-91138554D01*
X103215849Y-91364068D01*
X103179787Y-91608276D01*
X102126000Y-91608276D01*
X102126000Y-89068276D01*
X103179787Y-89068276D01*
X103210727Y-89313187D01*
X103306388Y-89540754D01*
X103459721Y-89734214D01*
X103659433Y-89879312D01*
X103890807Y-89965360D01*
X104136798Y-89986016D01*
X104379281Y-89939760D01*
X104600394Y-89829999D01*
X104783844Y-89664820D01*
X104916117Y-89456392D01*
X104987660Y-89219427D01*
X104990429Y-88955020D01*
X104923864Y-88716609D01*
X104795985Y-88505456D01*
X104616035Y-88336472D01*
X104397269Y-88222104D01*
X104155807Y-88170780D01*
X103909438Y-88186280D01*
X103676313Y-88267463D01*
X103473606Y-88408348D01*
X103316254Y-88598554D01*
X103215849Y-88824068D01*
X103179787Y-89068276D01*
X102126000Y-89068276D01*
X102126000Y-86528276D01*
X103179787Y-86528276D01*
X103210727Y-86773187D01*
X103306388Y-87000754D01*
X103459721Y-87194214D01*
X103659433Y-87339312D01*
X103890807Y-87425360D01*
X104136798Y-87446016D01*
X104379281Y-87399760D01*
X104497499Y-87341076D01*
X109529787Y-87341076D01*
X109560727Y-87585987D01*
X109656388Y-87813554D01*
X109809721Y-88007014D01*
X110009433Y-88152112D01*
X110240807Y-88238160D01*
X110486798Y-88258816D01*
X110729281Y-88212560D01*
X110950394Y-88102799D01*
X111133844Y-87937620D01*
X111266117Y-87729192D01*
X111317436Y-87559210D01*
X112131210Y-87559210D01*
X112165992Y-87805142D01*
X112271551Y-88029974D01*
X112438552Y-88213828D01*
X112652232Y-88340450D01*
X112893697Y-88398643D01*
X113141599Y-88383264D01*
X113374020Y-88295671D01*
X113570411Y-88143609D01*
X113713407Y-87940522D01*
X113790522Y-87703886D01*
X113791785Y-87559210D01*
X114671210Y-87559210D01*
X114705992Y-87805142D01*
X114811551Y-88029974D01*
X114978552Y-88213828D01*
X115192232Y-88340450D01*
X115433697Y-88398643D01*
X115681599Y-88383264D01*
X115914020Y-88295671D01*
X116110411Y-88143609D01*
X116253407Y-87940522D01*
X116330522Y-87703886D01*
X116331785Y-87559210D01*
X117211210Y-87559210D01*
X117245992Y-87805142D01*
X117351551Y-88029974D01*
X117518552Y-88213828D01*
X117732232Y-88340450D01*
X117973697Y-88398643D01*
X118221599Y-88383264D01*
X118454020Y-88295671D01*
X118650411Y-88143609D01*
X118793407Y-87940522D01*
X118870522Y-87703886D01*
X118871785Y-87559210D01*
X119751210Y-87559210D01*
X119785992Y-87805142D01*
X119891551Y-88029974D01*
X120058552Y-88213828D01*
X120272232Y-88340450D01*
X120513697Y-88398643D01*
X120761599Y-88383264D01*
X120994020Y-88295671D01*
X121190411Y-88143609D01*
X121333407Y-87940522D01*
X121410522Y-87703886D01*
X121411785Y-87559210D01*
X122354710Y-87559210D01*
X122389492Y-87805142D01*
X122495051Y-88029974D01*
X122662052Y-88213828D01*
X122875732Y-88340450D01*
X123117197Y-88398643D01*
X123365099Y-88383264D01*
X123597520Y-88295671D01*
X123793911Y-88143609D01*
X123936907Y-87940522D01*
X124014022Y-87703886D01*
X124016295Y-87443516D01*
X123943321Y-87205569D01*
X123803890Y-87000019D01*
X123610184Y-86844553D01*
X123379327Y-86752917D01*
X123131731Y-86733212D01*
X122889287Y-86787184D01*
X122673430Y-86910056D01*
X122503245Y-87090969D01*
X122393779Y-87313924D01*
X122354710Y-87559210D01*
X121411785Y-87559210D01*
X121412795Y-87443516D01*
X121339821Y-87205569D01*
X121200390Y-87000019D01*
X121006684Y-86844553D01*
X120775827Y-86752917D01*
X120528231Y-86733212D01*
X120285787Y-86787184D01*
X120069930Y-86910056D01*
X119899745Y-87090969D01*
X119790279Y-87313924D01*
X119751210Y-87559210D01*
X118871785Y-87559210D01*
X118872795Y-87443516D01*
X118799821Y-87205569D01*
X118660390Y-87000019D01*
X118466684Y-86844553D01*
X118235827Y-86752917D01*
X117988231Y-86733212D01*
X117745787Y-86787184D01*
X117529930Y-86910056D01*
X117359745Y-87090969D01*
X117250279Y-87313924D01*
X117211210Y-87559210D01*
X116331785Y-87559210D01*
X116332795Y-87443516D01*
X116259821Y-87205569D01*
X116120390Y-87000019D01*
X115926684Y-86844553D01*
X115695827Y-86752917D01*
X115448231Y-86733212D01*
X115205787Y-86787184D01*
X114989930Y-86910056D01*
X114819745Y-87090969D01*
X114710279Y-87313924D01*
X114671210Y-87559210D01*
X113791785Y-87559210D01*
X113792795Y-87443516D01*
X113719821Y-87205569D01*
X113580390Y-87000019D01*
X113386684Y-86844553D01*
X113155827Y-86752917D01*
X112908231Y-86733212D01*
X112665787Y-86787184D01*
X112449930Y-86910056D01*
X112279745Y-87090969D01*
X112170279Y-87313924D01*
X112131210Y-87559210D01*
X111317436Y-87559210D01*
X111337660Y-87492227D01*
X111340429Y-87227820D01*
X111273864Y-86989409D01*
X111145985Y-86778256D01*
X110966035Y-86609272D01*
X110747269Y-86494904D01*
X110505807Y-86443580D01*
X110259438Y-86459080D01*
X110026313Y-86540263D01*
X109823606Y-86681148D01*
X109666254Y-86871354D01*
X109565849Y-87096868D01*
X109529787Y-87341076D01*
X104497499Y-87341076D01*
X104600394Y-87289999D01*
X104783844Y-87124820D01*
X104916117Y-86916392D01*
X104987660Y-86679427D01*
X104990429Y-86415020D01*
X104923864Y-86176609D01*
X104795985Y-85965456D01*
X104616035Y-85796472D01*
X104397269Y-85682104D01*
X104155807Y-85630780D01*
X103909438Y-85646280D01*
X103676313Y-85727463D01*
X103473606Y-85868348D01*
X103316254Y-86058554D01*
X103215849Y-86284068D01*
X103179787Y-86528276D01*
X102126000Y-86528276D01*
X102126000Y-85126000D01*
X113558601Y-85126000D01*
X113600000Y-85132557D01*
X113651191Y-85124449D01*
X113764569Y-85106492D01*
X113913029Y-85030848D01*
X114030848Y-84913029D01*
X114106492Y-84764569D01*
X114132557Y-84600000D01*
X114126000Y-84558601D01*
X114126000Y-82890255D01*
X126090934Y-82890255D01*
X126099001Y-82937953D01*
X126099002Y-91873153D01*
X126090934Y-91949913D01*
X126099001Y-91997611D01*
X126099001Y-92264075D01*
X126094546Y-92370359D01*
X126113150Y-92449678D01*
X126124207Y-92530401D01*
X126141404Y-92570141D01*
X126152372Y-92616900D01*
X126180147Y-92659668D01*
X126222898Y-92758463D01*
X126379285Y-92951585D01*
X126418719Y-92979610D01*
X126739283Y-93300173D01*
X126751522Y-93315615D01*
X126763235Y-93324124D01*
X126783629Y-93344519D01*
X126931568Y-93456813D01*
X127162617Y-93548292D01*
X127409758Y-93574267D01*
X127654777Y-93532825D01*
X127879626Y-93427018D01*
X128067739Y-93264644D01*
X128205258Y-93057662D01*
X128206410Y-93054117D01*
X128211775Y-93055025D01*
X128423580Y-93044666D01*
X128628219Y-92989067D01*
X128816144Y-92890822D01*
X128978591Y-92754514D01*
X129107976Y-92586502D01*
X129198266Y-92394628D01*
X129245297Y-92187623D01*
X129246009Y-91983499D01*
X134432409Y-91983499D01*
X134454492Y-92139642D01*
X134560051Y-92364474D01*
X134727052Y-92548328D01*
X134940732Y-92674950D01*
X134941047Y-92675026D01*
X134929787Y-92751276D01*
X134960727Y-92996187D01*
X135056388Y-93223754D01*
X135209721Y-93417214D01*
X135409433Y-93562312D01*
X135640807Y-93648360D01*
X135886798Y-93669016D01*
X136129281Y-93622760D01*
X136350394Y-93512999D01*
X136533844Y-93347820D01*
X136666117Y-93139392D01*
X136737660Y-92902427D01*
X136739924Y-92686255D01*
X136932520Y-92613671D01*
X137128911Y-92461609D01*
X137161381Y-92415494D01*
X137267052Y-92531828D01*
X137480732Y-92658450D01*
X137722197Y-92716643D01*
X137970099Y-92701264D01*
X138202520Y-92613671D01*
X138398911Y-92461609D01*
X138541907Y-92258522D01*
X138619023Y-92021886D01*
X138619358Y-91983499D01*
X142334292Y-91983499D01*
X142259406Y-92035546D01*
X142102054Y-92225752D01*
X142080582Y-92273979D01*
X141961684Y-92178553D01*
X141730827Y-92086917D01*
X141483231Y-92067212D01*
X141240787Y-92121184D01*
X141024930Y-92244056D01*
X140854745Y-92424969D01*
X140745279Y-92647924D01*
X140706210Y-92893210D01*
X140740992Y-93139142D01*
X140846551Y-93363974D01*
X141013552Y-93547828D01*
X141227232Y-93674450D01*
X141468697Y-93732643D01*
X141716599Y-93717264D01*
X141949020Y-93629671D01*
X142145411Y-93477609D01*
X142235833Y-93349189D01*
X142245521Y-93361412D01*
X142445233Y-93506510D01*
X142676607Y-93592558D01*
X142922598Y-93613214D01*
X143165081Y-93566958D01*
X143386194Y-93457197D01*
X143563089Y-93297920D01*
X143617052Y-93357328D01*
X143830732Y-93483950D01*
X144072197Y-93542143D01*
X144320099Y-93526764D01*
X144552520Y-93439171D01*
X144724840Y-93305747D01*
X144887052Y-93484328D01*
X145100732Y-93610950D01*
X145342197Y-93669143D01*
X145590099Y-93653764D01*
X145822520Y-93566171D01*
X146018911Y-93414109D01*
X146026194Y-93403765D01*
X146157052Y-93547828D01*
X146370732Y-93674450D01*
X146612197Y-93732643D01*
X146860099Y-93717264D01*
X147092520Y-93629671D01*
X147288911Y-93477609D01*
X147431907Y-93274522D01*
X147509022Y-93037886D01*
X147511295Y-92777516D01*
X147438321Y-92539569D01*
X147298890Y-92334019D01*
X147105184Y-92178553D01*
X146874327Y-92086917D01*
X146626731Y-92067212D01*
X146384287Y-92121184D01*
X146168430Y-92244056D01*
X146076924Y-92341331D01*
X146028890Y-92270519D01*
X145835184Y-92115053D01*
X145604327Y-92023417D01*
X145356731Y-92003712D01*
X145114287Y-92057684D01*
X144898430Y-92180556D01*
X144831951Y-92251226D01*
X144758890Y-92143519D01*
X144565184Y-91988053D01*
X144553711Y-91983499D01*
X150158131Y-91983499D01*
X150148252Y-92071573D01*
X150170419Y-92282469D01*
X150237354Y-92483685D01*
X150345937Y-92665834D01*
X150491100Y-92820417D01*
X150666071Y-92940223D01*
X150862688Y-93019661D01*
X150958876Y-93035930D01*
X150964492Y-93075642D01*
X151070051Y-93300474D01*
X151237052Y-93484328D01*
X151450732Y-93610950D01*
X151692197Y-93669143D01*
X151748083Y-93665676D01*
X152684387Y-93665676D01*
X152715327Y-93910587D01*
X152810988Y-94138154D01*
X152964321Y-94331614D01*
X153164033Y-94476712D01*
X153395407Y-94562760D01*
X153641398Y-94583416D01*
X153883881Y-94537160D01*
X154104994Y-94427399D01*
X154288444Y-94262220D01*
X154420717Y-94053792D01*
X154492260Y-93816827D01*
X154495029Y-93552420D01*
X154428464Y-93314009D01*
X154300585Y-93102856D01*
X154120635Y-92933872D01*
X153901869Y-92819504D01*
X153660407Y-92768180D01*
X153414038Y-92783680D01*
X153180913Y-92864863D01*
X152978206Y-93005748D01*
X152820854Y-93195954D01*
X152720449Y-93421468D01*
X152684387Y-93665676D01*
X151748083Y-93665676D01*
X151940099Y-93653764D01*
X152172520Y-93566171D01*
X152368911Y-93414109D01*
X152511907Y-93211022D01*
X152589022Y-92974386D01*
X152591295Y-92714016D01*
X152518321Y-92476069D01*
X152378890Y-92270519D01*
X152185184Y-92115053D01*
X152105660Y-92083487D01*
X152106009Y-91983499D01*
X153591209Y-91983499D01*
X156379489Y-94771781D01*
X156379494Y-94771785D01*
X156711283Y-95103573D01*
X156723522Y-95119015D01*
X156735235Y-95127524D01*
X156755629Y-95147919D01*
X156903568Y-95260213D01*
X157134617Y-95351692D01*
X157381758Y-95377667D01*
X157626777Y-95336225D01*
X157851626Y-95230418D01*
X158039739Y-95068044D01*
X158177259Y-94861062D01*
X158254049Y-94624724D01*
X158264455Y-94376442D01*
X158206631Y-94129903D01*
X158181268Y-94090846D01*
X158059785Y-93890257D01*
X158037272Y-93869115D01*
X158028133Y-93855043D01*
X157912215Y-93739125D01*
X157912597Y-93738986D01*
X158107431Y-93619122D01*
X158274185Y-93462531D01*
X158406045Y-93275607D01*
X158497626Y-93065988D01*
X158545232Y-92842016D01*
X158546056Y-92605842D01*
X158500014Y-92381544D01*
X158409899Y-92171290D01*
X158279348Y-91983451D01*
X158113692Y-91825698D01*
X157919699Y-91704478D01*
X157705293Y-91624741D01*
X157479234Y-91589746D01*
X157250756Y-91600921D01*
X157029190Y-91657808D01*
X156823589Y-91758086D01*
X156642350Y-91897659D01*
X156492880Y-92070824D01*
X156403622Y-92230531D01*
X154622499Y-90449409D01*
X154550473Y-90371080D01*
X154481224Y-90328144D01*
X154416330Y-90278887D01*
X154376071Y-90262947D01*
X154335254Y-90237639D01*
X154285363Y-90227034D01*
X154185281Y-90187408D01*
X153938143Y-90161432D01*
X153890445Y-90169499D01*
X127913001Y-90169499D01*
X127913001Y-88121867D01*
X128020807Y-88161960D01*
X128266798Y-88182616D01*
X128509281Y-88136360D01*
X128730394Y-88026599D01*
X128913844Y-87861420D01*
X129046117Y-87652992D01*
X129101945Y-87468076D01*
X129849787Y-87468076D01*
X129880727Y-87712987D01*
X129976388Y-87940554D01*
X130129721Y-88134014D01*
X130329433Y-88279112D01*
X130560807Y-88365160D01*
X130738175Y-88380054D01*
X131797594Y-89439474D01*
X131818950Y-89472547D01*
X131874308Y-89516188D01*
X131885176Y-89527057D01*
X131916392Y-89549365D01*
X131994096Y-89610621D01*
X132006607Y-89613833D01*
X132017350Y-89621511D01*
X132225626Y-89683799D01*
X132322315Y-89680000D01*
X140976536Y-89680000D01*
X141015015Y-89688285D01*
X141085013Y-89680000D01*
X141100389Y-89680000D01*
X141138240Y-89673700D01*
X141236496Y-89662070D01*
X141247613Y-89655495D01*
X141260639Y-89653327D01*
X141451957Y-89550098D01*
X141517683Y-89478996D01*
X143681003Y-87315676D01*
X147674587Y-87315676D01*
X147705527Y-87560587D01*
X147801188Y-87788154D01*
X147954521Y-87981614D01*
X148154233Y-88126712D01*
X148385607Y-88212760D01*
X148631598Y-88233416D01*
X148874081Y-88187160D01*
X149095194Y-88077399D01*
X149278644Y-87912220D01*
X149410917Y-87703792D01*
X149482460Y-87466827D01*
X149485229Y-87202420D01*
X149418664Y-86964009D01*
X149290785Y-86752856D01*
X149110835Y-86583872D01*
X148892069Y-86469504D01*
X148650607Y-86418180D01*
X148404238Y-86433680D01*
X148171113Y-86514863D01*
X147968406Y-86655748D01*
X147811054Y-86845954D01*
X147710649Y-87071468D01*
X147674587Y-87315676D01*
X143681003Y-87315676D01*
X147774048Y-83222632D01*
X147875241Y-83438164D01*
X148042242Y-83622018D01*
X148255922Y-83748640D01*
X148497387Y-83806833D01*
X148745289Y-83791454D01*
X148977710Y-83703861D01*
X149001152Y-83685710D01*
X152898210Y-83685710D01*
X152932992Y-83931642D01*
X153038551Y-84156474D01*
X153205552Y-84340328D01*
X153419232Y-84466950D01*
X153660697Y-84525143D01*
X153908599Y-84509764D01*
X154141020Y-84422171D01*
X154190047Y-84384210D01*
X155311210Y-84384210D01*
X155345992Y-84630142D01*
X155451551Y-84854974D01*
X155618552Y-85038828D01*
X155832232Y-85165450D01*
X156073697Y-85223643D01*
X156321599Y-85208264D01*
X156554020Y-85120671D01*
X156750411Y-84968609D01*
X156893407Y-84765522D01*
X156970522Y-84528886D01*
X156972581Y-84293021D01*
X157015552Y-84340328D01*
X157229232Y-84466950D01*
X157470697Y-84525143D01*
X157718599Y-84509764D01*
X157951020Y-84422171D01*
X158147411Y-84270109D01*
X158290407Y-84067022D01*
X158367522Y-83830386D01*
X158369795Y-83570016D01*
X158296821Y-83332069D01*
X158157390Y-83126519D01*
X157963684Y-82971053D01*
X157732827Y-82879417D01*
X157485231Y-82859712D01*
X157242787Y-82913684D01*
X157026930Y-83036556D01*
X156856745Y-83217469D01*
X156747279Y-83440424D01*
X156708210Y-83685710D01*
X156723754Y-83795615D01*
X156566684Y-83669553D01*
X156335827Y-83577917D01*
X156088231Y-83558212D01*
X155845787Y-83612184D01*
X155629930Y-83735056D01*
X155459745Y-83915969D01*
X155350279Y-84138924D01*
X155311210Y-84384210D01*
X154190047Y-84384210D01*
X154337411Y-84270109D01*
X154480407Y-84067022D01*
X154557522Y-83830386D01*
X154558738Y-83691122D01*
X154689232Y-83768450D01*
X154930697Y-83826643D01*
X155178599Y-83811264D01*
X155411020Y-83723671D01*
X155607411Y-83571609D01*
X155750407Y-83368522D01*
X155827522Y-83131886D01*
X155829795Y-82871516D01*
X155756821Y-82633569D01*
X155617390Y-82428019D01*
X155423684Y-82272553D01*
X155192827Y-82180917D01*
X154945231Y-82161212D01*
X154702787Y-82215184D01*
X154486930Y-82338056D01*
X154316745Y-82518969D01*
X154207279Y-82741924D01*
X154168845Y-82983221D01*
X154153684Y-82971053D01*
X153922827Y-82879417D01*
X153675231Y-82859712D01*
X153432787Y-82913684D01*
X153216930Y-83036556D01*
X153046745Y-83217469D01*
X152937279Y-83440424D01*
X152898210Y-83685710D01*
X149001152Y-83685710D01*
X149174101Y-83551799D01*
X149292626Y-83383467D01*
X149427927Y-83416075D01*
X149675829Y-83400696D01*
X149908250Y-83313103D01*
X150104641Y-83161041D01*
X150247637Y-82957954D01*
X150324752Y-82721318D01*
X150327025Y-82460948D01*
X150254051Y-82223001D01*
X150114620Y-82017451D01*
X149920914Y-81861985D01*
X149690057Y-81770349D01*
X149442461Y-81750644D01*
X149200017Y-81804616D01*
X149181555Y-81815125D01*
X153403631Y-77593049D01*
X155141701Y-77593049D01*
X155164024Y-77820710D01*
X155231668Y-78039231D01*
X155341870Y-78239688D01*
X155490128Y-78413892D01*
X155670388Y-78554726D01*
X155875284Y-78656437D01*
X156096447Y-78714871D01*
X156324842Y-78727640D01*
X156551140Y-78694224D01*
X156766097Y-78615986D01*
X156960931Y-78496122D01*
X157127685Y-78339531D01*
X157259545Y-78152607D01*
X157351126Y-77942988D01*
X157398732Y-77719016D01*
X157399556Y-77482842D01*
X157353514Y-77258544D01*
X157263399Y-77048290D01*
X157132848Y-76860451D01*
X156967192Y-76702698D01*
X156773199Y-76581478D01*
X156558793Y-76501741D01*
X156332734Y-76466746D01*
X156104256Y-76477921D01*
X155882690Y-76534808D01*
X155677089Y-76635086D01*
X155495850Y-76774659D01*
X155346380Y-76947824D01*
X155234781Y-77147506D01*
X155165613Y-77365550D01*
X155141701Y-77593049D01*
X153403631Y-77593049D01*
X155831973Y-75164707D01*
X155865046Y-75143351D01*
X155908687Y-75087993D01*
X155919556Y-75077125D01*
X155941864Y-75045909D01*
X156003120Y-74968205D01*
X156006333Y-74955693D01*
X156014010Y-74944950D01*
X156076298Y-74736674D01*
X156072499Y-74639986D01*
X156072499Y-71037980D01*
X157700969Y-69409511D01*
X157730798Y-69412016D01*
X157973281Y-69365760D01*
X158194394Y-69255999D01*
X158377844Y-69090820D01*
X158510117Y-68882392D01*
X158581660Y-68645427D01*
X158584429Y-68381020D01*
X158517864Y-68142609D01*
X158389985Y-67931456D01*
X158210035Y-67762472D01*
X157991269Y-67648104D01*
X157749807Y-67596780D01*
X157503438Y-67612280D01*
X157270313Y-67693463D01*
X157067606Y-67834348D01*
X156910254Y-68024554D01*
X156809849Y-68250068D01*
X156774574Y-68488945D01*
X155691489Y-69572031D01*
X155691489Y-69412032D01*
X155701423Y-69399430D01*
X155704635Y-69386919D01*
X155712311Y-69376178D01*
X155771410Y-69178567D01*
X155812444Y-69141620D01*
X155944717Y-68933192D01*
X156016260Y-68696227D01*
X156019029Y-68431820D01*
X155952464Y-68193409D01*
X155824585Y-67982256D01*
X155644635Y-67813272D01*
X155425869Y-67698904D01*
X155184407Y-67647580D01*
X155008800Y-67658628D01*
X155008800Y-63178549D01*
X155268701Y-63178549D01*
X155291024Y-63406210D01*
X155358668Y-63624731D01*
X155468870Y-63825188D01*
X155617128Y-63999392D01*
X155797388Y-64140226D01*
X156002284Y-64241937D01*
X156223447Y-64300371D01*
X156451842Y-64313140D01*
X156678140Y-64279724D01*
X156893097Y-64201486D01*
X157087931Y-64081622D01*
X157254685Y-63925031D01*
X157386545Y-63738107D01*
X157478126Y-63528488D01*
X157525732Y-63304516D01*
X157526556Y-63068342D01*
X157480514Y-62844044D01*
X157390399Y-62633790D01*
X157259848Y-62445951D01*
X157094192Y-62288198D01*
X156900199Y-62166978D01*
X156685793Y-62087241D01*
X156459734Y-62052246D01*
X156231256Y-62063421D01*
X156009690Y-62120308D01*
X155804089Y-62220586D01*
X155622850Y-62360159D01*
X155473380Y-62533324D01*
X155361781Y-62733006D01*
X155292613Y-62951050D01*
X155268701Y-63178549D01*
X155008800Y-63178549D01*
X155008800Y-57696720D01*
X156835210Y-57696720D01*
X156869992Y-57942652D01*
X156975551Y-58167484D01*
X157142552Y-58351338D01*
X157356232Y-58477960D01*
X157597697Y-58536153D01*
X157845599Y-58520774D01*
X158078020Y-58433181D01*
X158274411Y-58281119D01*
X158417407Y-58078032D01*
X158472736Y-57908249D01*
X158499232Y-57923950D01*
X158740697Y-57982143D01*
X158988599Y-57966764D01*
X159221020Y-57879171D01*
X159417411Y-57727109D01*
X159560407Y-57524022D01*
X159637522Y-57287386D01*
X159639795Y-57027016D01*
X159566821Y-56789069D01*
X159427390Y-56583519D01*
X159233684Y-56428053D01*
X159002827Y-56336417D01*
X158755231Y-56316712D01*
X158512787Y-56370684D01*
X158296930Y-56493556D01*
X158126745Y-56674469D01*
X158017279Y-56897424D01*
X158008964Y-56949625D01*
X157859827Y-56890427D01*
X157612231Y-56870722D01*
X157369787Y-56924694D01*
X157153930Y-57047566D01*
X156983745Y-57228479D01*
X156874279Y-57451434D01*
X156835210Y-57696720D01*
X155008800Y-57696720D01*
X155008800Y-57496680D01*
X155169194Y-57336287D01*
X155242099Y-57331764D01*
X155474520Y-57244171D01*
X155670911Y-57092109D01*
X155756297Y-56970841D01*
X155872552Y-57098828D01*
X156086232Y-57225450D01*
X156327697Y-57283643D01*
X156575599Y-57268264D01*
X156808020Y-57180671D01*
X157004411Y-57028609D01*
X157147407Y-56825522D01*
X157224522Y-56588886D01*
X157226795Y-56328516D01*
X157153821Y-56090569D01*
X157014390Y-55885019D01*
X156820684Y-55729553D01*
X156589827Y-55637917D01*
X156342231Y-55618212D01*
X156099787Y-55672184D01*
X155883930Y-55795056D01*
X155713745Y-55975969D01*
X155707768Y-55988143D01*
X155680890Y-55948519D01*
X155487184Y-55793053D01*
X155256327Y-55701417D01*
X155008731Y-55681712D01*
X154766287Y-55735684D01*
X154550430Y-55858556D01*
X154380245Y-56039469D01*
X154270779Y-56262424D01*
X154247037Y-56411481D01*
X153943321Y-56715198D01*
X153910253Y-56736549D01*
X153866612Y-56791908D01*
X153855742Y-56802777D01*
X153833432Y-56833998D01*
X153772178Y-56911699D01*
X153768966Y-56924210D01*
X153761289Y-56934952D01*
X153699001Y-57143228D01*
X153702800Y-57239916D01*
X153702801Y-74349291D01*
X140440112Y-87611980D01*
X136846261Y-87611980D01*
X136739387Y-87505106D01*
X136740429Y-87405620D01*
X136673864Y-87167209D01*
X136545985Y-86956056D01*
X136366035Y-86787072D01*
X136147269Y-86672704D01*
X135905807Y-86621380D01*
X135659438Y-86636880D01*
X135426313Y-86718063D01*
X135223606Y-86858948D01*
X135066254Y-87049154D01*
X134965849Y-87274668D01*
X134929787Y-87518876D01*
X134960727Y-87763787D01*
X135056388Y-87991354D01*
X135057685Y-87992990D01*
X134712670Y-87992990D01*
X134173987Y-87454307D01*
X134175029Y-87354820D01*
X134108464Y-87116409D01*
X133980585Y-86905256D01*
X133800635Y-86736272D01*
X133581869Y-86621904D01*
X133340407Y-86570580D01*
X133094038Y-86586080D01*
X132860913Y-86667263D01*
X132658206Y-86808148D01*
X132500854Y-86998354D01*
X132400449Y-87223868D01*
X132364387Y-87468076D01*
X132395327Y-87712987D01*
X132490988Y-87940554D01*
X132644321Y-88134014D01*
X132844033Y-88279112D01*
X133075407Y-88365160D01*
X133180681Y-88374000D01*
X132579081Y-88374000D01*
X131659387Y-87454306D01*
X131660429Y-87354820D01*
X131593864Y-87116409D01*
X131465985Y-86905256D01*
X131286035Y-86736272D01*
X131067269Y-86621904D01*
X130825807Y-86570580D01*
X130579438Y-86586080D01*
X130346313Y-86667263D01*
X130143606Y-86808148D01*
X129986254Y-86998354D01*
X129885849Y-87223868D01*
X129849787Y-87468076D01*
X129101945Y-87468076D01*
X129117660Y-87416027D01*
X129120429Y-87151620D01*
X129053864Y-86913209D01*
X128925985Y-86702056D01*
X128746035Y-86533072D01*
X128527269Y-86418704D01*
X128285807Y-86367380D01*
X128039438Y-86382880D01*
X127913001Y-86426910D01*
X127913001Y-83237189D01*
X131175115Y-79975076D01*
X133354987Y-79975076D01*
X133385927Y-80219987D01*
X133481588Y-80447554D01*
X133634921Y-80641014D01*
X133834633Y-80786112D01*
X134066007Y-80872160D01*
X134311998Y-80892816D01*
X134554481Y-80846560D01*
X134775594Y-80736799D01*
X134959044Y-80571620D01*
X135091317Y-80363192D01*
X135162860Y-80126227D01*
X135165629Y-79861820D01*
X135099064Y-79623409D01*
X134971185Y-79412256D01*
X134791235Y-79243272D01*
X134572469Y-79128904D01*
X134331007Y-79077580D01*
X134084638Y-79093080D01*
X133851513Y-79174263D01*
X133648806Y-79315148D01*
X133491454Y-79505354D01*
X133391049Y-79730868D01*
X133354987Y-79975076D01*
X131175115Y-79975076D01*
X131812820Y-79337372D01*
X131817495Y-79331212D01*
X131822138Y-79327035D01*
X131829630Y-79315225D01*
X131925113Y-79189433D01*
X131951087Y-79123830D01*
X131954416Y-79118580D01*
X131958445Y-79105245D01*
X132016592Y-78958382D01*
X132023962Y-78888256D01*
X132025965Y-78881630D01*
X132026105Y-78867865D01*
X132042567Y-78711243D01*
X132028608Y-78628709D01*
X132028728Y-78617213D01*
X132023492Y-78598463D01*
X132001125Y-78466223D01*
X131965335Y-78390166D01*
X131962165Y-78378809D01*
X131952417Y-78362716D01*
X131895318Y-78241373D01*
X131840395Y-78177746D01*
X131834286Y-78167656D01*
X131820574Y-78154781D01*
X131732944Y-78053261D01*
X131662929Y-78006743D01*
X131654337Y-77998674D01*
X131637667Y-77989958D01*
X131525962Y-77915741D01*
X131446024Y-77889769D01*
X131435570Y-77884303D01*
X131417163Y-77880391D01*
X131289624Y-77838951D01*
X131205647Y-77835432D01*
X131194112Y-77832979D01*
X131175331Y-77834161D01*
X131041342Y-77828545D01*
X130959501Y-77847740D01*
X130947731Y-77848481D01*
X130929974Y-77854667D01*
X130794803Y-77886370D01*
X130743775Y-77919508D01*
X130714613Y-77929663D01*
X130511906Y-78070548D01*
X130500627Y-78084182D01*
X126378904Y-82205906D01*
X126300581Y-82277927D01*
X126257647Y-82347174D01*
X126208389Y-82412067D01*
X126192450Y-82452326D01*
X126167140Y-82493145D01*
X126156537Y-82543032D01*
X126116911Y-82643117D01*
X126090934Y-82890255D01*
X114126000Y-82890255D01*
X114126000Y-81270476D01*
X122737787Y-81270476D01*
X122768727Y-81515387D01*
X122864388Y-81742954D01*
X123017721Y-81936414D01*
X123217433Y-82081512D01*
X123448807Y-82167560D01*
X123694798Y-82188216D01*
X123937281Y-82141960D01*
X124158394Y-82032199D01*
X124341844Y-81867020D01*
X124474117Y-81658592D01*
X124545660Y-81421627D01*
X124548429Y-81157220D01*
X124481864Y-80918809D01*
X124353985Y-80707656D01*
X124174035Y-80538672D01*
X123955269Y-80424304D01*
X123713807Y-80372980D01*
X123467438Y-80388480D01*
X123234313Y-80469663D01*
X123031606Y-80610548D01*
X122874254Y-80800754D01*
X122773849Y-81026268D01*
X122737787Y-81270476D01*
X114126000Y-81270476D01*
X114126000Y-71146563D01*
X116869515Y-71146563D01*
X116882149Y-71419521D01*
X116935924Y-71687426D01*
X117029605Y-71944115D01*
X117161035Y-72183682D01*
X117327191Y-72400611D01*
X117524247Y-72589911D01*
X117747668Y-72747226D01*
X117992316Y-72868936D01*
X118252557Y-72952240D01*
X118254053Y-72952478D01*
X118092487Y-72993811D01*
X117841052Y-73100798D01*
X117608694Y-73244585D01*
X117400758Y-73421866D01*
X117222030Y-73628559D01*
X117076624Y-73859907D01*
X116967884Y-74110589D01*
X116898314Y-74374835D01*
X116869515Y-74646563D01*
X116882149Y-74919521D01*
X116935924Y-75187426D01*
X117029605Y-75444115D01*
X117161035Y-75683682D01*
X117327191Y-75900611D01*
X117524247Y-76089911D01*
X117747668Y-76247226D01*
X117992316Y-76368936D01*
X118252557Y-76452240D01*
X118254053Y-76452478D01*
X118092487Y-76493811D01*
X117841052Y-76600798D01*
X117608694Y-76744585D01*
X117400758Y-76921866D01*
X117222030Y-77128559D01*
X117076624Y-77359907D01*
X116967884Y-77610589D01*
X116898314Y-77874835D01*
X116869515Y-78146563D01*
X116882149Y-78419521D01*
X116935924Y-78687426D01*
X117029605Y-78944115D01*
X117161035Y-79183682D01*
X117327191Y-79400611D01*
X117524247Y-79589911D01*
X117747668Y-79747226D01*
X117992316Y-79868936D01*
X118252557Y-79952240D01*
X118522406Y-79995221D01*
X118795651Y-79996890D01*
X119066004Y-79957208D01*
X119327244Y-79877090D01*
X119573360Y-79758378D01*
X119798687Y-79603804D01*
X119998041Y-79416925D01*
X120166834Y-79202043D01*
X120301181Y-78964101D01*
X120397991Y-78708576D01*
X120455418Y-78439559D01*
X120466482Y-78066748D01*
X120425111Y-77794800D01*
X120343626Y-77533983D01*
X120223627Y-77288493D01*
X120067875Y-77063977D01*
X119879955Y-76865605D01*
X119762942Y-76774676D01*
X137444387Y-76774676D01*
X137475327Y-77019587D01*
X137570988Y-77247154D01*
X137724321Y-77440614D01*
X137924033Y-77585712D01*
X138155407Y-77671760D01*
X138401398Y-77692416D01*
X138643881Y-77646160D01*
X138864994Y-77536399D01*
X139048444Y-77371220D01*
X139180717Y-77162792D01*
X139252260Y-76925827D01*
X139254640Y-76698476D01*
X146461387Y-76698476D01*
X146492327Y-76943387D01*
X146587988Y-77170954D01*
X146741321Y-77364414D01*
X146941033Y-77509512D01*
X147172407Y-77595560D01*
X147418398Y-77616216D01*
X147522034Y-77596446D01*
X147544024Y-77820710D01*
X147611668Y-78039231D01*
X147721870Y-78239688D01*
X147870128Y-78413892D01*
X148050388Y-78554726D01*
X148255284Y-78656437D01*
X148476447Y-78714871D01*
X148704842Y-78727640D01*
X148931140Y-78694224D01*
X149146097Y-78615986D01*
X149340931Y-78496122D01*
X149507685Y-78339531D01*
X149639545Y-78152607D01*
X149731126Y-77942988D01*
X149778732Y-77719016D01*
X149779556Y-77482842D01*
X149733514Y-77258544D01*
X149643399Y-77048290D01*
X149512848Y-76860451D01*
X149347192Y-76702698D01*
X149153199Y-76581478D01*
X148938793Y-76501741D01*
X148712734Y-76466746D01*
X148484256Y-76477921D01*
X148262690Y-76534808D01*
X148258521Y-76536841D01*
X148205464Y-76346809D01*
X148077585Y-76135656D01*
X147897635Y-75966672D01*
X147678869Y-75852304D01*
X147437407Y-75800980D01*
X147191038Y-75816480D01*
X146957913Y-75897663D01*
X146755206Y-76038548D01*
X146597854Y-76228754D01*
X146497449Y-76454268D01*
X146461387Y-76698476D01*
X139254640Y-76698476D01*
X139255029Y-76661420D01*
X139188464Y-76423009D01*
X139060585Y-76211856D01*
X138880635Y-76042872D01*
X138661869Y-75928504D01*
X138420407Y-75877180D01*
X138174038Y-75892680D01*
X137940913Y-75973863D01*
X137738206Y-76114748D01*
X137580854Y-76304954D01*
X137480449Y-76530468D01*
X137444387Y-76774676D01*
X119762942Y-76774676D01*
X119664192Y-76697940D01*
X119425550Y-76564841D01*
X119169521Y-76469370D01*
X119084209Y-76451625D01*
X119327244Y-76377090D01*
X119573360Y-76258378D01*
X119798687Y-76103804D01*
X119998041Y-75916925D01*
X120166834Y-75702043D01*
X120301181Y-75464101D01*
X120397991Y-75208576D01*
X120455418Y-74939559D01*
X120462810Y-74690476D01*
X122990587Y-74690476D01*
X123021527Y-74935387D01*
X123117188Y-75162954D01*
X123270521Y-75356414D01*
X123470233Y-75501512D01*
X123701607Y-75587560D01*
X123947598Y-75608216D01*
X124190081Y-75561960D01*
X124411194Y-75452199D01*
X124594644Y-75287020D01*
X124726917Y-75078592D01*
X124798460Y-74841627D01*
X124801229Y-74577220D01*
X124734664Y-74338809D01*
X124606785Y-74127656D01*
X124426835Y-73958672D01*
X124208069Y-73844304D01*
X123966607Y-73792980D01*
X123720238Y-73808480D01*
X123487113Y-73889663D01*
X123284406Y-74030548D01*
X123127054Y-74220754D01*
X123026649Y-74446268D01*
X122990587Y-74690476D01*
X120462810Y-74690476D01*
X120466482Y-74566748D01*
X120425111Y-74294800D01*
X120343626Y-74033983D01*
X120223627Y-73788493D01*
X120067875Y-73563977D01*
X119879955Y-73365605D01*
X119664192Y-73197940D01*
X119425550Y-73064841D01*
X119169521Y-72969370D01*
X119084209Y-72951625D01*
X119327244Y-72877090D01*
X119573360Y-72758378D01*
X119798687Y-72603804D01*
X119866242Y-72540476D01*
X127390587Y-72540476D01*
X127421527Y-72785387D01*
X127517188Y-73012954D01*
X127670521Y-73206414D01*
X127870233Y-73351512D01*
X128101607Y-73437560D01*
X128347598Y-73458216D01*
X128590081Y-73411960D01*
X128811194Y-73302199D01*
X128994644Y-73137020D01*
X129126917Y-72928592D01*
X129198460Y-72691627D01*
X129201229Y-72427220D01*
X129134664Y-72188809D01*
X129006785Y-71977656D01*
X128826835Y-71808672D01*
X128608069Y-71694304D01*
X128366607Y-71642980D01*
X128120238Y-71658480D01*
X127887113Y-71739663D01*
X127684406Y-71880548D01*
X127527054Y-72070754D01*
X127426649Y-72296268D01*
X127390587Y-72540476D01*
X119866242Y-72540476D01*
X119998041Y-72416925D01*
X120166834Y-72202043D01*
X120301181Y-71964101D01*
X120397991Y-71708576D01*
X120455418Y-71439559D01*
X120466482Y-71066748D01*
X120425111Y-70794800D01*
X120385562Y-70668210D01*
X138801210Y-70668210D01*
X138835992Y-70914142D01*
X138920978Y-71095155D01*
X138891515Y-71155164D01*
X138852446Y-71400449D01*
X138887228Y-71646381D01*
X138992787Y-71871213D01*
X139159788Y-72055067D01*
X139373468Y-72181689D01*
X139614933Y-72239882D01*
X139862835Y-72224503D01*
X140095256Y-72136910D01*
X140291647Y-71984848D01*
X140434643Y-71781761D01*
X140511758Y-71545125D01*
X140513021Y-71400449D01*
X140608971Y-71400449D01*
X140643753Y-71646381D01*
X140749312Y-71871213D01*
X140916313Y-72055067D01*
X141129993Y-72181689D01*
X141371458Y-72239882D01*
X141619360Y-72224503D01*
X141851781Y-72136910D01*
X142048172Y-71984848D01*
X142191168Y-71781761D01*
X142268283Y-71545125D01*
X142268890Y-71475572D01*
X142457020Y-71404671D01*
X142653411Y-71252609D01*
X142674815Y-71222210D01*
X150294710Y-71222210D01*
X150329492Y-71468142D01*
X150435051Y-71692974D01*
X150602052Y-71876828D01*
X150815732Y-72003450D01*
X151057197Y-72061643D01*
X151305099Y-72046264D01*
X151537520Y-71958671D01*
X151733911Y-71806609D01*
X151876907Y-71603522D01*
X151954022Y-71366886D01*
X151954310Y-71333943D01*
X152149232Y-71449450D01*
X152390697Y-71507643D01*
X152638599Y-71492264D01*
X152871020Y-71404671D01*
X153067411Y-71252609D01*
X153210407Y-71049522D01*
X153287522Y-70812886D01*
X153289795Y-70552516D01*
X153216821Y-70314569D01*
X153077390Y-70109019D01*
X152883684Y-69953553D01*
X152652827Y-69861917D01*
X152405231Y-69842212D01*
X152162787Y-69896184D01*
X151946930Y-70019056D01*
X151776745Y-70199969D01*
X151667279Y-70422924D01*
X151642055Y-70581287D01*
X151550184Y-70507553D01*
X151319327Y-70415917D01*
X151071731Y-70396212D01*
X150829287Y-70450184D01*
X150613430Y-70573056D01*
X150443245Y-70753969D01*
X150333779Y-70976924D01*
X150294710Y-71222210D01*
X142674815Y-71222210D01*
X142796407Y-71049522D01*
X142873522Y-70812886D01*
X142875795Y-70552516D01*
X142802821Y-70314569D01*
X142663390Y-70109019D01*
X142469684Y-69953553D01*
X142238827Y-69861917D01*
X141991231Y-69842212D01*
X141748787Y-69896184D01*
X141532930Y-70019056D01*
X141362745Y-70199969D01*
X141253279Y-70422924D01*
X141223378Y-70610652D01*
X141143547Y-70628423D01*
X140927691Y-70751295D01*
X140757506Y-70932208D01*
X140648040Y-71155163D01*
X140608971Y-71400449D01*
X140513021Y-71400449D01*
X140514031Y-71284755D01*
X140441057Y-71046808D01*
X140402713Y-70990280D01*
X140460522Y-70812886D01*
X140462795Y-70552516D01*
X140389821Y-70314569D01*
X140250390Y-70109019D01*
X140056684Y-69953553D01*
X139825827Y-69861917D01*
X139578231Y-69842212D01*
X139335787Y-69896184D01*
X139119930Y-70019056D01*
X138949745Y-70199969D01*
X138840279Y-70422924D01*
X138801210Y-70668210D01*
X120385562Y-70668210D01*
X120343626Y-70533983D01*
X120223627Y-70288493D01*
X120067875Y-70063977D01*
X119879955Y-69865605D01*
X119664192Y-69697940D01*
X119425550Y-69564841D01*
X119169521Y-69469370D01*
X118901997Y-69413724D01*
X118629134Y-69399186D01*
X118357211Y-69426088D01*
X118092487Y-69493811D01*
X117841052Y-69600798D01*
X117608694Y-69744585D01*
X117400758Y-69921866D01*
X117222030Y-70128559D01*
X117076624Y-70359907D01*
X116967884Y-70610589D01*
X116898314Y-70874835D01*
X116869515Y-71146563D01*
X114126000Y-71146563D01*
X114126000Y-69129276D01*
X133939187Y-69129276D01*
X133970127Y-69374187D01*
X134065788Y-69601754D01*
X134219121Y-69795214D01*
X134418833Y-69940312D01*
X134650207Y-70026360D01*
X134896198Y-70047016D01*
X135138681Y-70000760D01*
X135359794Y-69890999D01*
X135543244Y-69725820D01*
X135675517Y-69517392D01*
X135747060Y-69280427D01*
X135749829Y-69016020D01*
X135683264Y-68777609D01*
X135555385Y-68566456D01*
X135375435Y-68397472D01*
X135156669Y-68283104D01*
X134915207Y-68231780D01*
X134668838Y-68247280D01*
X134435713Y-68328463D01*
X134233006Y-68469348D01*
X134075654Y-68659554D01*
X133975249Y-68885068D01*
X133939187Y-69129276D01*
X114126000Y-69129276D01*
X114126000Y-66641399D01*
X114132557Y-66600000D01*
X114106492Y-66435431D01*
X114030848Y-66286971D01*
X113913029Y-66169152D01*
X113764569Y-66093508D01*
X113651191Y-66075551D01*
X113600000Y-66067443D01*
X113558601Y-66074000D01*
X102126000Y-66074000D01*
X102126000Y-65040476D01*
X102140587Y-65040476D01*
X102171527Y-65285387D01*
X102267188Y-65512954D01*
X102420521Y-65706414D01*
X102620233Y-65851512D01*
X102851607Y-65937560D01*
X103097598Y-65958216D01*
X103340081Y-65911960D01*
X103561194Y-65802199D01*
X103744644Y-65637020D01*
X103876917Y-65428592D01*
X103917589Y-65293876D01*
X121137587Y-65293876D01*
X121168527Y-65538787D01*
X121264188Y-65766354D01*
X121417521Y-65959814D01*
X121617233Y-66104912D01*
X121848607Y-66190960D01*
X122094598Y-66211616D01*
X122337081Y-66165360D01*
X122558194Y-66055599D01*
X122741644Y-65890420D01*
X122873917Y-65681992D01*
X122945460Y-65445027D01*
X122948229Y-65180620D01*
X122881664Y-64942209D01*
X122753785Y-64731056D01*
X122573835Y-64562072D01*
X122355069Y-64447704D01*
X122113607Y-64396380D01*
X121867238Y-64411880D01*
X121634113Y-64493063D01*
X121431406Y-64633948D01*
X121274054Y-64824154D01*
X121173649Y-65049668D01*
X121137587Y-65293876D01*
X103917589Y-65293876D01*
X103948460Y-65191627D01*
X103951229Y-64927220D01*
X103884664Y-64688809D01*
X103756785Y-64477656D01*
X103587915Y-64319076D01*
X122950587Y-64319076D01*
X122981527Y-64563987D01*
X123077188Y-64791554D01*
X123230521Y-64985014D01*
X123430233Y-65130112D01*
X123661607Y-65216160D01*
X123907598Y-65236816D01*
X124150081Y-65190560D01*
X124371194Y-65080799D01*
X124423387Y-65033804D01*
X130745415Y-65033804D01*
X130776355Y-65278715D01*
X130872016Y-65506282D01*
X131025349Y-65699742D01*
X131225061Y-65844840D01*
X131456435Y-65930888D01*
X131702426Y-65951544D01*
X131944909Y-65905288D01*
X131963667Y-65895976D01*
X132885087Y-65895976D01*
X132916027Y-66140887D01*
X133011688Y-66368454D01*
X133165021Y-66561914D01*
X133364733Y-66707012D01*
X133596107Y-66793060D01*
X133842098Y-66813716D01*
X134084581Y-66767460D01*
X134305694Y-66657699D01*
X134489144Y-66492520D01*
X134621417Y-66284092D01*
X134692960Y-66047127D01*
X134695729Y-65782720D01*
X134629164Y-65544309D01*
X134501285Y-65333156D01*
X134321335Y-65164172D01*
X134102569Y-65049804D01*
X133861107Y-64998480D01*
X133614738Y-65013980D01*
X133381613Y-65095163D01*
X133178906Y-65236048D01*
X133021554Y-65426254D01*
X132921149Y-65651768D01*
X132885087Y-65895976D01*
X131963667Y-65895976D01*
X132166022Y-65795527D01*
X132349472Y-65630348D01*
X132481745Y-65421920D01*
X132553288Y-65184955D01*
X132555738Y-64950976D01*
X135044087Y-64950976D01*
X135075027Y-65195887D01*
X135170688Y-65423454D01*
X135324021Y-65616914D01*
X135523733Y-65762012D01*
X135755107Y-65848060D01*
X136001098Y-65868716D01*
X136243581Y-65822460D01*
X136464694Y-65712699D01*
X136467894Y-65709818D01*
X136539733Y-65762012D01*
X136771107Y-65848060D01*
X137017098Y-65868716D01*
X137259581Y-65822460D01*
X137480694Y-65712699D01*
X137664144Y-65547520D01*
X137796417Y-65339092D01*
X137867960Y-65102127D01*
X137870729Y-64837720D01*
X137804164Y-64599309D01*
X137676285Y-64388156D01*
X137496335Y-64219172D01*
X137277569Y-64104804D01*
X137036107Y-64053480D01*
X136789738Y-64068980D01*
X136556613Y-64150163D01*
X136467201Y-64212306D01*
X136261569Y-64104804D01*
X136020107Y-64053480D01*
X135773738Y-64068980D01*
X135540613Y-64150163D01*
X135337906Y-64291048D01*
X135180554Y-64481254D01*
X135080149Y-64706768D01*
X135044087Y-64950976D01*
X132555738Y-64950976D01*
X132556057Y-64920548D01*
X132489492Y-64682137D01*
X132361613Y-64470984D01*
X132181663Y-64302000D01*
X131962897Y-64187632D01*
X131721435Y-64136308D01*
X131475066Y-64151808D01*
X131241941Y-64232991D01*
X131039234Y-64373876D01*
X130881882Y-64564082D01*
X130781477Y-64789596D01*
X130745415Y-65033804D01*
X124423387Y-65033804D01*
X124554644Y-64915620D01*
X124686917Y-64707192D01*
X124758460Y-64470227D01*
X124761229Y-64205820D01*
X124694664Y-63967409D01*
X124566785Y-63756256D01*
X124386835Y-63587272D01*
X124168069Y-63472904D01*
X123926607Y-63421580D01*
X123680238Y-63437080D01*
X123447113Y-63518263D01*
X123244406Y-63659148D01*
X123087054Y-63849354D01*
X122986649Y-64074868D01*
X122950587Y-64319076D01*
X103587915Y-64319076D01*
X103576835Y-64308672D01*
X103358069Y-64194304D01*
X103116607Y-64142980D01*
X102870238Y-64158480D01*
X102637113Y-64239663D01*
X102434406Y-64380548D01*
X102277054Y-64570754D01*
X102176649Y-64796268D01*
X102140587Y-65040476D01*
X102126000Y-65040476D01*
X102126000Y-63045976D01*
X116819587Y-63045976D01*
X116850527Y-63290887D01*
X116946188Y-63518454D01*
X117099521Y-63711914D01*
X117299233Y-63857012D01*
X117530607Y-63943060D01*
X117776598Y-63963716D01*
X118019081Y-63917460D01*
X118240194Y-63807699D01*
X118423644Y-63642520D01*
X118555917Y-63434092D01*
X118597284Y-63297076D01*
X138450587Y-63297076D01*
X138481527Y-63541987D01*
X138577188Y-63769554D01*
X138730521Y-63963014D01*
X138930233Y-64108112D01*
X139161607Y-64194160D01*
X139407598Y-64214816D01*
X139650081Y-64168560D01*
X139871194Y-64058799D01*
X140054644Y-63893620D01*
X140186917Y-63685192D01*
X140258460Y-63448227D01*
X140261229Y-63183820D01*
X140194664Y-62945409D01*
X140066785Y-62734256D01*
X139886835Y-62565272D01*
X139713159Y-62474476D01*
X146588387Y-62474476D01*
X146619327Y-62719387D01*
X146714988Y-62946954D01*
X146868321Y-63140414D01*
X147068033Y-63285512D01*
X147299407Y-63371560D01*
X147545398Y-63392216D01*
X147667370Y-63368949D01*
X147671024Y-63406210D01*
X147738668Y-63624731D01*
X147848870Y-63825188D01*
X147997128Y-63999392D01*
X148177388Y-64140226D01*
X148382284Y-64241937D01*
X148603447Y-64300371D01*
X148831842Y-64313140D01*
X149058140Y-64279724D01*
X149273097Y-64201486D01*
X149467931Y-64081622D01*
X149634685Y-63925031D01*
X149766545Y-63738107D01*
X149858126Y-63528488D01*
X149905732Y-63304516D01*
X149906556Y-63068342D01*
X149860514Y-62844044D01*
X149770399Y-62633790D01*
X149639848Y-62445951D01*
X149474192Y-62288198D01*
X149280199Y-62166978D01*
X149065793Y-62087241D01*
X148839734Y-62052246D01*
X148611256Y-62063421D01*
X148389690Y-62120308D01*
X148338708Y-62145174D01*
X148332464Y-62122809D01*
X148204585Y-61911656D01*
X148024635Y-61742672D01*
X147805869Y-61628304D01*
X147564407Y-61576980D01*
X147318038Y-61592480D01*
X147084913Y-61673663D01*
X146882206Y-61814548D01*
X146724854Y-62004754D01*
X146624449Y-62230268D01*
X146588387Y-62474476D01*
X139713159Y-62474476D01*
X139668069Y-62450904D01*
X139426607Y-62399580D01*
X139180238Y-62415080D01*
X138947113Y-62496263D01*
X138744406Y-62637148D01*
X138587054Y-62827354D01*
X138486649Y-63052868D01*
X138450587Y-63297076D01*
X118597284Y-63297076D01*
X118627460Y-63197127D01*
X118630229Y-62932720D01*
X118563664Y-62694309D01*
X118435785Y-62483156D01*
X118255835Y-62314172D01*
X118037069Y-62199804D01*
X117795607Y-62148480D01*
X117549238Y-62163980D01*
X117316113Y-62245163D01*
X117113406Y-62386048D01*
X116956054Y-62576254D01*
X116855649Y-62801768D01*
X116819587Y-63045976D01*
X102126000Y-63045976D01*
X102126000Y-59430866D01*
X105444001Y-59430866D01*
X105444001Y-59689134D01*
X105488848Y-59943476D01*
X105577181Y-60186167D01*
X105706314Y-60409833D01*
X105872324Y-60607676D01*
X106070167Y-60773686D01*
X106293833Y-60902819D01*
X106536524Y-60991152D01*
X106790866Y-61035999D01*
X107049134Y-61035999D01*
X107303476Y-60991152D01*
X107546167Y-60902819D01*
X107769833Y-60773686D01*
X107967676Y-60607676D01*
X108133686Y-60409833D01*
X108262819Y-60186167D01*
X108351152Y-59943476D01*
X108395999Y-59689134D01*
X108395999Y-59430866D01*
X112444001Y-59430866D01*
X112444001Y-59689134D01*
X112488848Y-59943476D01*
X112577181Y-60186167D01*
X112706314Y-60409833D01*
X112872324Y-60607676D01*
X113070167Y-60773686D01*
X113293833Y-60902819D01*
X113536524Y-60991152D01*
X113790866Y-61035999D01*
X114049134Y-61035999D01*
X114303476Y-60991152D01*
X114546167Y-60902819D01*
X114769833Y-60773686D01*
X114967676Y-60607676D01*
X115133686Y-60409833D01*
X115237699Y-60229676D01*
X122950587Y-60229676D01*
X122981527Y-60474587D01*
X123077188Y-60702154D01*
X123230521Y-60895614D01*
X123430233Y-61040712D01*
X123661607Y-61126760D01*
X123907598Y-61147416D01*
X124150081Y-61101160D01*
X124371194Y-60991399D01*
X124554644Y-60826220D01*
X124686917Y-60617792D01*
X124758460Y-60380827D01*
X124761229Y-60116420D01*
X124694664Y-59878009D01*
X124641653Y-59790476D01*
X130540587Y-59790476D01*
X130571527Y-60035387D01*
X130667188Y-60262954D01*
X130820521Y-60456414D01*
X131020233Y-60601512D01*
X131251607Y-60687560D01*
X131497598Y-60708216D01*
X131740081Y-60661960D01*
X131961194Y-60552199D01*
X132144644Y-60387020D01*
X132226537Y-60257977D01*
X133617863Y-60257977D01*
X133648803Y-60502888D01*
X133744464Y-60730455D01*
X133897797Y-60923915D01*
X134097509Y-61069013D01*
X134328883Y-61155061D01*
X134454192Y-61165583D01*
X134535688Y-61359454D01*
X134689021Y-61552914D01*
X134888733Y-61698012D01*
X135120107Y-61784060D01*
X135366098Y-61804716D01*
X135608581Y-61758460D01*
X135829694Y-61648699D01*
X136013144Y-61483520D01*
X136145417Y-61275092D01*
X136216960Y-61038127D01*
X136218831Y-60859447D01*
X139406447Y-60859447D01*
X139441229Y-61105379D01*
X139546788Y-61330211D01*
X139713789Y-61514065D01*
X139927469Y-61640687D01*
X140168934Y-61698880D01*
X140416836Y-61683501D01*
X140649257Y-61595908D01*
X140845648Y-61443846D01*
X140988644Y-61240759D01*
X141065759Y-61004123D01*
X141068032Y-60743753D01*
X140995058Y-60505807D01*
X140972795Y-60472987D01*
X141081907Y-60318022D01*
X141159022Y-60081386D01*
X141161295Y-59821016D01*
X141088321Y-59583069D01*
X140948890Y-59377519D01*
X140755184Y-59222053D01*
X140524327Y-59130417D01*
X140276731Y-59110712D01*
X140034287Y-59164684D01*
X139818430Y-59287556D01*
X139648245Y-59468469D01*
X139538779Y-59691424D01*
X139499710Y-59936710D01*
X139534492Y-60182642D01*
X139606633Y-60336299D01*
X139554982Y-60391206D01*
X139445516Y-60614161D01*
X139406447Y-60859447D01*
X136218831Y-60859447D01*
X136219729Y-60773720D01*
X136153164Y-60535309D01*
X136025285Y-60324156D01*
X135845335Y-60155172D01*
X135626569Y-60040804D01*
X135385165Y-59989492D01*
X135361940Y-59906310D01*
X135234061Y-59695157D01*
X135054111Y-59526173D01*
X134835345Y-59411805D01*
X134593883Y-59360481D01*
X134347514Y-59375981D01*
X134114389Y-59457164D01*
X133911682Y-59598049D01*
X133754330Y-59788255D01*
X133653925Y-60013769D01*
X133617863Y-60257977D01*
X132226537Y-60257977D01*
X132276917Y-60178592D01*
X132348460Y-59941627D01*
X132351229Y-59677220D01*
X132284664Y-59438809D01*
X132156785Y-59227656D01*
X131976835Y-59058672D01*
X131758069Y-58944304D01*
X131516607Y-58892980D01*
X131270238Y-58908480D01*
X131037113Y-58989663D01*
X130834406Y-59130548D01*
X130677054Y-59320754D01*
X130576649Y-59546268D01*
X130540587Y-59790476D01*
X124641653Y-59790476D01*
X124566785Y-59666856D01*
X124386835Y-59497872D01*
X124168069Y-59383504D01*
X123926607Y-59332180D01*
X123680238Y-59347680D01*
X123447113Y-59428863D01*
X123244406Y-59569748D01*
X123087054Y-59759954D01*
X122986649Y-59985468D01*
X122950587Y-60229676D01*
X115237699Y-60229676D01*
X115262819Y-60186167D01*
X115351152Y-59943476D01*
X115395999Y-59689134D01*
X115395999Y-59430866D01*
X115351152Y-59176524D01*
X115262819Y-58933833D01*
X115133686Y-58710167D01*
X114967676Y-58512324D01*
X114769833Y-58346314D01*
X114546167Y-58217181D01*
X114303476Y-58128848D01*
X114049134Y-58084001D01*
X113790866Y-58084001D01*
X113536524Y-58128848D01*
X113293833Y-58217181D01*
X113070167Y-58346314D01*
X112872324Y-58512324D01*
X112706314Y-58710167D01*
X112577181Y-58933833D01*
X112488848Y-59176524D01*
X112444001Y-59430866D01*
X108395999Y-59430866D01*
X108351152Y-59176524D01*
X108262819Y-58933833D01*
X108133686Y-58710167D01*
X107967676Y-58512324D01*
X107769833Y-58346314D01*
X107546167Y-58217181D01*
X107303476Y-58128848D01*
X107049134Y-58084001D01*
X106790866Y-58084001D01*
X106536524Y-58128848D01*
X106293833Y-58217181D01*
X106070167Y-58346314D01*
X105872324Y-58512324D01*
X105706314Y-58710167D01*
X105577181Y-58933833D01*
X105488848Y-59176524D01*
X105444001Y-59430866D01*
X102126000Y-59430866D01*
X102126000Y-56889963D01*
X127536000Y-56889963D01*
X127536000Y-57105637D01*
X127580842Y-57316598D01*
X127668564Y-57513625D01*
X127795334Y-57688109D01*
X127955611Y-57832424D01*
X128142390Y-57940260D01*
X128347508Y-58006907D01*
X128562000Y-58029451D01*
X128776492Y-58006907D01*
X128981610Y-57940260D01*
X129168389Y-57832424D01*
X129328666Y-57688109D01*
X129455436Y-57513625D01*
X129543158Y-57316598D01*
X129588000Y-57105637D01*
X129588000Y-56889963D01*
X135537000Y-56889963D01*
X135537000Y-57105637D01*
X135581842Y-57316598D01*
X135669564Y-57513625D01*
X135796334Y-57688109D01*
X135956611Y-57832424D01*
X136143390Y-57940260D01*
X136348508Y-58006907D01*
X136563000Y-58029451D01*
X136777492Y-58006907D01*
X136982610Y-57940260D01*
X137169389Y-57832424D01*
X137329666Y-57688109D01*
X137456436Y-57513625D01*
X137544158Y-57316598D01*
X137589000Y-57105637D01*
X137589000Y-56889963D01*
X137544158Y-56679002D01*
X137456436Y-56481975D01*
X137329666Y-56307491D01*
X137169389Y-56163176D01*
X136982610Y-56055340D01*
X136777492Y-55988693D01*
X136563000Y-55966149D01*
X136348508Y-55988693D01*
X136143390Y-56055340D01*
X135956611Y-56163176D01*
X135796334Y-56307491D01*
X135669564Y-56481975D01*
X135581842Y-56679002D01*
X135537000Y-56889963D01*
X129588000Y-56889963D01*
X129543158Y-56679002D01*
X129455436Y-56481975D01*
X129328666Y-56307491D01*
X129168389Y-56163176D01*
X128981610Y-56055340D01*
X128776492Y-55988693D01*
X128562000Y-55966149D01*
X128347508Y-55988693D01*
X128142390Y-56055340D01*
X127955611Y-56163176D01*
X127795334Y-56307491D01*
X127668564Y-56481975D01*
X127580842Y-56679002D01*
X127536000Y-56889963D01*
X102126000Y-56889963D01*
X102126000Y-55428210D01*
X142039710Y-55428210D01*
X142074492Y-55674142D01*
X142180051Y-55898974D01*
X142347052Y-56082828D01*
X142560732Y-56209450D01*
X142802197Y-56267643D01*
X143050099Y-56252264D01*
X143282520Y-56164671D01*
X143478911Y-56012609D01*
X143511381Y-55966494D01*
X143617052Y-56082828D01*
X143830732Y-56209450D01*
X144072197Y-56267643D01*
X144320099Y-56252264D01*
X144552520Y-56164671D01*
X144748911Y-56012609D01*
X144891907Y-55809522D01*
X144969022Y-55572886D01*
X144971295Y-55312516D01*
X144898321Y-55074569D01*
X144758890Y-54869019D01*
X144565184Y-54713553D01*
X144334327Y-54621917D01*
X144086731Y-54602212D01*
X143844287Y-54656184D01*
X143628430Y-54779056D01*
X143511896Y-54902935D01*
X143488890Y-54869019D01*
X143295184Y-54713553D01*
X143064327Y-54621917D01*
X142816731Y-54602212D01*
X142574287Y-54656184D01*
X142358430Y-54779056D01*
X142188245Y-54959969D01*
X142078779Y-55182924D01*
X142039710Y-55428210D01*
X102126000Y-55428210D01*
X102126000Y-53725976D01*
X104930587Y-53725976D01*
X104961527Y-53970887D01*
X105057188Y-54198454D01*
X105210521Y-54391914D01*
X105410233Y-54537012D01*
X105641607Y-54623060D01*
X105887598Y-54643716D01*
X106130081Y-54597460D01*
X106351194Y-54487699D01*
X106534644Y-54322520D01*
X106583918Y-54244876D01*
X110291787Y-54244876D01*
X110322727Y-54489787D01*
X110418388Y-54717354D01*
X110571721Y-54910814D01*
X110771433Y-55055912D01*
X111002807Y-55141960D01*
X111248798Y-55162616D01*
X111491281Y-55116360D01*
X111712394Y-55006599D01*
X111895844Y-54841420D01*
X112028117Y-54632992D01*
X112099660Y-54396027D01*
X112102429Y-54131620D01*
X112035864Y-53893209D01*
X111907985Y-53682056D01*
X111812409Y-53592304D01*
X115578075Y-53592304D01*
X115599959Y-53795396D01*
X115667977Y-53988008D01*
X115778481Y-54159806D01*
X115925543Y-54301574D01*
X116101275Y-54405709D01*
X116296250Y-54466624D01*
X116500008Y-54481051D01*
X116701621Y-54448216D01*
X116890272Y-54369881D01*
X117055843Y-54250248D01*
X117189451Y-54095734D01*
X117283929Y-53914628D01*
X117334335Y-53716158D01*
X117336229Y-53499118D01*
X117289295Y-53299800D01*
X117197992Y-53117072D01*
X117067100Y-52960250D01*
X116903643Y-52837746D01*
X116716388Y-52756130D01*
X116515378Y-52719782D01*
X116311400Y-52730650D01*
X116115391Y-52788153D01*
X115937869Y-52889205D01*
X115788355Y-53028385D01*
X115674869Y-53198229D01*
X115603500Y-53389623D01*
X115578075Y-53592304D01*
X111812409Y-53592304D01*
X111728035Y-53513072D01*
X111509269Y-53398704D01*
X111267807Y-53347380D01*
X111021438Y-53362880D01*
X110788313Y-53444063D01*
X110585606Y-53584948D01*
X110428254Y-53775154D01*
X110327849Y-54000668D01*
X110291787Y-54244876D01*
X106583918Y-54244876D01*
X106666917Y-54114092D01*
X106738460Y-53877127D01*
X106741229Y-53612720D01*
X106674664Y-53374309D01*
X106546785Y-53163156D01*
X106366835Y-52994172D01*
X106148069Y-52879804D01*
X105906607Y-52828480D01*
X105660238Y-52843980D01*
X105427113Y-52925163D01*
X105224406Y-53066048D01*
X105067054Y-53256254D01*
X104966649Y-53481768D01*
X104930587Y-53725976D01*
X102126000Y-53725976D01*
X102126000Y-51440476D01*
X123890587Y-51440476D01*
X123921527Y-51685387D01*
X124017188Y-51912954D01*
X124170521Y-52106414D01*
X124370233Y-52251512D01*
X124601607Y-52337560D01*
X124847598Y-52358216D01*
X125090081Y-52311960D01*
X125311194Y-52202199D01*
X125494644Y-52037020D01*
X125626917Y-51828592D01*
X125698460Y-51591627D01*
X125700136Y-51431573D01*
X127288252Y-51431573D01*
X127310419Y-51642469D01*
X127377354Y-51843685D01*
X127485937Y-52025834D01*
X127631100Y-52180417D01*
X127806071Y-52300223D01*
X128002688Y-52379661D01*
X128211776Y-52415025D01*
X128423580Y-52404666D01*
X128628219Y-52349067D01*
X128816144Y-52250822D01*
X128978591Y-52114514D01*
X129107976Y-51946502D01*
X129198266Y-51754628D01*
X129245297Y-51547623D01*
X129246059Y-51329188D01*
X129200474Y-51121861D01*
X129111527Y-50929359D01*
X129054308Y-50853976D01*
X131805587Y-50853976D01*
X131836527Y-51098887D01*
X131932188Y-51326454D01*
X132085521Y-51519914D01*
X132285233Y-51665012D01*
X132516607Y-51751060D01*
X132762598Y-51771716D01*
X133005081Y-51725460D01*
X133226194Y-51615699D01*
X133345965Y-51507857D01*
X133355521Y-51519914D01*
X133555233Y-51665012D01*
X133786607Y-51751060D01*
X134032598Y-51771716D01*
X134275081Y-51725460D01*
X134496194Y-51615699D01*
X134679644Y-51450520D01*
X134811917Y-51242092D01*
X134883460Y-51005127D01*
X134884377Y-50917476D01*
X136885587Y-50917476D01*
X136916527Y-51162387D01*
X137012188Y-51389954D01*
X137165521Y-51583414D01*
X137365233Y-51728512D01*
X137596607Y-51814560D01*
X137842598Y-51835216D01*
X138085081Y-51788960D01*
X138306194Y-51679199D01*
X138309394Y-51676318D01*
X138381233Y-51728512D01*
X138612607Y-51814560D01*
X138858598Y-51835216D01*
X139101081Y-51788960D01*
X139322194Y-51679199D01*
X139505644Y-51514020D01*
X139637917Y-51305592D01*
X139709460Y-51068627D01*
X139711684Y-50856210D01*
X144579710Y-50856210D01*
X144614492Y-51102142D01*
X144720051Y-51326974D01*
X144887052Y-51510828D01*
X145100732Y-51637450D01*
X145342197Y-51695643D01*
X145590099Y-51680264D01*
X145822520Y-51592671D01*
X145822906Y-51592372D01*
X145776649Y-51696268D01*
X145740587Y-51940476D01*
X145771527Y-52185387D01*
X145867188Y-52412954D01*
X146020521Y-52606414D01*
X146220233Y-52751512D01*
X146451607Y-52837560D01*
X146697598Y-52858216D01*
X146940081Y-52811960D01*
X147161194Y-52702199D01*
X147344644Y-52537020D01*
X147476917Y-52328592D01*
X147548460Y-52091627D01*
X147551229Y-51827220D01*
X147484664Y-51588809D01*
X147356785Y-51377656D01*
X147342610Y-51364344D01*
X147431907Y-51237522D01*
X147509022Y-51000886D01*
X147509176Y-50983210D01*
X147818210Y-50983210D01*
X147852992Y-51229142D01*
X147958551Y-51453974D01*
X148125552Y-51637828D01*
X148339232Y-51764450D01*
X148580697Y-51822643D01*
X148828599Y-51807264D01*
X149061020Y-51719671D01*
X149100751Y-51688908D01*
X149228232Y-51764450D01*
X149469697Y-51822643D01*
X149717599Y-51807264D01*
X149950020Y-51719671D01*
X150146411Y-51567609D01*
X150160454Y-51547664D01*
X150170419Y-51642469D01*
X150237354Y-51843685D01*
X150345937Y-52025834D01*
X150491100Y-52180417D01*
X150666071Y-52300223D01*
X150862688Y-52379661D01*
X151071776Y-52415025D01*
X151283580Y-52404666D01*
X151488219Y-52349067D01*
X151676144Y-52250822D01*
X151838591Y-52114514D01*
X151967976Y-51946502D01*
X152058266Y-51754628D01*
X152105297Y-51547623D01*
X152106059Y-51329188D01*
X152060474Y-51121861D01*
X151971527Y-50929359D01*
X151843317Y-50760450D01*
X151681827Y-50623011D01*
X151494592Y-50523455D01*
X151290346Y-50466430D01*
X151078619Y-50454592D01*
X150869289Y-50488496D01*
X150672124Y-50566560D01*
X150496320Y-50685140D01*
X150357553Y-50830860D01*
X150295821Y-50629569D01*
X150156390Y-50424019D01*
X149962684Y-50268553D01*
X149731827Y-50176917D01*
X149484231Y-50157212D01*
X149241787Y-50211184D01*
X149101619Y-50290972D01*
X149073684Y-50268552D01*
X148842827Y-50176917D01*
X148595231Y-50157212D01*
X148352787Y-50211184D01*
X148136930Y-50334056D01*
X147966745Y-50514969D01*
X147857279Y-50737924D01*
X147818210Y-50983210D01*
X147509176Y-50983210D01*
X147511295Y-50740516D01*
X147438321Y-50502569D01*
X147298890Y-50297019D01*
X147105184Y-50141553D01*
X146874327Y-50049917D01*
X146626731Y-50030212D01*
X146384287Y-50084184D01*
X146168430Y-50207056D01*
X146051896Y-50330935D01*
X146028890Y-50297019D01*
X145835184Y-50141553D01*
X145604327Y-50049917D01*
X145356731Y-50030212D01*
X145114287Y-50084184D01*
X144898430Y-50207056D01*
X144728245Y-50387969D01*
X144618779Y-50610924D01*
X144579710Y-50856210D01*
X139711684Y-50856210D01*
X139712229Y-50804220D01*
X139645664Y-50565809D01*
X139517785Y-50354656D01*
X139337835Y-50185672D01*
X139119069Y-50071304D01*
X138877607Y-50019980D01*
X138631238Y-50035480D01*
X138398113Y-50116663D01*
X138308701Y-50178806D01*
X138103069Y-50071304D01*
X137861607Y-50019980D01*
X137615238Y-50035480D01*
X137382113Y-50116663D01*
X137179406Y-50257548D01*
X137022054Y-50447754D01*
X136921649Y-50673268D01*
X136885587Y-50917476D01*
X134884377Y-50917476D01*
X134886229Y-50740720D01*
X134819664Y-50502309D01*
X134691785Y-50291156D01*
X134511835Y-50122172D01*
X134293069Y-50007804D01*
X134051607Y-49956480D01*
X133805238Y-49971980D01*
X133572113Y-50053163D01*
X133369406Y-50194048D01*
X133347095Y-50221018D01*
X133241835Y-50122172D01*
X133023069Y-50007804D01*
X132781607Y-49956480D01*
X132535238Y-49971980D01*
X132302113Y-50053163D01*
X132099406Y-50194048D01*
X131942054Y-50384254D01*
X131841649Y-50609768D01*
X131805587Y-50853976D01*
X129054308Y-50853976D01*
X128983317Y-50760450D01*
X128821827Y-50623011D01*
X128634592Y-50523455D01*
X128430346Y-50466430D01*
X128218619Y-50454592D01*
X128009289Y-50488496D01*
X127812124Y-50566560D01*
X127636320Y-50685140D01*
X127490081Y-50838706D01*
X127380229Y-51020093D01*
X127311890Y-51220837D01*
X127288252Y-51431573D01*
X125700136Y-51431573D01*
X125701229Y-51327220D01*
X125634664Y-51088809D01*
X125506785Y-50877656D01*
X125326835Y-50708672D01*
X125108069Y-50594304D01*
X124866607Y-50542980D01*
X124620238Y-50558480D01*
X124387113Y-50639663D01*
X124184406Y-50780548D01*
X124027054Y-50970754D01*
X123926649Y-51196268D01*
X123890587Y-51440476D01*
X102126000Y-51440476D01*
X102126000Y-48130866D01*
X105364001Y-48130866D01*
X105364001Y-48389134D01*
X105408848Y-48643476D01*
X105497181Y-48886167D01*
X105626314Y-49109833D01*
X105792324Y-49307676D01*
X105990167Y-49473686D01*
X106213833Y-49602819D01*
X106456524Y-49691152D01*
X106710866Y-49735999D01*
X106969134Y-49735999D01*
X107223476Y-49691152D01*
X107466167Y-49602819D01*
X107689833Y-49473686D01*
X107887676Y-49307676D01*
X108053686Y-49109833D01*
X108182819Y-48886167D01*
X108271152Y-48643476D01*
X108315999Y-48389134D01*
X108315999Y-48130866D01*
X112364001Y-48130866D01*
X112364001Y-48389134D01*
X112408848Y-48643476D01*
X112497181Y-48886167D01*
X112626314Y-49109833D01*
X112792324Y-49307676D01*
X112990167Y-49473686D01*
X113213833Y-49602819D01*
X113456524Y-49691152D01*
X113710866Y-49735999D01*
X113969134Y-49735999D01*
X114223476Y-49691152D01*
X114466167Y-49602819D01*
X114689833Y-49473686D01*
X114887676Y-49307676D01*
X115053686Y-49109833D01*
X115182819Y-48886167D01*
X115271152Y-48643476D01*
X115315999Y-48389134D01*
X115315999Y-48130866D01*
X115271152Y-47876524D01*
X115182819Y-47633833D01*
X115053686Y-47410167D01*
X114887676Y-47212324D01*
X114689833Y-47046314D01*
X114466167Y-46917181D01*
X114223476Y-46828848D01*
X113969134Y-46784001D01*
X113710866Y-46784001D01*
X113456524Y-46828848D01*
X113213833Y-46917181D01*
X112990167Y-47046314D01*
X112792324Y-47212324D01*
X112626314Y-47410167D01*
X112497181Y-47633833D01*
X112408848Y-47876524D01*
X112364001Y-48130866D01*
X108315999Y-48130866D01*
X108271152Y-47876524D01*
X108182819Y-47633833D01*
X108053686Y-47410167D01*
X107887676Y-47212324D01*
X107689833Y-47046314D01*
X107466167Y-46917181D01*
X107223476Y-46828848D01*
X106969134Y-46784001D01*
X106710866Y-46784001D01*
X106456524Y-46828848D01*
X106213833Y-46917181D01*
X105990167Y-47046314D01*
X105792324Y-47212324D01*
X105626314Y-47410167D01*
X105497181Y-47633833D01*
X105408848Y-47876524D01*
X105364001Y-48130866D01*
X102126000Y-48130866D01*
X102126000Y-45290476D01*
X116140587Y-45290476D01*
X116171527Y-45535387D01*
X116267188Y-45762954D01*
X116420521Y-45956414D01*
X116620233Y-46101512D01*
X116851607Y-46187560D01*
X117097598Y-46208216D01*
X117340081Y-46161960D01*
X117561194Y-46052199D01*
X117744644Y-45887020D01*
X117876917Y-45678592D01*
X117948460Y-45441627D01*
X117951229Y-45177220D01*
X117884664Y-44938809D01*
X117756785Y-44727656D01*
X117576835Y-44558672D01*
X117358069Y-44444304D01*
X117116607Y-44392980D01*
X116870238Y-44408480D01*
X116637113Y-44489663D01*
X116434406Y-44630548D01*
X116277054Y-44820754D01*
X116176649Y-45046268D01*
X116140587Y-45290476D01*
X102126000Y-45290476D01*
X102126000Y-42426000D01*
X116157934Y-42426000D01*
X116126649Y-42496268D01*
%TD*%
M02*
