%TF.GenerationSoftware,KiCad,Pcbnew,5.1.5+dfsg1-2build2*%
%TF.CreationDate,2020-06-30T13:18:29+03:00*%
%TF.ProjectId,Lime2-SHIELD_RevB,4c696d65-322d-4534-9849-454c445f5265,D*%
%TF.SameCoordinates,Original*%
%TF.FileFunction,Legend,Top*%
%TF.FilePolarity,Positive*%
%FSLAX46Y46*%
G04 Gerber Fmt 4.6, Leading zero omitted, Abs format (unit mm)*
G04 Created by KiCad (PCBNEW 5.1.5+dfsg1-2build2) date 2020-06-30 13:18:29*
%MOMM*%
%LPD*%
G04 APERTURE LIST*
%ADD10C,0.150000*%
%ADD11C,0.250000*%
%ADD12C,0.350000*%
%ADD13C,0.254000*%
%ADD14C,0.100000*%
%ADD15C,0.700000*%
%ADD16C,0.400000*%
%ADD17C,0.500000*%
%ADD18C,0.508000*%
%ADD19C,0.127000*%
%ADD20C,0.190500*%
%ADD21C,0.300000*%
%ADD22C,0.203200*%
G04 APERTURE END LIST*
D10*
X162707580Y-57016495D02*
X162231390Y-57349828D01*
X162707580Y-57587923D02*
X161707580Y-57587923D01*
X161707580Y-57206971D01*
X161755200Y-57111733D01*
X161802819Y-57064114D01*
X161898057Y-57016495D01*
X162040914Y-57016495D01*
X162136152Y-57064114D01*
X162183771Y-57111733D01*
X162231390Y-57206971D01*
X162231390Y-57587923D01*
X162659961Y-56206971D02*
X162707580Y-56302209D01*
X162707580Y-56492685D01*
X162659961Y-56587923D01*
X162564723Y-56635542D01*
X162183771Y-56635542D01*
X162088533Y-56587923D01*
X162040914Y-56492685D01*
X162040914Y-56302209D01*
X162088533Y-56206971D01*
X162183771Y-56159352D01*
X162279009Y-56159352D01*
X162374247Y-56635542D01*
X162040914Y-55826019D02*
X162707580Y-55587923D01*
X162040914Y-55349828D01*
X162612342Y-54968876D02*
X162659961Y-54921257D01*
X162707580Y-54968876D01*
X162659961Y-55016495D01*
X162612342Y-54968876D01*
X162707580Y-54968876D01*
X162612342Y-53921257D02*
X162659961Y-53968876D01*
X162707580Y-54111733D01*
X162707580Y-54206971D01*
X162659961Y-54349828D01*
X162564723Y-54445066D01*
X162469485Y-54492685D01*
X162279009Y-54540304D01*
X162136152Y-54540304D01*
X161945676Y-54492685D01*
X161850438Y-54445066D01*
X161755200Y-54349828D01*
X161707580Y-54206971D01*
X161707580Y-54111733D01*
X161755200Y-53968876D01*
X161802819Y-53921257D01*
D11*
X156961904Y-70902380D02*
X156961904Y-70159523D01*
X156961904Y-70530952D02*
X158261904Y-70530952D01*
X158076190Y-70407142D01*
X157952380Y-70283333D01*
X157890476Y-70159523D01*
X158261904Y-71707142D02*
X158261904Y-71830952D01*
X158200000Y-71954761D01*
X158138095Y-72016666D01*
X158014285Y-72078571D01*
X157766666Y-72140476D01*
X157457142Y-72140476D01*
X157209523Y-72078571D01*
X157085714Y-72016666D01*
X157023809Y-71954761D01*
X156961904Y-71830952D01*
X156961904Y-71707142D01*
X157023809Y-71583333D01*
X157085714Y-71521428D01*
X157209523Y-71459523D01*
X157457142Y-71397619D01*
X157766666Y-71397619D01*
X158014285Y-71459523D01*
X158138095Y-71521428D01*
X158200000Y-71583333D01*
X158261904Y-71707142D01*
X156961904Y-84302380D02*
X156961904Y-84550000D01*
X157023809Y-84673809D01*
X157085714Y-84735714D01*
X157271428Y-84859523D01*
X157519047Y-84921428D01*
X158014285Y-84921428D01*
X158138095Y-84859523D01*
X158200000Y-84797619D01*
X158261904Y-84673809D01*
X158261904Y-84426190D01*
X158200000Y-84302380D01*
X158138095Y-84240476D01*
X158014285Y-84178571D01*
X157704761Y-84178571D01*
X157580952Y-84240476D01*
X157519047Y-84302380D01*
X157457142Y-84426190D01*
X157457142Y-84673809D01*
X157519047Y-84797619D01*
X157580952Y-84859523D01*
X157704761Y-84921428D01*
X148038095Y-71128571D02*
X148100000Y-71190476D01*
X148161904Y-71314285D01*
X148161904Y-71623809D01*
X148100000Y-71747619D01*
X148038095Y-71809523D01*
X147914285Y-71871428D01*
X147790476Y-71871428D01*
X147604761Y-71809523D01*
X146861904Y-71066666D01*
X146861904Y-71871428D01*
X146961904Y-69871428D02*
X146961904Y-69128571D01*
X146961904Y-69500000D02*
X148261904Y-69500000D01*
X148076190Y-69376190D01*
X147952380Y-69252380D01*
X147890476Y-69128571D01*
X146911904Y-84871428D02*
X146911904Y-84128571D01*
X146911904Y-84500000D02*
X148211904Y-84500000D01*
X148026190Y-84376190D01*
X147902380Y-84252380D01*
X147840476Y-84128571D01*
D10*
X123372619Y-74644285D02*
X124372619Y-74644285D01*
X123896428Y-74644285D02*
X123896428Y-75215714D01*
X123372619Y-75215714D02*
X124372619Y-75215714D01*
X123372619Y-71429523D02*
X123372619Y-70953333D01*
X124372619Y-70953333D01*
X124325000Y-77343095D02*
X124372619Y-77247857D01*
X124372619Y-77105000D01*
X124325000Y-76962142D01*
X124229761Y-76866904D01*
X124134523Y-76819285D01*
X123944047Y-76771666D01*
X123801190Y-76771666D01*
X123610714Y-76819285D01*
X123515476Y-76866904D01*
X123420238Y-76962142D01*
X123372619Y-77105000D01*
X123372619Y-77200238D01*
X123420238Y-77343095D01*
X123467857Y-77390714D01*
X123801190Y-77390714D01*
X123801190Y-77200238D01*
X123372619Y-77819285D02*
X124372619Y-77819285D01*
X123372619Y-78390714D01*
X124372619Y-78390714D01*
X123372619Y-78866904D02*
X124372619Y-78866904D01*
X124372619Y-79105000D01*
X124325000Y-79247857D01*
X124229761Y-79343095D01*
X124134523Y-79390714D01*
X123944047Y-79438333D01*
X123801190Y-79438333D01*
X123610714Y-79390714D01*
X123515476Y-79343095D01*
X123420238Y-79247857D01*
X123372619Y-79105000D01*
X123372619Y-78866904D01*
D11*
X109564285Y-55461666D02*
X110183333Y-55461666D01*
X109440476Y-55833095D02*
X109873809Y-54533095D01*
X110307142Y-55833095D01*
X111297619Y-54966428D02*
X111297619Y-55833095D01*
X110740476Y-54966428D02*
X110740476Y-55647380D01*
X110802380Y-55771190D01*
X110926190Y-55833095D01*
X111111904Y-55833095D01*
X111235714Y-55771190D01*
X111297619Y-55709285D01*
X112473809Y-55833095D02*
X112473809Y-54533095D01*
X112473809Y-55771190D02*
X112350000Y-55833095D01*
X112102380Y-55833095D01*
X111978571Y-55771190D01*
X111916666Y-55709285D01*
X111854761Y-55585476D01*
X111854761Y-55214047D01*
X111916666Y-55090238D01*
X111978571Y-55028333D01*
X112102380Y-54966428D01*
X112350000Y-54966428D01*
X112473809Y-55028333D01*
X113092857Y-55833095D02*
X113092857Y-54966428D01*
X113092857Y-54533095D02*
X113030952Y-54595000D01*
X113092857Y-54656904D01*
X113154761Y-54595000D01*
X113092857Y-54533095D01*
X113092857Y-54656904D01*
X113897619Y-55833095D02*
X113773809Y-55771190D01*
X113711904Y-55709285D01*
X113650000Y-55585476D01*
X113650000Y-55214047D01*
X113711904Y-55090238D01*
X113773809Y-55028333D01*
X113897619Y-54966428D01*
X114083333Y-54966428D01*
X114207142Y-55028333D01*
X114269047Y-55090238D01*
X114330952Y-55214047D01*
X114330952Y-55585476D01*
X114269047Y-55709285D01*
X114207142Y-55771190D01*
X114083333Y-55833095D01*
X113897619Y-55833095D01*
X116126190Y-54533095D02*
X116373809Y-54533095D01*
X116497619Y-54595000D01*
X116621428Y-54718809D01*
X116683333Y-54966428D01*
X116683333Y-55399761D01*
X116621428Y-55647380D01*
X116497619Y-55771190D01*
X116373809Y-55833095D01*
X116126190Y-55833095D01*
X116002380Y-55771190D01*
X115878571Y-55647380D01*
X115816666Y-55399761D01*
X115816666Y-54966428D01*
X115878571Y-54718809D01*
X116002380Y-54595000D01*
X116126190Y-54533095D01*
X117240476Y-54533095D02*
X117240476Y-55585476D01*
X117302380Y-55709285D01*
X117364285Y-55771190D01*
X117488095Y-55833095D01*
X117735714Y-55833095D01*
X117859523Y-55771190D01*
X117921428Y-55709285D01*
X117983333Y-55585476D01*
X117983333Y-54533095D01*
X118416666Y-54533095D02*
X119159523Y-54533095D01*
X118788095Y-55833095D02*
X118788095Y-54533095D01*
X109795952Y-44031666D02*
X110415000Y-44031666D01*
X109672142Y-44403095D02*
X110105476Y-43103095D01*
X110538809Y-44403095D01*
X111529285Y-43536428D02*
X111529285Y-44403095D01*
X110972142Y-43536428D02*
X110972142Y-44217380D01*
X111034047Y-44341190D01*
X111157857Y-44403095D01*
X111343571Y-44403095D01*
X111467380Y-44341190D01*
X111529285Y-44279285D01*
X112705476Y-44403095D02*
X112705476Y-43103095D01*
X112705476Y-44341190D02*
X112581666Y-44403095D01*
X112334047Y-44403095D01*
X112210238Y-44341190D01*
X112148333Y-44279285D01*
X112086428Y-44155476D01*
X112086428Y-43784047D01*
X112148333Y-43660238D01*
X112210238Y-43598333D01*
X112334047Y-43536428D01*
X112581666Y-43536428D01*
X112705476Y-43598333D01*
X113324523Y-44403095D02*
X113324523Y-43536428D01*
X113324523Y-43103095D02*
X113262619Y-43165000D01*
X113324523Y-43226904D01*
X113386428Y-43165000D01*
X113324523Y-43103095D01*
X113324523Y-43226904D01*
X114129285Y-44403095D02*
X114005476Y-44341190D01*
X113943571Y-44279285D01*
X113881666Y-44155476D01*
X113881666Y-43784047D01*
X113943571Y-43660238D01*
X114005476Y-43598333D01*
X114129285Y-43536428D01*
X114315000Y-43536428D01*
X114438809Y-43598333D01*
X114500714Y-43660238D01*
X114562619Y-43784047D01*
X114562619Y-44155476D01*
X114500714Y-44279285D01*
X114438809Y-44341190D01*
X114315000Y-44403095D01*
X114129285Y-44403095D01*
X116110238Y-44403095D02*
X116110238Y-43103095D01*
X116729285Y-44403095D02*
X116729285Y-43103095D01*
X117472142Y-44403095D01*
X117472142Y-43103095D01*
D10*
X156273809Y-52268333D02*
X156226190Y-52220714D01*
X156130952Y-52077857D01*
X156083333Y-51982619D01*
X156035714Y-51839761D01*
X155988095Y-51601666D01*
X155988095Y-51411190D01*
X156035714Y-51173095D01*
X156083333Y-51030238D01*
X156130952Y-50935000D01*
X156226190Y-50792142D01*
X156273809Y-50744523D01*
X157083333Y-51839761D02*
X156988095Y-51887380D01*
X156797619Y-51887380D01*
X156702380Y-51839761D01*
X156654761Y-51792142D01*
X156607142Y-51696904D01*
X156607142Y-51411190D01*
X156654761Y-51315952D01*
X156702380Y-51268333D01*
X156797619Y-51220714D01*
X156988095Y-51220714D01*
X157083333Y-51268333D01*
X157416666Y-52268333D02*
X157464285Y-52220714D01*
X157559523Y-52077857D01*
X157607142Y-51982619D01*
X157654761Y-51839761D01*
X157702380Y-51601666D01*
X157702380Y-51411190D01*
X157654761Y-51173095D01*
X157607142Y-51030238D01*
X157559523Y-50935000D01*
X157464285Y-50792142D01*
X157416666Y-50744523D01*
X158130952Y-50982619D02*
X158178571Y-50935000D01*
X158273809Y-50887380D01*
X158511904Y-50887380D01*
X158607142Y-50935000D01*
X158654761Y-50982619D01*
X158702380Y-51077857D01*
X158702380Y-51173095D01*
X158654761Y-51315952D01*
X158083333Y-51887380D01*
X158702380Y-51887380D01*
X159321428Y-50887380D02*
X159416666Y-50887380D01*
X159511904Y-50935000D01*
X159559523Y-50982619D01*
X159607142Y-51077857D01*
X159654761Y-51268333D01*
X159654761Y-51506428D01*
X159607142Y-51696904D01*
X159559523Y-51792142D01*
X159511904Y-51839761D01*
X159416666Y-51887380D01*
X159321428Y-51887380D01*
X159226190Y-51839761D01*
X159178571Y-51792142D01*
X159130952Y-51696904D01*
X159083333Y-51506428D01*
X159083333Y-51268333D01*
X159130952Y-51077857D01*
X159178571Y-50982619D01*
X159226190Y-50935000D01*
X159321428Y-50887380D01*
X160035714Y-50982619D02*
X160083333Y-50935000D01*
X160178571Y-50887380D01*
X160416666Y-50887380D01*
X160511904Y-50935000D01*
X160559523Y-50982619D01*
X160607142Y-51077857D01*
X160607142Y-51173095D01*
X160559523Y-51315952D01*
X159988095Y-51887380D01*
X160607142Y-51887380D01*
X161226190Y-50887380D02*
X161321428Y-50887380D01*
X161416666Y-50935000D01*
X161464285Y-50982619D01*
X161511904Y-51077857D01*
X161559523Y-51268333D01*
X161559523Y-51506428D01*
X161511904Y-51696904D01*
X161464285Y-51792142D01*
X161416666Y-51839761D01*
X161321428Y-51887380D01*
X161226190Y-51887380D01*
X161130952Y-51839761D01*
X161083333Y-51792142D01*
X161035714Y-51696904D01*
X160988095Y-51506428D01*
X160988095Y-51268333D01*
X161035714Y-51077857D01*
X161083333Y-50982619D01*
X161130952Y-50935000D01*
X161226190Y-50887380D01*
D12*
X141844285Y-56784761D02*
X140891904Y-56784761D01*
X140891904Y-54784761D01*
X142510952Y-56784761D02*
X142510952Y-54784761D01*
X143463333Y-56784761D02*
X143463333Y-54784761D01*
X144130000Y-56213333D01*
X144796666Y-54784761D01*
X144796666Y-56784761D01*
X145749047Y-55737142D02*
X146415714Y-55737142D01*
X146701428Y-56784761D02*
X145749047Y-56784761D01*
X145749047Y-54784761D01*
X146701428Y-54784761D01*
X147463333Y-54975238D02*
X147558571Y-54880000D01*
X147749047Y-54784761D01*
X148225238Y-54784761D01*
X148415714Y-54880000D01*
X148510952Y-54975238D01*
X148606190Y-55165714D01*
X148606190Y-55356190D01*
X148510952Y-55641904D01*
X147368095Y-56784761D01*
X148606190Y-56784761D01*
X149463333Y-56022857D02*
X150987142Y-56022857D01*
X151844285Y-56689523D02*
X152130000Y-56784761D01*
X152606190Y-56784761D01*
X152796666Y-56689523D01*
X152891904Y-56594285D01*
X152987142Y-56403809D01*
X152987142Y-56213333D01*
X152891904Y-56022857D01*
X152796666Y-55927619D01*
X152606190Y-55832380D01*
X152225238Y-55737142D01*
X152034761Y-55641904D01*
X151939523Y-55546666D01*
X151844285Y-55356190D01*
X151844285Y-55165714D01*
X151939523Y-54975238D01*
X152034761Y-54880000D01*
X152225238Y-54784761D01*
X152701428Y-54784761D01*
X152987142Y-54880000D01*
X153844285Y-56784761D02*
X153844285Y-54784761D01*
X153844285Y-55737142D02*
X154987142Y-55737142D01*
X154987142Y-56784761D02*
X154987142Y-54784761D01*
X155939523Y-56784761D02*
X155939523Y-54784761D01*
X156891904Y-55737142D02*
X157558571Y-55737142D01*
X157844285Y-56784761D02*
X156891904Y-56784761D01*
X156891904Y-54784761D01*
X157844285Y-54784761D01*
X159653809Y-56784761D02*
X158701428Y-56784761D01*
X158701428Y-54784761D01*
X160320476Y-56784761D02*
X160320476Y-54784761D01*
X160796666Y-54784761D01*
X161082380Y-54880000D01*
X161272857Y-55070476D01*
X161368095Y-55260952D01*
X161463333Y-55641904D01*
X161463333Y-55927619D01*
X161368095Y-56308571D01*
X161272857Y-56499047D01*
X161082380Y-56689523D01*
X160796666Y-56784761D01*
X160320476Y-56784761D01*
D11*
X110666971Y-99247371D02*
X109800304Y-99247371D01*
X111162209Y-98937847D02*
X110233638Y-98628323D01*
X110233638Y-99433085D01*
X111100304Y-100175942D02*
X111100304Y-100299752D01*
X111038400Y-100423561D01*
X110976495Y-100485466D01*
X110852685Y-100547371D01*
X110605066Y-100609276D01*
X110295542Y-100609276D01*
X110047923Y-100547371D01*
X109924114Y-100485466D01*
X109862209Y-100423561D01*
X109800304Y-100299752D01*
X109800304Y-100175942D01*
X109862209Y-100052133D01*
X109924114Y-99990228D01*
X110047923Y-99928323D01*
X110295542Y-99866419D01*
X110605066Y-99866419D01*
X110852685Y-99928323D01*
X110976495Y-99990228D01*
X111038400Y-100052133D01*
X111100304Y-100175942D01*
X111100304Y-85409219D02*
X111100304Y-86213980D01*
X110605066Y-85780647D01*
X110605066Y-85966361D01*
X110543161Y-86090171D01*
X110481257Y-86152076D01*
X110357447Y-86213980D01*
X110047923Y-86213980D01*
X109924114Y-86152076D01*
X109862209Y-86090171D01*
X109800304Y-85966361D01*
X109800304Y-85594933D01*
X109862209Y-85471123D01*
X109924114Y-85409219D01*
X109800304Y-86833028D02*
X109800304Y-87080647D01*
X109862209Y-87204457D01*
X109924114Y-87266361D01*
X110109828Y-87390171D01*
X110357447Y-87452076D01*
X110852685Y-87452076D01*
X110976495Y-87390171D01*
X111038400Y-87328266D01*
X111100304Y-87204457D01*
X111100304Y-86956838D01*
X111038400Y-86833028D01*
X110976495Y-86771123D01*
X110852685Y-86709219D01*
X110543161Y-86709219D01*
X110419352Y-86771123D01*
X110357447Y-86833028D01*
X110295542Y-86956838D01*
X110295542Y-87204457D01*
X110357447Y-87328266D01*
X110419352Y-87390171D01*
X110543161Y-87452076D01*
X123952704Y-98566419D02*
X123952704Y-99371180D01*
X123457466Y-98937847D01*
X123457466Y-99123561D01*
X123395561Y-99247371D01*
X123333657Y-99309276D01*
X123209847Y-99371180D01*
X122900323Y-99371180D01*
X122776514Y-99309276D01*
X122714609Y-99247371D01*
X122652704Y-99123561D01*
X122652704Y-98752133D01*
X122714609Y-98628323D01*
X122776514Y-98566419D01*
X123952704Y-100175942D02*
X123952704Y-100299752D01*
X123890800Y-100423561D01*
X123828895Y-100485466D01*
X123705085Y-100547371D01*
X123457466Y-100609276D01*
X123147942Y-100609276D01*
X122900323Y-100547371D01*
X122776514Y-100485466D01*
X122714609Y-100423561D01*
X122652704Y-100299752D01*
X122652704Y-100175942D01*
X122714609Y-100052133D01*
X122776514Y-99990228D01*
X122900323Y-99928323D01*
X123147942Y-99866419D01*
X123457466Y-99866419D01*
X123705085Y-99928323D01*
X123828895Y-99990228D01*
X123890800Y-100052133D01*
X123952704Y-100175942D01*
X123828895Y-85471123D02*
X123890800Y-85533028D01*
X123952704Y-85656838D01*
X123952704Y-85966361D01*
X123890800Y-86090171D01*
X123828895Y-86152076D01*
X123705085Y-86213980D01*
X123581276Y-86213980D01*
X123395561Y-86152076D01*
X122652704Y-85409219D01*
X122652704Y-86213980D01*
X122652704Y-86833028D02*
X122652704Y-87080647D01*
X122714609Y-87204457D01*
X122776514Y-87266361D01*
X122962228Y-87390171D01*
X123209847Y-87452076D01*
X123705085Y-87452076D01*
X123828895Y-87390171D01*
X123890800Y-87328266D01*
X123952704Y-87204457D01*
X123952704Y-86956838D01*
X123890800Y-86833028D01*
X123828895Y-86771123D01*
X123705085Y-86709219D01*
X123395561Y-86709219D01*
X123271752Y-86771123D01*
X123209847Y-86833028D01*
X123147942Y-86956838D01*
X123147942Y-87204457D01*
X123209847Y-87328266D01*
X123271752Y-87390171D01*
X123395561Y-87452076D01*
X135174904Y-86213980D02*
X135174904Y-85471123D01*
X135174904Y-85842552D02*
X136474904Y-85842552D01*
X136289190Y-85718742D01*
X136165380Y-85594933D01*
X136103476Y-85471123D01*
X135174904Y-86833028D02*
X135174904Y-87080647D01*
X135236809Y-87204457D01*
X135298714Y-87266361D01*
X135484428Y-87390171D01*
X135732047Y-87452076D01*
X136227285Y-87452076D01*
X136351095Y-87390171D01*
X136413000Y-87328266D01*
X136474904Y-87204457D01*
X136474904Y-86956838D01*
X136413000Y-86833028D01*
X136351095Y-86771123D01*
X136227285Y-86709219D01*
X135917761Y-86709219D01*
X135793952Y-86771123D01*
X135732047Y-86833028D01*
X135670142Y-86956838D01*
X135670142Y-87204457D01*
X135732047Y-87328266D01*
X135793952Y-87390171D01*
X135917761Y-87452076D01*
X136351095Y-98628323D02*
X136413000Y-98690228D01*
X136474904Y-98814038D01*
X136474904Y-99123561D01*
X136413000Y-99247371D01*
X136351095Y-99309276D01*
X136227285Y-99371180D01*
X136103476Y-99371180D01*
X135917761Y-99309276D01*
X135174904Y-98566419D01*
X135174904Y-99371180D01*
X136474904Y-100175942D02*
X136474904Y-100299752D01*
X136413000Y-100423561D01*
X136351095Y-100485466D01*
X136227285Y-100547371D01*
X135979666Y-100609276D01*
X135670142Y-100609276D01*
X135422523Y-100547371D01*
X135298714Y-100485466D01*
X135236809Y-100423561D01*
X135174904Y-100299752D01*
X135174904Y-100175942D01*
X135236809Y-100052133D01*
X135298714Y-99990228D01*
X135422523Y-99928323D01*
X135670142Y-99866419D01*
X135979666Y-99866419D01*
X136227285Y-99928323D01*
X136351095Y-99990228D01*
X136413000Y-100052133D01*
X136474904Y-100175942D01*
X147976504Y-86163180D02*
X147976504Y-86410800D01*
X148038409Y-86534609D01*
X148100314Y-86596514D01*
X148286028Y-86720323D01*
X148533647Y-86782228D01*
X149028885Y-86782228D01*
X149152695Y-86720323D01*
X149214600Y-86658419D01*
X149276504Y-86534609D01*
X149276504Y-86286990D01*
X149214600Y-86163180D01*
X149152695Y-86101276D01*
X149028885Y-86039371D01*
X148719361Y-86039371D01*
X148595552Y-86101276D01*
X148533647Y-86163180D01*
X148471742Y-86286990D01*
X148471742Y-86534609D01*
X148533647Y-86658419D01*
X148595552Y-86720323D01*
X148719361Y-86782228D01*
X147976504Y-99320380D02*
X147976504Y-98577523D01*
X147976504Y-98948952D02*
X149276504Y-98948952D01*
X149090790Y-98825142D01*
X148966980Y-98701333D01*
X148905076Y-98577523D01*
X149276504Y-100125142D02*
X149276504Y-100248952D01*
X149214600Y-100372761D01*
X149152695Y-100434666D01*
X149028885Y-100496571D01*
X148781266Y-100558476D01*
X148471742Y-100558476D01*
X148224123Y-100496571D01*
X148100314Y-100434666D01*
X148038409Y-100372761D01*
X147976504Y-100248952D01*
X147976504Y-100125142D01*
X148038409Y-100001333D01*
X148100314Y-99939428D01*
X148224123Y-99877523D01*
X148471742Y-99815619D01*
X148781266Y-99815619D01*
X149028885Y-99877523D01*
X149152695Y-99939428D01*
X149214600Y-100001333D01*
X149276504Y-100125142D01*
X159288095Y-99145771D02*
X159350000Y-99207676D01*
X159411904Y-99331485D01*
X159411904Y-99641009D01*
X159350000Y-99764819D01*
X159288095Y-99826723D01*
X159164285Y-99888628D01*
X159040476Y-99888628D01*
X158854761Y-99826723D01*
X158111904Y-99083866D01*
X158111904Y-99888628D01*
X158111904Y-86731428D02*
X158111904Y-85988571D01*
X158111904Y-86360000D02*
X159411904Y-86360000D01*
X159226190Y-86236190D01*
X159102380Y-86112380D01*
X159040476Y-85988571D01*
D13*
%TO.C,SJ1*%
X124684000Y-72497000D02*
X124684000Y-69703000D01*
X124938000Y-72751000D02*
X126462000Y-72751000D01*
X124938000Y-69449000D02*
X126462000Y-69449000D01*
X126716000Y-69703000D02*
X126716000Y-72497000D01*
X126462000Y-72751000D02*
G75*
G03X126716000Y-72497000I0J254000D01*
G01*
X126716000Y-69703000D02*
G75*
G03X126462000Y-69449000I-254000J0D01*
G01*
X124938000Y-69449000D02*
G75*
G03X124684000Y-69703000I0J-254000D01*
G01*
X124684000Y-72497000D02*
G75*
G03X124938000Y-72751000I254000J0D01*
G01*
D14*
%TO.C,*%
X152006300Y-49606200D02*
X153377900Y-49606200D01*
X153377900Y-49606200D02*
X153428700Y-49606200D01*
X153428700Y-49606200D02*
X154686000Y-50850800D01*
X150482300Y-49720500D02*
X150583900Y-49720500D01*
X150634700Y-49657000D02*
X150634700Y-49644300D01*
X150634700Y-49644300D02*
X149339300Y-49644300D01*
X149339300Y-49644300D02*
X149313900Y-49644300D01*
X149313900Y-49644300D02*
X148691600Y-50139600D01*
X150634700Y-52666900D02*
X150634700Y-49657000D01*
X146977100Y-49707800D02*
X146900900Y-49707800D01*
X146824700Y-49644300D02*
X148069300Y-49644300D01*
X148069300Y-49644300D02*
X148653500Y-50126900D01*
X146824700Y-52641500D02*
X146824700Y-49657000D01*
X146088100Y-52235100D02*
X146177000Y-52235100D01*
X145745200Y-52235100D02*
X145681700Y-52235100D01*
X145605500Y-52298600D02*
X146215100Y-52298600D01*
X146215100Y-52298600D02*
X146240500Y-52298600D01*
X146240500Y-52298600D02*
X146240500Y-50279300D01*
X145605500Y-50279300D02*
X145605500Y-52298600D01*
X144106900Y-49669700D02*
X144221200Y-49669700D01*
X143979900Y-49593500D02*
X144284700Y-49593500D01*
X144284700Y-49593500D02*
X144284700Y-52628800D01*
X143802100Y-49682400D02*
X143738600Y-49669700D01*
X143687800Y-49593500D02*
X143675100Y-49593500D01*
X143675100Y-49593500D02*
X143662400Y-49593500D01*
X143662400Y-49593500D02*
X143662400Y-52743100D01*
X143967200Y-49593500D02*
X143687800Y-49593500D01*
D15*
X143967200Y-52666900D02*
X143967200Y-49936400D01*
X150304500Y-49949100D02*
X150304500Y-52552600D01*
X142189200Y-49936400D02*
X141185900Y-49936400D01*
X142811500Y-50546000D02*
X142811500Y-52476400D01*
X140589000Y-50584100D02*
X140589000Y-50825400D01*
X140589000Y-52552600D02*
X141173200Y-53124100D01*
X140601700Y-52565300D02*
X140601700Y-51803300D01*
X141160500Y-53124100D02*
X142201900Y-53124100D01*
D16*
X153648659Y-51511200D02*
G75*
G03X153648659Y-51511200I-359659J0D01*
G01*
D15*
X152781000Y-51511200D02*
X151561800Y-51511200D01*
D16*
X156582135Y-49771300D02*
G75*
G03X156582135Y-49771300I-359435J0D01*
G01*
D15*
X155854400Y-50126900D02*
X154990800Y-51020600D01*
D17*
X154432000Y-51117500D02*
X154990800Y-51117500D01*
D15*
X153314400Y-49936400D02*
X154406600Y-51003200D01*
X152092500Y-49936400D02*
X153314400Y-49936400D01*
X151561800Y-50419000D02*
X152044400Y-49911000D01*
X151561800Y-50444400D02*
X151561800Y-52679600D01*
X151561800Y-52679600D02*
X151993600Y-53111400D01*
X151993600Y-53111400D02*
X153314400Y-53111400D01*
X153314400Y-53111400D02*
X154457400Y-51993800D01*
D17*
X154457400Y-51892200D02*
X154990800Y-51892200D01*
D15*
X155803600Y-52806600D02*
X154965400Y-51993800D01*
D16*
X156463266Y-53162200D02*
G75*
G03X156463266Y-53162200I-329466J0D01*
G01*
X150667729Y-53073300D02*
G75*
G03X150667729Y-53073300I-363229J0D01*
G01*
D15*
X149402800Y-49961800D02*
X150291800Y-49961800D01*
D16*
X149062518Y-51790600D02*
G75*
G03X149062518Y-51790600I-370918J0D01*
G01*
D15*
X148767800Y-50469800D02*
X149402800Y-49961800D01*
X148691600Y-51257200D02*
X148691600Y-50546000D01*
X147980400Y-49961800D02*
X148590000Y-50469800D01*
X147142200Y-49961800D02*
X147980400Y-49961800D01*
X147142200Y-52552600D02*
X147142200Y-49961800D01*
D16*
X147514559Y-53060600D02*
G75*
G03X147514559Y-53060600I-359659J0D01*
G01*
X146309218Y-49860200D02*
G75*
G03X146309218Y-49860200I-373518J0D01*
G01*
D15*
X145923000Y-50393600D02*
X145923000Y-51993800D01*
D16*
X146289324Y-53086000D02*
G75*
G03X146289324Y-53086000I-366324J0D01*
G01*
D15*
X145410200Y-53111400D02*
X144424400Y-53111400D01*
X144424400Y-53111400D02*
X143967200Y-52654200D01*
X142798800Y-52514500D02*
X142240000Y-53098700D01*
X142189200Y-49949100D02*
X142824200Y-50558700D01*
X140589000Y-50533300D02*
X141097000Y-50025300D01*
D16*
X140939147Y-51308000D02*
G75*
G03X140939147Y-51308000I-337447J0D01*
G01*
D13*
%TO.C,C10*%
X119800000Y-43294500D02*
X120054000Y-43294500D01*
X119800000Y-43294500D02*
X119546000Y-43294500D01*
X119800000Y-42405500D02*
X119546000Y-42405500D01*
X119800000Y-42405500D02*
X120054000Y-42405500D01*
%TO.C,C9*%
X119800000Y-45744500D02*
X120054000Y-45744500D01*
X119800000Y-45744500D02*
X119546000Y-45744500D01*
X119800000Y-44855500D02*
X119546000Y-44855500D01*
X119800000Y-44855500D02*
X120054000Y-44855500D01*
%TO.C,SJ4*%
X120967500Y-53276500D02*
G75*
G03X121221500Y-53530500I254000J0D01*
G01*
X121221500Y-49974500D02*
G75*
G03X120967500Y-50228500I0J-254000D01*
G01*
X122491500Y-50228500D02*
G75*
G03X122237500Y-49974500I-254000J0D01*
G01*
X122237500Y-53530500D02*
G75*
G03X122491500Y-53276500I0J254000D01*
G01*
X122491500Y-50228500D02*
X122491500Y-53276500D01*
X121221500Y-49974500D02*
X122237500Y-49974500D01*
X121221500Y-53530500D02*
X122237500Y-53530500D01*
X120967500Y-53276500D02*
X120967500Y-50228500D01*
%TO.C,SJ3*%
X120967500Y-45720000D02*
G75*
G03X121221500Y-45974000I254000J0D01*
G01*
X121221500Y-42418000D02*
G75*
G03X120967500Y-42672000I0J-254000D01*
G01*
X122491500Y-42672000D02*
G75*
G03X122237500Y-42418000I-254000J0D01*
G01*
X122237500Y-45974000D02*
G75*
G03X122491500Y-45720000I0J254000D01*
G01*
X122491500Y-42672000D02*
X122491500Y-45720000D01*
X121221500Y-42418000D02*
X122237500Y-42418000D01*
X121221500Y-45974000D02*
X122237500Y-45974000D01*
X120967500Y-45720000D02*
X120967500Y-42672000D01*
%TO.C,SJ2*%
X122999500Y-45720000D02*
G75*
G03X123253500Y-45974000I254000J0D01*
G01*
X123253500Y-42418000D02*
G75*
G03X122999500Y-42672000I0J-254000D01*
G01*
X124523500Y-42672000D02*
G75*
G03X124269500Y-42418000I-254000J0D01*
G01*
X124269500Y-45974000D02*
G75*
G03X124523500Y-45720000I0J254000D01*
G01*
X124523500Y-42672000D02*
X124523500Y-45720000D01*
X123253500Y-42418000D02*
X124269500Y-42418000D01*
X123253500Y-45974000D02*
X124269500Y-45974000D01*
X122999500Y-45720000D02*
X122999500Y-42672000D01*
D18*
%TO.C,UEXT2*%
X142303500Y-82042000D02*
X142303500Y-73152000D01*
X162623500Y-82042000D02*
X162623500Y-73152000D01*
X162623500Y-73152000D02*
X159448500Y-73152000D01*
X145478500Y-73152000D02*
X142303500Y-73152000D01*
X142303500Y-82042000D02*
X145478500Y-82042000D01*
X162623500Y-82042000D02*
X159448500Y-82042000D01*
X144843500Y-82677000D02*
X145478500Y-82677000D01*
X144843500Y-82677000D02*
X144843500Y-82042000D01*
X145478500Y-82677000D02*
X145478500Y-82042000D01*
X145161000Y-82677000D02*
X145161000Y-82042000D01*
X144843500Y-82677000D02*
X144208500Y-82042000D01*
%TO.C,UEXT1*%
X142430500Y-67627500D02*
X142430500Y-58737500D01*
X162750500Y-67627500D02*
X162750500Y-58737500D01*
X162750500Y-58737500D02*
X159575500Y-58737500D01*
X145605500Y-58737500D02*
X142430500Y-58737500D01*
X142430500Y-67627500D02*
X145605500Y-67627500D01*
X162750500Y-67627500D02*
X159575500Y-67627500D01*
X144970500Y-68262500D02*
X145605500Y-68262500D01*
X144970500Y-68262500D02*
X144970500Y-67627500D01*
X145605500Y-68262500D02*
X145605500Y-67627500D01*
X145288000Y-68262500D02*
X145288000Y-67627500D01*
X144970500Y-68262500D02*
X144335500Y-67627500D01*
D19*
%TO.C,U1*%
X132036266Y-82100420D02*
G75*
G03X132036266Y-82100420I-197566J0D01*
G01*
D13*
X128910080Y-76977240D02*
X131439920Y-76977240D01*
X131439920Y-76977240D02*
X131439920Y-81508600D01*
X131439920Y-81508600D02*
X131173220Y-81772760D01*
X131173220Y-81772760D02*
X128910080Y-81772760D01*
X128910080Y-81772760D02*
X128910080Y-76977240D01*
D19*
X131007566Y-81153000D02*
G75*
G03X131007566Y-81153000I-197566J0D01*
G01*
D13*
%TO.C,RM1*%
X129057400Y-72250300D02*
X129273300Y-72250300D01*
X129057400Y-75196700D02*
X129057400Y-72250300D01*
X129247900Y-75196700D02*
X129057400Y-75196700D01*
X133070600Y-72250300D02*
X132854700Y-72250300D01*
X133045200Y-75196700D02*
X132867400Y-75196700D01*
X133057900Y-75196700D02*
X133057900Y-72250300D01*
%TO.C,R12*%
X126758000Y-74288000D02*
X125742000Y-74288000D01*
X126758000Y-75812000D02*
X125742000Y-75812000D01*
%TO.C,R11*%
X130619500Y-76581000D02*
X130873500Y-76581000D01*
X130619500Y-76581000D02*
X130365500Y-76581000D01*
X130619500Y-75692000D02*
X130365500Y-75692000D01*
X130619500Y-75692000D02*
X130873500Y-75692000D01*
%TO.C,R10*%
X124904500Y-81724500D02*
X125158500Y-81724500D01*
X124904500Y-81724500D02*
X124650500Y-81724500D01*
X124904500Y-80835500D02*
X124650500Y-80835500D01*
X124904500Y-80835500D02*
X125158500Y-80835500D01*
%TO.C,R9*%
X137858500Y-77025500D02*
X137604500Y-77025500D01*
X137858500Y-77025500D02*
X138112500Y-77025500D01*
X137858500Y-77914500D02*
X138112500Y-77914500D01*
X137858500Y-77914500D02*
X137604500Y-77914500D01*
%TO.C,R8*%
X135699500Y-77025500D02*
X135445500Y-77025500D01*
X135699500Y-77025500D02*
X135953500Y-77025500D01*
X135699500Y-77914500D02*
X135953500Y-77914500D01*
X135699500Y-77914500D02*
X135445500Y-77914500D01*
%TO.C,R7*%
X118745000Y-66421000D02*
X118999000Y-66421000D01*
X118745000Y-66421000D02*
X118491000Y-66421000D01*
X118745000Y-65532000D02*
X118491000Y-65532000D01*
X118745000Y-65532000D02*
X118999000Y-65532000D01*
%TO.C,R6*%
X118745000Y-65087500D02*
X118999000Y-65087500D01*
X118745000Y-65087500D02*
X118491000Y-65087500D01*
X118745000Y-64198500D02*
X118491000Y-64198500D01*
X118745000Y-64198500D02*
X118999000Y-64198500D01*
%TO.C,R5*%
X105410000Y-54927500D02*
X105156000Y-54927500D01*
X105410000Y-54927500D02*
X105664000Y-54927500D01*
X105410000Y-55816500D02*
X105664000Y-55816500D01*
X105410000Y-55816500D02*
X105156000Y-55816500D01*
%TO.C,R4*%
X124705500Y-49645500D02*
X124705500Y-49899500D01*
X124705500Y-49645500D02*
X124705500Y-49391500D01*
X125594500Y-49645500D02*
X125594500Y-49391500D01*
X125594500Y-49645500D02*
X125594500Y-49899500D01*
%TO.C,R3*%
X124705500Y-47550000D02*
X124705500Y-47804000D01*
X124705500Y-47550000D02*
X124705500Y-47296000D01*
X125594500Y-47550000D02*
X125594500Y-47296000D01*
X125594500Y-47550000D02*
X125594500Y-47804000D01*
%TO.C,R2*%
X136588500Y-71056500D02*
X136588500Y-71310500D01*
X136588500Y-71056500D02*
X136588500Y-70802500D01*
X137477500Y-71056500D02*
X137477500Y-70802500D01*
X137477500Y-71056500D02*
X137477500Y-71310500D01*
%TO.C,R1*%
X127855500Y-71050000D02*
X127855500Y-71304000D01*
X127855500Y-71050000D02*
X127855500Y-70796000D01*
X128744500Y-71050000D02*
X128744500Y-70796000D01*
X128744500Y-71050000D02*
X128744500Y-71304000D01*
%TO.C,MICRO_SD1*%
X127561240Y-52999840D02*
X129961540Y-53700880D01*
X138958220Y-55999580D02*
X138958220Y-53700880D01*
X124261780Y-55999580D02*
X124261780Y-52999840D01*
X129961540Y-53700880D02*
X138958220Y-53700880D01*
X124261780Y-52999840D02*
X127561240Y-52999840D01*
X124261780Y-65997020D02*
X124261780Y-58801200D01*
X128760120Y-67498160D02*
X125861980Y-67498160D01*
X138958220Y-65997020D02*
X138958220Y-58801200D01*
%TO.C,GPIO5*%
X109160000Y-96149000D02*
X109160000Y-95895000D01*
X109160000Y-89545000D02*
X109160000Y-89291000D01*
X159960000Y-89545000D02*
X159960000Y-89291000D01*
X159960000Y-96149000D02*
X159960000Y-95895000D01*
X159960000Y-89545000D02*
X162500000Y-89545000D01*
X163770000Y-88275000D02*
X159960000Y-88275000D01*
X162754000Y-89291000D02*
X159960000Y-89291000D01*
X162754000Y-96149000D02*
X162754000Y-89291000D01*
X159960000Y-96149000D02*
X162754000Y-96149000D01*
X106366000Y-96149000D02*
X109160000Y-96149000D01*
X106366000Y-89291000D02*
X106366000Y-96149000D01*
X109160000Y-89291000D02*
X106366000Y-89291000D01*
X106620000Y-89545000D02*
X109160000Y-89545000D01*
X161230000Y-97165000D02*
X159960000Y-97165000D01*
X161230000Y-97419000D02*
X161230000Y-97165000D01*
X162500000Y-97419000D02*
X162500000Y-97165000D01*
X161230000Y-97419000D02*
X162500000Y-97419000D01*
X109160000Y-97165000D02*
X107890000Y-97165000D01*
X106620000Y-97165000D02*
X105350000Y-97165000D01*
X107890000Y-97165000D02*
X107890000Y-97419000D01*
X106620000Y-97419000D02*
X107890000Y-97419000D01*
X106620000Y-97165000D02*
X106620000Y-97419000D01*
X163770000Y-97165000D02*
X163770000Y-88275000D01*
X105350000Y-88275000D02*
X105350000Y-97165000D01*
X105350000Y-88275000D02*
X109160000Y-88275000D01*
X163770000Y-97165000D02*
X162500000Y-97165000D01*
X162500000Y-95895000D02*
X162500000Y-89545000D01*
X106620000Y-89545000D02*
X106620000Y-95895000D01*
X109160000Y-95895000D02*
X106620000Y-95895000D01*
X162500000Y-95895000D02*
X159960000Y-95895000D01*
X106860000Y-96020000D02*
X106460000Y-96020000D01*
X162660000Y-96020000D02*
X162260000Y-96020000D01*
X162660000Y-89420000D02*
X162260000Y-89420000D01*
X106860000Y-89420000D02*
X106460000Y-89420000D01*
%TO.C,CAN1*%
X121170000Y-80100000D02*
X120670000Y-80100000D01*
X121170000Y-80300000D02*
X120670000Y-80300000D01*
X120670000Y-80450000D02*
X120670000Y-79950000D01*
X121170000Y-80450000D02*
X120670000Y-80450000D01*
X121170000Y-79950000D02*
X121170000Y-80450000D01*
X116670000Y-69300000D02*
X115670000Y-69300000D01*
X116670000Y-69100000D02*
X115670000Y-69100000D01*
X116670000Y-68950000D02*
X115670000Y-68950000D01*
X115670000Y-68950000D02*
X115670000Y-69450000D01*
X116670000Y-68950000D02*
X116670000Y-69450000D01*
X116870210Y-78256000D02*
G75*
G03X116870210Y-78256000I-359210J0D01*
G01*
X116870210Y-74700000D02*
G75*
G03X116870210Y-74700000I-359210J0D01*
G01*
X116870210Y-71144000D02*
G75*
G03X116870210Y-71144000I-359210J0D01*
G01*
X114870000Y-79950000D02*
X114870000Y-69450000D01*
X122470000Y-69450000D02*
X122470000Y-79950000D01*
X114870000Y-79950000D02*
X122470000Y-79950000D01*
X114870000Y-69450000D02*
X122470000Y-69450000D01*
%TO.C,C8*%
X120777000Y-66421000D02*
X121031000Y-66421000D01*
X120777000Y-66421000D02*
X120523000Y-66421000D01*
X120777000Y-65532000D02*
X120523000Y-65532000D01*
X120777000Y-65532000D02*
X121031000Y-65532000D01*
%TO.C,C7*%
X120777000Y-65087500D02*
X121031000Y-65087500D01*
X120777000Y-65087500D02*
X120523000Y-65087500D01*
X120777000Y-64198500D02*
X120523000Y-64198500D01*
X120777000Y-64198500D02*
X121031000Y-64198500D01*
%TO.C,C6*%
X103314500Y-54927500D02*
X103060500Y-54927500D01*
X103314500Y-54927500D02*
X103568500Y-54927500D01*
X103314500Y-55816500D02*
X103568500Y-55816500D01*
X103314500Y-55816500D02*
X103060500Y-55816500D01*
%TO.C,C5*%
X127412000Y-49858000D02*
X127412000Y-48842000D01*
X125888000Y-49858000D02*
X125888000Y-48842000D01*
%TO.C,C4*%
X122788000Y-50142000D02*
X122788000Y-51158000D01*
X124312000Y-50142000D02*
X124312000Y-51158000D01*
%TO.C,C3*%
X126744500Y-43500000D02*
X126744500Y-43246000D01*
X126744500Y-43500000D02*
X126744500Y-43754000D01*
X125855500Y-43500000D02*
X125855500Y-43754000D01*
X125855500Y-43500000D02*
X125855500Y-43246000D01*
%TO.C,C2*%
X125855500Y-45595500D02*
X125855500Y-45849500D01*
X125855500Y-45595500D02*
X125855500Y-45341500D01*
X126744500Y-45595500D02*
X126744500Y-45341500D01*
X126744500Y-45595500D02*
X126744500Y-45849500D01*
%TO.C,C1*%
X133159500Y-71183500D02*
X134175500Y-71183500D01*
X133159500Y-69659500D02*
X134175500Y-69659500D01*
%TO.C,AUDIO_JACK_5PIN2*%
X104129300Y-51260000D02*
X104599200Y-51260000D01*
X101729000Y-51247300D02*
X101792500Y-51247300D01*
X116499100Y-51272700D02*
X118048500Y-51272700D01*
X107253500Y-51272700D02*
X113946400Y-51260000D01*
X118048500Y-48681900D02*
X118048500Y-51272700D01*
X118035800Y-45252900D02*
X118035800Y-46281600D01*
X108879100Y-45252900D02*
X118061200Y-45252900D01*
X101754400Y-45291000D02*
X106351800Y-45291000D01*
X101284500Y-46256200D02*
X101284500Y-50256700D01*
X101284500Y-50345600D02*
X101703600Y-50345600D01*
X100890800Y-50053500D02*
X101284500Y-50345600D01*
X100890800Y-46535600D02*
X100890800Y-50053500D01*
X101335300Y-46205400D02*
X100890800Y-46535600D01*
X101703600Y-46205400D02*
X101335300Y-46205400D01*
X101729000Y-45291000D02*
X101729000Y-51247300D01*
%TO.C,AUDIO_JACK_5PIN1*%
X104209300Y-62560000D02*
X104679200Y-62560000D01*
X101809000Y-62547300D02*
X101872500Y-62547300D01*
X116579100Y-62572700D02*
X118128500Y-62572700D01*
X107333500Y-62572700D02*
X114026400Y-62560000D01*
X118128500Y-59981900D02*
X118128500Y-62572700D01*
X118115800Y-56552900D02*
X118115800Y-57581600D01*
X108959100Y-56552900D02*
X118141200Y-56552900D01*
X101834400Y-56591000D02*
X106431800Y-56591000D01*
X101364500Y-57556200D02*
X101364500Y-61556700D01*
X101364500Y-61645600D02*
X101783600Y-61645600D01*
X100970800Y-61353500D02*
X101364500Y-61645600D01*
X100970800Y-57835600D02*
X100970800Y-61353500D01*
X101415300Y-57505400D02*
X100970800Y-57835600D01*
X101783600Y-57505400D02*
X101415300Y-57505400D01*
X101809000Y-56591000D02*
X101809000Y-62547300D01*
%TO.C,SJ1*%
D20*
X124879142Y-69058428D02*
X124988000Y-69094714D01*
X125169428Y-69094714D01*
X125242000Y-69058428D01*
X125278285Y-69022142D01*
X125314571Y-68949571D01*
X125314571Y-68877000D01*
X125278285Y-68804428D01*
X125242000Y-68768142D01*
X125169428Y-68731857D01*
X125024285Y-68695571D01*
X124951714Y-68659285D01*
X124915428Y-68623000D01*
X124879142Y-68550428D01*
X124879142Y-68477857D01*
X124915428Y-68405285D01*
X124951714Y-68369000D01*
X125024285Y-68332714D01*
X125205714Y-68332714D01*
X125314571Y-68369000D01*
X125858857Y-68332714D02*
X125858857Y-68877000D01*
X125822571Y-68985857D01*
X125750000Y-69058428D01*
X125641142Y-69094714D01*
X125568571Y-69094714D01*
X126620857Y-69094714D02*
X126185428Y-69094714D01*
X126403142Y-69094714D02*
X126403142Y-68332714D01*
X126330571Y-68441571D01*
X126258000Y-68514142D01*
X126185428Y-68550428D01*
%TO.C,C10*%
D10*
X117250000Y-42800000D02*
X117216666Y-42833333D01*
X117116666Y-42866666D01*
X117050000Y-42866666D01*
X116950000Y-42833333D01*
X116883333Y-42766666D01*
X116850000Y-42700000D01*
X116816666Y-42566666D01*
X116816666Y-42466666D01*
X116850000Y-42333333D01*
X116883333Y-42266666D01*
X116950000Y-42200000D01*
X117050000Y-42166666D01*
X117116666Y-42166666D01*
X117216666Y-42200000D01*
X117250000Y-42233333D01*
X117916666Y-42866666D02*
X117516666Y-42866666D01*
X117716666Y-42866666D02*
X117716666Y-42166666D01*
X117650000Y-42266666D01*
X117583333Y-42333333D01*
X117516666Y-42366666D01*
X118350000Y-42166666D02*
X118416666Y-42166666D01*
X118483333Y-42200000D01*
X118516666Y-42233333D01*
X118550000Y-42300000D01*
X118583333Y-42433333D01*
X118583333Y-42600000D01*
X118550000Y-42733333D01*
X118516666Y-42800000D01*
X118483333Y-42833333D01*
X118416666Y-42866666D01*
X118350000Y-42866666D01*
X118283333Y-42833333D01*
X118250000Y-42800000D01*
X118216666Y-42733333D01*
X118183333Y-42600000D01*
X118183333Y-42433333D01*
X118216666Y-42300000D01*
X118250000Y-42233333D01*
X118283333Y-42200000D01*
X118350000Y-42166666D01*
%TO.C,C9*%
X119633333Y-44550000D02*
X119600000Y-44583333D01*
X119500000Y-44616666D01*
X119433333Y-44616666D01*
X119333333Y-44583333D01*
X119266666Y-44516666D01*
X119233333Y-44450000D01*
X119200000Y-44316666D01*
X119200000Y-44216666D01*
X119233333Y-44083333D01*
X119266666Y-44016666D01*
X119333333Y-43950000D01*
X119433333Y-43916666D01*
X119500000Y-43916666D01*
X119600000Y-43950000D01*
X119633333Y-43983333D01*
X119966666Y-44616666D02*
X120100000Y-44616666D01*
X120166666Y-44583333D01*
X120200000Y-44550000D01*
X120266666Y-44450000D01*
X120300000Y-44316666D01*
X120300000Y-44050000D01*
X120266666Y-43983333D01*
X120233333Y-43950000D01*
X120166666Y-43916666D01*
X120033333Y-43916666D01*
X119966666Y-43950000D01*
X119933333Y-43983333D01*
X119900000Y-44050000D01*
X119900000Y-44216666D01*
X119933333Y-44283333D01*
X119966666Y-44316666D01*
X120033333Y-44350000D01*
X120166666Y-44350000D01*
X120233333Y-44316666D01*
X120266666Y-44283333D01*
X120300000Y-44216666D01*
%TO.C,SJ4*%
D11*
X120404761Y-52842857D02*
X120452380Y-52700000D01*
X120452380Y-52461904D01*
X120404761Y-52366666D01*
X120357142Y-52319047D01*
X120261904Y-52271428D01*
X120166666Y-52271428D01*
X120071428Y-52319047D01*
X120023809Y-52366666D01*
X119976190Y-52461904D01*
X119928571Y-52652380D01*
X119880952Y-52747619D01*
X119833333Y-52795238D01*
X119738095Y-52842857D01*
X119642857Y-52842857D01*
X119547619Y-52795238D01*
X119500000Y-52747619D01*
X119452380Y-52652380D01*
X119452380Y-52414285D01*
X119500000Y-52271428D01*
X119452380Y-51557142D02*
X120166666Y-51557142D01*
X120309523Y-51604761D01*
X120404761Y-51700000D01*
X120452380Y-51842857D01*
X120452380Y-51938095D01*
X119785714Y-50652380D02*
X120452380Y-50652380D01*
X119404761Y-50890476D02*
X120119047Y-51128571D01*
X120119047Y-50509523D01*
%TO.C,SJ3*%
X122197761Y-48564657D02*
X122245380Y-48421800D01*
X122245380Y-48183704D01*
X122197761Y-48088466D01*
X122150142Y-48040847D01*
X122054904Y-47993228D01*
X121959666Y-47993228D01*
X121864428Y-48040847D01*
X121816809Y-48088466D01*
X121769190Y-48183704D01*
X121721571Y-48374180D01*
X121673952Y-48469419D01*
X121626333Y-48517038D01*
X121531095Y-48564657D01*
X121435857Y-48564657D01*
X121340619Y-48517038D01*
X121293000Y-48469419D01*
X121245380Y-48374180D01*
X121245380Y-48136085D01*
X121293000Y-47993228D01*
X121245380Y-47278942D02*
X121959666Y-47278942D01*
X122102523Y-47326561D01*
X122197761Y-47421800D01*
X122245380Y-47564657D01*
X122245380Y-47659895D01*
X121245380Y-46897990D02*
X121245380Y-46278942D01*
X121626333Y-46612276D01*
X121626333Y-46469419D01*
X121673952Y-46374180D01*
X121721571Y-46326561D01*
X121816809Y-46278942D01*
X122054904Y-46278942D01*
X122150142Y-46326561D01*
X122197761Y-46374180D01*
X122245380Y-46469419D01*
X122245380Y-46755133D01*
X122197761Y-46850371D01*
X122150142Y-46897990D01*
%TO.C,SJ2*%
X124128161Y-48590057D02*
X124175780Y-48447200D01*
X124175780Y-48209104D01*
X124128161Y-48113866D01*
X124080542Y-48066247D01*
X123985304Y-48018628D01*
X123890066Y-48018628D01*
X123794828Y-48066247D01*
X123747209Y-48113866D01*
X123699590Y-48209104D01*
X123651971Y-48399580D01*
X123604352Y-48494819D01*
X123556733Y-48542438D01*
X123461495Y-48590057D01*
X123366257Y-48590057D01*
X123271019Y-48542438D01*
X123223400Y-48494819D01*
X123175780Y-48399580D01*
X123175780Y-48161485D01*
X123223400Y-48018628D01*
X123175780Y-47304342D02*
X123890066Y-47304342D01*
X124032923Y-47351961D01*
X124128161Y-47447200D01*
X124175780Y-47590057D01*
X124175780Y-47685295D01*
X123271019Y-46875771D02*
X123223400Y-46828152D01*
X123175780Y-46732914D01*
X123175780Y-46494819D01*
X123223400Y-46399580D01*
X123271019Y-46351961D01*
X123366257Y-46304342D01*
X123461495Y-46304342D01*
X123604352Y-46351961D01*
X124175780Y-46923390D01*
X124175780Y-46304342D01*
%TO.C,UEXT2*%
D21*
X165548352Y-73999371D02*
X164172161Y-73999371D01*
X164010257Y-74080323D01*
X163929304Y-74161276D01*
X163848352Y-74323180D01*
X163848352Y-74646990D01*
X163929304Y-74808895D01*
X164010257Y-74889847D01*
X164172161Y-74970800D01*
X165548352Y-74970800D01*
X164738828Y-75780323D02*
X164738828Y-76346990D01*
X163848352Y-76589847D02*
X163848352Y-75780323D01*
X165548352Y-75780323D01*
X165548352Y-76589847D01*
X165548352Y-77156514D02*
X163848352Y-78289847D01*
X165548352Y-78289847D02*
X163848352Y-77156514D01*
X165548352Y-78694609D02*
X165548352Y-79666038D01*
X163848352Y-79180323D02*
X165548352Y-79180323D01*
X165386447Y-80151752D02*
X165467400Y-80232704D01*
X165548352Y-80394609D01*
X165548352Y-80799371D01*
X165467400Y-80961276D01*
X165386447Y-81042228D01*
X165224542Y-81123180D01*
X165062638Y-81123180D01*
X164819780Y-81042228D01*
X163848352Y-80070800D01*
X163848352Y-81123180D01*
D13*
X145841357Y-81346523D02*
X145115642Y-81346523D01*
X145478500Y-81346523D02*
X145478500Y-80076523D01*
X145357547Y-80257952D01*
X145236595Y-80378904D01*
X145115642Y-80439380D01*
X145115642Y-74482476D02*
X145176119Y-74422000D01*
X145297071Y-74361523D01*
X145599452Y-74361523D01*
X145720404Y-74422000D01*
X145780880Y-74482476D01*
X145841357Y-74603428D01*
X145841357Y-74724380D01*
X145780880Y-74905809D01*
X145055166Y-75631523D01*
X145841357Y-75631523D01*
X159206595Y-81346523D02*
X159448500Y-81346523D01*
X159569452Y-81286047D01*
X159629928Y-81225571D01*
X159750880Y-81044142D01*
X159811357Y-80802238D01*
X159811357Y-80318428D01*
X159750880Y-80197476D01*
X159690404Y-80137000D01*
X159569452Y-80076523D01*
X159327547Y-80076523D01*
X159206595Y-80137000D01*
X159146119Y-80197476D01*
X159085642Y-80318428D01*
X159085642Y-80620809D01*
X159146119Y-80741761D01*
X159206595Y-80802238D01*
X159327547Y-80862714D01*
X159569452Y-80862714D01*
X159690404Y-80802238D01*
X159750880Y-80741761D01*
X159811357Y-80620809D01*
X159206595Y-75631523D02*
X158480880Y-75631523D01*
X158843738Y-75631523D02*
X158843738Y-74361523D01*
X158722785Y-74542952D01*
X158601833Y-74663904D01*
X158480880Y-74724380D01*
X159992785Y-74361523D02*
X160113738Y-74361523D01*
X160234690Y-74422000D01*
X160295166Y-74482476D01*
X160355642Y-74603428D01*
X160416119Y-74845333D01*
X160416119Y-75147714D01*
X160355642Y-75389619D01*
X160295166Y-75510571D01*
X160234690Y-75571047D01*
X160113738Y-75631523D01*
X159992785Y-75631523D01*
X159871833Y-75571047D01*
X159811357Y-75510571D01*
X159750880Y-75389619D01*
X159690404Y-75147714D01*
X159690404Y-74845333D01*
X159750880Y-74603428D01*
X159811357Y-74482476D01*
X159871833Y-74422000D01*
X159992785Y-74361523D01*
%TO.C,UEXT1*%
D21*
X165675352Y-59445171D02*
X164299161Y-59445171D01*
X164137257Y-59526123D01*
X164056304Y-59607076D01*
X163975352Y-59768980D01*
X163975352Y-60092790D01*
X164056304Y-60254695D01*
X164137257Y-60335647D01*
X164299161Y-60416600D01*
X165675352Y-60416600D01*
X164865828Y-61226123D02*
X164865828Y-61792790D01*
X163975352Y-62035647D02*
X163975352Y-61226123D01*
X165675352Y-61226123D01*
X165675352Y-62035647D01*
X165675352Y-62602314D02*
X163975352Y-63735647D01*
X165675352Y-63735647D02*
X163975352Y-62602314D01*
X165675352Y-64140409D02*
X165675352Y-65111838D01*
X163975352Y-64626123D02*
X165675352Y-64626123D01*
X163975352Y-66568980D02*
X163975352Y-65597552D01*
X163975352Y-66083266D02*
X165675352Y-66083266D01*
X165432495Y-65921361D01*
X165270590Y-65759457D01*
X165189638Y-65597552D01*
D13*
X145968357Y-66932023D02*
X145242642Y-66932023D01*
X145605500Y-66932023D02*
X145605500Y-65662023D01*
X145484547Y-65843452D01*
X145363595Y-65964404D01*
X145242642Y-66024880D01*
X145242642Y-60067976D02*
X145303119Y-60007500D01*
X145424071Y-59947023D01*
X145726452Y-59947023D01*
X145847404Y-60007500D01*
X145907880Y-60067976D01*
X145968357Y-60188928D01*
X145968357Y-60309880D01*
X145907880Y-60491309D01*
X145182166Y-61217023D01*
X145968357Y-61217023D01*
X159333595Y-66932023D02*
X159575500Y-66932023D01*
X159696452Y-66871547D01*
X159756928Y-66811071D01*
X159877880Y-66629642D01*
X159938357Y-66387738D01*
X159938357Y-65903928D01*
X159877880Y-65782976D01*
X159817404Y-65722500D01*
X159696452Y-65662023D01*
X159454547Y-65662023D01*
X159333595Y-65722500D01*
X159273119Y-65782976D01*
X159212642Y-65903928D01*
X159212642Y-66206309D01*
X159273119Y-66327261D01*
X159333595Y-66387738D01*
X159454547Y-66448214D01*
X159696452Y-66448214D01*
X159817404Y-66387738D01*
X159877880Y-66327261D01*
X159938357Y-66206309D01*
X159333595Y-61217023D02*
X158607880Y-61217023D01*
X158970738Y-61217023D02*
X158970738Y-59947023D01*
X158849785Y-60128452D01*
X158728833Y-60249404D01*
X158607880Y-60309880D01*
X160119785Y-59947023D02*
X160240738Y-59947023D01*
X160361690Y-60007500D01*
X160422166Y-60067976D01*
X160482642Y-60188928D01*
X160543119Y-60430833D01*
X160543119Y-60733214D01*
X160482642Y-60975119D01*
X160422166Y-61096071D01*
X160361690Y-61156547D01*
X160240738Y-61217023D01*
X160119785Y-61217023D01*
X159998833Y-61156547D01*
X159938357Y-61096071D01*
X159877880Y-60975119D01*
X159817404Y-60733214D01*
X159817404Y-60430833D01*
X159877880Y-60188928D01*
X159938357Y-60067976D01*
X159998833Y-60007500D01*
X160119785Y-59947023D01*
%TO.C,U1*%
D10*
X129634046Y-82192066D02*
X129634046Y-82758733D01*
X129667380Y-82825400D01*
X129700713Y-82858733D01*
X129767380Y-82892066D01*
X129900713Y-82892066D01*
X129967380Y-82858733D01*
X130000713Y-82825400D01*
X130034046Y-82758733D01*
X130034046Y-82192066D01*
X130734046Y-82892066D02*
X130334046Y-82892066D01*
X130534046Y-82892066D02*
X130534046Y-82192066D01*
X130467380Y-82292066D01*
X130400713Y-82358733D01*
X130334046Y-82392066D01*
D22*
X130314458Y-81254358D02*
X130362839Y-81109215D01*
X130362839Y-80867310D01*
X130314458Y-80770548D01*
X130266077Y-80722167D01*
X130169315Y-80673786D01*
X130072553Y-80673786D01*
X129975791Y-80722167D01*
X129927410Y-80770548D01*
X129879029Y-80867310D01*
X129830648Y-81060834D01*
X129782267Y-81157596D01*
X129733886Y-81205977D01*
X129637124Y-81254358D01*
X129540362Y-81254358D01*
X129443600Y-81205977D01*
X129395220Y-81157596D01*
X129346839Y-81060834D01*
X129346839Y-80818929D01*
X129395220Y-80673786D01*
X129346839Y-80044834D02*
X129346839Y-79851310D01*
X129395220Y-79754548D01*
X129491981Y-79657786D01*
X129685505Y-79609405D01*
X130024172Y-79609405D01*
X130217696Y-79657786D01*
X130314458Y-79754548D01*
X130362839Y-79851310D01*
X130362839Y-80044834D01*
X130314458Y-80141596D01*
X130217696Y-80238358D01*
X130024172Y-80286739D01*
X129685505Y-80286739D01*
X129491981Y-80238358D01*
X129395220Y-80141596D01*
X129346839Y-80044834D01*
X129975791Y-79173977D02*
X129975791Y-78399881D01*
X129782267Y-77770929D02*
X129733886Y-77867691D01*
X129685505Y-77916072D01*
X129588743Y-77964453D01*
X129540362Y-77964453D01*
X129443600Y-77916072D01*
X129395220Y-77867691D01*
X129346839Y-77770929D01*
X129346839Y-77577405D01*
X129395220Y-77480643D01*
X129443600Y-77432262D01*
X129540362Y-77383881D01*
X129588743Y-77383881D01*
X129685505Y-77432262D01*
X129733886Y-77480643D01*
X129782267Y-77577405D01*
X129782267Y-77770929D01*
X129830648Y-77867691D01*
X129879029Y-77916072D01*
X129975791Y-77964453D01*
X130169315Y-77964453D01*
X130266077Y-77916072D01*
X130314458Y-77867691D01*
X130362839Y-77770929D01*
X130362839Y-77577405D01*
X130314458Y-77480643D01*
X130266077Y-77432262D01*
X130169315Y-77383881D01*
X129975791Y-77383881D01*
X129879029Y-77432262D01*
X129830648Y-77480643D01*
X129782267Y-77577405D01*
%TO.C,RM1*%
D10*
X134103333Y-73976666D02*
X133870000Y-73643333D01*
X133703333Y-73976666D02*
X133703333Y-73276666D01*
X133970000Y-73276666D01*
X134036666Y-73310000D01*
X134070000Y-73343333D01*
X134103333Y-73410000D01*
X134103333Y-73510000D01*
X134070000Y-73576666D01*
X134036666Y-73610000D01*
X133970000Y-73643333D01*
X133703333Y-73643333D01*
X134403333Y-73976666D02*
X134403333Y-73276666D01*
X134636666Y-73776666D01*
X134870000Y-73276666D01*
X134870000Y-73976666D01*
X135570000Y-73976666D02*
X135170000Y-73976666D01*
X135370000Y-73976666D02*
X135370000Y-73276666D01*
X135303333Y-73376666D01*
X135236666Y-73443333D01*
X135170000Y-73476666D01*
%TO.C,R12*%
X125800000Y-73766466D02*
X125566666Y-73433133D01*
X125400000Y-73766466D02*
X125400000Y-73066466D01*
X125666666Y-73066466D01*
X125733333Y-73099800D01*
X125766666Y-73133133D01*
X125800000Y-73199800D01*
X125800000Y-73299800D01*
X125766666Y-73366466D01*
X125733333Y-73399800D01*
X125666666Y-73433133D01*
X125400000Y-73433133D01*
X126466666Y-73766466D02*
X126066666Y-73766466D01*
X126266666Y-73766466D02*
X126266666Y-73066466D01*
X126200000Y-73166466D01*
X126133333Y-73233133D01*
X126066666Y-73266466D01*
X126733333Y-73133133D02*
X126766666Y-73099800D01*
X126833333Y-73066466D01*
X127000000Y-73066466D01*
X127066666Y-73099800D01*
X127100000Y-73133133D01*
X127133333Y-73199800D01*
X127133333Y-73266466D01*
X127100000Y-73366466D01*
X126700000Y-73766466D01*
X127133333Y-73766466D01*
%TO.C,R11*%
X132265000Y-76465866D02*
X132031666Y-76132533D01*
X131865000Y-76465866D02*
X131865000Y-75765866D01*
X132131666Y-75765866D01*
X132198333Y-75799200D01*
X132231666Y-75832533D01*
X132265000Y-75899200D01*
X132265000Y-75999200D01*
X132231666Y-76065866D01*
X132198333Y-76099200D01*
X132131666Y-76132533D01*
X131865000Y-76132533D01*
X132931666Y-76465866D02*
X132531666Y-76465866D01*
X132731666Y-76465866D02*
X132731666Y-75765866D01*
X132665000Y-75865866D01*
X132598333Y-75932533D01*
X132531666Y-75965866D01*
X133598333Y-76465866D02*
X133198333Y-76465866D01*
X133398333Y-76465866D02*
X133398333Y-75765866D01*
X133331666Y-75865866D01*
X133265000Y-75932533D01*
X133198333Y-75965866D01*
%TO.C,R10*%
X124416400Y-80529866D02*
X124183066Y-80196533D01*
X124016400Y-80529866D02*
X124016400Y-79829866D01*
X124283066Y-79829866D01*
X124349733Y-79863200D01*
X124383066Y-79896533D01*
X124416400Y-79963200D01*
X124416400Y-80063200D01*
X124383066Y-80129866D01*
X124349733Y-80163200D01*
X124283066Y-80196533D01*
X124016400Y-80196533D01*
X125083066Y-80529866D02*
X124683066Y-80529866D01*
X124883066Y-80529866D02*
X124883066Y-79829866D01*
X124816400Y-79929866D01*
X124749733Y-79996533D01*
X124683066Y-80029866D01*
X125516400Y-79829866D02*
X125583066Y-79829866D01*
X125649733Y-79863200D01*
X125683066Y-79896533D01*
X125716400Y-79963200D01*
X125749733Y-80096533D01*
X125749733Y-80263200D01*
X125716400Y-80396533D01*
X125683066Y-80463200D01*
X125649733Y-80496533D01*
X125583066Y-80529866D01*
X125516400Y-80529866D01*
X125449733Y-80496533D01*
X125416400Y-80463200D01*
X125383066Y-80396533D01*
X125349733Y-80263200D01*
X125349733Y-80096533D01*
X125383066Y-79963200D01*
X125416400Y-79896533D01*
X125449733Y-79863200D01*
X125516400Y-79829866D01*
%TO.C,R9*%
X137741833Y-76389666D02*
X137508500Y-76056333D01*
X137341833Y-76389666D02*
X137341833Y-75689666D01*
X137608500Y-75689666D01*
X137675166Y-75723000D01*
X137708500Y-75756333D01*
X137741833Y-75823000D01*
X137741833Y-75923000D01*
X137708500Y-75989666D01*
X137675166Y-76023000D01*
X137608500Y-76056333D01*
X137341833Y-76056333D01*
X138075166Y-76389666D02*
X138208500Y-76389666D01*
X138275166Y-76356333D01*
X138308500Y-76323000D01*
X138375166Y-76223000D01*
X138408500Y-76089666D01*
X138408500Y-75823000D01*
X138375166Y-75756333D01*
X138341833Y-75723000D01*
X138275166Y-75689666D01*
X138141833Y-75689666D01*
X138075166Y-75723000D01*
X138041833Y-75756333D01*
X138008500Y-75823000D01*
X138008500Y-75989666D01*
X138041833Y-76056333D01*
X138075166Y-76089666D01*
X138141833Y-76123000D01*
X138275166Y-76123000D01*
X138341833Y-76089666D01*
X138375166Y-76056333D01*
X138408500Y-75989666D01*
%TO.C,R8*%
X135582833Y-76389666D02*
X135349500Y-76056333D01*
X135182833Y-76389666D02*
X135182833Y-75689666D01*
X135449500Y-75689666D01*
X135516166Y-75723000D01*
X135549500Y-75756333D01*
X135582833Y-75823000D01*
X135582833Y-75923000D01*
X135549500Y-75989666D01*
X135516166Y-76023000D01*
X135449500Y-76056333D01*
X135182833Y-76056333D01*
X135982833Y-75989666D02*
X135916166Y-75956333D01*
X135882833Y-75923000D01*
X135849500Y-75856333D01*
X135849500Y-75823000D01*
X135882833Y-75756333D01*
X135916166Y-75723000D01*
X135982833Y-75689666D01*
X136116166Y-75689666D01*
X136182833Y-75723000D01*
X136216166Y-75756333D01*
X136249500Y-75823000D01*
X136249500Y-75856333D01*
X136216166Y-75923000D01*
X136182833Y-75956333D01*
X136116166Y-75989666D01*
X135982833Y-75989666D01*
X135916166Y-76023000D01*
X135882833Y-76056333D01*
X135849500Y-76123000D01*
X135849500Y-76256333D01*
X135882833Y-76323000D01*
X135916166Y-76356333D01*
X135982833Y-76389666D01*
X136116166Y-76389666D01*
X136182833Y-76356333D01*
X136216166Y-76323000D01*
X136249500Y-76256333D01*
X136249500Y-76123000D01*
X136216166Y-76056333D01*
X136182833Y-76023000D01*
X136116166Y-75989666D01*
%TO.C,R7*%
X118628333Y-67690166D02*
X118395000Y-67356833D01*
X118228333Y-67690166D02*
X118228333Y-66990166D01*
X118495000Y-66990166D01*
X118561666Y-67023500D01*
X118595000Y-67056833D01*
X118628333Y-67123500D01*
X118628333Y-67223500D01*
X118595000Y-67290166D01*
X118561666Y-67323500D01*
X118495000Y-67356833D01*
X118228333Y-67356833D01*
X118861666Y-66990166D02*
X119328333Y-66990166D01*
X119028333Y-67690166D01*
%TO.C,R6*%
X118628333Y-63892866D02*
X118395000Y-63559533D01*
X118228333Y-63892866D02*
X118228333Y-63192866D01*
X118495000Y-63192866D01*
X118561666Y-63226200D01*
X118595000Y-63259533D01*
X118628333Y-63326200D01*
X118628333Y-63426200D01*
X118595000Y-63492866D01*
X118561666Y-63526200D01*
X118495000Y-63559533D01*
X118228333Y-63559533D01*
X119228333Y-63192866D02*
X119095000Y-63192866D01*
X119028333Y-63226200D01*
X118995000Y-63259533D01*
X118928333Y-63359533D01*
X118895000Y-63492866D01*
X118895000Y-63759533D01*
X118928333Y-63826200D01*
X118961666Y-63859533D01*
X119028333Y-63892866D01*
X119161666Y-63892866D01*
X119228333Y-63859533D01*
X119261666Y-63826200D01*
X119295000Y-63759533D01*
X119295000Y-63592866D01*
X119261666Y-63526200D01*
X119228333Y-63492866D01*
X119161666Y-63459533D01*
X119028333Y-63459533D01*
X118961666Y-63492866D01*
X118928333Y-63526200D01*
X118895000Y-63592866D01*
%TO.C,R5*%
X105293333Y-54291666D02*
X105060000Y-53958333D01*
X104893333Y-54291666D02*
X104893333Y-53591666D01*
X105160000Y-53591666D01*
X105226666Y-53625000D01*
X105260000Y-53658333D01*
X105293333Y-53725000D01*
X105293333Y-53825000D01*
X105260000Y-53891666D01*
X105226666Y-53925000D01*
X105160000Y-53958333D01*
X104893333Y-53958333D01*
X105926666Y-53591666D02*
X105593333Y-53591666D01*
X105560000Y-53925000D01*
X105593333Y-53891666D01*
X105660000Y-53858333D01*
X105826666Y-53858333D01*
X105893333Y-53891666D01*
X105926666Y-53925000D01*
X105960000Y-53991666D01*
X105960000Y-54158333D01*
X105926666Y-54225000D01*
X105893333Y-54258333D01*
X105826666Y-54291666D01*
X105660000Y-54291666D01*
X105593333Y-54258333D01*
X105560000Y-54225000D01*
%TO.C,R4*%
X125083333Y-51716666D02*
X124850000Y-51383333D01*
X124683333Y-51716666D02*
X124683333Y-51016666D01*
X124950000Y-51016666D01*
X125016666Y-51050000D01*
X125050000Y-51083333D01*
X125083333Y-51150000D01*
X125083333Y-51250000D01*
X125050000Y-51316666D01*
X125016666Y-51350000D01*
X124950000Y-51383333D01*
X124683333Y-51383333D01*
X125683333Y-51250000D02*
X125683333Y-51716666D01*
X125516666Y-50983333D02*
X125350000Y-51483333D01*
X125783333Y-51483333D01*
%TO.C,R3*%
X126283333Y-47416666D02*
X126050000Y-47083333D01*
X125883333Y-47416666D02*
X125883333Y-46716666D01*
X126150000Y-46716666D01*
X126216666Y-46750000D01*
X126250000Y-46783333D01*
X126283333Y-46850000D01*
X126283333Y-46950000D01*
X126250000Y-47016666D01*
X126216666Y-47050000D01*
X126150000Y-47083333D01*
X125883333Y-47083333D01*
X126516666Y-46716666D02*
X126950000Y-46716666D01*
X126716666Y-46983333D01*
X126816666Y-46983333D01*
X126883333Y-47016666D01*
X126916666Y-47050000D01*
X126950000Y-47116666D01*
X126950000Y-47283333D01*
X126916666Y-47350000D01*
X126883333Y-47383333D01*
X126816666Y-47416666D01*
X126616666Y-47416666D01*
X126550000Y-47383333D01*
X126516666Y-47350000D01*
%TO.C,R2*%
X138113333Y-71003333D02*
X138446666Y-70770000D01*
X138113333Y-70603333D02*
X138813333Y-70603333D01*
X138813333Y-70870000D01*
X138780000Y-70936666D01*
X138746666Y-70970000D01*
X138680000Y-71003333D01*
X138580000Y-71003333D01*
X138513333Y-70970000D01*
X138480000Y-70936666D01*
X138446666Y-70870000D01*
X138446666Y-70603333D01*
X138746666Y-71270000D02*
X138780000Y-71303333D01*
X138813333Y-71370000D01*
X138813333Y-71536666D01*
X138780000Y-71603333D01*
X138746666Y-71636666D01*
X138680000Y-71670000D01*
X138613333Y-71670000D01*
X138513333Y-71636666D01*
X138113333Y-71236666D01*
X138113333Y-71670000D01*
%TO.C,R1*%
X128133333Y-69666666D02*
X127900000Y-69333333D01*
X127733333Y-69666666D02*
X127733333Y-68966666D01*
X128000000Y-68966666D01*
X128066666Y-69000000D01*
X128100000Y-69033333D01*
X128133333Y-69100000D01*
X128133333Y-69200000D01*
X128100000Y-69266666D01*
X128066666Y-69300000D01*
X128000000Y-69333333D01*
X127733333Y-69333333D01*
X128800000Y-69666666D02*
X128400000Y-69666666D01*
X128600000Y-69666666D02*
X128600000Y-68966666D01*
X128533333Y-69066666D01*
X128466666Y-69133333D01*
X128400000Y-69166666D01*
%TO.C,MICRO_SD1*%
X135750000Y-69566666D02*
X135750000Y-68866666D01*
X135983333Y-69366666D01*
X136216666Y-68866666D01*
X136216666Y-69566666D01*
X136550000Y-69566666D02*
X136550000Y-68866666D01*
X137283333Y-69500000D02*
X137250000Y-69533333D01*
X137150000Y-69566666D01*
X137083333Y-69566666D01*
X136983333Y-69533333D01*
X136916666Y-69466666D01*
X136883333Y-69400000D01*
X136850000Y-69266666D01*
X136850000Y-69166666D01*
X136883333Y-69033333D01*
X136916666Y-68966666D01*
X136983333Y-68900000D01*
X137083333Y-68866666D01*
X137150000Y-68866666D01*
X137250000Y-68900000D01*
X137283333Y-68933333D01*
X137983333Y-69566666D02*
X137750000Y-69233333D01*
X137583333Y-69566666D02*
X137583333Y-68866666D01*
X137850000Y-68866666D01*
X137916666Y-68900000D01*
X137950000Y-68933333D01*
X137983333Y-69000000D01*
X137983333Y-69100000D01*
X137950000Y-69166666D01*
X137916666Y-69200000D01*
X137850000Y-69233333D01*
X137583333Y-69233333D01*
X138416666Y-68866666D02*
X138550000Y-68866666D01*
X138616666Y-68900000D01*
X138683333Y-68966666D01*
X138716666Y-69100000D01*
X138716666Y-69333333D01*
X138683333Y-69466666D01*
X138616666Y-69533333D01*
X138550000Y-69566666D01*
X138416666Y-69566666D01*
X138350000Y-69533333D01*
X138283333Y-69466666D01*
X138250000Y-69333333D01*
X138250000Y-69100000D01*
X138283333Y-68966666D01*
X138350000Y-68900000D01*
X138416666Y-68866666D01*
X138850000Y-69633333D02*
X139383333Y-69633333D01*
X139516666Y-69533333D02*
X139616666Y-69566666D01*
X139783333Y-69566666D01*
X139850000Y-69533333D01*
X139883333Y-69500000D01*
X139916666Y-69433333D01*
X139916666Y-69366666D01*
X139883333Y-69300000D01*
X139850000Y-69266666D01*
X139783333Y-69233333D01*
X139650000Y-69200000D01*
X139583333Y-69166666D01*
X139550000Y-69133333D01*
X139516666Y-69066666D01*
X139516666Y-69000000D01*
X139550000Y-68933333D01*
X139583333Y-68900000D01*
X139650000Y-68866666D01*
X139816666Y-68866666D01*
X139916666Y-68900000D01*
X140216666Y-69566666D02*
X140216666Y-68866666D01*
X140383333Y-68866666D01*
X140483333Y-68900000D01*
X140550000Y-68966666D01*
X140583333Y-69033333D01*
X140616666Y-69166666D01*
X140616666Y-69266666D01*
X140583333Y-69400000D01*
X140550000Y-69466666D01*
X140483333Y-69533333D01*
X140383333Y-69566666D01*
X140216666Y-69566666D01*
X141283333Y-69566666D02*
X140883333Y-69566666D01*
X141083333Y-69566666D02*
X141083333Y-68866666D01*
X141016666Y-68966666D01*
X140950000Y-69033333D01*
X140883333Y-69066666D01*
%TO.C,GPIO5*%
D13*
X104825800Y-91190838D02*
X104886276Y-91069885D01*
X104886276Y-90888457D01*
X104825800Y-90707028D01*
X104704847Y-90586076D01*
X104583895Y-90525600D01*
X104341990Y-90465123D01*
X104160561Y-90465123D01*
X103918657Y-90525600D01*
X103797704Y-90586076D01*
X103676752Y-90707028D01*
X103616276Y-90888457D01*
X103616276Y-91009409D01*
X103676752Y-91190838D01*
X103737228Y-91251314D01*
X104160561Y-91251314D01*
X104160561Y-91009409D01*
X103616276Y-91795600D02*
X104886276Y-91795600D01*
X104886276Y-92279409D01*
X104825800Y-92400361D01*
X104765323Y-92460838D01*
X104644371Y-92521314D01*
X104462942Y-92521314D01*
X104341990Y-92460838D01*
X104281514Y-92400361D01*
X104221038Y-92279409D01*
X104221038Y-91795600D01*
X103616276Y-93065600D02*
X104886276Y-93065600D01*
X104886276Y-93912266D02*
X104886276Y-94154171D01*
X104825800Y-94275123D01*
X104704847Y-94396076D01*
X104462942Y-94456552D01*
X104039609Y-94456552D01*
X103797704Y-94396076D01*
X103676752Y-94275123D01*
X103616276Y-94154171D01*
X103616276Y-93912266D01*
X103676752Y-93791314D01*
X103797704Y-93670361D01*
X104039609Y-93609885D01*
X104462942Y-93609885D01*
X104704847Y-93670361D01*
X104825800Y-93791314D01*
X104886276Y-93912266D01*
X104886276Y-95605600D02*
X104886276Y-95000838D01*
X104281514Y-94940361D01*
X104341990Y-95000838D01*
X104402466Y-95121790D01*
X104402466Y-95424171D01*
X104341990Y-95545123D01*
X104281514Y-95605600D01*
X104160561Y-95666076D01*
X103858180Y-95666076D01*
X103737228Y-95605600D01*
X103676752Y-95545123D01*
X103616276Y-95424171D01*
X103616276Y-95121790D01*
X103676752Y-95000838D01*
X103737228Y-94940361D01*
X160232142Y-93415476D02*
X160292619Y-93355000D01*
X160413571Y-93294523D01*
X160715952Y-93294523D01*
X160836904Y-93355000D01*
X160897380Y-93415476D01*
X160957857Y-93536428D01*
X160957857Y-93657380D01*
X160897380Y-93838809D01*
X160171666Y-94564523D01*
X160957857Y-94564523D01*
X160957857Y-92024523D02*
X160232142Y-92024523D01*
X160595000Y-92024523D02*
X160595000Y-90754523D01*
X160474047Y-90935952D01*
X160353095Y-91056904D01*
X160232142Y-91117380D01*
%TO.C,CAN1*%
D21*
X116747619Y-82457142D02*
X116666666Y-82538095D01*
X116423809Y-82619047D01*
X116261904Y-82619047D01*
X116019047Y-82538095D01*
X115857142Y-82376190D01*
X115776190Y-82214285D01*
X115695238Y-81890476D01*
X115695238Y-81647619D01*
X115776190Y-81323809D01*
X115857142Y-81161904D01*
X116019047Y-81000000D01*
X116261904Y-80919047D01*
X116423809Y-80919047D01*
X116666666Y-81000000D01*
X116747619Y-81080952D01*
X117395238Y-82133333D02*
X118204761Y-82133333D01*
X117233333Y-82619047D02*
X117800000Y-80919047D01*
X118366666Y-82619047D01*
X118933333Y-82619047D02*
X118933333Y-80919047D01*
X119904761Y-82619047D01*
X119904761Y-80919047D01*
X121604761Y-82619047D02*
X120633333Y-82619047D01*
X121119047Y-82619047D02*
X121119047Y-80919047D01*
X120957142Y-81161904D01*
X120795238Y-81323809D01*
X120633333Y-81404761D01*
%TO.C,C8*%
D10*
X120660333Y-67623500D02*
X120627000Y-67656833D01*
X120527000Y-67690166D01*
X120460333Y-67690166D01*
X120360333Y-67656833D01*
X120293666Y-67590166D01*
X120260333Y-67523500D01*
X120227000Y-67390166D01*
X120227000Y-67290166D01*
X120260333Y-67156833D01*
X120293666Y-67090166D01*
X120360333Y-67023500D01*
X120460333Y-66990166D01*
X120527000Y-66990166D01*
X120627000Y-67023500D01*
X120660333Y-67056833D01*
X121060333Y-67290166D02*
X120993666Y-67256833D01*
X120960333Y-67223500D01*
X120927000Y-67156833D01*
X120927000Y-67123500D01*
X120960333Y-67056833D01*
X120993666Y-67023500D01*
X121060333Y-66990166D01*
X121193666Y-66990166D01*
X121260333Y-67023500D01*
X121293666Y-67056833D01*
X121327000Y-67123500D01*
X121327000Y-67156833D01*
X121293666Y-67223500D01*
X121260333Y-67256833D01*
X121193666Y-67290166D01*
X121060333Y-67290166D01*
X120993666Y-67323500D01*
X120960333Y-67356833D01*
X120927000Y-67423500D01*
X120927000Y-67556833D01*
X120960333Y-67623500D01*
X120993666Y-67656833D01*
X121060333Y-67690166D01*
X121193666Y-67690166D01*
X121260333Y-67656833D01*
X121293666Y-67623500D01*
X121327000Y-67556833D01*
X121327000Y-67423500D01*
X121293666Y-67356833D01*
X121260333Y-67323500D01*
X121193666Y-67290166D01*
%TO.C,C7*%
X120660333Y-63826200D02*
X120627000Y-63859533D01*
X120527000Y-63892866D01*
X120460333Y-63892866D01*
X120360333Y-63859533D01*
X120293666Y-63792866D01*
X120260333Y-63726200D01*
X120227000Y-63592866D01*
X120227000Y-63492866D01*
X120260333Y-63359533D01*
X120293666Y-63292866D01*
X120360333Y-63226200D01*
X120460333Y-63192866D01*
X120527000Y-63192866D01*
X120627000Y-63226200D01*
X120660333Y-63259533D01*
X120893666Y-63192866D02*
X121360333Y-63192866D01*
X121060333Y-63892866D01*
%TO.C,C6*%
X103197833Y-54225000D02*
X103164500Y-54258333D01*
X103064500Y-54291666D01*
X102997833Y-54291666D01*
X102897833Y-54258333D01*
X102831166Y-54191666D01*
X102797833Y-54125000D01*
X102764500Y-53991666D01*
X102764500Y-53891666D01*
X102797833Y-53758333D01*
X102831166Y-53691666D01*
X102897833Y-53625000D01*
X102997833Y-53591666D01*
X103064500Y-53591666D01*
X103164500Y-53625000D01*
X103197833Y-53658333D01*
X103797833Y-53591666D02*
X103664500Y-53591666D01*
X103597833Y-53625000D01*
X103564500Y-53658333D01*
X103497833Y-53758333D01*
X103464500Y-53891666D01*
X103464500Y-54158333D01*
X103497833Y-54225000D01*
X103531166Y-54258333D01*
X103597833Y-54291666D01*
X103731166Y-54291666D01*
X103797833Y-54258333D01*
X103831166Y-54225000D01*
X103864500Y-54158333D01*
X103864500Y-53991666D01*
X103831166Y-53925000D01*
X103797833Y-53891666D01*
X103731166Y-53858333D01*
X103597833Y-53858333D01*
X103531166Y-53891666D01*
X103497833Y-53925000D01*
X103464500Y-53991666D01*
%TO.C,C5*%
X127800000Y-49233333D02*
X127766666Y-49200000D01*
X127733333Y-49100000D01*
X127733333Y-49033333D01*
X127766666Y-48933333D01*
X127833333Y-48866666D01*
X127900000Y-48833333D01*
X128033333Y-48800000D01*
X128133333Y-48800000D01*
X128266666Y-48833333D01*
X128333333Y-48866666D01*
X128400000Y-48933333D01*
X128433333Y-49033333D01*
X128433333Y-49100000D01*
X128400000Y-49200000D01*
X128366666Y-49233333D01*
X128433333Y-49866666D02*
X128433333Y-49533333D01*
X128100000Y-49500000D01*
X128133333Y-49533333D01*
X128166666Y-49600000D01*
X128166666Y-49766666D01*
X128133333Y-49833333D01*
X128100000Y-49866666D01*
X128033333Y-49900000D01*
X127866666Y-49900000D01*
X127800000Y-49866666D01*
X127766666Y-49833333D01*
X127733333Y-49766666D01*
X127733333Y-49600000D01*
X127766666Y-49533333D01*
X127800000Y-49500000D01*
%TO.C,C4*%
X123433333Y-52750000D02*
X123400000Y-52783333D01*
X123300000Y-52816666D01*
X123233333Y-52816666D01*
X123133333Y-52783333D01*
X123066666Y-52716666D01*
X123033333Y-52650000D01*
X123000000Y-52516666D01*
X123000000Y-52416666D01*
X123033333Y-52283333D01*
X123066666Y-52216666D01*
X123133333Y-52150000D01*
X123233333Y-52116666D01*
X123300000Y-52116666D01*
X123400000Y-52150000D01*
X123433333Y-52183333D01*
X124033333Y-52350000D02*
X124033333Y-52816666D01*
X123866666Y-52083333D02*
X123700000Y-52583333D01*
X124133333Y-52583333D01*
%TO.C,C3*%
X124818100Y-43421433D02*
X124784766Y-43388100D01*
X124751433Y-43288100D01*
X124751433Y-43221433D01*
X124784766Y-43121433D01*
X124851433Y-43054766D01*
X124918100Y-43021433D01*
X125051433Y-42988100D01*
X125151433Y-42988100D01*
X125284766Y-43021433D01*
X125351433Y-43054766D01*
X125418100Y-43121433D01*
X125451433Y-43221433D01*
X125451433Y-43288100D01*
X125418100Y-43388100D01*
X125384766Y-43421433D01*
X125451433Y-43654766D02*
X125451433Y-44088100D01*
X125184766Y-43854766D01*
X125184766Y-43954766D01*
X125151433Y-44021433D01*
X125118100Y-44054766D01*
X125051433Y-44088100D01*
X124884766Y-44088100D01*
X124818100Y-44054766D01*
X124784766Y-44021433D01*
X124751433Y-43954766D01*
X124751433Y-43754766D01*
X124784766Y-43688100D01*
X124818100Y-43654766D01*
%TO.C,C2*%
X124919700Y-45478833D02*
X124886366Y-45445500D01*
X124853033Y-45345500D01*
X124853033Y-45278833D01*
X124886366Y-45178833D01*
X124953033Y-45112166D01*
X125019700Y-45078833D01*
X125153033Y-45045500D01*
X125253033Y-45045500D01*
X125386366Y-45078833D01*
X125453033Y-45112166D01*
X125519700Y-45178833D01*
X125553033Y-45278833D01*
X125553033Y-45345500D01*
X125519700Y-45445500D01*
X125486366Y-45478833D01*
X125486366Y-45745500D02*
X125519700Y-45778833D01*
X125553033Y-45845500D01*
X125553033Y-46012166D01*
X125519700Y-46078833D01*
X125486366Y-46112166D01*
X125419700Y-46145500D01*
X125353033Y-46145500D01*
X125253033Y-46112166D01*
X124853033Y-45712166D01*
X124853033Y-46145500D01*
%TO.C,C1*%
X131302933Y-70658800D02*
X131269600Y-70692133D01*
X131169600Y-70725466D01*
X131102933Y-70725466D01*
X131002933Y-70692133D01*
X130936266Y-70625466D01*
X130902933Y-70558800D01*
X130869600Y-70425466D01*
X130869600Y-70325466D01*
X130902933Y-70192133D01*
X130936266Y-70125466D01*
X131002933Y-70058800D01*
X131102933Y-70025466D01*
X131169600Y-70025466D01*
X131269600Y-70058800D01*
X131302933Y-70092133D01*
X131969600Y-70725466D02*
X131569600Y-70725466D01*
X131769600Y-70725466D02*
X131769600Y-70025466D01*
X131702933Y-70125466D01*
X131636266Y-70192133D01*
X131569600Y-70225466D01*
%TD*%
M02*
