%TF.GenerationSoftware,KiCad,Pcbnew,5.1.5+dfsg1-2build2*%
%TF.CreationDate,2020-06-30T13:18:29+03:00*%
%TF.ProjectId,Lime2-SHIELD_RevB,4c696d65-322d-4534-9849-454c445f5265,D*%
%TF.SameCoordinates,Original*%
%TF.FileFunction,Soldermask,Bot*%
%TF.FilePolarity,Negative*%
%FSLAX46Y46*%
G04 Gerber Fmt 4.6, Leading zero omitted, Abs format (unit mm)*
G04 Created by KiCad (PCBNEW 5.1.5+dfsg1-2build2) date 2020-06-30 13:18:29*
%MOMM*%
%LPD*%
G04 APERTURE LIST*
%ADD10C,0.900000*%
%ADD11R,1.901600X0.801600*%
%ADD12C,1.254000*%
%ADD13C,1.001600*%
%ADD14R,0.801600X1.901600*%
%ADD15C,1.301600*%
%ADD16C,1.101600*%
%ADD17C,2.641600*%
%ADD18C,2.001600*%
G04 APERTURE END LIST*
D10*
%TO.C,GPIO4*%
X116460000Y-53600000D03*
D11*
X114428000Y-42805000D03*
X118492000Y-42805000D03*
X114428000Y-44075000D03*
X118492000Y-44075000D03*
X114428000Y-45345000D03*
X118492000Y-45345000D03*
X114428000Y-46615000D03*
X118492000Y-46615000D03*
X118492000Y-47885000D03*
X118492000Y-49155000D03*
X114428000Y-50425000D03*
X118492000Y-50425000D03*
X114428000Y-51695000D03*
X118492000Y-51695000D03*
X114428000Y-52965000D03*
X118492000Y-52965000D03*
X114428000Y-54235000D03*
X118492000Y-54235000D03*
D10*
X116460000Y-43440000D03*
%TD*%
D12*
%TO.C,Ref\002A*%
X104000000Y-99140000D03*
%TD*%
%TO.C,Ref\002A*%
X164300000Y-99330000D03*
%TD*%
%TO.C,Ref\002A*%
X164000000Y-51000000D03*
%TD*%
%TO.C,Ref\002A*%
X104000000Y-44000000D03*
%TD*%
D13*
%TO.C,GPIO1*%
X128270000Y-51435000D03*
D14*
X139065000Y-53467000D03*
X139065000Y-49403000D03*
X137795000Y-53467000D03*
X137795000Y-49403000D03*
X136525000Y-53467000D03*
X136525000Y-49403000D03*
X135255000Y-53467000D03*
X135255000Y-49403000D03*
X133985000Y-53467000D03*
X133985000Y-49403000D03*
X132715000Y-53467000D03*
X132715000Y-49403000D03*
X131445000Y-53467000D03*
X131445000Y-49403000D03*
X130175000Y-53467000D03*
X130175000Y-49403000D03*
X128905000Y-53467000D03*
X128905000Y-49403000D03*
X127635000Y-53467000D03*
X127635000Y-49403000D03*
X140335000Y-49403000D03*
X140335000Y-53467000D03*
X141605000Y-49403000D03*
X141605000Y-53467000D03*
X142875000Y-49403000D03*
X142875000Y-53467000D03*
X144145000Y-49403000D03*
X144145000Y-53467000D03*
X145415000Y-49403000D03*
X145415000Y-53467000D03*
X146685000Y-49403000D03*
X146685000Y-53467000D03*
X147955000Y-49403000D03*
X147955000Y-53467000D03*
X149225000Y-49403000D03*
X149225000Y-53467000D03*
X150495000Y-49403000D03*
X150495000Y-53467000D03*
X151765000Y-49403000D03*
X151765000Y-53467000D03*
D13*
X151130000Y-51435000D03*
%TD*%
D15*
%TO.C,UEXT2*%
X156273500Y-77597000D03*
X148653500Y-77597000D03*
%TD*%
%TO.C,UEXT1*%
X156400500Y-63182500D03*
X148780500Y-63182500D03*
%TD*%
D16*
%TO.C,MICRO_SD1*%
X128562000Y-56997800D03*
X136563000Y-56997800D03*
%TD*%
D15*
%TO.C,GPIO5*%
X157420000Y-92720000D03*
X111700000Y-92720000D03*
%TD*%
D13*
%TO.C,GPIO3*%
X135255000Y-98425000D03*
D14*
X146050000Y-100457000D03*
X146050000Y-96393000D03*
X144780000Y-100457000D03*
X144780000Y-96393000D03*
X143510000Y-100457000D03*
X143510000Y-96393000D03*
X142240000Y-100457000D03*
X142240000Y-96393000D03*
X140970000Y-100457000D03*
X140970000Y-96393000D03*
X139700000Y-100457000D03*
X139700000Y-96393000D03*
X138430000Y-100457000D03*
X138430000Y-96393000D03*
X137160000Y-100457000D03*
X137160000Y-96393000D03*
X135890000Y-100457000D03*
X135890000Y-96393000D03*
X134620000Y-100457000D03*
X134620000Y-96393000D03*
X147320000Y-96393000D03*
X147320000Y-100457000D03*
X148590000Y-96393000D03*
X148590000Y-100457000D03*
X149860000Y-96393000D03*
X149860000Y-100457000D03*
X151130000Y-96393000D03*
X151130000Y-100457000D03*
X152400000Y-96393000D03*
X152400000Y-100457000D03*
X153670000Y-96393000D03*
X153670000Y-100457000D03*
X154940000Y-96393000D03*
X154940000Y-100457000D03*
X156210000Y-96393000D03*
X156210000Y-100457000D03*
X157480000Y-96393000D03*
X157480000Y-100457000D03*
X158750000Y-96393000D03*
X158750000Y-100457000D03*
D13*
X158115000Y-98425000D03*
%TD*%
%TO.C,GPIO2*%
X128270000Y-92075000D03*
D14*
X139065000Y-94107000D03*
X139065000Y-90043000D03*
X137795000Y-94107000D03*
X137795000Y-90043000D03*
X136525000Y-94107000D03*
X136525000Y-90043000D03*
X135255000Y-94107000D03*
X135255000Y-90043000D03*
X133985000Y-94107000D03*
X133985000Y-90043000D03*
X132715000Y-94107000D03*
X132715000Y-90043000D03*
X131445000Y-94107000D03*
X131445000Y-90043000D03*
X130175000Y-94107000D03*
X130175000Y-90043000D03*
X128905000Y-94107000D03*
X128905000Y-90043000D03*
X127635000Y-94107000D03*
X127635000Y-90043000D03*
X140335000Y-90043000D03*
X140335000Y-94107000D03*
X141605000Y-90043000D03*
X141605000Y-94107000D03*
X142875000Y-90043000D03*
X142875000Y-94107000D03*
X144145000Y-90043000D03*
X144145000Y-94107000D03*
X145415000Y-90043000D03*
X145415000Y-94107000D03*
X146685000Y-90043000D03*
X146685000Y-94107000D03*
X147955000Y-90043000D03*
X147955000Y-94107000D03*
X149225000Y-90043000D03*
X149225000Y-94107000D03*
X150495000Y-90043000D03*
X150495000Y-94107000D03*
X151765000Y-90043000D03*
X151765000Y-94107000D03*
D13*
X151130000Y-92075000D03*
%TD*%
D17*
%TO.C,CAN1*%
X118670000Y-78200000D03*
X118670000Y-71200000D03*
X118670000Y-74700000D03*
%TD*%
D18*
%TO.C,AUDIO_JACK_5PIN2*%
X113840000Y-48260000D03*
X106840000Y-48260000D03*
%TD*%
%TO.C,AUDIO_JACK_5PIN1*%
X113920000Y-59560000D03*
X106920000Y-59560000D03*
%TD*%
M02*
