M48
; DRILL file {KiCad 5.1.5+dfsg1-2build2} date 30.06.2020 (вт) 13:18:32
; FORMAT={-:-/ absolute / metric / decimal}
; #@! TF.CreationDate,2020-06-30T13:18:32+03:00
; #@! TF.GenerationSoftware,Kicad,Pcbnew,5.1.5+dfsg1-2build2
; #@! TF.FileFunction,Plated,1,4,PTH
FMAT,2
METRIC
T1C0.400
T2C1.000
T3C1.900
%
G90
G05
T1
X103.05Y-65.05
X104.089Y-86.538
X104.089Y-89.078
X104.089Y-91.618
X104.089Y-94.158
X104.089Y-96.698
X105.84Y-53.735
X110.439Y-87.351
X110.439Y-97.739
X111.201Y-54.254
X112.966Y-87.566
X112.979Y-97.739
X115.506Y-87.566
X115.519Y-97.739
X117.0Y-42.75
X117.05Y-45.3
X117.729Y-63.055
X118.034Y-93.751
X118.046Y-87.566
X119.913Y-54.229
X120.587Y-87.566
X120.599Y-97.739
X122.047Y-65.303
X123.114Y-93.751
X123.19Y-87.566
X123.647Y-81.28
X123.86Y-60.239
X123.86Y-64.329
X123.9Y-74.7
X124.777Y-43.053
X124.8Y-51.45
X126.45Y-47.55
X127.381Y-92.659
X127.75Y-42.6
X127.85Y-46.7
X128.219Y-87.274
X128.3Y-72.55
X128.905Y-55.27
X129.108Y-92.659
X129.597Y-95.834
X130.759Y-87.478
X131.127Y-78.74
X131.45Y-59.8
X131.655Y-65.043
X132.029Y-95.529
X132.715Y-50.863
X132.842Y-71.247
X133.274Y-87.478
X133.794Y-65.906
X133.985Y-50.863
X134.264Y-79.985
X134.527Y-60.268
X134.849Y-69.139
X134.938Y-74.486
X135.255Y-91.901
X135.319Y-60.896
X135.839Y-87.528
X135.839Y-92.761
X135.953Y-64.96
X136.525Y-91.885
X136.969Y-64.96
X137.795Y-50.927
X137.795Y-91.885
X138.354Y-76.784
X138.379Y-87.579
X138.811Y-50.927
X139.36Y-63.307
X139.636Y-70.675
X139.688Y-71.408
X140.242Y-60.867
X140.335Y-59.944
X140.894Y-99.314
X141.444Y-71.408
X141.541Y-92.9
X142.049Y-70.675
X142.24Y-99.308
X142.875Y-55.435
X142.875Y-92.705
X143.51Y-99.308
X144.145Y-55.435
X144.145Y-92.71
X144.78Y-99.308
X145.415Y-50.863
X145.415Y-92.837
X146.05Y-99.308
X146.65Y-51.95
X146.685Y-50.863
X146.685Y-92.9
X147.32Y-99.308
X147.371Y-76.708
X147.396Y-78.486
X147.498Y-62.484
X147.523Y-64.008
X148.57Y-82.975
X148.584Y-87.325
X148.653Y-50.99
X149.501Y-82.584
X149.542Y-50.99
X151.13Y-71.23
X151.765Y-92.837
X152.463Y-70.675
X153.594Y-93.675
X153.733Y-83.693
X154.94Y-99.123
X155.004Y-82.995
X155.067Y-56.515
X155.118Y-68.555
X156.147Y-84.391
X156.21Y-99.123
X156.4Y-56.451
X157.353Y-94.463
X157.543Y-83.693
X157.671Y-57.704
X157.683Y-68.504
X158.674Y-87.503
X158.674Y-91.8
X158.814Y-57.15
T2
X118.67Y-71.2
X118.67Y-74.7
X118.67Y-78.2
T3
X106.84Y-48.26
X113.84Y-48.26
X106.92Y-59.56
X113.92Y-59.56
T0
M30
